<svg width="764" height="449" viewBox="0 0 764 449" fill="none" xmlns="http://www.w3.org/2000/svg">
<path d="M120.029 448.043L5.01499 323.6C2.3114 320.677 0.617874 316.964 0.183174 313.008C-0.251526 309.052 0.595539 305.06 2.59999 301.62L151.044 47.0137C153.038 43.5964 155.812 40.6992 159.14 38.558C162.469 36.4168 166.257 35.0924 170.195 34.6936L509.853 0.30363C513.342 -0.0487162 516.868 0.333797 520.201 1.42704C523.534 2.52028 526.601 4.30011 529.203 6.6507L757.058 212.387C759.829 214.89 761.785 218.168 762.667 221.796C763.548 225.423 763.319 229.232 762.003 232.726L680.913 448.043H120.029Z" fill="#F4F4F4"/>
<path d="M348.549 194.535C348.549 194.535 354.146 195.302 379.847 194.771C386.802 198.994 416.942 196.309 428.823 195.187C442.559 197.733 449.351 191.084 443.247 187.494C441.369 186.384 438.26 185.57 433.75 185.401C434.046 171.114 398.684 166.426 388.831 187.271C383.621 183.048 372.741 183.44 372.023 189.154C361.964 187.307 354.019 189.389 350.378 191.567C348.446 192.713 347.728 193.89 348.549 194.535Z" fill="white"/>
<path opacity="0.08" d="M348.549 194.535C348.549 194.535 354.146 195.301 379.847 194.77C386.802 198.993 416.942 196.309 428.823 195.186C442.559 197.732 449.351 191.084 443.247 187.494C443.295 188.387 442.992 189.265 442.402 189.937C441.007 191.53 438.381 192.194 435.984 191.989C433.651 191.709 431.401 190.953 429.373 189.768C428.436 189.161 427.387 188.751 426.288 188.562C424.253 188.363 422.496 189.648 421.065 190.836C419.858 188.93 416.893 187.898 414.382 188.526C411.87 189.153 410.155 191.379 410.488 193.491C405.567 192.61 400.55 194.963 395.539 194.589C389.821 194.155 384.671 190.239 379.056 191.234C377.637 191.482 376.327 192.043 374.902 192.278C373.488 192.444 372.061 192.482 370.64 192.393C366.058 192.308 361.475 192.894 356.905 192.664C354.686 192.573 352.488 192.206 350.36 191.572C348.446 192.713 347.728 193.889 348.549 194.535Z" fill="#21252B"/>
<path d="M155.011 406.678H282.559V157.942H155.011V406.678Z" fill="#E6E6E6"/>
<path d="M178.201 406.678H282.559V157.942H178.201V406.678Z" fill="#F0F0F0"/>
<path d="M153.513 162.003H285.3V157.943H153.513V162.003Z" fill="#E0E0E0"/>
<path d="M153.513 153.882H285.3V149.821H153.513V153.882Z" fill="#E0E0E0"/>
<path d="M156.291 157.943H282.565V153.882H156.291V157.943Z" fill="#F0F0F0"/>
<path d="M253.06 192.176H272.657V172.592H253.06V192.176Z" fill="#E6E6E6"/>
<path d="M253.06 192.176H270.931V172.592H253.06V192.176Z" fill="#F5F5F5"/>
<path d="M223.367 192.176H242.971V172.592H223.367V192.176Z" fill="#E6E6E6"/>
<path d="M223.373 192.176H241.244V172.592H223.373V192.176Z" fill="#F5F5F5"/>
<path d="M193.687 192.176H213.291V172.592H193.687V192.176Z" fill="#E6E6E6"/>
<path d="M193.693 192.176H211.564V172.592H193.693V192.176Z" fill="#F5F5F5"/>
<path d="M253.06 221.016H272.657V201.431H253.06V221.016Z" fill="#E6E6E6"/>
<path d="M253.06 221.016H270.931V201.431H253.06V221.016Z" fill="#F5F5F5"/>
<path d="M223.367 221.016H242.971V201.431H223.367V221.016Z" fill="#E6E6E6"/>
<path d="M223.373 221.016H241.244V201.431H223.373V221.016Z" fill="#F5F5F5"/>
<path d="M193.687 221.016H213.291V201.431H193.687V221.016Z" fill="#E6E6E6"/>
<path d="M193.693 221.016H211.564V201.431H193.693V221.016Z" fill="#F5F5F5"/>
<path d="M253.06 273.837H272.657V254.247H253.06V273.837Z" fill="#E6E6E6"/>
<path d="M253.06 273.837H270.931V254.247H253.06V273.837Z" fill="#F5F5F5"/>
<path d="M223.367 273.837H242.971V254.247H223.367V273.837Z" fill="#E6E6E6"/>
<path d="M223.373 273.837H241.244V254.247H223.373V273.837Z" fill="#F5F5F5"/>
<path d="M193.687 273.837H213.291V254.247H193.687V273.837Z" fill="#E6E6E6"/>
<path d="M193.693 273.837H211.564V254.247H193.693V273.837Z" fill="#F5F5F5"/>
<path d="M253.06 302.677H272.657V283.087H253.06V302.677Z" fill="#E6E6E6"/>
<path d="M253.06 302.677H270.931V283.087H253.06V302.677Z" fill="#F5F5F5"/>
<path d="M223.367 302.677H242.971V283.087H223.367V302.677Z" fill="#E6E6E6"/>
<path d="M223.373 302.677H241.244V283.087H223.373V302.677Z" fill="#F5F5F5"/>
<path d="M193.687 302.677H213.291V283.087H193.687V302.677Z" fill="#E6E6E6"/>
<path d="M193.693 302.677H211.564V283.087H193.693V302.677Z" fill="#F5F5F5"/>
<path d="M253.06 361.375H272.657V341.784H253.06V361.375Z" fill="#E6E6E6"/>
<path d="M253.06 361.375H270.931V341.784H253.06V361.375Z" fill="#F5F5F5"/>
<path d="M223.367 361.375H242.971V341.784H223.367V361.375Z" fill="#E6E6E6"/>
<path d="M223.373 361.375H241.244V341.784H223.373V361.375Z" fill="#F5F5F5"/>
<path d="M193.687 361.375H213.291V341.784H193.687V361.375Z" fill="#E6E6E6"/>
<path d="M193.693 361.375H211.564V341.784H193.693V361.375Z" fill="#F5F5F5"/>
<path d="M253.06 390.22H272.657V370.63H253.06V390.22Z" fill="#E6E6E6"/>
<path d="M253.06 390.22H270.931V370.63H253.06V390.22Z" fill="#F5F5F5"/>
<path d="M223.367 390.22H242.971V370.63H223.367V390.22Z" fill="#E6E6E6"/>
<path d="M223.373 390.22H241.244V370.63H223.373V390.22Z" fill="#F5F5F5"/>
<path d="M193.687 390.22H213.291V370.63H193.687V390.22Z" fill="#E6E6E6"/>
<path d="M193.693 390.22H211.564V370.63H193.693V390.22Z" fill="#F5F5F5"/>
<path d="M155.011 236.599H282.559V234.789H155.011V236.599Z" fill="#E0E0E0"/>
<path d="M155.011 326.882H282.559V325.072H155.011V326.882Z" fill="#E0E0E0"/>
<path d="M519.199 230.849H430.985V445.358H519.199V230.849Z" fill="#E0E0E0"/>
<path d="M494.077 230.849H430.985V445.358H494.077V230.849Z" fill="#F0F0F0"/>
<path d="M460.967 248.479H437.487V259.87H460.967V248.479Z" fill="#E6E6E6"/>
<path d="M460.967 248.479H439.051V259.87H460.967V248.479Z" fill="#F5F5F5"/>
<path d="M488.124 248.479H464.644V259.87H488.124V248.479Z" fill="#E6E6E6"/>
<path d="M488.124 248.479H466.208V259.87H488.124V248.479Z" fill="#F5F5F5"/>
<path d="M460.967 269.915H437.487V281.306H460.967V269.915Z" fill="#E6E6E6"/>
<path d="M460.967 269.915H439.051V281.306H460.967V269.915Z" fill="#F5F5F5"/>
<path d="M488.124 269.915H464.644V281.306H488.124V269.915Z" fill="#E6E6E6"/>
<path d="M488.124 269.915H466.208V281.306H488.124V269.915Z" fill="#F5F5F5"/>
<path d="M460.967 297.319H437.487V308.71H460.967V297.319Z" fill="#E6E6E6"/>
<path d="M460.967 297.319H439.051V308.71H460.967V297.319Z" fill="#F5F5F5"/>
<path d="M488.124 297.319H464.644V308.71H488.124V297.319Z" fill="#E6E6E6"/>
<path d="M488.124 297.319H466.208V308.71H488.124V297.319Z" fill="#F5F5F5"/>
<path d="M460.967 313.06H437.487V324.451H460.967V313.06Z" fill="#E6E6E6"/>
<path d="M460.967 313.06H439.051V324.451H460.967V313.06Z" fill="#F5F5F5"/>
<path d="M488.124 313.06H464.644V324.451H488.124V313.06Z" fill="#E6E6E6"/>
<path d="M488.124 313.06H466.208V324.451H488.124V313.06Z" fill="#F5F5F5"/>
<path d="M460.967 338.925H437.487V350.316H460.967V338.925Z" fill="#E6E6E6"/>
<path d="M460.967 338.925H439.051V350.316H460.967V338.925Z" fill="#F5F5F5"/>
<path d="M488.124 338.925H464.644V350.316H488.124V338.925Z" fill="#E6E6E6"/>
<path d="M488.124 338.925H466.208V350.316H488.124V338.925Z" fill="#F5F5F5"/>
<path d="M460.967 354.671H437.487V366.062H460.967V354.671Z" fill="#E6E6E6"/>
<path d="M460.967 354.671H439.051V366.062H460.967V354.671Z" fill="#F5F5F5"/>
<path d="M488.124 354.671H464.644V366.062H488.124V354.671Z" fill="#E6E6E6"/>
<path d="M488.124 354.671H466.208V366.062H488.124V354.671Z" fill="#F5F5F5"/>
<path d="M460.967 382.818H437.487V394.209H460.967V382.818Z" fill="#E6E6E6"/>
<path d="M460.967 382.818H439.051V394.209H460.967V382.818Z" fill="#F5F5F5"/>
<path d="M488.124 382.818H464.644V394.209H488.124V382.818Z" fill="#E6E6E6"/>
<path d="M488.124 382.818H466.208V394.209H488.124V382.818Z" fill="#F5F5F5"/>
<path d="M460.967 403.608H437.487V414.999H460.967V403.608Z" fill="#E6E6E6"/>
<path d="M460.967 403.608H439.051V414.999H460.967V403.608Z" fill="#F5F5F5"/>
<path d="M488.124 403.608H464.644V414.999H488.124V403.608Z" fill="#E6E6E6"/>
<path d="M488.124 403.608H466.208V414.999H488.124V403.608Z" fill="#F5F5F5"/>
<path opacity="0.05" d="M519.199 288.328H430.985V290.289H519.199V288.328Z" fill="black"/>
<path opacity="0.05" d="M519.199 330.707H430.985V332.668H519.199V330.707Z" fill="black"/>
<path opacity="0.05" d="M519.199 373.46H430.985V375.421H519.199V373.46Z" fill="black"/>
<path d="M519.199 224.502H426.831V231.356H519.199V224.502Z" fill="#E0E0E0"/>
<path opacity="0.05" d="M519.199 224.502H498.092V231.356H519.199V224.502Z" fill="black"/>
<path d="M653.793 166.697V401.774L641.857 435.729H550.207V166.697H653.793Z" fill="#E6E6E6"/>
<path d="M615.448 166.697H511.857V435.735H615.448V166.697Z" fill="#F0F0F0"/>
<path d="M606.41 184.959H520.895V198.661H606.41V184.959Z" fill="#E6E6E6"/>
<path d="M606.41 184.959H524.216V198.661H606.41V184.959Z" fill="#F5F5F5"/>
<path d="M606.41 208.025H520.895V221.727H606.41V208.025Z" fill="#E6E6E6"/>
<path d="M606.41 208.025H524.216V221.727H606.41V208.025Z" fill="#F5F5F5"/>
<path d="M606.41 232.002H520.895V245.703H606.41V232.002Z" fill="#E6E6E6"/>
<path d="M606.41 232.002H524.216V245.703H606.41V232.002Z" fill="#F5F5F5"/>
<path d="M606.41 255.972H520.895V269.674H606.41V255.972Z" fill="#E6E6E6"/>
<path d="M606.41 255.972H524.216V269.674H606.41V255.972Z" fill="#F5F5F5"/>
<path d="M606.41 279.949H520.895V293.651H606.41V279.949Z" fill="#E6E6E6"/>
<path d="M606.41 279.949H524.216V293.651H606.41V279.949Z" fill="#F5F5F5"/>
<path d="M606.41 303.918H520.895V317.62H606.41V303.918Z" fill="#E6E6E6"/>
<path d="M606.41 303.918H524.216V317.62H606.41V303.918Z" fill="#F5F5F5"/>
<path d="M606.41 330.339H520.895V344.041H606.41V330.339Z" fill="#E6E6E6"/>
<path d="M606.41 330.339H524.216V344.041H606.41V330.339Z" fill="#F5F5F5"/>
<path d="M606.41 356.766H520.895V370.467H606.41V356.766Z" fill="#E6E6E6"/>
<path d="M606.41 356.766H524.216V370.467H606.41V356.766Z" fill="#F5F5F5"/>
<path d="M606.41 383.185H520.895V396.887H606.41V383.185Z" fill="#E6E6E6"/>
<path d="M606.41 383.185H524.216V396.887H606.41V383.185Z" fill="#F5F5F5"/>
<path d="M606.41 409.604H520.895V423.306H606.41V409.604Z" fill="#E6E6E6"/>
<path d="M606.41 409.604H524.216V423.306H606.41V409.604Z" fill="#F5F5F5"/>
<path d="M656.485 163.987H508.929V170.552H656.485V163.987Z" fill="#E0E0E0"/>
<path d="M656.485 152.145H508.929V158.709H656.485V152.145Z" fill="#E0E0E0"/>
<path d="M651.583 157.424H511.857V163.989H651.583V157.424Z" fill="#F0F0F0"/>
<path d="M653.793 184.953H624.927V198.661H653.793V184.953Z" fill="#E0E0E0"/>
<path d="M653.793 207.512H624.927V221.22H653.793V207.512Z" fill="#E0E0E0"/>
<path d="M653.793 230.072H624.927V243.779H653.793V230.072Z" fill="#E0E0E0"/>
<path d="M653.793 255.972H624.927V269.68H653.793V255.972Z" fill="#E0E0E0"/>
<path d="M653.793 279.943H624.927V293.651H653.793V279.943Z" fill="#E0E0E0"/>
<path d="M653.793 303.918H624.927V317.626H653.793V303.918Z" fill="#E0E0E0"/>
<path d="M653.793 330.339H624.927V344.047H653.793V330.339Z" fill="#E0E0E0"/>
<path d="M653.793 356.758H624.927V370.466H653.793V356.758Z" fill="#E0E0E0"/>
<path d="M653.793 383.179H624.927V396.887H653.793V383.179Z" fill="#E0E0E0"/>
<path d="M755.832 210.891L755.108 210.233C742.918 217.552 737.732 230.288 737.732 230.288C732.159 223.706 721.322 212.647 713.648 215.808C702.908 220.273 718.37 236.279 718.37 236.279C681.607 248.382 687.898 274.44 687.898 274.44C684.191 270.923 679.766 268.654 674.616 269.161C656.371 270.971 669.182 294.664 669.182 294.664C601.653 287.249 597.463 331.226 597.463 331.226C597.463 331.226 589.723 303.273 580.334 304.933C570.946 306.592 576.048 336.602 576.048 336.602C576.048 336.602 569.956 318.592 558.581 322.164C547.207 325.736 558.581 352.192 558.581 352.192C525.375 353.519 531.539 372.102 531.539 372.102C524.892 369.01 517.647 367.43 510.318 367.474C485.485 367.378 480.529 381.821 479.677 385.405L479.11 384.88C475.668 376.18 456.24 366.78 442.957 365.688C439.246 365.384 435.521 365.288 431.8 365.399C428.418 365.288 425.032 365.385 421.663 365.688C417.083 366.214 412.607 367.416 408.38 369.254C400.509 371.708 393.048 375.32 386.241 379.969C383.222 374.491 376.303 367.408 360.485 367.474C353.781 367.443 347.17 369.03 341.213 372.102C341.213 372.102 346.828 353.495 316.653 352.192C316.653 352.192 326.983 325.736 316.653 322.164C306.322 318.592 300.852 336.632 300.852 336.632C300.852 336.632 305.495 306.622 296.964 304.963C288.433 303.304 281.406 331.256 281.406 331.256C281.406 331.256 277.602 287.279 216.261 294.694C216.261 294.694 227.913 270.989 211.347 269.191C206.686 268.684 202.671 270.953 199.302 274.47C199.302 274.47 205.019 248.412 171.626 236.31C171.626 236.31 185.669 220.303 175.912 215.838C168.945 212.647 159.098 223.682 154.039 230.318C154.039 230.318 146.003 212.357 128.512 206.01C69.0125 184.387 72.635 276.697 72.635 276.697C13.4675 270.06 -2.39301 311.539 3.8075 321.947L61.1638 384.15L118.822 446.535H679.706L760.777 231.229C762.093 227.735 762.323 223.926 761.441 220.299C760.56 216.672 758.604 213.393 755.832 210.891Z" fill="#D9DCDE"/>
<path d="M736.724 295.104C726.116 300.613 723.707 308.764 723.707 308.764C717.066 309.373 710.714 311.803 705.365 315.787C691.008 326.713 701.139 341.06 701.139 341.06C696.653 337.543 689.245 334.605 678.8 339.558C666.302 345.471 669.659 359.92 669.659 359.92C619.639 347.981 609.514 385.96 609.514 385.96C588.292 389.074 593.744 400.971 593.744 400.971C534.051 395.089 537.209 430.866 537.209 430.866C536.303 426.04 533.139 421.213 527.862 421.062C517.399 420.767 520.237 431.922 520.237 431.922C520.237 431.922 505.282 414.739 493.449 420.163C482.78 425.056 486.874 443.09 487.761 446.535H679.706L736.724 295.104Z" fill="#AFB3B8"/>
<path d="M118.822 446.535H396.142C404.323 412.748 377.692 414.558 363.6 432.206C367.464 420.7 349.931 415.397 346.623 431.168C346.623 431.168 349.78 395.39 290.088 401.273C290.088 401.273 293.608 372.627 263.42 387.107C263.42 387.107 263.42 354.527 218.743 373.833C223.573 358.466 182.777 347.504 167.424 359.353C176.758 346.985 180.706 310.483 140.255 324.36C140.255 324.36 134.272 308.577 122.143 305.053C110.671 301.717 93.3738 310.351 81.0875 319.533C62.7878 292.064 29.479 308.535 24.9388 326.773C20.954 331.835 21.8838 335.594 21.5759 341.338L118.822 446.535Z" fill="#AFB3B8"/>
<path d="M309.691 327.027C307.536 362.69 310.464 400.435 308.635 436.14L321.38 437.787L321.887 430.51L321.984 430.547C324.399 396.76 330.835 360.482 333.986 326.61L309.691 327.027Z" fill="#FC9D9D"/>
<path d="M322.865 419.923H309.16C309.07 425.353 308.913 430.783 308.635 436.14L314.57 436.906L321.483 436.303L321.887 430.493L321.984 430.529C322.237 427.018 322.545 423.476 322.877 419.917L322.865 419.923Z" fill="white"/>
<path d="M308.375 431.368L308.333 432.623C308.322 433.691 308.13 434.75 307.765 435.754L306.202 440.14C305.771 441.382 305.55 442.687 305.55 444.002V444.219C305.557 444.433 305.606 444.644 305.696 444.839C305.785 445.035 305.913 445.21 306.071 445.355C306.228 445.5 306.414 445.613 306.615 445.686C306.818 445.76 307.032 445.792 307.246 445.781H322.847C323.278 445.794 323.698 445.638 324.015 445.346C324.332 445.054 324.522 444.649 324.544 444.219V443.658C324.544 442.521 324.367 441.391 324.018 440.309L322.672 435.839C322.377 434.926 322.23 433.973 322.237 433.015V431.368C322.229 430.331 321.826 429.336 321.108 428.586L320.891 428.327C319.459 426.869 317.508 426.038 315.464 426.013C313.42 425.988 311.449 426.772 309.981 428.194L309.595 428.586C308.868 429.337 308.435 430.324 308.375 431.368Z" fill="#2196F3"/>
<path opacity="0.6" d="M305.55 443.006H324.501C324.536 443.221 324.551 443.439 324.544 443.657V444.218C324.537 444.433 324.488 444.644 324.398 444.839C324.308 445.034 324.181 445.209 324.023 445.355C323.865 445.5 323.68 445.613 323.478 445.686C323.276 445.759 323.062 445.792 322.847 445.781H307.246C306.815 445.794 306.396 445.638 306.079 445.346C305.762 445.054 305.572 444.649 305.55 444.218V443.012V443.006Z" fill="black"/>
<path d="M318.675 432.061C318.714 431.967 318.717 431.863 318.685 431.766C318.653 431.669 318.588 431.588 318.5 431.536C317.492 431.043 316.386 430.787 315.264 430.787C314.142 430.787 313.036 431.043 312.028 431.536C311.981 431.558 311.94 431.59 311.906 431.629C311.872 431.668 311.846 431.713 311.829 431.762C311.813 431.811 311.807 431.863 311.811 431.914C311.815 431.965 311.829 432.015 311.853 432.061C311.875 432.108 311.905 432.149 311.944 432.183C311.982 432.217 312.027 432.243 312.075 432.259C312.123 432.275 312.175 432.282 312.226 432.278C312.277 432.274 312.327 432.26 312.372 432.236C313.268 431.81 314.248 431.589 315.24 431.589C316.232 431.589 317.212 431.81 318.108 432.236C318.16 432.269 318.221 432.284 318.283 432.278C318.361 432.278 318.438 432.258 318.507 432.22C318.576 432.182 318.634 432.127 318.675 432.061Z" fill="white"/>
<path d="M318.675 434.059C318.714 433.965 318.717 433.861 318.685 433.766C318.653 433.671 318.587 433.591 318.5 433.54C317.494 433.044 316.386 432.786 315.264 432.786C314.142 432.786 313.034 433.044 312.028 433.54C311.936 433.585 311.865 433.665 311.833 433.763C311.8 433.86 311.807 433.966 311.853 434.059C311.899 434.15 311.979 434.22 312.076 434.254C312.173 434.286 312.28 434.279 312.372 434.234C313.267 433.805 314.247 433.583 315.24 433.583C316.232 433.583 317.212 433.805 318.108 434.234C318.16 434.266 318.221 434.281 318.283 434.276C318.361 434.275 318.439 434.255 318.507 434.217C318.576 434.179 318.634 434.125 318.675 434.059Z" fill="white"/>
<path d="M318.675 436.013C318.714 435.919 318.717 435.815 318.685 435.718C318.653 435.622 318.588 435.54 318.5 435.489C317.492 434.996 316.386 434.739 315.264 434.739C314.142 434.739 313.036 434.996 312.028 435.489C311.981 435.511 311.94 435.542 311.906 435.581C311.872 435.62 311.846 435.665 311.829 435.714C311.813 435.763 311.807 435.814 311.811 435.866C311.815 435.918 311.829 435.968 311.853 436.013C311.875 436.059 311.905 436.101 311.944 436.135C311.982 436.169 312.027 436.195 312.075 436.211C312.123 436.228 312.175 436.234 312.226 436.23C312.277 436.226 312.327 436.212 312.372 436.188C313.268 435.762 314.248 435.542 315.24 435.542C316.232 435.542 317.212 435.762 318.108 436.188C318.16 436.222 318.221 436.236 318.283 436.231C318.361 436.231 318.438 436.21 318.507 436.172C318.576 436.135 318.634 436.08 318.675 436.013Z" fill="white"/>
<path d="M382.962 437.413L372.699 429.708C371.879 429.075 371.203 428.275 370.715 427.36C370.228 426.446 369.941 425.438 369.873 424.405L371.491 352.113C371.491 351.721 371.491 351.335 371.455 350.943L369.644 326.472L344.286 329.307L348.965 357.423V358.026C348.408 369.93 349.28 381.859 351.561 393.556L351.948 395.559C353.282 402.552 354.84 411.898 355.884 420.507L357.231 436.767L382.962 437.413Z" fill="#FC9D9D"/>
<path d="M355.921 420.49L357.267 436.75L382.963 437.413L372.699 429.709C371.879 429.075 371.203 428.275 370.715 427.36C370.228 426.446 369.941 425.439 369.873 424.405L370.217 419.923L355.915 420.49" fill="white"/>
<path opacity="0.15" d="M358.209 427.53C358.456 430.408 362.489 432.248 365.2 433.334L369.076 434.873L357.273 436.164L356.065 421.829C355.027 412.857 353.379 402.902 351.972 395.541L351.586 393.538C349.304 381.841 348.432 369.912 348.99 358.008V357.405L346.134 337.633L350.964 337.03L353.379 356.94C353.379 356.94 351.568 379.867 355.48 397.743C355.48 397.743 357.05 412.223 357.895 421.829C358.028 423.373 358.136 424.791 358.221 425.998L358.209 427.53Z" fill="black"/>
<path d="M357.068 430.787L362.822 432.597C363.234 432.726 363.671 432.747 364.094 432.66C364.517 432.572 364.91 432.378 365.237 432.097L369.783 428.223C370.279 427.798 370.907 427.557 371.561 427.541C372.215 427.526 372.853 427.737 373.369 428.139L383.633 436.097L391.724 438.764C392.885 439.157 393.895 439.902 394.612 440.896C395.33 441.89 395.719 443.083 395.726 444.308C395.725 444.65 395.588 444.978 395.346 445.22C395.104 445.462 394.776 445.598 394.434 445.599H358.571C358.165 445.601 357.763 445.523 357.388 445.368C357.013 445.214 356.672 444.987 356.384 444.7C356.097 444.414 355.869 444.073 355.714 443.699C355.559 443.324 355.479 442.922 355.48 442.516V431.958C355.484 431.768 355.531 431.58 355.619 431.411C355.706 431.242 355.832 431.095 355.985 430.982C356.139 430.869 356.316 430.792 356.504 430.758C356.692 430.725 356.885 430.735 357.068 430.787Z" fill="#2196F3"/>
<path opacity="0.6" d="M355.522 443H395.557C395.678 443.419 395.735 443.854 395.726 444.291C395.724 444.633 395.588 444.96 395.345 445.202C395.103 445.444 394.776 445.581 394.434 445.582H358.571C357.839 445.581 357.132 445.321 356.574 444.848C356.016 444.376 355.643 443.721 355.522 443Z" fill="black"/>
<path d="M373.411 432.248L375.585 429.913C375.643 429.85 375.675 429.768 375.675 429.684C375.675 429.599 375.643 429.517 375.585 429.455C375.524 429.394 375.441 429.36 375.355 429.36C375.27 429.36 375.187 429.394 375.126 429.455L372.952 431.79C372.895 431.852 372.862 431.934 372.862 432.019C372.862 432.103 372.895 432.185 372.952 432.248C373.01 432.301 373.085 432.331 373.164 432.333C373.252 432.325 373.337 432.296 373.411 432.248Z" fill="white"/>
<path d="M375.114 433.563L377.281 431.228C377.342 431.167 377.376 431.085 377.376 430.999C377.376 430.913 377.342 430.831 377.281 430.769C377.219 430.712 377.137 430.68 377.052 430.68C376.967 430.68 376.885 430.712 376.822 430.769L374.655 433.104C374.594 433.165 374.561 433.248 374.561 433.333C374.561 433.42 374.594 433.502 374.655 433.563C374.71 433.616 374.784 433.646 374.86 433.647C374.95 433.639 375.037 433.61 375.114 433.563Z" fill="white"/>
<path d="M376.834 434.915L379.002 432.58C379.062 432.518 379.096 432.436 379.096 432.351C379.096 432.264 379.062 432.182 379.002 432.121C378.939 432.063 378.858 432.032 378.772 432.032C378.687 432.032 378.605 432.063 378.543 432.121L376.376 434.456C376.315 434.517 376.281 434.599 376.281 434.686C376.281 434.771 376.315 434.853 376.376 434.915C376.432 434.966 376.505 434.996 376.581 434.999C376.673 435.005 376.764 434.975 376.834 434.915Z" fill="white"/>
<path d="M335.007 338.84L307.476 338.798L309.063 302.194C309.225 298.473 309.106 294.746 308.707 291.044C307.904 283.532 308.104 276.697 308.52 268.54L309.305 264.63L363.848 270.446L371.304 334.9L343.912 337.736L338.285 300.83L335.007 338.84Z" fill="#21252B"/>
<g opacity="0.3">
<path opacity="0.3" d="M338.889 301.439L338.285 301.427L338.587 274.349H341.563V290.784L339.764 294.332L339.221 294.054L340.96 290.639V274.952H339.191L338.889 301.439Z" fill="black"/>
</g>
<path opacity="0.3" d="M312.414 338.84L313.779 313.138C313.987 309.471 313.987 305.794 313.779 302.127C313.223 292.836 313.544 283.514 314.739 274.283L308.098 269.457V277.903C307.826 281.976 308.206 284.769 308.43 288.848C309.177 295.39 309.379 301.983 309.033 308.559L307.494 338.84H312.414Z" fill="black"/>
<g opacity="0.3">
<path opacity="0.3" d="M363.697 284.462C357.967 279.213 356.373 271.792 356.355 271.749L356.959 271.629C356.959 271.701 358.535 278.869 364.119 284.015L363.697 284.462Z" fill="black"/>
</g>
<path opacity="0.3" d="M343.912 337.735L347.879 337.132L342.511 304.824C341.823 299.912 338.285 301.433 338.285 301.433L343.912 337.735Z" fill="black"/>
<path d="M300.153 225.751L300.757 220.007L305.779 238.487L307.59 274.651L323.741 275.743C337.705 276.77 351.733 274.939 364.965 270.361C363.83 245.98 359.531 213.376 359.531 213.376L358.028 203.331L377.348 193.677L369.499 175.457L360.83 177.436C356.809 177.942 347.203 179.777 347.203 179.777L331.227 180.483L311.146 179.578L289.713 187.234C282.68 190.745 282.68 200.791 282.68 200.791L280.766 223.717L300.153 225.751Z" fill="#2196F3"/>
<path d="M300.526 288.461L298.437 253.769L298.347 253.812L297.665 243.006L298.945 225.751L281.979 223.772L281.738 241.763C281.639 242.977 281.734 244.199 282.015 245.383L284.606 260.515L292.454 290.681L300.526 288.461Z" fill="#FC9D9D"/>
<path d="M398.111 173.684C390.902 162.619 358.076 146.462 358.076 146.462L351.568 151.807L377.366 173.684L369.517 175.494L377.366 193.715L392.804 186.016C401.395 181.733 398.111 173.684 398.111 173.684Z" fill="#FC9D9D"/>
<path d="M308.577 300.451L288.569 295.628C288.287 295.56 288.003 295.733 287.936 296.015L285.634 305.552C285.566 305.833 285.739 306.117 286.021 306.185L306.03 311.008C306.312 311.076 306.595 310.902 306.663 310.62L308.965 301.083C309.033 300.802 308.859 300.518 308.577 300.451Z" fill="#21252B"/>
<path opacity="0.3" d="M308.577 300.451L288.569 295.628C288.287 295.56 288.003 295.733 287.936 296.015L285.634 305.552C285.566 305.833 285.739 306.117 286.021 306.185L306.03 311.008C306.312 311.076 306.595 310.902 306.663 310.62L308.965 301.083C309.033 300.802 308.859 300.518 308.577 300.451Z" fill="black"/>
<path d="M307.894 300.276L287.886 295.454C287.604 295.386 287.32 295.559 287.252 295.841L284.95 305.377C284.883 305.659 285.056 305.943 285.338 306.011L305.346 310.833C305.628 310.901 305.912 310.728 305.98 310.446L308.282 300.909C308.35 300.627 308.176 300.344 307.894 300.276Z" fill="#21252B"/>
<path opacity="0.4" d="M306.534 302.157C306.662 302.037 306.742 301.876 306.76 301.702C306.777 301.527 306.731 301.353 306.63 301.21C306.579 301.144 306.516 301.09 306.443 301.05C306.37 301.01 306.289 300.986 306.207 300.978C306.124 300.971 306.04 300.981 305.961 301.007C305.883 301.033 305.81 301.076 305.749 301.132C305.619 301.251 305.539 301.413 305.522 301.588C305.505 301.763 305.554 301.937 305.658 302.079C305.709 302.143 305.772 302.197 305.845 302.236C305.917 302.276 305.997 302.299 306.079 302.307C306.161 302.314 306.243 302.305 306.322 302.279C306.4 302.253 306.472 302.212 306.534 302.157Z" fill="black"/>
<path d="M306.655 302.218C306.786 302.1 306.869 301.938 306.887 301.763C306.904 301.587 306.856 301.412 306.751 301.27C306.7 301.206 306.637 301.152 306.565 301.113C306.492 301.074 306.412 301.05 306.33 301.042C306.248 301.034 306.165 301.044 306.088 301.07C306.009 301.096 305.937 301.137 305.876 301.192C305.748 301.311 305.667 301.473 305.65 301.647C305.632 301.821 305.678 301.996 305.779 302.139C305.83 302.204 305.894 302.257 305.966 302.297C306.038 302.336 306.118 302.36 306.2 302.367C306.282 302.374 306.365 302.365 306.443 302.34C306.521 302.314 306.593 302.272 306.655 302.218Z" fill="#3F4249"/>
<path opacity="0.5" d="M306.528 302.037C306.607 301.959 306.655 301.856 306.665 301.745C306.675 301.635 306.645 301.524 306.582 301.434C306.549 301.386 306.507 301.346 306.456 301.316C306.407 301.287 306.351 301.269 306.293 301.264C306.236 301.259 306.178 301.267 306.123 301.287C306.068 301.307 306.019 301.338 305.978 301.38C305.9 301.457 305.851 301.561 305.841 301.671C305.831 301.781 305.861 301.892 305.924 301.983C305.957 302.031 305.999 302.07 306.05 302.1C306.1 302.129 306.155 302.147 306.213 302.153C306.271 302.157 306.329 302.15 306.383 302.13C306.438 302.11 306.487 302.078 306.528 302.037Z" fill="black"/>
<path opacity="0.4" d="M306.528 301.693C306.533 301.597 306.505 301.502 306.447 301.425C306.39 301.348 306.307 301.293 306.214 301.27H306.286C306.34 301.27 306.393 301.281 306.443 301.302C306.492 301.324 306.537 301.355 306.574 301.394C306.612 301.433 306.641 301.479 306.659 301.529C306.679 301.579 306.687 301.633 306.685 301.687C306.682 301.798 306.64 301.904 306.566 301.986C306.492 302.068 306.39 302.12 306.28 302.133H306.196C306.295 302.112 306.382 302.056 306.443 301.975C306.504 301.894 306.534 301.794 306.528 301.693Z" fill="black"/>
<path opacity="0.4" d="M306.534 302.157C306.662 302.037 306.742 301.876 306.76 301.702C306.777 301.527 306.731 301.353 306.63 301.21C306.579 301.144 306.516 301.09 306.443 301.05C306.37 301.01 306.289 300.986 306.207 300.978C306.124 300.971 306.04 300.981 305.961 301.007C305.883 301.033 305.81 301.076 305.749 301.132C305.619 301.251 305.539 301.413 305.522 301.588C305.505 301.763 305.554 301.937 305.658 302.079C305.709 302.143 305.772 302.197 305.845 302.236C305.917 302.276 305.997 302.299 306.079 302.307C306.161 302.314 306.243 302.305 306.322 302.279C306.4 302.253 306.472 302.212 306.534 302.157Z" fill="black"/>
<path d="M306.655 302.218C306.786 302.1 306.869 301.938 306.887 301.763C306.904 301.587 306.856 301.412 306.751 301.27C306.7 301.206 306.637 301.152 306.565 301.113C306.492 301.074 306.412 301.05 306.33 301.042C306.248 301.034 306.165 301.044 306.088 301.07C306.009 301.096 305.937 301.137 305.876 301.192C305.748 301.311 305.667 301.473 305.65 301.647C305.632 301.821 305.678 301.996 305.779 302.139C305.83 302.204 305.894 302.257 305.966 302.297C306.038 302.336 306.118 302.36 306.2 302.367C306.282 302.374 306.365 302.365 306.443 302.34C306.521 302.314 306.593 302.272 306.655 302.218Z" fill="#3F4249"/>
<path opacity="0.5" d="M306.528 302.037C306.607 301.959 306.655 301.856 306.665 301.745C306.675 301.635 306.645 301.524 306.582 301.434C306.549 301.386 306.507 301.346 306.456 301.316C306.407 301.287 306.351 301.269 306.293 301.264C306.236 301.259 306.178 301.267 306.123 301.287C306.068 301.307 306.019 301.338 305.978 301.38C305.9 301.457 305.851 301.561 305.841 301.671C305.831 301.781 305.861 301.892 305.924 301.983C305.957 302.031 305.999 302.07 306.05 302.1C306.1 302.129 306.155 302.147 306.213 302.153C306.271 302.157 306.329 302.15 306.383 302.13C306.438 302.11 306.487 302.078 306.528 302.037Z" fill="black"/>
<path opacity="0.4" d="M306.528 301.693C306.533 301.597 306.505 301.502 306.447 301.425C306.39 301.348 306.307 301.293 306.214 301.27H306.286C306.34 301.27 306.393 301.281 306.443 301.302C306.492 301.324 306.537 301.355 306.574 301.394C306.612 301.433 306.641 301.479 306.659 301.529C306.679 301.579 306.687 301.633 306.685 301.687C306.682 301.798 306.64 301.904 306.566 301.986C306.492 302.068 306.39 302.12 306.28 302.133H306.196C306.295 302.112 306.382 302.056 306.443 301.975C306.504 301.894 306.534 301.794 306.528 301.693Z" fill="black"/>
<g opacity="0.3">
<path opacity="0.3" d="M299.482 205.914C299.422 205.918 299.362 205.9 299.314 205.864C299.266 205.827 299.234 205.774 299.222 205.714C298.701 203.018 297.642 200.454 296.111 198.174C294.579 195.894 292.605 193.945 290.305 192.441C290.276 192.425 290.251 192.404 290.231 192.378C290.211 192.352 290.196 192.322 290.187 192.29C290.179 192.259 290.176 192.226 290.181 192.193C290.184 192.161 290.195 192.129 290.211 192.1C290.227 192.072 290.249 192.047 290.275 192.027C290.301 192.007 290.331 191.992 290.362 191.983C290.394 191.975 290.427 191.972 290.46 191.976C290.492 191.98 290.524 191.991 290.553 192.007C292.911 193.545 294.936 195.539 296.51 197.873C298.083 200.207 299.172 202.832 299.711 205.594C299.718 205.626 299.719 205.658 299.713 205.69C299.707 205.722 299.695 205.753 299.676 205.78C299.658 205.807 299.635 205.83 299.608 205.848C299.58 205.866 299.55 205.878 299.518 205.883L299.482 205.914Z" fill="black"/>
</g>
<path opacity="0.2" d="M307.608 274.652L315.856 275.322V274.115L312.438 240.847C312.196 238.52 311.563 236.25 310.567 234.132L301.456 209.607L299.446 205.088L299.899 206.674C300.877 210.934 301.48 216.967 301.106 220.117L301.42 221.818L305.839 238.488L307.608 274.652Z" fill="black"/>
<path d="M351.296 142.214L349.152 141.194L343.646 138.425L338.382 138.395C338.246 138.421 338.126 138.498 338.045 138.61C337.964 138.722 337.929 138.861 337.947 138.998C337.995 139.601 338.261 140.5 339.408 140.301L335.574 139.927C335.433 139.916 335.291 139.948 335.169 140.021C335.046 140.093 334.95 140.202 334.892 140.331L334.747 140.663C334.512 141.194 335.785 141.966 336.353 142.063L336.655 142.117L333.268 141.671C333.185 141.682 333.105 141.71 333.034 141.754C332.963 141.797 332.901 141.855 332.854 141.924C332.806 141.993 332.773 142.071 332.757 142.153C332.741 142.235 332.743 142.319 332.761 142.401C332.808 142.793 332.946 143.169 333.165 143.499C333.383 143.619 330.75 143.402 329.742 143.324C329.692 143.318 329.642 143.324 329.596 143.341C329.549 143.359 329.507 143.387 329.473 143.423C329.439 143.459 329.414 143.503 329.4 143.551C329.386 143.598 329.383 143.648 329.392 143.698C329.494 144.301 330.074 145.508 332.809 145.936C336.625 146.54 338.176 146.165 338.176 146.165L341.068 147.499L340.634 149.279L336.516 148.506L336.299 150.853C336.86 151.246 341.485 152.585 341.485 152.585C341.485 152.585 347.848 153.792 349.72 153.255C351.592 152.718 352.962 152.265 352.962 152.265L358.776 146.932L351.296 142.214Z" fill="#FC9D9D"/>
<path opacity="0.15" d="M341.702 146.895C341.702 146.895 345.325 145.55 347.178 143.426" stroke="black" stroke-width="0.6" stroke-miterlimit="10" stroke-linecap="round"/>
<path opacity="0.15" d="M336.733 148.693L342.523 149.804C342.523 149.804 345.542 147.457 348.15 148.555" stroke="black" stroke-width="0.6" stroke-miterlimit="10" stroke-linecap="round"/>
<path opacity="0.15" d="M333.455 143.818C333.455 143.818 337.452 144.421 339.185 143.631C339.185 143.631 339.843 144.838 341.998 145.139" stroke="black" stroke-width="0.6" stroke-miterlimit="10" stroke-linecap="round"/>
<path opacity="0.15" d="M336.661 142.093C338.042 142.215 339.433 142.215 340.815 142.093C341.594 143.026 342.652 143.683 343.833 143.969" stroke="black" stroke-width="0.6" stroke-miterlimit="10" stroke-linecap="round"/>
<path opacity="0.15" d="M338.943 140.386C340.156 140.644 341.408 140.656 342.626 140.422L344.981 142.051" stroke="black" stroke-width="0.6" stroke-miterlimit="10" stroke-linecap="round"/>
<path opacity="0.15" d="M341.304 138.57C341.284 141.004 341.018 143.43 340.507 145.81L340.235 147.065L338.188 146.124L338.225 138.63L341.304 138.57Z" fill="black"/>
<path opacity="0.15" d="M340.7 149.394V152.411L337.591 151.349L338.044 148.766L340.7 149.394Z" fill="black"/>
<path opacity="0.15" d="M398.056 173.72C398.769 180.465 384.822 186.004 384.822 186.004L375.53 189.479L377.342 193.702L392.779 186.004C401.075 181.895 398.298 174.305 398.056 173.72Z" fill="black"/>
<path opacity="0.2" d="M377.366 193.702L358.076 203.331L356.011 196.791L375.548 189.478L377.366 193.702Z" fill="black"/>
<g opacity="0.3">
<path opacity="0.3" d="M358.076 203.579C358.022 203.58 357.969 203.563 357.926 203.532C357.882 203.5 357.85 203.455 357.834 203.404C357.834 203.307 355.063 194.106 354.079 192.139C354.05 192.079 354.045 192.01 354.066 191.947C354.088 191.884 354.134 191.831 354.194 191.802C354.223 191.787 354.255 191.779 354.287 191.777C354.32 191.774 354.353 191.779 354.383 191.79C354.414 191.8 354.443 191.817 354.467 191.839C354.491 191.861 354.511 191.887 354.526 191.916C355.534 193.919 358.203 202.879 358.311 203.259C358.33 203.323 358.323 203.392 358.292 203.451C358.26 203.509 358.206 203.553 358.142 203.573L358.076 203.579Z" fill="black"/>
</g>
<g opacity="0.3">
<path opacity="0.3" d="M332.29 252.111C332.235 252.109 332.182 252.09 332.138 252.057C332.095 252.023 332.063 251.976 332.048 251.924C332.039 251.891 332.037 251.858 332.041 251.825C332.045 251.792 332.056 251.76 332.073 251.731C332.09 251.702 332.112 251.678 332.139 251.658C332.166 251.638 332.197 251.623 332.229 251.616C332.332 251.616 342.717 248.708 347.589 239.749C347.601 239.715 347.621 239.684 347.647 239.659C347.673 239.633 347.704 239.614 347.738 239.601C347.772 239.589 347.808 239.584 347.844 239.586C347.88 239.589 347.915 239.6 347.947 239.617C347.979 239.635 348.007 239.658 348.028 239.687C348.05 239.716 348.065 239.749 348.073 239.785C348.081 239.82 348.081 239.857 348.074 239.892C348.066 239.927 348.051 239.96 348.03 239.99C343.049 249.142 332.465 252.057 332.332 252.099L332.29 252.111Z" fill="black"/>
</g>
<g opacity="0.15">
<path opacity="0.15" d="M294.942 243.26C294.894 243.26 294.845 243.2 294.827 243.103C294.811 243.048 294.808 242.989 294.82 242.932C294.831 242.876 294.857 242.823 294.894 242.777C295.805 242.005 297.653 242.729 297.731 242.777C297.81 242.826 297.846 242.94 297.834 243.073C297.822 243.206 297.755 243.296 297.683 243.272C297.61 243.248 295.829 242.542 294.99 243.272C294.973 243.274 294.956 243.27 294.942 243.26Z" fill="black"/>
</g>
<path d="M300.339 288.239L304.046 294.562L306.359 299.992L302.863 299.117C302.863 299.117 302.664 305.657 300.78 306.472C300.213 306.719 298.51 306.08 298.685 304.704C298.436 304.94 298.136 305.117 297.809 305.221C297.482 305.325 297.135 305.355 296.795 305.307C295.745 305.09 295.491 304.408 295.588 303.105C295.588 303.105 295.093 304.095 293.632 303.479C292.75 303.105 292.974 301.778 292.974 301.778C292.974 301.778 291.38 301.917 291.162 301.09C290.932 299.74 290.903 298.364 291.078 297.005L292.032 292.432L292.388 289.476L300.339 288.239Z" fill="#FC9D9D"/>
<path opacity="0.15" d="M293.004 301.802C293.274 300.887 293.449 299.947 293.523 298.996" stroke="black" stroke-width="0.61" stroke-miterlimit="10" stroke-linecap="round"/>
<path opacity="0.15" d="M295.558 303.057C295.899 301.984 296.122 300.878 296.222 299.757" stroke="black" stroke-width="0.61" stroke-miterlimit="10" stroke-linecap="round"/>
<path opacity="0.15" d="M298.685 304.709C299.064 303.359 299.326 301.978 299.47 300.583" stroke="black" stroke-width="0.61" stroke-miterlimit="10" stroke-linecap="round"/>
<path opacity="0.15" d="M287.685 259.804L284.364 243.876L284.509 224.165L281.979 223.785L281.738 241.776C281.639 242.99 281.734 244.211 282.015 245.396L284.606 260.528L292.297 290.308L291.192 296.607L290.999 297.856L291.066 300.233C291.132 301.929 291.808 301.699 291.808 301.699V297.404L293.511 289.971L287.685 259.804Z" fill="black"/>
<path opacity="0.2" d="M280.772 223.773L282.686 200.846C282.686 200.846 282.686 190.801 289.719 187.289L290.552 187.03C286.61 190.535 286.453 196.581 286.453 196.581L284.509 224.183L280.772 223.773Z" fill="black"/>
<path d="M309.486 148.875L312.432 164.869L311.901 179.73L320.251 182.867C323.006 183.898 325.895 184.531 328.83 184.749H329.271C329.682 184.776 330.093 184.711 330.475 184.56C330.858 184.409 331.202 184.175 331.483 183.874C331.764 183.575 331.975 183.216 332.101 182.825C332.227 182.434 332.264 182.019 332.211 181.612L331.04 171.91L335.87 171.759C336.035 171.769 336.2 171.769 336.365 171.759C339.474 171.585 341.225 171.048 341.243 165.986L340.899 159.91L342.638 158.764C342.674 158.745 342.706 158.72 342.735 158.691C342.956 158.506 343.097 158.243 343.13 157.957C343.163 157.67 343.084 157.382 342.91 157.153L339.342 152.839L339.251 152.519L339.335 151.789C339.666 148.72 339.157 145.619 337.862 142.818L336.582 140.078L309.486 148.875Z" fill="#FC9D9D"/>
<path d="M336.8 143.963L329.669 145.357C326.288 147.77 331.559 151.421 323.384 153.164C323.234 154.099 324.447 157.768 322.877 157.991C321.67 158.286 321.549 156.645 321.374 155.831L316.858 157.327C317.558 162.992 315.53 164.519 312.457 165.774C307.916 158.196 298.057 141.538 311.4 138.66C312.698 138.732 313.151 137.272 313.513 136.784C314.721 133.568 320.378 131.456 324.236 132.868C325.562 133.713 327.075 134.22 328.641 134.345C330.209 134.47 331.783 134.209 333.226 133.586C340.543 130.799 344.564 141.671 336.8 143.963Z" fill="black"/>
<path d="M323.04 163.59L321.477 156.114C321.399 155.722 321.244 155.35 321.021 155.018C320.798 154.687 320.512 154.403 320.178 154.183C319.845 153.962 319.47 153.811 319.077 153.737C318.685 153.663 318.281 153.667 317.89 153.749C317.106 153.93 316.423 154.409 315.988 155.086C315.553 155.762 315.399 156.581 315.56 157.369L315.868 158.848C316.024 159.631 316.334 160.375 316.78 161.038C317.226 161.7 317.799 162.267 318.466 162.707C319.133 163.146 319.881 163.449 320.666 163.598C321.452 163.746 322.258 163.737 323.04 163.572V163.59Z" fill="#FC9D9D"/>
<g opacity="0.3">
<path opacity="0.3" d="M320.686 157.936L320.426 156.693C320.317 156.174 320.007 155.719 319.564 155.426C319.121 155.133 318.58 155.027 318.059 155.13C317.771 155.187 317.499 155.306 317.263 155.48C317.027 155.655 316.833 155.88 316.695 156.138V156.192C316.669 156.247 316.654 156.306 316.652 156.367C316.65 156.426 316.659 156.487 316.68 156.543C316.702 156.6 316.735 156.651 316.776 156.694C316.819 156.738 316.869 156.772 316.924 156.796C316.979 156.823 317.038 156.84 317.099 156.843C317.159 156.846 317.22 156.837 317.277 156.816C317.334 156.794 317.386 156.761 317.429 156.718C317.473 156.675 317.506 156.623 317.528 156.566C317.594 156.412 317.698 156.276 317.83 156.171C317.962 156.066 318.117 155.994 318.283 155.963C318.43 155.932 318.582 155.931 318.73 155.959C318.877 155.987 319.018 156.043 319.143 156.126C319.269 156.209 319.377 156.315 319.461 156.439C319.546 156.563 319.605 156.703 319.635 156.85L319.895 158.099C319.926 158.215 319.999 158.315 320.099 158.38C320.199 158.446 320.32 158.472 320.438 158.455C320.492 158.443 320.542 158.418 320.585 158.384C320.628 158.349 320.663 158.305 320.687 158.255C320.71 158.205 320.723 158.151 320.723 158.095C320.723 158.04 320.71 157.986 320.686 157.936Z" fill="#21252B"/>
</g>
<path opacity="0.15" d="M331.698 176.037L326.904 172.827C326.809 172.748 326.736 172.646 326.691 172.531C326.646 172.417 326.63 172.292 326.645 172.17C326.666 171.978 326.762 171.802 326.913 171.681C327.063 171.56 327.256 171.504 327.448 171.524L331.016 171.862L331.698 176.037Z" fill="black"/>
<path d="M330.968 172.024L327.448 171.523C321.338 171.324 321.477 156.114 321.477 156.114L323.596 155.245C323.964 161.719 326.216 164.524 326.216 164.524C328.933 168.211 331.65 167.402 333.395 166.141C334.439 165.381 335.236 163.764 335.755 162.57C337.313 158.95 340.917 160.488 340.917 160.488L341.225 165.978C341.225 171.04 339.456 171.577 336.347 171.752C336.182 171.761 336.017 171.761 335.852 171.752" fill="black"/>
<path opacity="0.15" d="M314.847 164.53L318.971 163.046C318.254 162.562 317.605 161.986 317.039 161.333C316.907 161.986 316.645 162.605 316.269 163.154C315.892 163.704 315.409 164.172 314.847 164.53Z" fill="black"/>
<path d="M337.072 154.837C337.692 154.724 338.092 154.071 337.965 153.38C337.838 152.688 337.233 152.219 336.613 152.333C335.993 152.446 335.593 153.099 335.72 153.79C335.847 154.482 336.452 154.951 337.072 154.837Z" fill="black"/>
<path d="M337.361 153.092C337.455 153.092 337.53 153.014 337.53 152.917C337.53 152.821 337.455 152.742 337.361 152.742C337.268 152.742 337.192 152.821 337.192 152.917C337.192 153.014 337.268 153.092 337.361 153.092Z" fill="white"/>
<path d="M341.159 163.826C340.182 163.786 339.205 163.896 338.261 164.151C338.21 164.168 338.155 164.166 338.104 164.146C338.055 164.127 338.013 164.091 337.986 164.045C337.96 163.998 337.949 163.944 337.958 163.891C337.966 163.838 337.992 163.789 338.031 163.753C338.872 162.905 339.935 162.311 341.098 162.04L341.159 163.826Z" fill="white"/>
<path d="M338.635 149.146C338.569 149.405 337.428 149.502 336.081 149.876C334.735 150.25 333.727 150.739 333.509 150.558C333.413 150.467 333.558 150.202 333.956 149.888C334.496 149.477 335.111 149.176 335.767 149.001C336.44 148.811 337.142 148.746 337.838 148.808C338.382 148.874 338.665 149.019 338.635 149.146Z" fill="black"/>
<path opacity="0.15" d="M377.366 173.684C377.366 173.684 380.547 176.543 382.962 177.75" stroke="black" stroke-miterlimit="10" stroke-linecap="round"/>
<path opacity="0.2" d="M318.711 355.082C318.711 355.082 322.877 355.004 324.544 353.556" stroke="black" stroke-miterlimit="10"/>
<path opacity="0.2" d="M366.106 354.926C366.106 354.926 369.903 355.004 370.7 354.159" stroke="black" stroke-miterlimit="10"/>
<path opacity="0.15" d="M308.882 430.432L311.666 426.945L311.811 359.589L312.414 338.84L309.178 338.388C308.17 368.723 310.017 400.217 308.882 430.432Z" fill="black"/>
<g opacity="0.3">
<path opacity="0.3" d="M310.645 288.106L310.464 287.503C317.54 285.313 319.303 276.166 319.315 276.076L319.919 276.184C319.895 276.305 318.071 285.802 310.645 288.106Z" fill="black"/>
</g>
<path d="M568.537 435.91C568.537 435.91 568.024 421.508 575.999 417.134C583.975 412.76 642.412 410.449 642.412 410.449L670.951 430.256L669.442 445.527H568.525L568.537 435.91Z" fill="#3F4249"/>
<path d="M527.947 445.527C527.947 445.527 527.838 444.924 536.804 435.361C545.77 425.798 583.999 428.314 587.61 428.725C591.22 429.135 595.724 445.552 595.724 445.552L527.947 445.527Z" fill="#868A91"/>
<path d="M263.927 374.4H267.972V306.489H263.927V374.4Z" fill="#B2B6BB"/>
<path d="M232.369 374.4H236.414V306.489H232.369V374.4Z" fill="#B2B6BB"/>
<path opacity="0.2" d="M263.927 306.496H267.972V313.501L263.927 313.06V306.496ZM232.375 312.083L236.42 312.523V306.49H232.375V312.083Z" fill="black"/>
<path d="M232.478 301.433H267.864C268.394 301.44 268.9 301.656 269.272 302.035C269.643 302.414 269.849 302.924 269.844 303.455V306.26C269.849 306.79 269.643 307.301 269.272 307.68C268.9 308.059 268.394 308.275 267.864 308.281H261.826C259.909 308.303 258.021 307.814 256.356 306.863C254.445 305.872 252.324 305.355 250.171 305.355C248.018 305.355 245.896 305.872 243.985 306.863C242.306 307.8 240.407 308.271 238.485 308.227H232.448C232.185 308.224 231.926 308.169 231.684 308.066C231.444 307.963 231.225 307.812 231.041 307.625C230.858 307.437 230.714 307.215 230.616 306.972C230.519 306.728 230.47 306.468 230.473 306.206V303.43C230.473 303.167 230.525 302.907 230.626 302.665C230.727 302.422 230.875 302.201 231.061 302.016C231.247 301.83 231.468 301.684 231.711 301.584C231.954 301.483 232.215 301.433 232.478 301.433Z" fill="#21252B"/>
<path d="M226.163 438.353H272.289C274.149 438.353 275.658 436.846 275.658 434.987V351.799C275.658 349.94 274.149 348.432 272.289 348.432H226.163C224.302 348.432 222.794 349.94 222.794 351.799V434.987C222.794 436.846 224.302 438.353 226.163 438.353Z" fill="#2196F3"/>
<path opacity="0.2" d="M226.163 438.353H272.289C274.149 438.353 275.658 436.846 275.658 434.987V351.799C275.658 349.94 274.149 348.432 272.289 348.432H226.163C224.302 348.432 222.794 349.94 222.794 351.799V434.987C222.794 436.846 224.302 438.353 226.163 438.353Z" fill="black"/>
<path d="M267.103 348.433V438.354" stroke="#1656BD" stroke-width="1.42" stroke-miterlimit="10"/>
<path d="M207.374 438.353H253.5C255.361 438.353 256.869 436.846 256.869 434.987V351.799C256.869 349.94 255.361 348.432 253.5 348.432H207.374C205.514 348.432 204.005 349.94 204.005 351.799V434.987C204.005 436.846 205.514 438.353 207.374 438.353Z" fill="#2196F3"/>
<path d="M266.922 348.433H266.064V438.354H266.922V348.433Z" fill="#21252B"/>
<path d="M263.034 375.613H269.947V372.53H263.034V375.613Z" fill="white"/>
<path d="M263.034 414.257H269.947V411.174H263.034V414.257Z" fill="white"/>
<g opacity="0.3">
<path opacity="0.3" d="M247.444 431.247C247.907 431.247 248.351 431.063 248.678 430.736C249.005 430.409 249.189 429.966 249.189 429.504V358.214C249.19 357.984 249.146 357.757 249.058 357.545C248.971 357.332 248.842 357.139 248.681 356.977C248.518 356.814 248.326 356.685 248.114 356.597C247.901 356.509 247.674 356.464 247.444 356.464C247.215 356.464 246.987 356.509 246.775 356.597C246.563 356.685 246.371 356.814 246.208 356.977C246.046 357.139 245.918 357.332 245.831 357.545C245.743 357.757 245.699 357.984 245.699 358.214V429.504C245.699 429.966 245.883 430.409 246.211 430.736C246.538 431.063 246.982 431.247 247.444 431.247Z" fill="black"/>
<path opacity="0.3" d="M236.106 431.247C236.569 431.247 237.013 431.063 237.34 430.736C237.667 430.409 237.851 429.966 237.851 429.504V358.214C237.852 357.984 237.807 357.757 237.72 357.545C237.632 357.332 237.504 357.139 237.342 356.977C237.18 356.814 236.987 356.685 236.775 356.597C236.563 356.509 236.336 356.464 236.106 356.464C235.876 356.464 235.649 356.509 235.437 356.597C235.225 356.685 235.032 356.814 234.87 356.977C234.708 357.139 234.579 357.332 234.492 357.545C234.405 357.757 234.36 357.984 234.361 358.214V429.504C234.361 429.966 234.545 430.409 234.872 430.736C235.2 431.063 235.643 431.247 236.106 431.247Z" fill="black"/>
<path opacity="0.3" d="M224.779 431.247C225.242 431.247 225.686 431.063 226.013 430.736C226.341 430.409 226.524 429.966 226.524 429.504V358.214C226.525 357.984 226.481 357.757 226.393 357.545C226.306 357.332 226.178 357.139 226.015 356.977C225.853 356.814 225.661 356.685 225.449 356.597C225.236 356.509 225.009 356.464 224.779 356.464C224.55 356.464 224.322 356.509 224.11 356.597C223.899 356.685 223.706 356.814 223.544 356.977C223.382 357.139 223.253 357.332 223.166 357.545C223.079 357.757 223.034 357.984 223.035 358.214V429.504C223.035 429.966 223.219 430.409 223.546 430.736C223.873 431.063 224.317 431.247 224.779 431.247Z" fill="black"/>
<path opacity="0.3" d="M213.43 431.247C213.658 431.247 213.885 431.202 214.097 431.114C214.309 431.027 214.501 430.898 214.663 430.736C214.825 430.574 214.953 430.383 215.042 430.171C215.129 429.959 215.174 429.732 215.174 429.504V358.214C215.175 357.984 215.13 357.757 215.043 357.545C214.956 357.332 214.827 357.139 214.665 356.977C214.503 356.814 214.31 356.685 214.098 356.597C213.887 356.509 213.659 356.464 213.43 356.464C213.199 356.464 212.972 356.509 212.76 356.597C212.548 356.685 212.355 356.814 212.194 356.977C212.031 357.139 211.903 357.332 211.816 357.545C211.728 357.757 211.683 357.984 211.685 358.214V429.504C211.685 429.966 211.868 430.409 212.195 430.736C212.523 431.063 212.966 431.247 213.43 431.247Z" fill="black"/>
</g>
<path d="M228.421 445.92C230.405 445.92 232.013 444.312 232.013 442.33C232.013 440.347 230.405 438.74 228.421 438.74C226.437 438.74 224.828 440.347 224.828 442.33C224.828 444.312 226.437 445.92 228.421 445.92Z" fill="#3F4249"/>
<path d="M207.102 442.33C207.102 443.04 207.313 443.734 207.708 444.325C208.103 444.915 208.664 445.375 209.321 445.647C209.978 445.918 210.701 445.989 211.397 445.85C212.095 445.711 212.735 445.369 213.237 444.866C213.739 444.364 214.08 443.723 214.219 443.027C214.356 442.33 214.284 441.608 214.011 440.952C213.739 440.296 213.277 439.736 212.686 439.342C212.094 438.948 211.399 438.739 210.688 438.74C210.217 438.74 209.75 438.833 209.314 439.013C208.879 439.194 208.484 439.459 208.15 439.792C207.817 440.125 207.553 440.521 207.373 440.957C207.193 441.392 207.101 441.859 207.102 442.33Z" fill="#3F4249"/>
<path d="M210.695 440.556H268.805V438.209H210.695V440.556Z" fill="#21252B"/>
<path d="M265.177 442.33C265.177 443.039 265.387 443.731 265.781 444.321C266.174 444.911 266.733 445.371 267.388 445.643C268.042 445.916 268.763 445.989 269.459 445.853C270.155 445.717 270.795 445.378 271.299 444.879C271.802 444.38 272.147 443.743 272.289 443.048C272.431 442.354 272.364 441.634 272.096 440.977C271.83 440.321 271.374 439.758 270.787 439.36C270.2 438.961 269.509 438.746 268.799 438.74C268.325 438.736 267.855 438.826 267.416 439.005C266.976 439.183 266.576 439.447 266.24 439.781C265.903 440.114 265.636 440.512 265.453 440.949C265.271 441.387 265.177 441.856 265.177 442.33Z" fill="#3F4249"/>
<path d="M251.037 445.92C253.021 445.92 254.629 444.312 254.629 442.33C254.629 440.347 253.021 438.74 251.037 438.74C249.053 438.74 247.445 440.347 247.445 442.33C247.445 444.312 249.053 445.92 251.037 445.92Z" fill="#3F4249"/>
<path d="M251.037 443.724C251.807 443.724 252.432 443.1 252.432 442.33C252.432 441.561 251.807 440.937 251.037 440.937C250.267 440.937 249.642 441.561 249.642 442.33C249.642 443.1 250.267 443.724 251.037 443.724Z" fill="#868A91"/>
<path d="M267.375 442.33C267.375 442.606 267.456 442.875 267.609 443.104C267.763 443.334 267.981 443.512 268.235 443.618C268.49 443.723 268.77 443.751 269.041 443.697C269.312 443.643 269.56 443.51 269.755 443.316C269.95 443.121 270.083 442.872 270.137 442.602C270.191 442.332 270.163 442.052 270.058 441.797C269.952 441.542 269.773 441.325 269.544 441.171C269.314 441.018 269.045 440.937 268.769 440.937C268.399 440.937 268.045 441.083 267.783 441.344C267.521 441.606 267.375 441.961 267.375 442.33Z" fill="#868A91"/>
<path d="M473.217 140.343H463.267V445.66H473.217V140.343Z" fill="#B2B6BB"/>
<path opacity="0.2" d="M463.267 184.266L473.223 171.469V140.343H463.267V184.266Z" fill="black"/>
<path d="M543.264 80.01H399.27V146.226H543.264V80.01Z" fill="#2196F3"/>
<path opacity="0.2" d="M543.264 80.01H399.27V146.226H543.264V80.01Z" fill="black"/>
<path d="M540.239 80.01H399.698V142.202H540.239V80.01Z" fill="#2196F3"/>
<path d="M445.716 123.227H441.092V131.179H433.164V123.227H416.772V117.586L433.605 92.8134H441.085V116.947H445.71L445.716 123.227ZM433.164 116.935V110.425C433.164 109.339 433.208 107.764 433.297 105.701C433.382 103.637 433.454 102.437 433.502 102.081H433.297C432.633 103.55 431.85 104.962 430.955 106.304L423.921 116.935H433.164Z" fill="white"/>
<path d="M480.716 111.986C480.716 118.683 479.617 123.642 477.419 126.864C475.222 130.086 471.839 131.695 467.27 131.691C462.843 131.691 459.504 130.03 457.254 126.707C455.004 123.385 453.879 118.478 453.879 111.986C453.879 105.217 454.972 100.227 457.157 97.0173C459.343 93.8076 462.714 92.1991 467.27 92.1907C471.697 92.1907 475.046 93.8722 477.317 97.2346C479.587 100.598 480.72 105.515 480.716 111.986ZM461.939 111.986C461.939 116.692 462.342 120.065 463.147 122.104C463.951 124.143 465.322 125.161 467.258 125.157C469.15 125.157 470.514 124.125 471.351 122.062C472.189 119.998 472.609 116.64 472.613 111.986C472.613 107.28 472.189 103.9 471.339 101.844C470.494 99.7866 469.13 98.761 467.258 98.761C465.386 98.761 463.986 99.7866 463.159 101.844C462.331 103.901 461.939 107.292 461.939 111.986Z" fill="white"/>
<path d="M517.864 123.227H513.246V131.179H505.312V123.227H488.927V117.586L505.759 92.8134H513.246V116.947H517.864V123.227ZM505.312 116.935V110.425C505.312 109.339 505.357 107.764 505.445 105.701C505.536 103.637 505.602 102.437 505.657 102.081H505.445C504.786 103.551 504.004 104.964 503.109 106.304L496.069 116.935H505.312Z" fill="white"/>
<path d="M506.731 74.688L508.76 79.219C508.787 79.2637 508.825 79.3005 508.87 79.3258C508.916 79.3511 508.967 79.3644 509.019 79.3638H511.773C512.732 79.3638 513.928 79.1587 514.031 80.5222C514.031 80.9023 514.634 80.9083 514.634 80.5222C514.453 78.1089 511.434 78.7726 509.768 78.7726H509.164C508.844 78.7726 509.327 79.0501 509.219 78.8027L508.542 77.2823C508.108 76.317 507.675 75.3516 507.244 74.3863C507.087 74.0424 506.574 74.3441 506.731 74.688Z" fill="#21252B"/>
<path d="M509.038 78.8039C507.48 78.8039 504.938 78.3092 504.811 80.5536C504.811 80.9397 505.415 80.9397 505.415 80.5536C505.457 79.7029 506.019 79.3952 506.767 79.3952H509.026C509.106 79.3952 509.182 79.3632 509.239 79.3065C509.296 79.2498 509.327 79.1732 509.327 79.0935C509.327 79.0133 509.296 78.9367 509.239 78.88C509.182 78.8233 509.106 78.7919 509.026 78.7919" fill="#21252B"/>
<path d="M491.474 67.0263C491.474 67.0263 502.216 57.21 505.796 53.2642C509.376 49.3184 513.97 47.1162 518.474 48.4013C522.978 49.6864 525.906 54.6398 524.349 60.8783C522.791 67.1168 515.57 76.2874 505.802 75.8289C496.033 75.3704 492.845 68.8604 491.474 67.0263Z" fill="#DADDDF"/>
<path opacity="0.1" d="M491.474 67.0263C491.474 67.0263 502.216 57.21 505.796 53.2642C509.376 49.3184 513.97 47.1162 518.474 48.4013C522.978 49.6864 525.906 54.6398 524.349 60.8783C522.791 67.1168 515.57 76.2874 505.802 75.8289C496.033 75.3704 492.845 68.8604 491.474 67.0263Z" fill="black"/>
<path d="M494.777 71.2979C495.454 71.7751 496.236 72.0822 497.057 72.1938C497.877 72.3048 498.713 72.2173 499.492 71.9374C499.492 71.9374 498.073 73.5061 500.591 73.8198C503.109 74.1335 508.295 72.0882 508.295 72.0882C508.295 72.0882 507.087 73.9646 508.947 73.856C510.807 73.7474 514.701 71.5935 517.901 68.3174C521.1 65.0413 525.623 59.7923 522.779 53.6142C520.497 48.6608 513.252 45.439 502.922 56.9988L494.777 71.2979Z" fill="#DADDDF"/>
<path d="M518.468 48.4013C513.97 47.1162 509.376 49.3184 505.789 53.2642C504.515 54.67 502.324 56.8239 500.042 59.014L502.505 61.4876L507.069 58.0547C507.069 58.0547 507.069 54.3925 510.088 54.0908C514.508 53.6564 513.843 62.7305 524.723 57.9823C524.88 53.1556 522.205 49.4753 518.432 48.4013" fill="#2196F3"/>
<path opacity="0.2" d="M518.468 48.4013C513.97 47.1162 509.376 49.3184 505.789 53.2642C504.515 54.67 502.324 56.8239 500.042 59.014L502.505 61.4876L507.069 58.0547C507.069 58.0547 507.069 54.3925 510.088 54.0908C514.508 53.6564 513.843 62.7305 524.723 57.9823C524.88 53.1556 522.205 49.4753 518.432 48.4013" fill="black"/>
<path d="M520.304 55.9255C520.304 56.2169 520.219 56.5017 520.056 56.7436C519.893 56.9862 519.664 57.1744 519.392 57.286C519.12 57.397 518.824 57.426 518.541 57.3687C518.257 57.3114 517.991 57.1708 517.786 56.9639C517.581 56.7575 517.442 56.4945 517.387 56.2085C517.327 55.9231 517.357 55.6269 517.472 55.3578C517.581 55.0887 517.774 54.8594 518.015 54.6983C518.257 54.5372 518.547 54.4522 518.836 54.4534C519.03 54.4534 519.223 54.4914 519.398 54.5656C519.579 54.6392 519.742 54.7478 519.875 54.8848C520.014 55.0217 520.122 55.184 520.195 55.3626C520.267 55.5412 520.304 55.7324 520.304 55.9255Z" fill="black"/>
<path d="M524.433 54.8208C524.433 54.8208 527.488 56.3352 527.555 56.9566C527.621 57.5781 524.602 59.5811 524.602 59.5811C524.602 59.5811 523.238 56.6791 524.433 54.8208Z" fill="#3F4249"/>
<path d="M505.355 75.1833L507.383 79.7083C507.409 79.7548 507.446 79.7934 507.492 79.8199C507.538 79.8465 507.59 79.8604 507.643 79.8592H510.396C511.362 79.8592 512.551 79.654 512.654 81.0176C512.684 81.3977 513.258 81.3977 513.258 81.0176C513.077 78.6042 510.058 79.2619 508.428 79.2619H507.824C507.498 79.2619 507.981 79.5394 507.872 79.2981L507.19 77.7776L505.892 74.8817C505.735 74.5317 505.222 74.8334 505.379 75.1833" fill="#21252B"/>
<path d="M507.643 79.2371C506.085 79.2371 503.55 78.7424 503.417 80.9928C503.417 81.379 504.02 81.3729 504.02 80.9928C504.063 80.1421 504.624 79.8344 505.373 79.8344H507.631C507.711 79.8344 507.788 79.8024 507.844 79.7463C507.901 79.6896 507.933 79.613 507.933 79.5328C507.933 79.4525 507.901 79.3759 507.844 79.3198C507.788 79.2631 507.711 79.2311 507.631 79.2311" fill="#21252B"/>
<path d="M485.6 70.0495C485.6 70.0495 498.321 59.2861 501.557 57.5605C504.793 55.835 510.064 56.2996 511.398 60.8789C512.865 65.9227 507.836 74.9124 493.642 70.0495L489.361 76.7526L485.6 70.0495Z" fill="#2196F3"/>
<path opacity="0.2" d="M494.409 66.7373C494.409 66.7373 495.133 67.944 498.852 64.9997C498.852 64.9997 497.27 67.0872 498.556 67.413C499.842 67.7388 503.302 65.2772 503.302 65.2772C503.302 65.2772 501.539 67.0269 503.018 67.5337C504.497 68.0405 506.943 65.8866 507.498 64.6135C508.053 63.3405 509.267 60.354 506.852 59.0146C504.437 57.6752 500.277 59.2499 497.403 61.5547C494.529 63.8594 493.714 65.3677 494.385 66.7373" fill="white"/>
<path d="M519.549 55.8109C519.549 55.873 519.531 55.9346 519.501 55.9865C519.464 56.039 519.416 56.08 519.362 56.1047C519.301 56.1295 519.241 56.1367 519.181 56.1252C519.114 56.1138 519.06 56.0842 519.018 56.0408C518.969 55.9973 518.939 55.9412 518.927 55.8803C518.915 55.8194 518.921 55.756 518.945 55.6981C518.969 55.6408 519.006 55.5913 519.06 55.5563C519.114 55.5219 519.175 55.5032 519.235 55.5032C519.319 55.5032 519.398 55.5352 519.452 55.5931C519.513 55.6504 519.549 55.7288 519.549 55.8109Z" fill="white"/>
<path d="M561.974 422.203C561.371 423.747 560.809 425.298 560.223 426.848C560.199 426.895 560.163 426.934 560.121 426.962C560.079 426.991 560.03 427.008 559.976 427.011L557.229 427.18C556.269 427.24 555.061 427.108 555.043 428.477C555.043 428.857 554.44 428.9 554.44 428.513C554.44 426.1 557.519 426.565 559.185 426.462L559.789 426.426C560.115 426.426 559.65 426.709 559.74 426.462L560.344 424.899C560.713 423.91 561.087 422.921 561.461 421.931C561.594 421.575 562.125 421.847 561.992 422.203" fill="#21252B"/>
<path d="M559.94 426.414C561.491 426.317 563.997 425.672 564.244 427.904C564.287 428.29 563.695 428.32 563.641 427.94C563.544 427.096 562.965 426.824 562.216 426.872L559.964 427.011C559.885 427.016 559.807 426.989 559.747 426.936C559.686 426.883 559.65 426.808 559.644 426.728C559.638 426.648 559.668 426.569 559.716 426.509C559.771 426.449 559.849 426.413 559.928 426.408" fill="#21252B"/>
<path d="M576.766 413.605C576.766 413.605 565.434 404.471 561.618 400.754C557.803 397.038 553.081 395.125 548.674 396.688C544.266 398.25 541.61 403.397 543.56 409.502C545.51 415.608 553.28 424.338 562.995 423.283C572.709 422.227 575.486 415.524 576.748 413.629" fill="#DADDDF"/>
<path opacity="0.1" d="M576.766 413.605C576.766 413.605 565.434 404.471 561.618 400.754C557.803 397.038 553.081 395.125 548.674 396.688C544.266 398.25 541.61 403.397 543.56 409.502C545.51 415.608 553.28 424.338 562.995 423.283C572.709 422.227 575.486 415.524 576.748 413.629" fill="black"/>
<path d="M573.705 418.076C573.059 418.594 572.298 418.948 571.489 419.11C570.674 419.272 569.841 419.236 569.044 419.005C569.044 419.005 570.554 420.484 568.06 420.954C565.567 421.425 560.266 419.705 560.266 419.705C560.266 419.705 561.606 421.515 559.728 421.515C557.851 421.515 553.842 419.621 550.443 416.544C547.044 413.467 542.207 408.514 544.665 402.173C546.639 397.086 553.667 393.418 564.697 404.32L573.705 418.076Z" fill="#DADDDF"/>
<path d="M548.65 396.687C553.057 395.124 557.772 397.043 561.594 400.753C562.952 402.081 565.271 404.096 567.692 406.141L565.38 408.76L560.61 405.616C560.61 405.616 560.399 401.996 557.326 401.852C552.888 401.689 554.108 410.702 542.962 406.636C542.503 401.809 544.943 397.996 548.65 396.687Z" fill="#2196F3"/>
<path opacity="0.2" d="M548.65 396.687C553.057 395.124 557.772 397.043 561.594 400.753C562.952 402.081 565.271 404.096 567.692 406.141L565.38 408.76L560.61 405.616C560.61 405.616 560.399 401.996 557.326 401.852C552.888 401.689 554.108 410.702 542.962 406.636C542.503 401.809 544.943 397.996 548.65 396.687Z" fill="black"/>
<path d="M547.279 404.308C547.297 404.597 547.4 404.874 547.575 405.105C547.756 405.335 547.992 405.508 548.269 405.602C548.541 405.695 548.837 405.706 549.121 405.632C549.398 405.558 549.652 405.403 549.845 405.186C550.032 404.968 550.159 404.699 550.195 404.412C550.237 404.125 550.189 403.833 550.062 403.572C549.936 403.312 549.736 403.095 549.483 402.949C549.235 402.802 548.945 402.734 548.656 402.751C548.269 402.776 547.907 402.954 547.647 403.245C547.388 403.537 547.255 403.919 547.279 404.308Z" fill="black"/>
<path d="M543.089 403.464C543.089 403.464 540.137 405.165 540.107 405.787C540.076 406.408 543.216 408.2 543.216 408.2C543.216 408.2 544.423 405.183 543.089 403.433" fill="#3F4249"/>
<path d="M563.393 422.583L561.642 427.228C561.618 427.275 561.588 427.316 561.54 427.345C561.497 427.373 561.449 427.389 561.395 427.391L558.654 427.56C557.688 427.621 556.486 427.494 556.462 428.857C556.462 429.237 555.858 429.28 555.858 428.894C555.895 426.48 558.944 426.945 560.604 426.842L561.208 426.806C561.528 426.806 561.063 427.096 561.159 426.842L561.763 425.286L562.88 422.317C563.013 421.955 563.544 422.227 563.411 422.583" fill="#21252B"/>
<path d="M561.359 426.795C562.916 426.698 565.416 426.052 565.663 428.291C565.706 428.671 565.114 428.707 565.06 428.327C564.963 427.476 564.383 427.204 563.635 427.252L561.383 427.392C561.304 427.396 561.226 427.369 561.165 427.316C561.105 427.263 561.069 427.188 561.063 427.108C561.057 427.028 561.087 426.95 561.141 426.889C561.19 426.83 561.268 426.793 561.346 426.789" fill="#21252B"/>
<path d="M582.804 416.266C582.804 416.266 569.437 406.305 566.104 404.803C562.771 403.301 557.537 404.073 556.486 408.725C555.333 413.853 560.912 422.517 574.774 416.785L579.459 423.205L582.804 416.266Z" fill="#2196F3"/>
<path opacity="0.2" d="M573.796 413.509C573.796 413.509 573.15 414.776 569.25 412.049C569.25 412.049 570.958 414.033 569.696 414.462C568.435 414.89 564.824 412.652 564.824 412.652C564.824 412.652 566.696 414.287 565.247 414.884C563.798 415.481 561.232 413.484 560.598 412.242C559.964 410.999 558.569 408.103 560.9 406.619C563.23 405.134 567.475 406.444 570.481 408.567C573.488 410.691 574.406 412.145 573.796 413.557" fill="white"/>
<path d="M548.028 404.151C548.052 404.215 548.094 404.271 548.148 404.31C548.209 404.348 548.275 404.366 548.342 404.362C548.414 404.358 548.474 404.331 548.529 404.287C548.583 404.242 548.619 404.182 548.631 404.115C548.644 404.068 548.644 404.018 548.631 403.972C548.619 403.925 548.595 403.881 548.565 403.844C548.529 403.808 548.493 403.779 548.444 403.76C548.402 403.741 548.354 403.733 548.305 403.735C548.257 403.738 548.209 403.753 548.167 403.776C548.124 403.8 548.088 403.834 548.064 403.874C548.04 403.914 548.022 403.96 548.016 404.008C548.01 404.056 548.01 404.105 548.028 404.151Z" fill="white"/>
<path d="M452.424 420.598C449.912 417.581 447.057 414.625 444.871 411.385C444.388 410.667 441.882 406.069 443.953 406.631C446.024 407.192 447.848 410.667 448.723 412.356C449.598 414.046 450.534 415.729 451.337 417.454C451.747 418.192 452.089 418.965 452.358 419.765C452.358 419.868 452.599 420.797 452.424 420.598C452.738 420.966 450.534 418.347 452.424 420.598Z" fill="#2196F3"/>
<path d="M462.549 445.631C462.519 444.563 462.356 443.503 462.066 442.475C461.461 440.389 460.507 438.421 459.246 436.653C456.614 432.876 452.949 429.316 448.578 427.694C447.566 427.301 446.51 427.031 445.432 426.891C444.925 426.837 443.356 426.595 442.963 427.042C442.571 427.488 443.066 427.392 443.452 427.555C444.223 427.899 444.966 428.303 445.674 428.761C452.315 432.84 460.164 437.606 461.921 445.655L462.549 445.631Z" fill="#2196F3"/>
<path opacity="0.2" d="M462.549 445.631C462.519 444.563 462.356 443.503 462.066 442.475C461.461 440.389 460.507 438.421 459.246 436.653C456.614 432.876 452.949 429.316 448.578 427.694C447.566 427.301 446.51 427.031 445.432 426.891C444.925 426.837 443.356 426.595 442.963 427.042C442.571 427.488 443.066 427.392 443.452 427.555C444.223 427.899 444.966 428.303 445.674 428.761C452.315 432.84 460.164 437.606 461.921 445.655L462.549 445.631Z" fill="black"/>
<path d="M463.998 445.63C463.617 439.458 461.782 433.515 459.772 427.705C458.86 425.062 457.96 422.384 456.825 419.819C455.455 416.718 453.776 413.708 452.134 410.769C451.355 409.37 450.552 407.988 449.683 406.643C449.291 406.039 448.886 405.436 448.475 404.833C448.306 404.609 447.497 403.855 447.491 403.59C447.491 403.198 447.86 403.523 448.095 403.656C448.645 404.004 449.168 404.393 449.659 404.821C450.844 405.86 451.927 407.009 452.895 408.254C454.99 410.877 456.707 413.781 457.997 416.881C459.181 419.959 460.202 423.096 461.058 426.281C462.173 429.952 463.052 433.69 463.69 437.473C463.966 439.167 464.156 440.875 464.257 442.589C464.294 443.313 464.306 444.037 464.3 444.761C464.3 444.936 464.378 445.443 464.3 445.576C464.233 445.57 464.022 446.004 463.998 445.63Z" fill="#2196F3"/>
<path opacity="0.2" d="M463.998 445.63C463.617 439.458 461.782 433.515 459.772 427.705C458.86 425.062 457.96 422.384 456.825 419.819C455.455 416.718 453.776 413.708 452.134 410.769C451.355 409.37 450.552 407.988 449.683 406.643C449.291 406.039 448.886 405.436 448.475 404.833C448.306 404.609 447.497 403.855 447.491 403.59C447.491 403.198 447.86 403.523 448.095 403.656C448.645 404.004 449.168 404.393 449.659 404.821C450.844 405.86 451.927 407.009 452.895 408.254C454.99 410.877 456.707 413.781 457.997 416.881C459.181 419.959 460.202 423.096 461.058 426.281C462.173 429.952 463.052 433.69 463.69 437.473C463.966 439.167 464.156 440.875 464.257 442.589C464.294 443.313 464.306 444.037 464.3 444.761C464.3 444.936 464.378 445.443 464.3 445.576C464.233 445.57 464.022 446.004 463.998 445.63Z" fill="black"/>
<path d="M463.793 445.63H464.3C464.3 445.292 464.233 444.936 464.221 444.671C464.16 443.176 464.005 441.687 463.756 440.212C463.236 436.991 462.272 433.858 460.889 430.903C458.311 425.473 454.507 420.543 449.152 417.69C448.644 417.424 442.691 414.788 442.51 415.59C442.408 415.976 444.466 417.098 444.793 417.334C445.849 418.1 446.894 418.896 447.908 419.747C452.37 423.367 456.656 427.361 459.47 432.417C461.664 436.539 463.126 441.009 463.793 445.63Z" fill="#2196F3"/>
<path d="M466.6 445.629H466.841C466.841 445.243 466.841 444.851 466.841 444.465C466.841 443.373 466.841 442.281 466.793 441.189C466.733 438.733 466.612 436.272 466.383 433.828C465.972 429.321 465.489 424.827 463.925 420.555C463.574 419.571 463.171 418.607 462.718 417.666C462.633 417.503 462.011 416.072 461.818 416.356C461.752 416.458 461.903 416.995 461.921 417.116C461.987 417.526 462.06 417.936 462.126 418.323C462.295 419.318 462.47 420.308 462.658 421.297C463.485 425.732 464.571 430.112 465.26 434.57C465.815 438.257 466.232 441.937 466.6 445.629Z" fill="#2196F3"/>
<path opacity="0.2" d="M466.6 445.629H466.841C466.841 445.243 466.841 444.851 466.841 444.465C466.841 443.373 466.841 442.281 466.793 441.189C466.733 438.733 466.612 436.272 466.383 433.828C465.972 429.321 465.489 424.827 463.925 420.555C463.574 419.571 463.171 418.607 462.718 417.666C462.633 417.503 462.011 416.072 461.818 416.356C461.752 416.458 461.903 416.995 461.921 417.116C461.987 417.526 462.06 417.936 462.126 418.323C462.295 419.318 462.47 420.308 462.658 421.297C463.485 425.732 464.571 430.112 465.26 434.57C465.815 438.257 466.232 441.937 466.6 445.629Z" fill="white"/>
<path d="M470.47 432.912C470.16 430.343 470.254 427.742 470.748 425.202C470.967 423.698 471.331 422.219 471.835 420.785C472.386 419.445 473.089 418.172 473.929 416.99C474.256 416.508 474.582 416.025 474.896 415.536C474.986 415.392 475.499 414.33 475.626 414.33C476.175 414.269 475.548 416.743 475.439 417.123C474.993 418.479 474.4 419.782 473.67 421.009C472.939 422.322 472.377 423.723 471.997 425.178C471.561 426.688 471.206 428.22 470.935 429.769C470.82 430.463 470.73 431.157 470.681 431.857C470.715 432.131 470.715 432.409 470.681 432.683C470.693 432.569 470.506 433.341 470.47 432.912Z" fill="#2196F3"/>
<path opacity="0.2" d="M470.47 432.912C470.16 430.343 470.254 427.742 470.748 425.202C470.967 423.698 471.331 422.219 471.835 420.785C472.386 419.445 473.089 418.172 473.929 416.99C474.256 416.508 474.582 416.025 474.896 415.536C474.986 415.392 475.499 414.33 475.626 414.33C476.175 414.269 475.548 416.743 475.439 417.123C474.993 418.479 474.4 419.782 473.67 421.009C472.939 422.322 472.377 423.723 471.997 425.178C471.561 426.688 471.206 428.22 470.935 429.769C470.82 430.463 470.73 431.157 470.681 431.857C470.715 432.131 470.715 432.409 470.681 432.683C470.693 432.569 470.506 433.341 470.47 432.912Z" fill="black"/>
<path d="M469.015 412.447C469.13 413.6 469.214 414.758 469.305 415.916C469.703 421.111 469.909 426.324 469.848 431.525C469.788 435.748 469.667 441.232 469.794 445.649H470.198C470.198 444.822 470.198 443.899 470.198 443.543C470.271 442.252 470.319 440.478 470.416 439.193C470.645 436.285 470.923 433.389 471.122 430.481C471.466 425.437 471.774 420.375 470.681 415.398C470.448 414.289 470.143 413.197 469.77 412.128C469.589 411.609 469.383 411.102 469.166 410.601C469.112 410.48 468.949 409.889 468.774 410.088C468.598 410.287 468.81 410.746 468.828 410.897C468.9 411.397 468.967 411.91 469.015 412.447Z" fill="#2196F3"/>
<path d="M473.09 446.233C473.368 443.819 473.694 440.646 473.917 439.542C474.551 436.332 475.282 433.146 476.139 429.991C477.516 424.929 479.635 420.024 481.79 415.252C482.352 414.009 482.913 412.76 483.505 411.529C483.662 411.215 484.713 409.484 484.109 409.514C483.807 409.514 483.064 410.395 482.823 410.618C482.328 411.073 481.859 411.554 481.416 412.06C480.545 413.023 479.755 414.056 479.055 415.149C476.084 419.764 474.914 425.104 473.911 430.425C473.038 435.658 472.459 440.935 472.179 446.233H473.09Z" fill="#2196F3"/>
<path d="M497.675 405.52C497.071 405.472 496.027 406.033 495.501 406.25C494.776 406.545 494.067 406.878 493.376 407.246C492.055 407.957 490.797 408.779 489.615 409.701C483.819 414.19 480.438 420.827 477.655 427.452C475.493 432.598 472.957 440.122 472.825 446.233H473.471C473.471 445.865 473.471 445.576 473.471 445.533C473.531 444.747 473.64 443.965 473.797 443.193C474.18 441.302 474.705 439.443 475.366 437.63C476.745 433.876 478.373 430.218 480.239 426.679C483.559 420.362 487.923 414.651 493.147 409.786C494.403 408.579 495.731 407.493 497.095 406.437C497.524 406.124 498.587 405.593 497.675 405.52Z" fill="#2196F3"/>
<path opacity="0.2" d="M497.675 405.52C497.071 405.472 496.027 406.033 495.501 406.25C494.776 406.545 494.067 406.878 493.376 407.246C492.055 407.957 490.797 408.779 489.615 409.701C483.819 414.19 480.438 420.827 477.655 427.452C475.493 432.598 472.957 440.122 472.825 446.233H473.471C473.471 445.865 473.471 445.576 473.471 445.533C473.531 444.747 473.64 443.965 473.797 443.193C474.18 441.302 474.705 439.443 475.366 437.63C476.745 433.876 478.373 430.218 480.239 426.679C483.559 420.362 487.923 414.651 493.147 409.786C494.403 408.579 495.731 407.493 497.095 406.437C497.524 406.124 498.587 405.593 497.675 405.52Z" fill="white"/>
<path d="M497.838 423.451C497.458 422.945 495.181 423.204 494.65 423.252C493.69 423.353 492.742 423.555 491.825 423.855C486.711 425.478 482.871 429.526 479.623 433.623C477.039 436.881 474.243 441.835 473.096 446.239H473.875C474.002 445.68 474.159 445.128 474.346 444.586C474.911 443.301 475.588 442.067 476.369 440.899C477.953 438.511 479.773 436.288 481.802 434.263C485.379 430.698 489.474 427.694 493.95 425.352C494.895 424.849 495.875 424.417 496.884 424.061C497.15 423.964 498.14 423.862 497.838 423.451Z" fill="#2196F3"/>
<path opacity="0.2" d="M497.838 423.451C497.458 422.945 495.181 423.204 494.65 423.252C493.69 423.353 492.742 423.555 491.825 423.855C486.711 425.478 482.871 429.526 479.623 433.623C477.039 436.881 474.243 441.835 473.096 446.239H473.875C474.002 445.68 474.159 445.128 474.346 444.586C474.911 443.301 475.588 442.067 476.369 440.899C477.953 438.511 479.773 436.288 481.802 434.263C485.379 430.698 489.474 427.694 493.95 425.352C494.895 424.849 495.875 424.417 496.884 424.061C497.15 423.964 498.14 423.862 497.838 423.451Z" fill="black"/>
<path d="M631.961 446.836C631.961 446.836 626.527 445.074 625.966 434.993C625.507 426.95 619.518 429.786 615.171 423.982C610.214 417.345 614.567 414.419 611.271 406.847C609.236 402.171 603.156 404.784 602.619 393.918C602.081 383.052 600.934 380.843 598.64 376.421C598.64 376.421 605.04 384.174 610.111 387.172C614.827 389.978 615.726 389.079 618.709 391.173C622.277 393.67 619.916 397.87 623.539 400.615C627.161 403.36 630.548 402.268 633.163 405.888C637.727 412.193 634.593 416.748 638.119 420.881C641.645 425.014 647.894 424.965 652.398 432.284C655.079 436.637 656.039 441.833 655.085 446.854L631.961 446.836Z" fill="#2196F3"/>
<path d="M645.008 446.837L612.816 400.241" stroke="black" stroke-width="0.61" stroke-linecap="round" stroke-linejoin="round"/>
<path d="M619.488 416.482L628.912 423.541" stroke="black" stroke-width="0.61" stroke-linecap="round" stroke-linejoin="round"/>
<path d="M619.868 403.283L621.039 412.152" stroke="black" stroke-width="0.61" stroke-linecap="round" stroke-linejoin="round"/>
<path d="M638.85 428.9L640.468 440.266" stroke="black" stroke-width="0.61" stroke-linecap="round" stroke-linejoin="round"/>
<path d="M646.675 446.837C646.675 446.837 639.798 430.342 640.468 419.168C641.138 407.994 644.513 405.352 642.708 397.182C640.903 389.013 634.255 386.98 637.045 376.404C639.834 365.827 643.867 364.156 643.082 341.41C643.082 341.41 645.962 357.869 653.461 367.444C659.866 375.625 662.475 377.785 660.102 392.748C657.934 406.528 661.563 408.537 665.288 414.166C669.013 419.795 671.241 434.426 666.496 446.807L646.675 446.837Z" fill="#2196F3"/>
<path opacity="0.3" d="M646.675 446.837C646.675 446.837 639.798 430.342 640.468 419.168C641.138 407.994 644.513 405.352 642.708 397.182C640.903 389.013 634.255 386.98 637.045 376.404C639.834 365.827 643.867 364.156 643.082 341.41C643.082 341.41 645.962 357.869 653.461 367.444C659.866 375.625 662.475 377.785 660.102 392.748C657.934 406.528 661.563 408.537 665.288 414.166C669.013 419.795 671.241 434.426 666.496 446.807L646.675 446.837Z" fill="white"/>
<path d="M646.053 364.669C646.053 364.669 650.883 375.728 650.762 394.136C650.665 411.633 652.911 433.353 658.719 446.837" stroke="black" stroke-width="0.61" stroke-linecap="round" stroke-linejoin="round"/>
<path d="M641.368 377.453C641.368 377.453 647.248 382.612 650.653 388.76" stroke="black" stroke-width="0.61" stroke-linecap="round" stroke-linejoin="round"/>
<path d="M654.499 388.766C654.499 388.766 654.584 394.564 650.925 403.487" stroke="black" stroke-width="0.61" stroke-linecap="round" stroke-linejoin="round"/>
<path d="M644.99 413.563C645.545 415.702 646.517 417.71 647.852 419.471C649.186 421.231 650.858 422.709 652.772 423.819" stroke="black" stroke-width="0.61" stroke-linecap="round" stroke-linejoin="round"/>
<path d="M668.005 399.426C668.005 399.426 665.348 393.031 672.835 380.234C680.321 367.437 687.542 363.667 690.344 365.302C694.28 367.57 686.546 394.865 668.005 399.426Z" fill="#2196F3"/>
<path d="M664.008 412.363C666.568 403.862 668.029 395.524 675.944 386.088" stroke="black" stroke-width="0.61" stroke-linecap="round" stroke-linejoin="round"/>
<path d="M676.319 435.929C676.319 435.929 672.431 430.131 675.166 414.149C677.9 398.166 682.543 391.626 686.033 392.399C689.8 393.243 691.95 424.152 676.319 435.929Z" fill="#2196F3"/>
<path d="M671.796 446.837C671.796 446.837 678.818 434.909 679.452 417.02" stroke="black" stroke-width="0.61" stroke-linecap="round" stroke-linejoin="round"/>
<path d="M189.364 439.994C189.364 439.994 189.702 430.425 184.401 427.517C179.1 424.609 140.255 423.077 140.255 423.077L121.297 436.235L122.299 446.384H189.37L189.364 439.994Z" fill="#3F4249"/>
<path d="M168.19 445.027C168.36 443.609 168.553 441.714 168.68 441.063C169.06 439.162 169.495 437.268 170.002 435.397C170.886 432.403 172.005 429.482 173.347 426.661C173.679 425.925 174.011 425.189 174.367 424.459C174.457 424.272 175.073 423.252 174.729 423.252C174.548 423.252 174.125 423.771 173.968 423.904C173.676 424.175 173.397 424.461 173.135 424.761C172.618 425.324 172.15 425.929 171.735 426.571C169.978 429.31 169.277 432.471 168.686 435.621C168.166 438.722 167.823 441.851 167.659 444.991L168.19 445.027Z" fill="#2196F3"/>
<path d="M182.771 420.893C182.32 420.961 181.885 421.108 181.485 421.328C181.054 421.507 180.633 421.708 180.223 421.931C179.44 422.351 178.695 422.837 177.995 423.385C174.56 426.046 172.562 429.98 170.907 433.907C169.621 436.948 168.118 441.407 168.027 445.027H168.408C168.408 444.809 168.408 444.641 168.408 444.61C168.452 444.142 168.526 443.676 168.631 443.217C168.859 442.097 169.17 440.996 169.561 439.922C170.376 437.696 171.34 435.527 172.447 433.431C174.418 429.695 177.003 426.317 180.096 423.439C180.845 422.733 181.63 422.076 182.439 421.448C182.674 421.249 183.302 420.936 182.771 420.893Z" fill="#2196F3"/>
<path opacity="0.2" d="M182.771 420.893C182.32 420.961 181.885 421.108 181.485 421.328C181.054 421.507 180.633 421.708 180.223 421.931C179.44 422.351 178.695 422.837 177.995 423.385C174.56 426.046 172.562 429.98 170.907 433.907C169.621 436.948 168.118 441.407 168.027 445.027H168.408C168.408 444.809 168.408 444.641 168.408 444.61C168.452 444.142 168.526 443.676 168.631 443.217C168.859 442.097 169.17 440.996 169.561 439.922C170.376 437.696 171.34 435.527 172.447 433.431C174.418 429.695 177.003 426.317 180.096 423.439C180.845 422.733 181.63 422.076 182.439 421.448C182.674 421.249 183.302 420.936 182.771 420.893Z" fill="white"/>
<path d="M182.862 431.523C182.638 431.222 181.286 431.373 180.972 431.403C180.401 431.461 179.839 431.58 179.293 431.759C176.275 432.718 173.987 435.119 172.048 437.551C170.299 439.774 168.992 442.312 168.197 445.026H168.631C168.707 444.695 168.799 444.37 168.909 444.049C169.248 443.285 169.652 442.553 170.116 441.859C171.053 440.449 172.127 439.135 173.322 437.937C175.443 435.822 177.871 434.04 180.525 432.652C181.086 432.356 181.667 432.1 182.264 431.885C182.451 431.825 183.037 431.753 182.862 431.523Z" fill="#2196F3"/>
<path opacity="0.2" d="M182.862 431.523C182.638 431.222 181.286 431.373 180.972 431.403C180.401 431.461 179.839 431.58 179.293 431.759C176.275 432.718 173.987 435.119 172.048 437.551C170.299 439.774 168.992 442.312 168.197 445.026H168.631C168.707 444.695 168.799 444.37 168.909 444.049C169.248 443.285 169.652 442.553 170.116 441.859C171.053 440.449 172.127 439.135 173.322 437.937C175.443 435.822 177.871 434.04 180.525 432.652C181.086 432.356 181.667 432.1 182.264 431.885C182.451 431.825 183.037 431.753 182.862 431.523Z" fill="black"/>
<path d="M149.915 428.845C149.915 428.845 156.309 425.701 161.338 413.532C165.486 403.511 164.248 397.598 162.032 396.717C158.935 395.498 144.143 416.12 149.915 428.845Z" fill="#2196F3"/>
<path opacity="0.15" d="M149.915 428.845C149.915 428.845 156.309 425.701 161.338 413.532C165.486 403.511 164.248 397.598 162.032 396.717C158.935 395.498 144.143 416.12 149.915 428.845Z" fill="black"/>
<path d="M146.8 433.116C150.573 428.434 155.56 419.97 157.426 411.161" stroke="black" stroke-width="0.61" stroke-linecap="round" stroke-linejoin="round"/>
<path d="M138.601 405.683C138.601 405.683 145.544 404.072 153.205 393.363C159.521 384.543 159.66 378.503 157.703 377.146C154.986 375.263 135.896 391.988 138.601 405.683Z" fill="#2196F3"/>
<path opacity="0.15" d="M138.601 405.683C138.601 405.683 145.544 404.072 153.205 393.363C159.521 384.543 159.66 378.503 157.703 377.146C154.986 375.263 135.896 391.988 138.601 405.683Z" fill="black"/>
<path d="M136.633 412.754C136.796 404.416 144.348 398.177 150.392 390.798" stroke="black" stroke-width="0.61" stroke-linecap="round" stroke-linejoin="round"/>
<path d="M128.784 404.604C128.784 404.604 121.659 404.538 111.843 395.759C103.758 388.519 102.309 382.655 103.921 380.905C106.143 378.455 128.415 390.631 128.784 404.604Z" fill="#2196F3"/>
<path opacity="0.15" d="M128.784 404.604C128.784 404.604 121.659 404.538 111.843 395.759C103.758 388.519 102.309 382.655 103.921 380.905C106.143 378.455 128.415 390.631 128.784 404.604Z" fill="black"/>
<path d="M134.857 408.676C134.857 408.676 125.693 404 117.433 392.579" stroke="black" stroke-width="0.61" stroke-linecap="round" stroke-linejoin="round"/>
<path d="M136.946 421.117C136.946 421.117 131.12 425.213 118.025 423.795C107.23 422.625 102.635 418.703 102.931 416.338C103.324 413.05 128.524 409.979 136.946 421.117Z" fill="#2196F3"/>
<path opacity="0.15" d="M136.946 421.117C136.946 421.117 131.12 425.213 118.025 423.795C107.23 422.625 102.635 418.703 102.931 416.338C103.324 413.05 128.524 409.979 136.946 421.117Z" fill="black"/>
<path d="M143.539 425.612C138.245 420.755 132.913 418.704 120.736 417.962" stroke="black" stroke-width="0.61" stroke-linecap="round" stroke-linejoin="round"/>
<path d="M131.253 387.566C131.253 387.566 126.773 382.027 127.317 368.862C127.763 358.002 131.368 353.176 133.753 353.309C137.049 353.502 141.813 378.425 131.253 387.566Z" fill="#2196F3"/>
<path opacity="0.15" d="M131.253 387.566C131.253 387.566 126.773 382.027 127.317 368.862C127.763 358.002 131.368 353.176 133.753 353.309C137.049 353.502 141.813 378.425 131.253 387.566Z" fill="black"/>
<path d="M146.8 439.976C147.498 436.585 147.118 433.06 145.713 429.895C141.626 421.068 134.242 411.541 132.503 400.253C131.851 395.987 129.738 384.832 133.324 371.19" stroke="black" stroke-width="0.61" stroke-linecap="round" stroke-linejoin="round"/>
<path d="M179.499 446.233C179.499 446.233 179.559 445.841 174.88 439.476C170.201 433.111 150.247 434.794 148.363 435.054C146.48 435.313 144.137 446.233 144.137 446.233H179.499Z" fill="#868A91"/>
<path d="M158.168 109.362C158.168 109.362 165.19 110.321 197.478 109.652C206.209 114.949 244.058 111.582 258.976 110.177C276.226 113.374 284.751 105.024 277.089 100.523C274.728 99.1296 270.822 98.11 265.159 97.8928C265.527 79.9497 221.121 74.0672 208.75 100.246C202.2 94.9485 188.543 95.4191 187.619 102.599C174.983 100.288 165.003 102.9 160.45 105.615C158.066 107.069 157.16 108.548 158.168 109.362Z" fill="white"/>
<path opacity="0.08" d="M158.168 109.362C158.168 109.362 165.19 110.321 197.478 109.652C206.209 114.949 244.058 111.582 258.976 110.177C276.226 113.374 284.75 105.024 277.089 100.523C277.146 101.647 276.763 102.749 276.02 103.594C274.269 105.591 270.979 106.418 267.966 106.171C264.954 105.923 262.212 104.747 259.671 103.371C258.463 102.719 257.256 102.001 255.795 101.863C253.235 101.615 251.031 103.226 249.232 104.716C247.753 102.303 243.997 101.03 240.84 101.82C237.682 102.611 235.491 105.398 235.949 108.053C229.773 106.949 223.476 109.899 217.179 109.429C209.994 108.892 203.522 103.968 196.482 105.205C194.671 105.525 193.047 106.219 191.26 106.52C189.483 106.73 187.69 106.776 185.905 106.659C180.157 106.557 174.403 107.293 168.661 107.003C165.884 106.885 163.132 106.421 160.469 105.621C158.066 107.069 157.16 108.548 158.168 109.362Z" fill="#21252B"/>
<path d="M650.424 122.739C650.424 122.739 644.827 123.505 619.119 122.974C612.17 127.197 582.031 124.512 570.149 123.39C556.414 125.936 549.622 119.288 555.72 115.698C557.603 114.588 560.713 113.773 565.223 113.604C564.927 99.3173 600.288 94.6294 610.142 115.475C615.352 111.251 626.231 111.643 626.95 117.357C637.008 115.511 644.954 117.592 648.588 119.77C650.508 120.917 651.227 122.093 650.424 122.739Z" fill="white"/>
<path opacity="0.08" d="M650.424 122.738C650.424 122.738 644.827 123.504 619.119 122.973C612.17 127.197 582.031 124.512 570.149 123.39C556.414 125.936 549.622 119.287 555.72 115.697C555.677 116.591 555.979 117.467 556.571 118.141C557.966 119.733 560.586 120.397 562.989 120.192C565.331 119.916 567.595 119.16 569.63 117.972C570.566 117.364 571.616 116.953 572.715 116.765C574.75 116.566 576.507 117.851 577.937 119.04C579.145 117.133 582.103 116.101 584.621 116.729C587.139 117.356 588.847 119.583 588.515 121.694C593.436 120.813 598.453 123.166 603.458 122.792C609.182 122.358 614.326 118.442 619.946 119.438C621.365 119.685 622.675 120.246 624.1 120.482C625.513 120.647 626.944 120.686 628.363 120.596C632.939 120.512 637.522 121.097 642.098 120.868C644.308 120.774 646.499 120.404 648.619 119.77C650.508 120.916 651.227 122.092 650.424 122.738Z" fill="#21252B"/>
<path d="M713.141 447.754H84.4806C84.3496 447.775 84.2149 447.768 84.0869 447.733C83.9583 447.697 83.8394 447.634 83.738 447.547C83.6366 447.462 83.5556 447.354 83.4995 447.234C83.4433 447.113 83.4144 446.981 83.4144 446.849C83.4144 446.716 83.4433 446.584 83.4995 446.464C83.5556 446.343 83.6366 446.236 83.738 446.15C83.8394 446.064 83.9583 446 84.0869 445.965C84.2149 445.929 84.3496 445.922 84.4806 445.944H713.141C713.274 445.922 713.407 445.929 713.534 445.965C713.667 446 713.781 446.064 713.884 446.15C713.987 446.236 714.065 446.343 714.125 446.464C714.18 446.584 714.21 446.716 714.21 446.849C714.21 446.981 714.18 447.113 714.125 447.234C714.065 447.354 713.987 447.462 713.884 447.547C713.781 447.634 713.667 447.697 713.534 447.733C713.407 447.768 713.274 447.775 713.141 447.754Z" fill="#B2B6BB"/>
<path d="M296.427 146.732L287.709 142.153C287.845 138.151 286.474 134.244 283.868 131.202C281.263 128.161 277.611 126.205 273.633 125.722C269.656 125.239 265.641 126.263 262.382 128.593C259.123 130.922 256.857 134.388 256.029 138.305C255.201 142.223 255.873 146.309 257.911 149.756C259.95 153.203 263.207 155.761 267.041 156.926C270.874 158.091 275.006 157.777 278.619 156.048C282.233 154.318 285.067 151.298 286.562 147.583L296.427 146.732Z" fill="white"/>
<path d="M271.734 157.936C269.463 157.917 267.221 157.423 265.153 156.487C263.084 155.552 261.233 154.195 259.72 152.503C258.207 150.811 257.064 148.821 256.365 146.662C255.665 144.503 255.425 142.222 255.659 139.965C255.894 137.707 256.598 135.525 257.726 133.555C258.854 131.585 260.381 129.873 262.21 128.528C264.039 127.182 266.129 126.234 268.346 125.743C270.563 125.252 272.858 125.229 275.084 125.676C278.802 126.459 282.129 128.516 284.49 131.491C286.851 134.465 288.099 138.17 288.017 141.966L297.477 146.943L286.773 147.878C285.545 150.855 283.46 153.399 280.783 155.19C278.105 156.981 274.956 157.937 271.734 157.936ZM271.734 125.923C268.886 125.927 266.093 126.706 263.654 128.175C261.216 129.644 259.222 131.748 257.888 134.262C256.555 136.777 255.93 139.606 256.083 142.448C256.235 145.289 257.157 148.036 258.752 150.394C260.347 152.752 262.554 154.631 265.135 155.832C267.717 157.033 270.577 157.509 273.409 157.21C276.241 156.91 278.938 155.847 281.211 154.133C283.485 152.419 285.249 150.119 286.314 147.48L286.381 147.311L295.407 146.521L287.432 142.328V142.153C287.554 138.468 286.373 134.858 284.098 131.957C281.823 129.056 278.598 127.047 274.988 126.285C273.909 126.048 272.808 125.926 271.703 125.923H271.734Z" fill="#B2B6BB"/>
<path d="M269.457 145.773L269.415 144.886C269.365 144.187 269.503 143.488 269.814 142.859C270.249 142.119 270.83 141.475 271.522 140.965C272.125 140.529 272.662 140.008 273.116 139.42C273.362 139.041 273.48 138.592 273.454 138.141C273.458 137.913 273.405 137.687 273.299 137.485C273.194 137.283 273.04 137.11 272.851 136.983C272.355 136.706 271.785 136.59 271.22 136.651C269.781 136.784 268.394 137.253 267.169 138.02L265.738 135.462C267.4 134.412 269.305 133.807 271.269 133.707C272.674 133.565 274.085 133.917 275.26 134.702C275.75 135.058 276.151 135.522 276.429 136.06C276.708 136.597 276.858 137.192 276.866 137.797C276.926 138.598 276.756 139.4 276.376 140.108C275.797 140.991 275.06 141.76 274.203 142.377C273.676 142.764 273.207 143.222 272.808 143.74C272.604 144.097 272.515 144.508 272.555 144.917L272.591 145.641L269.457 145.773ZM269.27 149.894C269.238 149.617 269.263 149.337 269.344 149.07C269.425 148.803 269.56 148.556 269.741 148.344C270.157 147.947 270.712 147.731 271.287 147.74C271.849 147.68 272.413 147.842 272.857 148.193C273.232 148.598 273.452 149.124 273.478 149.676C273.503 150.228 273.332 150.771 272.995 151.209C272.796 151.407 272.56 151.561 272.299 151.665C272.039 151.769 271.76 151.819 271.48 151.813C270.913 151.874 270.344 151.71 269.898 151.354C269.692 151.168 269.527 150.941 269.414 150.687C269.3 150.434 269.241 150.16 269.24 149.882L269.27 149.894Z" fill="#2196F3"/>
</svg>
