<svg width="427" height="301" viewBox="0 0 427 301" fill="none" xmlns="http://www.w3.org/2000/svg">
<path d="M367.149 300.124L424.384 186.629C425.897 183.626 426.633 180.291 426.518 176.93C426.407 173.57 425.449 170.292 423.738 167.397L335.03 17.413C333.311 14.5108 330.893 12.0874 327.991 10.3664C325.089 8.64564 321.799 7.68244 318.427 7.56598L100.307 0.0123153C97.073 -0.100918 93.8597 0.568091 90.9402 1.96165C88.0206 3.35557 85.4818 5.43318 83.5388 8.01748L4.16176 113.597C2.33644 116.024 1.08656 118.832 0.50538 121.812C-0.075436 124.791 0.0278822 127.863 0.807446 130.797L45.7696 300.131L367.149 300.124Z" fill="#3B82F6"/>
<path opacity="0.5" d="M367.149 300.124L424.384 186.629C425.897 183.626 426.633 180.291 426.518 176.93C426.407 173.57 425.449 170.292 423.738 167.397L335.03 17.413C333.311 14.5108 330.893 12.0874 327.991 10.3664C325.089 8.64564 321.799 7.68244 318.427 7.56598L100.307 0.0123153C97.073 -0.100918 93.8597 0.568091 90.9402 1.96165C88.0206 3.35557 85.4818 5.43318 83.5388 8.01748L4.16176 113.597C2.33644 116.024 1.08656 118.832 0.50538 121.812C-0.075436 124.791 0.0278822 127.863 0.807446 130.797L45.7696 300.131L367.149 300.124Z" fill="black"/>
<path d="M29.0088 240.074H397.431L367.149 300.12H45.7696L29.0088 240.074Z" fill="#495057"/>
<path opacity="0.3" d="M29.0088 240.074H397.431L367.149 300.12H45.7696L29.0088 240.074Z" fill="white"/>
<path d="M220.14 77.5628C220.14 77.5628 205.23 93.3295 194.285 103.52C186.568 110.716 163.013 132.359 163.013 132.359C163.013 132.359 181.617 143.958 189.047 148.276C194.83 151.634 212.456 162.04 212.456 162.04C212.456 162.04 248.151 144.7 259.879 138.451C266.354 135 285.3 123.791 285.3 123.791C285.3 123.791 257.525 106.749 248.65 100.453C241.249 95.1856 220.14 77.5628 220.14 77.5628Z" fill="#3B82F6"/>
<path opacity="0.7" d="M220.14 77.5628C220.14 77.5628 205.23 93.3295 194.285 103.52C186.568 110.716 163.013 132.359 163.013 132.359C163.013 132.359 181.617 143.958 189.047 148.276C194.83 151.634 212.456 162.04 212.456 162.04C212.456 162.04 248.151 144.7 259.879 138.451C266.354 135 285.3 123.791 285.3 123.791C285.3 123.791 257.525 106.749 248.65 100.453C241.249 95.1856 220.14 77.5628 220.14 77.5628Z" fill="white"/>
<path d="M163.013 132.359C163.013 132.359 186.568 110.727 194.285 103.531C205.23 93.3259 220.14 77.5735 220.14 77.5735V97.2102L213.729 97.8373L224.154 110.329L204.47 109.913L208.563 118.449L175.698 142.12L163.013 132.359Z" fill="white"/>
<path d="M321.716 93.0249C321.716 93.0249 283.223 116.431 269.482 123.917C253.019 132.875 200.778 158.123 200.778 158.123L276.657 209.537L411.594 170.228L392.58 132.603C392.58 132.603 363.034 119.133 353.703 114.152C342.427 108.084 331.722 101.013 321.716 93.0249Z" fill="#3B82F6"/>
<path opacity="0.5" d="M321.716 93.0249C321.716 93.0249 283.223 116.431 269.482 123.917C253.019 132.875 200.778 158.123 200.778 158.123L276.657 209.537L411.594 170.228L392.58 132.603C392.58 132.603 363.034 119.133 353.703 114.152C342.427 108.084 331.722 101.013 321.716 93.0249Z" fill="white"/>
<path d="M200.778 158.123C200.778 158.123 253.019 132.889 269.482 123.917C283.219 116.431 321.716 93.0249 321.716 93.0249L302.986 118.467L317.885 123.293L296.93 128.167L298.068 138.859L255.409 148.061L265.342 157.339L205.955 165.347L200.778 158.123Z" fill="white"/>
<path d="M118.373 82.2247C118.373 82.2247 141.19 97.8051 148.749 102.775C178.97 122.652 299.105 191.434 299.105 191.434L225.823 221.899L10.2139 165.734L4.83264 146.585C4.83264 146.585 46.1965 127.701 63.2515 118.585C82.2401 108.422 118.373 82.2247 118.373 82.2247Z" fill="#3B82F6"/>
<path opacity="0.3" d="M118.373 82.2247C118.373 82.2247 141.19 97.8051 148.749 102.775C178.97 122.652 299.105 191.434 299.105 191.434L225.823 221.899L10.2139 165.734L4.83264 146.585C4.83264 146.585 46.1965 127.701 63.2515 118.585C82.2401 108.422 118.373 82.2247 118.373 82.2247Z" fill="white"/>
<path d="M4.85413 146.585C4.85413 146.585 39.1183 132.456 63.2514 118.585C88.0841 104.309 118.373 82.2247 118.373 82.2247L123.579 103.958L105.175 110.605L119.274 118.431L17.4068 180.265L4.85413 146.585Z" fill="white"/>
<path d="M13.7117 100.894L4.02545 113.772C2.23816 116.15 1.0019 118.894 0.406379 121.806C-0.189146 124.719 -0.129597 127.727 0.581446 130.614L18.0167 201.428L113.466 205.036L133.685 185.475C133.685 185.475 115.291 170.783 102.8 185.099C102.8 185.099 107.417 144.059 85.3074 137.799C78.8105 135.96 70.326 139.791 66.6704 149.875C66.6704 149.875 65.5941 137.67 56.3778 134.516C51.2836 132.771 48.0154 135.727 46.114 138.709C46.114 138.709 46.2109 126.934 32.2946 128.593C32.2982 128.604 32.0438 108.784 13.7117 100.894Z" fill="#195DBB"/>
<path opacity="0.5" d="M13.7117 100.894L4.02545 113.772C2.23816 116.15 1.0019 118.894 0.406379 121.806C-0.189146 124.719 -0.129597 127.727 0.581446 130.614L18.0167 201.428L113.466 205.036L133.685 185.475C133.685 185.475 115.291 170.783 102.8 185.099C102.8 185.099 107.417 144.059 85.3074 137.799C78.8105 135.96 70.326 139.791 66.6704 149.875C66.6704 149.875 65.5941 137.67 56.3778 134.516C51.2836 132.771 48.0154 135.727 46.114 138.709C46.114 138.709 46.2109 126.934 32.2946 128.593C32.2982 128.604 32.0438 108.784 13.7117 100.894Z" fill="white"/>
<path d="M196.007 215.177C196.007 215.177 207.168 189.019 233.317 191.749C239.746 192.423 249.31 198.558 250.157 203.933C250.157 203.933 251.283 192.742 264.345 192.824C267.795 192.823 271.178 193.774 274.121 195.573C274.121 195.573 271.273 184.525 286.577 183.748C286.577 183.748 281.336 168.035 286.577 165.913C291.818 163.792 294.624 174.492 294.624 174.492C294.624 174.492 292.27 156.665 296.597 155.679C300.923 154.694 304.489 171.296 304.489 171.296C304.489 171.296 306.416 145.177 337.523 149.584C337.523 149.584 331.614 135.502 340.034 134.434C342.395 134.133 344.433 135.48 346.133 137.573C346.133 137.573 343.234 122.093 360.171 114.905C360.171 114.905 353.05 105.398 357.997 102.746C361.531 100.851 366.524 107.405 369.089 111.346C369.089 111.346 372.846 99.4247 382.033 96.9092L423.648 167.3C425.384 170.237 426.353 173.565 426.461 176.975C426.568 180.385 425.811 183.767 424.265 186.808L397.136 240.117H209.152L196.007 215.177Z" fill="#195DBB"/>
<path opacity="0.5" d="M196.007 215.177C196.007 215.177 207.168 189.019 233.317 191.749C239.746 192.423 249.31 198.558 250.157 203.933C250.157 203.933 251.283 192.742 264.345 192.824C267.795 192.823 271.178 193.774 274.121 195.573C274.121 195.573 271.273 184.525 286.577 183.748C286.577 183.748 281.336 168.035 286.577 165.913C291.818 163.792 294.624 174.492 294.624 174.492C294.624 174.492 292.27 156.665 296.597 155.679C300.923 154.694 304.489 171.296 304.489 171.296C304.489 171.296 306.416 145.177 337.523 149.584C337.523 149.584 331.614 135.502 340.034 134.434C342.395 134.133 344.433 135.48 346.133 137.573C346.133 137.573 343.234 122.093 360.171 114.905C360.171 114.905 353.05 105.398 357.997 102.746C361.531 100.851 366.524 107.405 369.089 111.346C369.089 111.346 372.846 99.4247 382.033 96.9092L423.648 167.3C425.384 170.237 426.353 173.565 426.461 176.975C426.568 180.385 425.811 183.767 424.265 186.808L397.136 240.117H209.152L196.007 215.177Z" fill="white"/>
<path d="M31.2653 168.676C31.7701 170.24 32.357 171.775 33.0232 173.277C32.5644 171.698 31.9764 170.159 31.2653 168.676Z" fill="#195DBB"/>
<path d="M113.469 205.036C113.254 202.073 111.252 200.249 109.089 199.199C101.555 195.551 97.0923 202.284 97.0923 202.284C97.2825 197.544 96.2887 193.408 92.9954 191.416C82.4589 185.034 74.8355 196.902 74.8355 196.902C74.8355 196.902 75.9548 183.913 70.6883 172.604C65.4219 161.295 55.1042 174.621 55.1042 174.621C55.1042 174.621 59.3662 146.18 50.7347 147.746C42.1031 149.312 43.2189 169.174 43.2189 169.174C43.2189 169.174 38.6269 149.201 32.2375 153.458C28.094 156.217 29.6545 163.731 31.2653 168.676C31.9763 170.159 32.5643 171.698 33.0232 173.277C32.357 171.775 31.7701 170.24 31.2653 168.676C29.3065 164.588 25.658 159.456 20.0185 160.847C10.9385 163.086 16.3628 195.687 16.3628 195.687L29.0088 240.071H87.8438L113.469 205.036Z" fill="#195DBB"/>
<g opacity="0.3">
<path opacity="0.3" d="M31.2653 168.676C31.7701 170.24 32.357 171.775 33.0232 173.277C32.5644 171.698 31.9764 170.159 31.2653 168.676Z" fill="white"/>
<path opacity="0.3" d="M113.469 205.036C113.254 202.073 111.252 200.249 109.089 199.199C101.555 195.551 97.0923 202.284 97.0923 202.284C97.2825 197.544 96.2887 193.408 92.9954 191.416C82.4589 185.034 74.8355 196.902 74.8355 196.902C74.8355 196.902 75.9548 183.913 70.6883 172.604C65.4219 161.295 55.1042 174.621 55.1042 174.621C55.1042 174.621 59.3662 146.18 50.7347 147.746C42.1031 149.312 43.2189 169.174 43.2189 169.174C43.2189 169.174 38.6269 149.201 32.2375 153.458C28.094 156.217 29.6545 163.731 31.2653 168.676C31.9763 170.159 32.5643 171.698 33.0232 173.277C32.357 171.775 31.7701 170.24 31.2653 168.676C29.3065 164.588 25.658 159.456 20.0185 160.847C10.9385 163.086 16.3628 195.687 16.3628 195.687L29.0088 240.071H87.8438L113.469 205.036Z" fill="white"/>
</g>
<path d="M397.377 240.092L254.006 240.071C254.006 240.071 251.136 227.289 256.56 224.071C261.985 220.853 268.894 231.044 268.894 231.044C268.894 231.044 267.585 224.429 272.406 224.594C274.835 224.68 276.292 227.547 276.711 230.417C276.711 230.417 275.258 209.164 302.753 212.658C302.753 212.658 300.242 205.592 310.018 203.743C310.018 203.743 314.681 181.168 337.724 188.277C337.724 188.277 336.178 179.677 341.932 176.183C346.754 173.241 350.165 174.986 352.232 177.076C352.232 177.076 347.568 168.554 354.173 162.065C356.451 159.788 359.418 158.324 362.614 157.898C362.614 157.898 365.624 144.757 383.547 147.148C390.722 148.108 395.425 150.76 398.464 153.598C398.464 153.598 402.855 143.285 413.485 150.05L423.494 167.279C425.259 170.205 426.271 173.522 426.446 176.933C426.619 180.345 425.944 183.747 424.488 186.837L397.377 240.092Z" fill="#195DBB"/>
<path opacity="0.3" d="M397.377 240.092L254.006 240.071C254.006 240.071 251.136 227.289 256.56 224.071C261.985 220.853 268.894 231.044 268.894 231.044C268.894 231.044 267.585 224.429 272.406 224.594C274.835 224.68 276.292 227.547 276.711 230.417C276.711 230.417 275.258 209.164 302.753 212.658C302.753 212.658 300.242 205.592 310.018 203.743C310.018 203.743 314.681 181.168 337.724 188.277C337.724 188.277 336.178 179.677 341.932 176.183C346.754 173.241 350.165 174.986 352.232 177.076C352.232 177.076 347.568 168.554 354.173 162.065C356.451 159.788 359.418 158.324 362.614 157.898C362.614 157.898 365.624 144.757 383.547 147.148C390.722 148.108 395.425 150.76 398.464 153.598C398.464 153.598 402.855 143.285 413.485 150.05L423.494 167.279C425.259 170.205 426.271 173.522 426.446 176.933C426.619 180.345 425.944 183.747 424.488 186.837L397.377 240.092Z" fill="white"/>
<path d="M142.797 300.124C142.797 300.124 139.999 288.234 143.375 286.801C146.75 285.367 145.402 296.641 145.402 296.641C145.402 296.641 148.074 275.692 155.063 275.904C162.051 276.115 150.934 295.361 150.934 295.361C150.934 295.361 158.216 288.008 160.778 290.846C163.192 293.523 155.443 300.12 155.443 300.12L142.797 300.124Z" fill="#495057"/>
<path d="M162.403 300.124C162.403 300.124 169.578 291.484 180.954 291.674C192.33 291.864 198.737 300.124 198.737 300.124H162.403Z" fill="#195DBB"/>
<path d="M252.521 300.124C252.521 300.124 254.723 295.684 265.113 295.465C271.822 295.322 276.679 299.249 276.679 299.249C276.679 299.249 278.423 295.014 282.516 295.34C286.609 295.666 291.843 300.124 291.843 300.124H252.521Z" fill="#195DBB"/>
<path d="M194.131 300.124C194.131 300.124 190.306 294.641 193.176 292.703C196.046 290.764 204.437 300.124 204.437 300.124H194.131Z" fill="#495057"/>
<path d="M206.64 300.124C206.64 300.124 209.152 285.131 214.174 284.694C219.197 284.257 213.385 298.576 213.385 298.576C213.385 298.576 223.161 287.145 228.861 287.801C234.562 288.456 223.839 298.551 223.839 298.551C223.839 298.551 233.425 293.136 241.464 295.44C247.785 297.253 249.966 300.142 249.966 300.142L206.64 300.124Z" fill="#495057"/>
<path d="M299.104 300.124C299.104 300.124 302.168 293.236 313.257 292.516C313.257 292.516 305.189 286.066 307.621 283.017C310.054 279.967 319.883 290.355 319.883 290.355C319.883 290.355 317.447 281.802 319.883 280.72C322.319 279.638 326.735 289.409 326.735 289.409C326.735 289.409 327.636 278.423 341.085 281.125C341.085 281.125 333.135 270.343 340.293 264.473C343.407 261.925 347.826 263.398 351.826 265.906C351.826 265.906 338.341 245.671 347.597 241.353C356.852 237.035 368.404 255.93 368.404 255.93C368.404 255.93 368.878 243.389 388.135 246.753C388.135 246.753 376.422 239.228 380.415 236.681C384.408 234.133 392.229 239.873 392.229 239.873C392.229 239.873 377.574 227.719 382.955 222.559C388.462 217.284 400.807 233.359 400.807 233.359L367.138 300.124H299.104Z" fill="#495057"/>
<path d="M387.084 300.554H29.5218C29.4647 300.554 29.4098 300.532 29.3693 300.489C29.3291 300.45 29.3065 300.396 29.3065 300.339C29.3065 300.281 29.3291 300.228 29.3693 300.188C29.4098 300.145 29.4647 300.124 29.5218 300.124H387.127C387.156 300.124 387.185 300.127 387.21 300.138C387.239 300.149 387.264 300.163 387.282 300.185C387.303 300.202 387.317 300.228 387.328 300.256C387.339 300.281 387.343 300.31 387.343 300.339C387.335 300.4 387.307 300.457 387.257 300.5C387.21 300.539 387.145 300.557 387.084 300.554Z" fill="#3B82F6"/>
<g opacity="0.6">
<path opacity="0.6" d="M387.084 300.554H29.5218C29.4647 300.554 29.4098 300.532 29.3693 300.489C29.3291 300.45 29.3065 300.396 29.3065 300.339C29.3065 300.281 29.3291 300.228 29.3693 300.188C29.4098 300.145 29.4647 300.124 29.5218 300.124H387.127C387.156 300.124 387.185 300.127 387.21 300.138C387.239 300.149 387.264 300.163 387.282 300.185C387.303 300.202 387.317 300.228 387.328 300.256C387.339 300.281 387.343 300.31 387.343 300.339C387.335 300.4 387.307 300.457 387.257 300.5C387.21 300.539 387.145 300.557 387.084 300.554Z" fill="white"/>
</g>
<path d="M166.539 24.9416C168.96 28.5532 170.147 32.85 169.924 37.1909C169.7 41.5317 168.078 45.6841 165.299 49.0284C162.52 52.3731 158.732 54.7306 154.502 55.7497C150.272 56.7688 145.825 56.3947 141.825 54.6833C143.672 56.9056 145.987 58.6944 148.605 59.9221C151.223 61.1494 154.079 61.7858 156.972 61.7858C159.864 61.7854 162.72 61.1487 165.338 59.9207C167.956 58.693 170.27 56.9039 172.117 54.6811C173.964 52.4584 175.298 49.8565 176.025 47.0604C176.75 44.2644 176.851 41.3425 176.318 38.5034C175.786 35.664 174.633 32.9769 172.943 30.633C171.253 28.2891 169.067 26.3459 166.539 24.9416Z" fill="white"/>
<path d="M224.154 33.6455C224.537 33.6455 224.847 33.3359 224.847 32.9539C224.847 32.5719 224.537 32.2623 224.154 32.2623C223.772 32.2623 223.462 32.5719 223.462 32.9539C223.462 33.3359 223.772 33.6455 224.154 33.6455Z" fill="white"/>
<path d="M181.18 17.671C181.562 17.671 181.872 17.3614 181.872 16.9794C181.872 16.5974 181.562 16.2878 181.18 16.2878C180.797 16.2878 180.487 16.5974 180.487 16.9794C180.487 17.3614 180.797 17.671 181.18 17.671Z" fill="white"/>
<path d="M321.716 33.6455C322.1 33.6455 322.409 33.3359 322.409 32.9539C322.409 32.5719 322.1 32.2623 321.716 32.2623C321.333 32.2623 321.024 32.5719 321.024 32.9539C321.024 33.3359 321.333 33.6455 321.716 33.6455Z" fill="white"/>
<path d="M43.0861 81.8915C43.4686 81.8915 43.7785 81.5819 43.7785 81.1999C43.7785 80.8179 43.4686 80.5083 43.0861 80.5083C42.7037 80.5083 42.3937 80.8179 42.3937 81.1999C42.3937 81.5819 42.7037 81.8915 43.0861 81.8915Z" fill="white"/>
<path d="M253.177 54.5256C253.56 54.5256 253.87 54.216 253.87 53.834C253.87 53.452 253.56 53.1424 253.177 53.1424C252.795 53.1424 252.485 53.452 252.485 53.834C252.485 54.216 252.795 54.5256 253.177 54.5256Z" fill="white"/>
<path d="M285.3 25.6332C285.684 25.6332 285.992 25.3236 285.992 24.9416C285.992 24.5596 285.684 24.25 285.3 24.25C284.917 24.25 284.607 24.5596 284.607 24.9416C284.607 25.3236 284.917 25.6332 285.3 25.6332Z" fill="white"/>
<path d="M340.59 68.9091C340.974 68.9091 341.283 68.5995 341.283 68.2175C341.283 67.8355 340.974 67.5259 340.59 67.5259C340.206 67.5259 339.898 67.8355 339.898 68.2175C339.898 68.5995 340.206 68.9091 340.59 68.9091Z" fill="white"/>
<path d="M288.148 86.8508C288.532 86.8508 288.841 86.5412 288.841 86.1592C288.841 85.7772 288.532 85.4677 288.148 85.4677C287.764 85.4677 287.456 85.7772 287.456 86.1592C287.456 86.5412 287.764 86.8508 288.148 86.8508Z" fill="white"/>
<path d="M200.778 66.218C201.161 66.218 201.471 65.9084 201.471 65.5264C201.471 65.1444 201.161 64.8348 200.778 64.8348C200.396 64.8348 200.086 65.1444 200.086 65.5264C200.086 65.9084 200.396 66.218 200.778 66.218Z" fill="white"/>
<path d="M77.2427 93.0249C77.6251 93.0249 77.9351 92.7153 77.9351 92.3333C77.9351 91.9513 77.6251 91.6417 77.2427 91.6417C76.8603 91.6417 76.5503 91.9513 76.5503 92.3333C76.5503 92.7153 76.8603 93.0249 77.2427 93.0249Z" fill="white"/>
<path d="M102.176 55.9087C102.558 55.9087 102.868 55.5991 102.868 55.2172C102.868 54.8352 102.558 54.5256 102.176 54.5256C101.793 54.5256 101.483 54.8352 101.483 55.2172C101.483 55.5991 101.793 55.9087 102.176 55.9087Z" fill="white"/>
<path d="M45.4252 111.217C45.8076 111.217 46.1176 110.908 46.1176 110.526C46.1176 110.144 45.8076 109.834 45.4252 109.834C45.0427 109.834 44.7328 110.144 44.7328 110.526C44.7328 110.908 45.0427 111.217 45.4252 111.217Z" fill="white"/>
<path d="M130.488 38.7267C130.871 38.7267 131.181 38.4171 131.181 38.0351C131.181 37.6531 130.871 37.3435 130.488 37.3435C130.106 37.3435 129.796 37.6531 129.796 38.0351C129.796 38.4171 130.106 38.7267 130.488 38.7267Z" fill="white"/>
<path d="M98.5776 19.0541C98.96 19.0541 99.27 18.7445 99.27 18.3625C99.27 17.9806 98.96 17.671 98.5776 17.671C98.1952 17.671 97.8852 17.9806 97.8852 18.3625C97.8852 18.7445 98.1952 19.0541 98.5776 19.0541Z" fill="white"/>
<path d="M148.555 81.1999C148.937 81.1999 149.247 80.8903 149.247 80.5083C149.247 80.1263 148.937 79.8167 148.555 79.8167C148.173 79.8167 147.863 80.1263 147.863 80.5083C147.863 80.8903 148.173 81.1999 148.555 81.1999Z" fill="white"/>
<path d="M193.585 89.5742C193.968 89.5742 194.278 89.2646 194.278 88.8826C194.278 88.5006 193.968 88.191 193.585 88.191C193.203 88.191 192.893 88.5006 192.893 88.8826C192.893 89.2646 193.203 89.5742 193.585 89.5742Z" fill="white"/>
<path d="M67.9331 56.5967C68.3155 56.5967 68.6255 56.2871 68.6255 55.9052C68.6255 55.5232 68.3155 55.2136 67.9331 55.2136C67.5507 55.2136 67.2407 55.5232 67.2407 55.9052C67.2407 56.2871 67.5507 56.5967 67.9331 56.5967Z" fill="white"/>
<path d="M320.787 221.43H291.334C290.182 221.43 289.246 222.364 289.246 223.516V270.554C289.246 271.706 290.182 272.64 291.334 272.64H320.787C321.939 272.64 322.875 271.706 322.875 270.554V223.516C322.875 222.364 321.939 221.43 320.787 221.43Z" fill="#495057"/>
<path opacity="0.1" d="M320.787 221.43H291.334C290.182 221.43 289.246 222.364 289.246 223.516V270.554C289.246 271.706 290.182 272.64 291.334 272.64H320.787C321.939 272.64 322.875 271.706 322.875 270.554V223.516C322.875 222.364 321.939 221.43 320.787 221.43Z" fill="white"/>
<path d="M315.449 221.43H285.996C284.843 221.43 283.908 222.364 283.908 223.516V270.554C283.908 271.706 284.843 272.64 285.996 272.64H315.449C316.601 272.64 317.537 271.706 317.537 270.554V223.516C317.537 222.364 316.601 221.43 315.449 221.43Z" fill="#495057"/>
<path opacity="0.2" d="M315.449 221.43H285.996C284.843 221.43 283.908 222.364 283.908 223.516V270.554C283.908 271.706 284.843 272.64 285.996 272.64H315.449C316.601 272.64 317.537 271.706 317.537 270.554V223.516C317.537 222.364 316.601 221.43 315.449 221.43Z" fill="white"/>
<path d="M306.929 256.371H306.635C305.838 256.371 305.2 255.615 305.2 254.687V239.021C305.221 238.713 305.121 238.41 304.916 238.176C304.715 237.943 304.432 237.798 304.123 237.774H303.955C303.646 237.798 303.363 237.943 303.162 238.176C302.957 238.41 302.857 238.713 302.879 239.021V251.731C302.879 252.659 302.229 253.415 301.444 253.415C300.658 253.415 300.009 252.659 300.009 251.731V234.642H300.367V251.731C300.367 252.016 300.482 252.289 300.683 252.491C300.884 252.693 301.157 252.806 301.444 252.806C301.731 252.806 302.003 252.693 302.204 252.491C302.405 252.289 302.52 252.016 302.52 251.731V239.021C302.52 238.093 303.169 237.337 303.955 237.337H304.123C304.923 237.337 305.558 238.093 305.558 239.021V254.687C305.537 254.995 305.637 255.298 305.838 255.532C306.039 255.766 306.326 255.91 306.635 255.934H306.929C307.237 255.91 307.524 255.766 307.725 255.532C307.926 255.298 308.027 254.995 308.005 254.687V242.941C308.001 241.475 308.256 240.02 308.755 238.641C309.232 237.309 309.472 235.905 309.472 234.491V226.812C309.472 223.867 307.198 221.437 307.176 221.437H307.718C309.045 222.918 309.802 224.825 309.845 226.812V234.484C309.845 235.95 309.594 237.405 309.099 238.784C308.622 240.114 308.378 241.517 308.382 242.93V254.676C308.375 255.626 307.725 256.371 306.929 256.371Z" fill="#495057"/>
<path d="M313.175 272.639H308.055V267.032C308.048 266.191 308.31 265.371 308.802 264.688L310.85 261.897C311.28 261.296 311.51 260.575 311.506 259.836V253.938C311.489 253.818 311.496 253.696 311.532 253.58C311.564 253.464 311.625 253.356 311.704 253.265C311.783 253.174 311.88 253.1 311.991 253.05C312.098 253 312.22 252.973 312.342 252.973C312.461 252.973 312.583 253 312.69 253.05C312.802 253.1 312.898 253.174 312.977 253.265C313.056 253.356 313.117 253.464 313.15 253.58C313.185 253.696 313.193 253.818 313.175 253.938V272.639ZM308.432 272.639H312.798V253.938C312.805 253.873 312.802 253.807 312.78 253.744C312.762 253.682 312.73 253.624 312.687 253.575C312.644 253.526 312.59 253.486 312.529 253.459C312.468 253.432 312.403 253.419 312.339 253.419C312.274 253.419 312.21 253.432 312.149 253.459C312.088 253.486 312.034 253.526 311.991 253.575C311.948 253.624 311.915 253.682 311.898 253.744C311.876 253.807 311.872 253.873 311.88 253.938V259.836C311.887 260.676 311.625 261.497 311.137 262.18L309.085 264.971C308.654 265.572 308.428 266.293 308.432 267.032V272.639Z" fill="#495057"/>
<path d="M313.031 244.718C311.987 244.718 311.137 243.729 311.137 242.511V236.222C311.13 235.545 311.37 234.889 311.815 234.377C312.181 233.949 312.378 233.405 312.375 232.843V223.985C312.382 223.406 312.167 222.845 311.779 222.415L310.857 221.437H314.925V242.511C314.925 243.729 314.075 244.718 313.031 244.718ZM311.413 221.426L312.03 222.082C312.5 222.601 312.755 223.276 312.748 223.974V232.832C312.755 233.509 312.515 234.165 312.07 234.678C311.704 235.105 311.506 235.649 311.51 236.211V242.511C311.51 243.489 312.192 244.281 313.028 244.281C313.863 244.281 314.549 243.489 314.549 242.511V221.437L311.413 221.426Z" fill="#495057"/>
<path d="M298.939 272.639H295.32V261.753C295.316 261.459 295.417 261.172 295.607 260.947L296.805 259.55C296.923 259.411 296.988 259.234 296.984 259.051V254.458C296.963 254.316 296.97 254.172 297.009 254.034C297.049 253.896 297.117 253.768 297.207 253.659C297.3 253.55 297.418 253.463 297.548 253.403C297.677 253.343 297.82 253.312 297.964 253.312C298.104 253.312 298.247 253.343 298.376 253.403C298.505 253.463 298.624 253.55 298.717 253.659C298.81 253.768 298.878 253.896 298.914 254.034C298.954 254.172 298.961 254.316 298.939 254.458V272.639ZM295.711 272.639H298.581V254.458C298.592 254.372 298.584 254.284 298.559 254.201C298.534 254.118 298.491 254.041 298.434 253.976C298.376 253.91 298.308 253.858 298.229 253.822C298.15 253.786 298.064 253.768 297.978 253.768C297.888 253.768 297.802 253.786 297.723 253.822C297.644 253.858 297.576 253.91 297.519 253.976C297.461 254.041 297.418 254.118 297.393 254.201C297.368 254.284 297.361 254.372 297.372 254.458V259.051C297.375 259.346 297.275 259.632 297.085 259.858L295.887 261.255C295.768 261.394 295.704 261.571 295.707 261.753L295.711 272.639Z" fill="#495057"/>
<path d="M283.779 248.577L283.922 251.143L285.146 250.577L283.779 248.577Z" fill="#495057"/>
<path d="M281.745 245.625L284.518 249.652L287.599 250.932L289.39 244.818L286.53 240.411L281.745 245.625Z" fill="#FC9D9D"/>
<path d="M283.542 248.237L284.518 249.652L287.599 250.932L289.389 244.819L288.22 243.013L283.542 248.237Z" fill="white"/>
<path d="M291.664 249.004L292.686 250.724L288.715 259.926C288.03 261.513 286.774 262.674 285.357 263.667L283.886 264.699C281.874 265.727 280.374 263.266 280.374 263.266L282.451 263.344L286.125 260.245L291.664 249.004Z" fill="white"/>
<path d="M279.779 262.52C279.602 262.154 279.534 261.744 279.581 261.34C279.628 260.936 279.788 260.554 280.044 260.238L282.606 257.084L281.999 253.046C281.908 252.437 282.008 251.815 282.285 251.265C282.561 250.716 283.002 250.265 283.545 249.975C284.074 249.694 284.674 249.578 285.267 249.642C285.863 249.706 286.426 249.947 286.882 250.333L287.599 250.939L288.08 245.102C288.091 244.998 288.123 244.898 288.173 244.809C288.227 244.719 288.295 244.642 288.381 244.582L288.963 244.159L291.657 248.993L287.624 258.349C286.936 259.937 285.816 261.302 284.396 262.291L282.921 263.323C282.668 263.497 282.381 263.615 282.078 263.669C281.776 263.722 281.465 263.711 281.167 263.635C280.87 263.559 280.592 263.42 280.352 263.228C280.113 263.035 279.917 262.794 279.779 262.52Z" fill="#195DBB"/>
<path d="M281.483 258.464C281.483 258.464 281.745 259.768 283.054 259.471C284.363 259.173 287.169 255.887 287.599 250.932C287.599 250.932 285.999 249.14 284.012 249.771C282.024 250.401 281.859 252.25 282.06 253.526C282.283 254.855 282.577 257.077 282.595 257.084L281.483 258.464Z" fill="#495057"/>
<path d="M282.458 256.117L283.893 255.819C283.945 255.808 283.99 255.777 284.019 255.733C284.048 255.689 284.058 255.634 284.048 255.583C284.043 255.557 284.032 255.533 284.018 255.511C284.003 255.489 283.984 255.47 283.962 255.456C283.94 255.442 283.915 255.432 283.889 255.427C283.863 255.422 283.836 255.423 283.811 255.429L282.405 255.723L282.458 256.117Z" fill="white"/>
<path d="M282.25 254.723L284.016 254.364C284.062 254.349 284.102 254.317 284.126 254.275C284.151 254.232 284.159 254.182 284.149 254.134C284.14 254.086 284.113 254.043 284.073 254.014C284.034 253.984 283.985 253.97 283.937 253.974L282.179 254.332L282.25 254.723Z" fill="white"/>
<path d="M282.039 253.297L284.134 252.859C284.18 252.844 284.22 252.812 284.245 252.77C284.269 252.727 284.277 252.677 284.268 252.629C284.258 252.581 284.231 252.538 284.192 252.509C284.152 252.479 284.104 252.465 284.055 252.469L281.981 252.899L282.039 253.297Z" fill="white"/>
<path d="M322.886 199.575V213.55C322.886 215.641 322.054 217.646 320.576 219.125C319.094 220.603 317.089 221.434 314.993 221.434H306.703L301.583 251.383H292.005L292.238 215.396C292.249 214.041 292.668 212.721 293.451 211.612C294.229 210.504 295.33 209.66 296.604 209.193L322.886 199.575Z" fill="#495057"/>
<path opacity="0.2" d="M299.352 251.408H301.576L306.696 221.455H304.468L299.352 251.408Z" fill="black"/>
<path opacity="0.2" d="M320.658 200.392V213.565C320.658 215.656 319.826 217.661 318.348 219.139C316.866 220.617 314.857 221.448 312.766 221.448H314.993C317.085 221.448 319.094 220.617 320.576 219.139C322.054 217.661 322.886 215.656 322.886 213.565V199.59L320.658 200.392Z" fill="black"/>
<path d="M275.947 205.817L258.928 206.176C257.925 206.198 256.948 206.501 256.108 207.049C255.268 207.597 254.598 208.368 254.174 209.277C253.749 210.185 253.588 211.194 253.707 212.189C253.826 213.184 254.222 214.126 254.849 214.908L279.603 245.635L285.644 238.91L273.859 221.441H293.207L316.96 202.711L297.16 196.103L275.947 205.817Z" fill="#495057"/>
<path opacity="0.2" d="M289.648 221.43L289.687 215.417C289.698 214.062 290.118 212.742 290.9 211.634C291.678 210.526 292.78 209.681 294.053 209.214L320.339 199.575V200.145L295.714 209.537C293.106 210.49 292.249 212.644 292.231 215.417L292.191 221.43H289.648Z" fill="black"/>
<path d="M283.757 181.512L315.546 197.78L326.179 199.213L324.027 178.828C323.403 174.266 320.999 172.467 318.692 171.661L297.203 167.719L283.757 181.512Z" fill="#3B82F6"/>
<path d="M270.856 179.136L279.768 167.508C280.566 166.465 281.644 165.671 282.877 165.216C284.109 164.761 285.447 164.665 286.731 164.939L316.037 171.17L296.016 180.182L285.016 180.645L281.013 183.716L270.523 182.046L270.856 179.136Z" fill="#3B82F6"/>
<path d="M304.532 158.12C304.532 158.12 309.623 157.919 311.625 159.962C313.139 161.506 313.469 165.86 310.111 168.404C306.753 170.948 301.978 172.453 301.978 172.453L304.532 158.12Z" fill="#3B82F6"/>
<path opacity="0.5" d="M304.532 158.12C304.532 158.12 309.623 157.919 311.625 159.962C313.139 161.506 313.469 165.86 310.111 168.404C306.753 170.948 301.978 172.453 301.978 172.453L304.532 158.12Z" fill="black"/>
<path d="M303.75 144.406C307.176 144.105 308.658 147.839 309.067 152.469C309.476 157.098 308.683 159.901 305.261 160.202C301.838 160.503 298.803 158.03 298.412 153.393C298.021 148.756 300.324 144.707 303.75 144.406Z" fill="black"/>
<path d="M293.3 155.701C293.3 155.701 303.811 147.757 304.995 156.242L305.354 158.435L307.56 170.826C307.589 171.152 294.512 169.784 294.53 169.368L294.66 163.993C294.455 163.364 294.326 162.713 294.272 162.054C293.863 158.7 293.3 155.701 293.3 155.701Z" fill="#FC9D9D"/>
<path d="M301.153 172.546C304.636 172.241 307.32 170.418 307.148 168.474C306.979 166.531 304.019 165.202 300.536 165.506C297.056 165.811 294.369 167.635 294.541 169.578C294.71 171.522 297.673 172.851 301.153 172.546Z" fill="#FC9D9D"/>
<path d="M292.033 156.321C294.121 156.321 295.811 154.632 295.811 152.548C295.811 150.464 294.121 148.774 292.033 148.774C289.946 148.774 288.256 150.464 288.256 152.548C288.256 154.632 289.946 156.321 292.033 156.321Z" fill="black"/>
<path d="M291.517 149.796C291.517 149.796 289.006 166.695 297.616 167.067C305.063 167.404 304.877 155.869 304.877 155.869L303.872 148.484L291.517 149.796Z" fill="#FC9D9D"/>
<path d="M303.424 154.024C303.858 158.016 302.48 160.427 302.48 160.427C293.26 159.997 291.99 161.793 291.99 161.793C291.99 161.793 292.941 166.283 296.783 166.938C300.626 167.594 306.111 164.788 305.627 159.646C305.508 158.378 302.828 151.702 302.828 151.702L303.424 154.024Z" fill="black"/>
<g opacity="0.3">
<path opacity="0.3" d="M296.722 164.018C296.751 164.043 296.722 164.047 296.722 164.018H297.763C297.824 164.014 297.881 163.986 297.924 163.942C297.967 163.898 297.992 163.839 297.992 163.778C297.992 163.747 297.985 163.716 297.974 163.688C297.96 163.66 297.942 163.634 297.921 163.613C297.899 163.592 297.87 163.575 297.842 163.565C297.813 163.555 297.784 163.55 297.752 163.552H296.737C296.6 163.552 296.496 163.656 296.507 163.764C296.521 163.928 296.611 164.029 296.722 164.018Z" fill="black"/>
</g>
<path d="M296.281 163.083C298.161 163.19 298.918 162.112 299.173 161.592C299.187 161.491 299.18 161.387 299.155 161.289C299.126 161.19 299.079 161.098 299.015 161.019C298.9 160.976 295.14 162.291 295.097 162.405C295.054 162.52 295.194 162.904 295.309 162.947C295.628 163.023 295.955 163.068 296.281 163.083Z" fill="white"/>
<path d="M295.973 151.691C299.305 151.399 301.82 149.023 301.587 146.383C301.357 143.743 298.466 141.84 295.133 142.132C291.8 142.424 289.285 144.8 289.515 147.44C289.748 150.08 292.636 151.983 295.973 151.691Z" fill="black"/>
<path d="M303.226 144.542C305.314 144.36 307.194 146.334 307.427 148.975C307.661 151.616 306.2 154.458 304.113 154.64C302.025 154.823 300.095 152.268 299.865 149.624C299.635 146.979 301.139 144.714 303.226 144.542Z" fill="black"/>
<path opacity="0.15" d="M305.4 158.98C305.024 159.044 304.636 158.991 304.288 158.829L305.648 160.574L305.4 158.98Z" fill="black"/>
<path d="M291.578 151.136C291.933 151.324 292.299 151.486 292.676 151.62C292.722 151.635 292.769 151.632 292.812 151.612C292.855 151.592 292.887 151.556 292.905 151.512C292.916 151.49 292.92 151.466 292.92 151.442C292.92 151.419 292.912 151.395 292.905 151.373C292.895 151.351 292.88 151.332 292.862 151.316C292.841 151.301 292.819 151.29 292.798 151.283C292.798 151.283 291.757 150.785 291.657 150.727C291.363 150.537 291.086 150.322 290.828 150.086C290.81 150.069 290.792 150.056 290.771 150.047C290.749 150.038 290.728 150.033 290.703 150.033C290.681 150.033 290.656 150.038 290.634 150.047C290.613 150.056 290.595 150.069 290.577 150.086C290.559 150.102 290.548 150.122 290.538 150.144C290.53 150.166 290.523 150.189 290.523 150.213C290.523 150.237 290.53 150.26 290.538 150.282C290.548 150.304 290.559 150.324 290.577 150.34C290.875 150.646 291.212 150.913 291.578 151.136Z" fill="#FC9D9D"/>
<path opacity="0.15" d="M294.595 168.551V165.989C295.582 166.784 297.146 167.329 299.467 166.881C300.608 166.65 301.691 166.202 302.66 165.562C302.778 165.476 302.85 165.462 302.932 165.516C302.947 165.53 302.957 165.547 302.968 165.566C302.975 165.584 302.979 165.605 302.979 165.625C302.979 165.645 302.975 165.666 302.968 165.685C302.957 165.703 302.947 165.72 302.932 165.734C302.624 166.05 301.415 166.809 299.449 167.254C296.834 169.267 294.595 168.551 294.595 168.551Z" fill="black"/>
<path d="M298.685 158.804C299.061 158.804 299.37 158.498 299.37 158.12C299.37 157.742 299.061 157.435 298.685 157.435C298.304 157.435 298 157.742 298 158.12C298 158.498 298.304 158.804 298.685 158.804Z" fill="black"/>
<path d="M298.563 158.428C298.638 158.428 298.699 158.367 298.699 158.292C298.699 158.216 298.638 158.156 298.563 158.156C298.487 158.156 298.426 158.216 298.426 158.292C298.426 158.367 298.487 158.428 298.563 158.428Z" fill="white"/>
<path d="M293.289 159.306C293.669 159.306 293.974 158.999 293.974 158.621C293.974 158.243 293.669 157.937 293.289 157.937C292.913 157.937 292.604 158.243 292.604 158.621C292.604 158.999 292.913 159.306 293.289 159.306Z" fill="black"/>
<path d="M293.3 159.102C293.375 159.102 293.436 159.041 293.436 158.965C293.436 158.89 293.375 158.829 293.3 158.829C293.225 158.829 293.164 158.89 293.164 158.965C293.164 159.041 293.225 159.102 293.3 159.102Z" fill="white"/>
<path d="M289.92 156.959L289.989 157.722C290.05 158.43 290.39 159.083 290.936 159.54C291.481 159.996 292.188 160.217 292.895 160.155C293.601 160.093 294.258 159.752 294.713 159.208C295.173 158.663 295.391 157.96 295.33 157.253L295.266 156.489C295.251 156.274 295.165 156.069 295.022 155.909L296.055 155.819C295.93 156 295.872 156.217 295.89 156.436L295.958 157.199C296.019 157.907 296.36 158.56 296.905 159.017C297.451 159.473 298.157 159.694 298.864 159.632C299.571 159.57 300.227 159.229 300.683 158.684C301.142 158.14 301.361 157.437 301.3 156.729L301.235 155.97C301.225 155.84 301.189 155.714 301.128 155.599C301.067 155.483 300.984 155.381 300.884 155.298C300.783 155.215 300.669 155.152 300.543 155.113C300.421 155.075 300.288 155.062 300.159 155.074L296.808 155.368H296.78L294.19 155.593L293.781 155.629L290.81 155.887C290.548 155.912 290.311 156.039 290.143 156.239C289.978 156.44 289.895 156.699 289.92 156.959ZM296.794 155.78H296.823L300.177 155.486C300.335 155.473 300.493 155.523 300.615 155.625C300.737 155.727 300.812 155.873 300.826 156.031L300.895 156.794C300.934 157.394 300.737 157.986 300.346 158.441C299.951 158.896 299.395 159.178 298.792 159.225C298.193 159.272 297.598 159.081 297.139 158.693C296.679 158.305 296.392 157.751 296.339 157.152L296.274 156.389C296.267 156.24 296.313 156.094 296.41 155.98C296.507 155.867 296.647 155.795 296.794 155.78ZM290.279 156.955C290.265 156.797 290.315 156.639 290.419 156.518C290.52 156.395 290.667 156.318 290.825 156.303L293.795 156.045L294.204 156.009C294.362 155.996 294.52 156.046 294.642 156.148C294.764 156.25 294.843 156.396 294.857 156.554L294.925 157.317C294.964 157.917 294.767 158.509 294.376 158.964C293.981 159.419 293.425 159.701 292.823 159.748C292.224 159.795 291.628 159.604 291.169 159.216C290.71 158.828 290.423 158.274 290.369 157.675L290.279 156.955Z" fill="black"/>
<path opacity="0.3" d="M296.138 160.205L296.902 159.954C296.927 159.951 296.952 159.942 296.97 159.929C296.991 159.916 297.009 159.898 297.024 159.878C297.038 159.857 297.049 159.834 297.052 159.809C297.056 159.785 297.052 159.759 297.049 159.735C297.042 159.711 297.031 159.689 297.013 159.67C296.999 159.65 296.977 159.635 296.956 159.623C296.934 159.612 296.909 159.606 296.884 159.605C296.859 159.604 296.834 159.608 296.812 159.618L296.048 159.868C295.955 159.9 295.851 159.892 295.761 159.847C295.671 159.802 295.603 159.723 295.571 159.628C295.539 159.533 295.546 159.43 295.592 159.34C295.639 159.251 295.718 159.183 295.811 159.152C295.833 159.146 295.854 159.136 295.872 159.122C295.89 159.108 295.904 159.091 295.915 159.071C295.926 159.052 295.933 159.03 295.937 159.007C295.94 158.985 295.94 158.962 295.933 158.94C295.926 158.918 295.919 158.898 295.904 158.88C295.89 158.862 295.872 158.847 295.854 158.836C295.833 158.824 295.811 158.817 295.79 158.814C295.768 158.811 295.743 158.813 295.721 158.818C295.546 158.878 295.399 159.004 295.312 159.17C295.226 159.336 295.208 159.528 295.262 159.707C295.28 159.801 295.32 159.891 295.373 159.968C295.431 160.046 295.503 160.111 295.585 160.159C295.668 160.206 295.761 160.235 295.858 160.243C295.951 160.251 296.048 160.238 296.138 160.205Z" fill="black"/>
<path d="M310.846 159.367C310.846 159.367 315.374 161.029 316.644 162.696C317.078 163.265 317.72 167.1 317.932 169.927C317.996 170.736 317.799 171.544 317.365 172.231C316.931 172.918 316.289 173.446 315.528 173.736C313.677 174.449 311.621 174.422 309.788 173.661L308.712 173.213C307.801 172.834 306.828 172.634 305.842 172.622L301.11 172.557C301.11 172.557 306.66 171.142 311.112 167.032C312.439 165.838 313.652 161.456 310.846 159.367Z" fill="#3B82F6"/>
<path d="M311.564 206.441C311.564 206.441 316.418 207.631 317.799 208.362C319.858 209.437 320.31 210.318 320.977 211.228C321.447 211.83 322.125 212.235 322.879 212.361L322.983 203.84L323.047 198.78L315.069 199.199L311.564 206.441Z" fill="#3B82F6"/>
<path opacity="0.15" d="M322.99 203.836L316.009 202.922L321.889 205.925L321.806 211.959C322.14 212.154 322.502 212.288 322.882 212.357L322.99 203.836Z" fill="black"/>
<path opacity="0.15" d="M310.846 159.367C310.846 159.367 315.374 161.029 316.644 162.696C317.078 163.265 317.72 167.1 317.932 169.927C317.996 170.736 317.799 171.544 317.365 172.231C316.931 172.918 316.289 173.446 315.528 173.736C313.677 174.449 311.621 174.422 309.788 173.661L308.712 173.213C307.801 172.834 306.828 172.634 305.842 172.622L301.11 172.557C301.11 172.557 306.66 171.142 311.112 167.032C312.439 165.838 313.652 161.456 310.846 159.367Z" fill="black"/>
<path d="M293.268 210.802C290.52 212.912 286.534 213.97 283.843 213.97C277.099 213.97 273.863 206.577 273.863 197.447C273.863 188.317 277.149 180.913 283.89 180.913C285.734 180.913 290.616 181.791 293.278 184.099C293.278 184.099 297.225 187.765 302.204 187.324C303.216 187.209 304.192 186.888 305.074 186.382C306.086 185.837 305.124 185.565 306.276 185.557C312.802 185.522 317.139 190.868 317.139 197.45C317.139 204.033 313.702 209.34 306.086 209.354C304.963 209.354 306.107 209.053 305.11 208.523C304.446 208.169 303.732 207.927 302.99 207.806C297.738 207.014 293.278 210.813 293.278 210.813L293.268 210.802Z" fill="#195DBB"/>
<g opacity="0.3">
<path opacity="0.3" d="M293.268 210.802C290.52 212.912 286.534 213.97 283.843 213.97C277.099 213.97 273.863 206.577 273.863 197.447C273.863 188.317 277.149 180.91 283.89 180.913C285.737 180.913 290.624 181.795 293.278 184.099C293.278 184.099 297.225 187.765 302.204 187.324C303.216 187.209 304.192 186.888 305.074 186.382C306.086 185.837 305.124 185.565 306.276 185.557C312.802 185.522 317.139 190.868 317.139 197.45C317.139 204.033 313.702 209.34 306.086 209.354C304.963 209.354 306.107 209.053 305.11 208.523C304.446 208.169 303.732 207.927 302.99 207.806C297.738 207.014 293.278 210.813 293.278 210.813L293.268 210.802Z" fill="black"/>
</g>
<path d="M290.692 210.802C287.944 212.912 286.186 213.977 283.495 213.977C276.751 213.977 271.298 206.577 271.298 197.447C271.298 188.317 276.765 180.913 283.495 180.913C285.336 180.913 288.683 182.096 290.703 184.099C290.703 184.099 294.649 187.765 299.628 187.324C300.64 187.209 301.616 186.888 302.498 186.382C303.499 185.832 304.622 185.541 305.763 185.536C310.624 185.536 314.563 190.868 314.563 197.45C314.563 204.033 310.617 209.361 305.763 209.361C304.633 209.349 303.524 209.061 302.534 208.523C301.874 208.169 301.157 207.927 300.417 207.806C295.162 207.014 290.706 210.813 290.706 210.813C290.706 210.813 290.695 210.802 290.692 210.802Z" fill="#195DBB"/>
<g opacity="0.15">
<path opacity="0.15" d="M290.692 210.802C287.944 212.912 286.186 213.977 283.495 213.977C276.751 213.977 271.298 206.577 271.298 197.447C271.298 188.317 276.765 180.913 283.495 180.913C285.336 180.913 288.683 182.096 290.703 184.099C290.703 184.099 294.649 187.765 299.628 187.324C300.64 187.209 301.616 186.888 302.498 186.382C303.499 185.832 304.622 185.541 305.763 185.536C310.624 185.536 314.563 190.868 314.563 197.45C314.563 204.033 310.617 209.361 305.763 209.361C304.633 209.349 303.524 209.061 302.534 208.523C301.874 208.169 301.157 207.927 300.417 207.806C295.162 207.014 290.706 210.813 290.706 210.813C290.706 210.813 290.695 210.802 290.692 210.802Z" fill="white"/>
</g>
<path d="M340.558 192.892L352.648 192.176C352.759 192.169 352.867 192.185 352.971 192.222C353.075 192.258 353.168 192.315 353.251 192.389C353.333 192.462 353.398 192.552 353.444 192.651C353.491 192.751 353.516 192.858 353.52 192.968L353.71 198.554C353.713 198.664 353.695 198.773 353.656 198.876C353.62 198.978 353.559 199.072 353.484 199.151C353.408 199.231 353.315 199.294 353.215 199.337C353.114 199.38 353.007 199.403 352.895 199.403L340.784 199.504C340.569 199.506 340.361 199.423 340.206 199.275C340.052 199.126 339.963 198.923 339.955 198.708L339.787 193.756C339.776 193.54 339.851 193.327 339.995 193.165C340.138 193.004 340.343 192.905 340.558 192.892Z" fill="black"/>
<path d="M351.285 192.201L339.195 192.918C338.98 192.931 338.779 193.028 338.635 193.186C338.492 193.344 338.413 193.552 338.42 193.767L338.592 198.723C338.599 198.936 338.689 199.139 338.847 199.287C339.001 199.435 339.206 199.517 339.421 199.514L351.532 199.414C351.643 199.414 351.751 199.391 351.852 199.348C351.952 199.305 352.045 199.241 352.121 199.162C352.196 199.083 352.257 198.989 352.293 198.887C352.332 198.784 352.35 198.674 352.347 198.565L352.156 192.978C352.149 192.87 352.124 192.764 352.078 192.666C352.031 192.568 351.963 192.481 351.884 192.409C351.801 192.337 351.708 192.281 351.604 192.245C351.503 192.21 351.392 192.194 351.285 192.201ZM348.361 197.905L341.164 198.153C340.974 198.16 340.788 198.09 340.651 197.961C340.511 197.831 340.429 197.651 340.422 197.461C340.415 197.271 340.483 197.086 340.615 196.947C340.745 196.808 340.924 196.726 341.114 196.719L348.311 196.472C348.501 196.465 348.687 196.535 348.827 196.664C348.964 196.794 349.046 196.974 349.053 197.164C349.06 197.354 348.992 197.539 348.859 197.678C348.73 197.817 348.551 197.899 348.361 197.905ZM348.275 195.369L341.075 195.616C340.885 195.622 340.698 195.552 340.562 195.422C340.422 195.292 340.339 195.112 340.336 194.922C340.328 194.732 340.397 194.548 340.529 194.409C340.658 194.27 340.838 194.189 341.028 194.182L348.225 193.935C348.318 193.932 348.411 193.947 348.501 193.98C348.59 194.013 348.669 194.063 348.741 194.127C348.809 194.192 348.863 194.269 348.903 194.354C348.942 194.44 348.964 194.533 348.967 194.627C348.971 194.721 348.956 194.815 348.921 194.903C348.888 194.991 348.838 195.072 348.773 195.141C348.709 195.21 348.633 195.265 348.547 195.304C348.461 195.343 348.368 195.365 348.275 195.369Z" fill="#195DBB"/>
<path opacity="0.5" d="M351.285 192.201L339.195 192.918C338.98 192.931 338.779 193.028 338.635 193.186C338.492 193.344 338.413 193.552 338.42 193.767L338.592 198.723C338.599 198.936 338.689 199.139 338.847 199.287C339.001 199.435 339.206 199.517 339.421 199.514L351.532 199.414C351.643 199.414 351.751 199.391 351.852 199.348C351.952 199.305 352.045 199.241 352.121 199.162C352.196 199.083 352.257 198.989 352.293 198.887C352.332 198.784 352.35 198.674 352.347 198.565L352.156 192.978C352.149 192.87 352.124 192.764 352.078 192.666C352.031 192.568 351.963 192.481 351.884 192.409C351.801 192.337 351.708 192.281 351.604 192.245C351.503 192.21 351.392 192.194 351.285 192.201ZM348.361 197.905L341.164 198.153C340.974 198.16 340.788 198.09 340.651 197.961C340.511 197.831 340.429 197.651 340.422 197.461C340.415 197.271 340.483 197.086 340.615 196.947C340.745 196.808 340.924 196.726 341.114 196.719L348.311 196.472C348.501 196.465 348.687 196.535 348.827 196.664C348.964 196.794 349.046 196.974 349.053 197.164C349.06 197.354 348.992 197.539 348.859 197.678C348.73 197.817 348.551 197.899 348.361 197.905ZM348.275 195.369L341.075 195.616C340.885 195.622 340.698 195.552 340.562 195.422C340.422 195.292 340.339 195.112 340.336 194.922C340.328 194.732 340.397 194.548 340.529 194.409C340.658 194.27 340.838 194.189 341.028 194.182L348.225 193.935C348.318 193.932 348.411 193.947 348.501 193.98C348.59 194.013 348.669 194.063 348.741 194.127C348.809 194.192 348.863 194.269 348.903 194.354C348.942 194.44 348.964 194.533 348.967 194.627C348.971 194.721 348.956 194.815 348.921 194.903C348.888 194.991 348.838 195.072 348.773 195.141C348.709 195.21 348.633 195.265 348.547 195.304C348.461 195.343 348.368 195.365 348.275 195.369Z" fill="black"/>
<path d="M278.609 194.046H276.403V202.786H278.609V194.046Z" fill="black"/>
<path d="M297.58 204.492C301.243 204.492 304.213 201.525 304.213 197.866C304.213 194.207 301.243 191.24 297.58 191.24C293.917 191.24 290.947 194.207 290.947 197.866C290.947 201.525 293.917 204.492 297.58 204.492Z" fill="#195DBB"/>
<path d="M340.21 198.608L300.963 200.156L300.859 195.207L340.21 193.763V198.608Z" fill="#195DBB"/>
<path opacity="0.5" d="M340.21 198.608L300.963 200.156L300.859 195.207L340.21 193.763V198.608Z" fill="black"/>
<path d="M297.58 202.166C299.958 202.166 301.885 200.241 301.885 197.866C301.885 195.491 299.958 193.566 297.58 193.566C295.201 193.566 293.275 195.491 293.275 197.866C293.275 200.241 295.201 202.166 297.58 202.166Z" fill="black"/>
<path d="M342.689 190.165L342.33 190.177L342.729 201.723L343.084 201.711L342.689 190.165Z" fill="black"/>
<path d="M346.499 190.034L346.14 190.047L346.538 201.592L346.897 201.58L346.499 190.034Z" fill="black"/>
<path d="M342.904 202.356C343.259 202.356 343.546 202.069 343.546 201.715C343.546 201.36 343.259 201.073 342.904 201.073C342.549 201.073 342.262 201.36 342.262 201.715C342.262 202.069 342.549 202.356 342.904 202.356Z" fill="black"/>
<path d="M346.714 202.227C347.069 202.227 347.356 201.94 347.356 201.586C347.356 201.231 347.069 200.944 346.714 200.944C346.359 200.944 346.072 201.231 346.072 201.586C346.072 201.94 346.359 202.227 346.714 202.227Z" fill="black"/>
<path d="M342.506 190.81C342.861 190.81 343.148 190.523 343.148 190.169C343.148 189.815 342.861 189.528 342.506 189.528C342.151 189.528 341.864 189.815 341.864 190.169C341.864 190.523 342.151 190.81 342.506 190.81Z" fill="black"/>
<path d="M346.316 190.681C346.671 190.681 346.958 190.394 346.958 190.04C346.958 189.686 346.671 189.399 346.316 189.399C345.961 189.399 345.674 189.686 345.674 190.04C345.674 190.394 345.961 190.681 346.316 190.681Z" fill="black"/>
<path d="M339.299 195.502L278.618 197.873L278.632 198.23L339.313 195.86L339.299 195.502Z" fill="black"/>
<path d="M339.281 196.582L278.602 199.185L278.617 199.543L339.299 196.94L339.281 196.582Z" fill="black"/>
<path d="M278.62 200.797L278.602 200.443L339.109 197.45L339.073 194.924L278.616 196.992L278.606 196.633L339.428 194.555L339.475 197.791L339.299 197.798L278.62 200.797Z" fill="black"/>
<g opacity="0.2">
<path opacity="0.2" d="M299.955 172.6V184.64C299.955 184.693 299.933 184.743 299.894 184.78C299.858 184.816 299.808 184.837 299.754 184.837C299.7 184.837 299.65 184.816 299.614 184.78C299.578 184.743 299.557 184.693 299.557 184.64V172.582L299.955 172.6Z" fill="black"/>
<path opacity="0.2" d="M300.461 172.596V178.29C300.461 178.316 300.468 178.342 300.475 178.367C300.486 178.391 300.5 178.413 300.522 178.431C300.539 178.449 300.561 178.464 300.586 178.473C300.611 178.483 300.636 178.488 300.661 178.487C300.687 178.488 300.715 178.483 300.737 178.473C300.762 178.464 300.783 178.449 300.801 178.431C300.819 178.413 300.834 178.39 300.844 178.366C300.855 178.342 300.859 178.316 300.859 178.29V172.578L300.461 172.596Z" fill="black"/>
</g>
<path d="M278.29 244.464L284.543 237.437C284.598 237.374 284.666 237.325 284.743 237.293C284.82 237.261 284.903 237.247 284.986 237.252C285.07 237.256 285.149 237.279 285.224 237.319C285.296 237.359 285.361 237.416 285.407 237.483L287.04 239.762C287.111 239.864 287.147 239.986 287.14 240.11C287.136 240.234 287.086 240.353 287.007 240.447L281.034 247.345C280.982 247.404 280.918 247.451 280.847 247.484C280.775 247.517 280.697 247.534 280.618 247.534C280.539 247.534 280.461 247.517 280.389 247.484C280.317 247.451 280.254 247.404 280.202 247.345L278.29 245.195C278.2 245.094 278.151 244.964 278.151 244.829C278.151 244.694 278.2 244.564 278.29 244.464Z" fill="#495057"/>
<g opacity="0.2">
<path opacity="0.2" d="M278.29 244.464L284.543 237.437C284.598 237.374 284.666 237.325 284.743 237.293C284.82 237.261 284.903 237.247 284.986 237.252C285.07 237.256 285.149 237.279 285.224 237.319C285.296 237.359 285.361 237.416 285.407 237.483L287.04 239.762C287.111 239.864 287.147 239.986 287.14 240.11C287.136 240.234 287.086 240.353 287.007 240.447L281.034 247.345C280.982 247.404 280.918 247.451 280.847 247.484C280.775 247.517 280.697 247.534 280.618 247.534C280.539 247.534 280.461 247.517 280.389 247.484C280.317 247.451 280.254 247.404 280.202 247.345L278.29 245.195C278.2 245.094 278.151 244.964 278.151 244.829C278.151 244.694 278.2 244.564 278.29 244.464Z" fill="black"/>
</g>
<path d="M299.366 172.586C299.366 172.586 295.015 170.941 294.645 167.816L294.706 166.064C294.218 165.74 293.791 165.334 293.443 164.864C293.153 164.462 292.898 164.034 292.69 163.584C291.718 163.799 291.513 166.533 291.582 167.562C291.729 169.873 292.396 172.492 299.366 172.586Z" fill="#3B82F6"/>
<path opacity="0.15" d="M299.366 172.586C299.366 172.586 295.015 170.941 294.645 167.816L294.706 166.064C294.211 165.748 293.784 165.34 293.443 164.864C293.156 164.459 292.905 164.031 292.69 163.584C291.718 163.799 291.513 166.533 291.582 167.562C291.729 169.873 292.396 172.492 299.366 172.586Z" fill="black"/>
<path d="M292.163 252.544V262.294L293.971 265.086L298.904 261.069L299.836 252.369L292.163 252.544Z" fill="#FC9D9D"/>
<path d="M292.163 258.148V262.294L293.971 265.086L298.904 261.069L299.205 258.238L292.163 258.148Z" fill="white"/>
<path d="M291.89 251.412H301.673C301.748 251.411 301.824 251.427 301.896 251.457C301.964 251.487 302.028 251.532 302.079 251.587C302.129 251.643 302.172 251.708 302.197 251.78C302.222 251.852 302.233 251.927 302.226 252.003L302.035 254.637C302.028 254.774 301.967 254.903 301.867 254.998C301.766 255.093 301.634 255.147 301.497 255.149L291.897 255.393C291.822 255.395 291.75 255.382 291.678 255.355C291.61 255.328 291.549 255.287 291.495 255.235C291.442 255.184 291.399 255.122 291.37 255.054C291.341 254.985 291.327 254.912 291.327 254.838V251.971C291.327 251.897 291.338 251.823 291.366 251.754C291.395 251.686 291.434 251.623 291.488 251.571C291.542 251.519 291.603 251.478 291.675 251.45C291.743 251.423 291.815 251.41 291.89 251.412Z" fill="#495057"/>
<path opacity="0.2" d="M291.89 251.412H301.673C301.748 251.411 301.824 251.427 301.896 251.457C301.964 251.487 302.028 251.532 302.079 251.587C302.129 251.643 302.172 251.708 302.197 251.78C302.222 251.852 302.233 251.927 302.226 252.003L302.035 254.637C302.028 254.774 301.967 254.903 301.867 254.998C301.766 255.093 301.634 255.147 301.497 255.149L291.897 255.393C291.822 255.395 291.75 255.382 291.678 255.355C291.61 255.328 291.549 255.287 291.495 255.235C291.442 255.184 291.399 255.122 291.37 255.054C291.341 254.985 291.327 254.912 291.327 254.838V251.971C291.327 251.897 291.338 251.823 291.366 251.754C291.395 251.686 291.434 251.623 291.488 251.571C291.542 251.519 291.603 251.478 291.675 251.45C291.743 251.423 291.815 251.41 291.89 251.412Z" fill="black"/>
<path d="M292.163 260.714L290.918 262.678L292.163 262.825V260.714Z" fill="#495057"/>
<path d="M298.405 265.795L298.272 267.784L289.795 273.12C288.335 274.041 286.649 274.284 284.919 274.299H283.126C280.887 274.012 281.056 271.131 281.056 271.131L282.699 272.604L287.721 272.167L298.405 265.795Z" fill="white"/>
<path d="M280.988 270.199C281.05 269.798 281.225 269.423 281.493 269.118C281.76 268.812 282.108 268.588 282.498 268.472L286.387 267.322L288.18 263.663C288.45 263.111 288.884 262.656 289.422 262.36C289.963 262.064 290.581 261.943 291.19 262.011C291.782 262.077 292.342 262.32 292.798 262.708C293.25 263.096 293.576 263.611 293.734 264.186L293.981 265.086L297.677 260.556C297.741 260.476 297.824 260.411 297.917 260.366C298.01 260.321 298.114 260.298 298.218 260.298H298.993L298.412 265.795L289.802 271.213C288.342 272.134 286.652 272.63 284.927 272.647H283.133C282.824 272.648 282.518 272.584 282.236 272.457C281.954 272.331 281.703 272.145 281.5 271.913C281.296 271.681 281.145 271.408 281.057 271.112C280.968 270.816 280.945 270.505 280.988 270.199Z" fill="#195DBB"/>
<path d="M284.682 267.827C284.682 267.827 284.159 269.049 285.4 269.54C286.641 270.031 290.803 268.931 293.971 265.086C293.971 265.086 293.687 262.635 291.685 262.112C289.684 261.588 288.417 262.911 287.958 264.097C287.761 264.598 287.445 265.172 287.198 265.652C286.745 266.573 286.383 267.322 286.383 267.322L284.682 267.827Z" fill="#495057"/>
<path d="M288.385 267.032C288.432 267.031 288.478 267.014 288.514 266.984C288.554 266.954 288.579 266.912 288.586 266.866C288.597 266.819 288.59 266.771 288.568 266.729C288.547 266.687 288.511 266.653 288.468 266.634L287.033 266.028L286.85 266.387L288.32 267.003C288.342 267.016 288.364 267.026 288.385 267.032Z" fill="white"/>
<path d="M288.385 267.032C288.432 267.031 288.478 267.014 288.514 266.984C288.554 266.954 288.579 266.912 288.586 266.866C288.597 266.819 288.59 266.771 288.568 266.729C288.547 266.687 288.511 266.653 288.468 266.634L287.033 266.028L286.85 266.387L288.32 267.003C288.342 267.016 288.364 267.026 288.385 267.032Z" fill="white"/>
<path d="M289.321 265.906C289.361 265.907 289.4 265.895 289.436 265.873C289.468 265.85 289.497 265.818 289.512 265.781C289.533 265.73 289.533 265.673 289.512 265.622C289.49 265.571 289.451 265.531 289.4 265.509L287.639 264.774C287.578 264.896 287.513 265.018 287.452 265.132L289.246 265.881C289.271 265.894 289.296 265.902 289.321 265.906Z" fill="white"/>
<path d="M289.321 265.906C289.361 265.907 289.4 265.895 289.436 265.873C289.468 265.85 289.497 265.818 289.512 265.781C289.533 265.73 289.533 265.673 289.512 265.622C289.49 265.571 289.451 265.531 289.4 265.509L287.639 264.774C287.578 264.896 287.513 265.018 287.452 265.132L289.246 265.881C289.271 265.894 289.296 265.902 289.321 265.906Z" fill="white"/>
<path d="M290.398 264.835C290.372 264.84 290.344 264.84 290.319 264.835L288.062 263.889L288.249 263.531L290.48 264.462C290.523 264.482 290.559 264.515 290.581 264.557C290.602 264.6 290.609 264.648 290.598 264.695C290.591 264.741 290.566 264.783 290.527 264.813C290.491 264.843 290.444 264.86 290.398 264.86V264.835Z" fill="white"/>
<path opacity="0.15" d="M315.13 184.317V190.287C314.907 189.947 314.671 189.619 314.412 189.305C314.412 189.305 314.158 189.004 314.054 188.908L313.82 188.657L314.538 184.271C314.549 184.199 314.585 184.134 314.642 184.086C314.696 184.039 314.768 184.013 314.839 184.013C314.918 184.016 314.99 184.05 315.047 184.107C315.101 184.164 315.13 184.239 315.13 184.317Z" fill="black"/>
<path d="M304.389 163.129L302.627 158.686L304.281 154.583L306.839 157.679L304.389 163.129ZM302.997 158.715L304.403 162.244L306.473 157.679L304.202 155.443L302.997 158.715Z" fill="#195DBB"/>
<path d="M303.004 157.984C303.004 157.984 297.623 160.435 291.355 160.037C291.355 160.037 292.389 165.885 296.604 167.375C296.604 167.375 301.913 168.451 304.694 162.646C304.697 162.678 303.266 160.273 303.004 157.984Z" fill="#195DBB"/>
<path opacity="0.3" d="M291.768 161.585C291.847 161.793 291.929 162.029 292.008 162.266C293.26 162.501 294.538 162.563 295.808 162.448C298.527 162.188 301.131 161.226 303.366 159.657C303.295 159.453 303.234 159.245 303.187 159.034C298.136 162.581 293.447 161.986 291.768 161.585Z" fill="white"/>
<path opacity="0.3" d="M304.105 161.51C304.03 161.334 303.951 161.13 303.844 160.925C299.101 164.566 294.566 164.294 292.83 163.989C292.973 164.219 293.117 164.451 293.257 164.652C294.179 164.76 295.108 164.77 296.034 164.684C298.975 164.429 301.781 163.326 304.105 161.51Z" fill="white"/>
<path opacity="0.3" d="M304.697 162.678L304.59 162.502C300.712 165.888 296.787 166.354 294.713 166.322C294.975 166.544 295.259 166.743 295.556 166.917L296.163 166.863C299.097 166.589 301.892 165.468 304.202 163.638C304.357 163.316 304.543 162.993 304.697 162.678Z" fill="white"/>
<path d="M304.324 154.619C304.324 154.619 305.372 153.003 307.069 153.569C308.995 154.225 308.981 158.449 305.867 158.969C304.242 159.248 304.486 158.252 304.647 156.962C304.608 156.173 304.5 155.389 304.324 154.619Z" fill="#FC9D9D"/>
<path opacity="0.3" d="M307.259 154.651C307.122 154.564 306.972 154.504 306.814 154.475C306.656 154.446 306.495 154.449 306.337 154.483C306.186 154.533 306.05 154.617 305.935 154.726C305.82 154.836 305.734 154.969 305.677 155.117C305.508 155.483 305.44 155.887 305.479 156.289V156.647C305.483 156.672 305.49 156.696 305.501 156.718C305.512 156.741 305.526 156.761 305.548 156.777C305.565 156.793 305.587 156.805 305.612 156.813C305.637 156.82 305.662 156.823 305.684 156.821C305.709 156.819 305.734 156.812 305.756 156.8C305.781 156.789 305.799 156.773 305.817 156.754C305.831 156.735 305.845 156.713 305.852 156.689C305.86 156.665 305.863 156.64 305.86 156.615V156.256C305.842 155.924 305.896 155.591 306.021 155.282C306.05 155.177 306.104 155.081 306.179 155.003C306.254 154.924 306.348 154.865 306.452 154.832C306.552 154.798 306.663 154.791 306.771 154.811C306.879 154.831 306.975 154.877 307.061 154.945C307.108 154.966 307.162 154.97 307.212 154.955C307.259 154.941 307.302 154.909 307.331 154.866C307.374 154.83 307.334 154.726 307.259 154.651Z" fill="black"/>
<path d="M256.811 260.897L257.55 263.287C257.58 263.38 257.589 263.479 257.577 263.575C257.565 263.673 257.533 263.766 257.482 263.849C257.432 263.933 257.364 264.005 257.284 264.061C257.203 264.116 257.112 264.154 257.016 264.172L234.476 268.408L233.518 263.273L256.062 260.406C256.225 260.386 256.39 260.424 256.527 260.514C256.664 260.604 256.765 260.74 256.811 260.897Z" fill="#3B82F6"/>
<g opacity="0.3">
<path opacity="0.3" d="M256.811 260.897L257.55 263.287C257.58 263.38 257.589 263.479 257.577 263.575C257.565 263.673 257.533 263.766 257.482 263.849C257.432 263.933 257.364 264.005 257.284 264.061C257.203 264.116 257.112 264.154 257.016 264.172L234.476 268.408L233.518 263.273L256.062 260.406C256.225 260.386 256.39 260.424 256.527 260.514C256.664 260.604 256.765 260.74 256.811 260.897Z" fill="white"/>
</g>
<path d="M234.498 268.382C235.102 268.27 235.377 267.027 235.111 265.607C234.846 264.187 234.142 263.127 233.538 263.239C232.934 263.352 232.66 264.594 232.925 266.014C233.19 267.435 233.894 268.495 234.498 268.382Z" fill="#3B82F6"/>
<path opacity="0.3" d="M234.498 268.382C235.102 268.27 235.377 267.027 235.111 265.607C234.846 264.187 234.142 263.127 233.538 263.239C232.934 263.352 232.66 264.594 232.925 266.014C233.19 267.435 233.894 268.495 234.498 268.382Z" fill="black"/>
<g opacity="0.3">
<path opacity="0.3" d="M235.186 266.376L242.817 264.942C243.422 264.828 243.987 264.557 244.456 264.158C244.9 263.777 245.442 263.528 246.02 263.441L248.836 263.018C248.889 263.01 248.938 262.982 248.969 262.939C249.002 262.896 249.016 262.842 249.009 262.789C249.005 262.762 248.996 262.737 248.982 262.714C248.968 262.691 248.949 262.671 248.928 262.654C248.906 262.638 248.882 262.627 248.855 262.62C248.829 262.614 248.802 262.613 248.775 262.617L245.959 263.04C245.307 263.14 244.695 263.42 244.194 263.85C243.778 264.203 243.278 264.443 242.741 264.545L235.146 265.978L235.186 266.376Z" fill="black"/>
</g>
<g opacity="0.3">
<path opacity="0.3" d="M246.271 265.197H246.304L257.586 263.384V263.319C257.565 263.237 257.482 262.99 257.482 262.99L246.25 264.781C246.197 264.79 246.149 264.82 246.117 264.863C246.086 264.907 246.073 264.961 246.081 265.014C246.087 265.062 246.109 265.106 246.144 265.14C246.178 265.173 246.223 265.193 246.271 265.197Z" fill="black"/>
</g>
<g opacity="0.3">
<path opacity="0.3" d="M234.974 265.118L239.832 264.283C239.885 264.273 239.932 264.243 239.963 264.199C239.994 264.154 240.006 264.1 239.997 264.047C239.993 264.02 239.983 263.995 239.969 263.973C239.955 263.95 239.937 263.931 239.915 263.915C239.893 263.9 239.868 263.889 239.843 263.884C239.817 263.878 239.79 263.877 239.764 263.882L234.849 264.727L234.974 265.118Z" fill="black"/>
</g>
<path d="M245.227 261.943C234.422 260.868 235.469 250.236 235.469 250.236C236.102 251.3 237.039 252.15 238.16 252.677C238.16 252.677 234.931 247.639 236.008 241.837C236.008 241.837 236.66 243.629 239.426 244.646C239.426 244.646 235.448 231.664 247.186 224.515C247.186 224.515 244.675 229.027 248.166 233.929C251.283 238.308 252.05 238.29 251.179 244.216C251.179 244.216 252.614 239.107 257.277 239.83C257.277 239.83 254.049 240.673 255.405 244.453C257.285 249.688 259.606 263.366 245.227 261.943Z" fill="white"/>
<path d="M245.227 261.943C245.227 261.943 239.846 261.764 239.107 251.333C239.67 251.497 240.18 251.805 240.588 252.225C240.996 252.645 241.288 253.164 241.435 253.73C241.435 253.73 241.966 250.609 240.133 248.459C238.3 246.309 238.339 245.363 238.339 245.363C238.339 245.363 240.37 246.571 242.361 246.581C242.361 246.581 240.675 245.062 241.285 241.515C241.895 237.967 244.653 233.094 244.653 233.094C244.464 234.586 244.681 236.102 245.282 237.482C245.882 238.862 246.844 240.054 248.065 240.934C252.37 244.184 249.471 251.487 249.471 251.487C249.471 251.487 251.028 245.754 253.59 244.012C253.59 244.012 252.994 246.209 254.523 249.33C256.593 253.573 254.957 263.817 245.227 261.943Z" fill="#195DBB"/>
<path d="M253.242 238.014C253.127 237.322 253.242 236.143 254.318 234.298C254.219 235.013 254.24 235.739 254.379 236.448C254.63 237.29 254.738 237.602 254.68 238.017C254.68 238.208 254.604 238.39 254.468 238.525C254.333 238.659 254.15 238.734 253.959 238.734C253.768 238.734 253.586 238.657 253.451 238.522C253.317 238.387 253.241 238.204 253.242 238.014Z" fill="#195DBB"/>
<path d="M260.93 242.009C260.571 243.966 259.089 243.335 258.261 244.034C257.432 244.732 258.318 246.685 258.318 246.685C258.441 246.355 258.637 246.056 258.893 245.813C259.148 245.569 259.456 245.387 259.793 245.281C261.748 244.682 260.93 242.009 260.93 242.009Z" fill="#195DBB"/>
<path d="M231.581 242.464C231.014 241.991 230.099 240.755 231.129 238.05C231.129 238.05 230.659 239.544 231.785 240.336C232.772 241.027 233.156 242.17 232.503 242.568C232.358 242.649 232.19 242.683 232.025 242.664C231.86 242.646 231.704 242.576 231.581 242.464Z" fill="#195DBB"/>
<path d="M234.074 250.401C233.22 250.401 232.162 249.66 231.756 247.893C231.756 247.893 232.833 248.8 233.733 248.911C235.014 249.065 234.637 250.394 234.074 250.401Z" fill="#195DBB"/>
<path d="M237.539 261.546L236.8 263.936C236.772 264.029 236.763 264.127 236.775 264.224C236.787 264.32 236.82 264.414 236.87 264.497C236.921 264.581 236.988 264.653 237.068 264.708C237.148 264.764 237.239 264.802 237.335 264.821L259.879 269.056L260.833 263.921L238.289 261.055C238.126 261.034 237.961 261.073 237.824 261.162C237.686 261.252 237.586 261.388 237.539 261.546Z" fill="#3B82F6"/>
<g opacity="0.4">
<path opacity="0.4" d="M237.539 261.546L236.8 263.936C236.772 264.029 236.763 264.127 236.775 264.224C236.787 264.32 236.82 264.414 236.87 264.497C236.921 264.581 236.988 264.653 237.068 264.708C237.148 264.764 237.239 264.802 237.335 264.821L259.879 269.056L260.833 263.921L238.289 261.055C238.126 261.034 237.961 261.073 237.824 261.162C237.686 261.252 237.586 261.388 237.539 261.546Z" fill="white"/>
</g>
<path d="M261.468 266.718C261.733 265.298 261.459 264.055 260.855 263.943C260.251 263.83 259.546 264.891 259.282 266.311C259.017 267.731 259.291 268.973 259.895 269.086C260.499 269.198 261.203 268.138 261.468 266.718Z" fill="#3B82F6"/>
<path opacity="0.3" d="M261.468 266.718C261.733 265.298 261.459 264.055 260.855 263.943C260.251 263.83 259.546 264.891 259.282 266.311C259.017 267.731 259.291 268.973 259.895 269.086C260.499 269.198 261.203 268.138 261.468 266.718Z" fill="black"/>
<g opacity="0.3">
<path opacity="0.3" d="M259.186 267.028L251.552 265.595C250.947 265.479 250.382 265.209 249.913 264.81C249.469 264.429 248.927 264.18 248.349 264.093L245.536 263.67C245.51 263.667 245.484 263.658 245.461 263.645C245.438 263.631 245.418 263.613 245.402 263.592C245.386 263.57 245.374 263.546 245.368 263.52C245.361 263.494 245.36 263.468 245.364 263.441C245.372 263.388 245.4 263.34 245.443 263.308C245.486 263.276 245.54 263.262 245.593 263.269L248.41 263.692C249.064 263.791 249.676 264.072 250.178 264.502C250.589 264.853 251.083 265.093 251.613 265.197L259.212 266.63L259.186 267.028Z" fill="black"/>
</g>
<g opacity="0.3">
<path opacity="0.3" d="M248.094 265.845H248.065L236.782 264.032V263.968C236.804 263.885 236.883 263.638 236.883 263.638L248.115 265.43C248.165 265.439 248.209 265.466 248.24 265.506C248.271 265.547 248.285 265.596 248.281 265.647C248.278 265.697 248.255 265.744 248.218 265.779C248.182 265.814 248.133 265.833 248.083 265.835L248.094 265.845Z" fill="black"/>
</g>
<g opacity="0.3">
<path opacity="0.3" d="M259.38 265.767L254.523 264.942C254.494 264.94 254.467 264.932 254.442 264.918C254.417 264.905 254.395 264.886 254.378 264.864C254.361 264.842 254.348 264.816 254.341 264.789C254.334 264.761 254.333 264.732 254.338 264.705C254.343 264.677 254.353 264.65 254.369 264.627C254.384 264.603 254.405 264.583 254.428 264.568C254.452 264.552 254.479 264.542 254.507 264.537C254.535 264.533 254.563 264.534 254.591 264.541L259.506 265.387L259.38 265.767Z" fill="black"/>
</g>
<path opacity="0.15" d="M273.913 221.426L270.171 215.639L277.074 221.426H273.913Z" fill="black"/>
<path d="M118.261 183.259L60.563 249.931L60.8342 250.166L118.533 183.493L118.261 183.259Z" fill="black"/>
<path d="M118.402 183.407C118.402 183.407 145.922 190.932 179.085 182.891L134.456 250.061H69.6552L118.402 183.407Z" fill="#3B82F6"/>
<path d="M179.085 182.891L215.853 250.061H134.456L179.085 182.891Z" fill="#3B82F6"/>
<path opacity="0.4" d="M179.085 182.891L215.853 250.061H134.456L179.085 182.891Z" fill="white"/>
<path d="M179.085 182.891L175.87 187.03H181.811L179.085 182.891Z" fill="#3B82F6"/>
<path opacity="0.5" d="M179.085 182.891L175.87 187.03H181.811L179.085 182.891Z" fill="black"/>
<path opacity="0.3" d="M177.309 187.03C177.309 187.03 169.198 227.973 150.783 245.27C150.783 245.27 156.81 246.911 158.647 250.061C158.647 250.061 175.149 229.794 179.095 193.735C183.042 229.794 199.544 250.061 199.544 250.061C201.385 246.911 207.412 245.27 207.412 245.27C188.993 227.973 180.886 187.03 180.886 187.03H177.309Z" fill="white"/>
<path d="M126.94 250.061L129.229 247.112H155.267C155.267 247.112 157.872 248.509 158.647 250.061H126.94Z" fill="#3B82F6"/>
<path d="M215.853 250.061L214.131 247.112H202.909C202.909 247.112 200.301 248.509 199.53 250.061H215.853Z" fill="#3B82F6"/>
<g opacity="0.3">
<path opacity="0.3" d="M69.6552 250.061L71.8077 247.112H155.267C155.267 247.112 157.872 248.509 158.647 250.061H69.6552Z" fill="black"/>
<path opacity="0.3" d="M215.853 250.061L214.131 247.112H202.91C202.91 247.112 200.301 248.509 199.53 250.061H215.853Z" fill="black"/>
</g>
<path d="M129.096 247.578L128.813 247.355L179.095 182.583L179.232 182.791L221.184 247.015L220.883 247.212L179.07 183.199L129.096 247.578Z" fill="black"/>
<path opacity="0.5" d="M122.334 203.528C124.555 204.148 132.766 206.015 144.505 203.667C144.692 203.629 144.886 203.649 145.062 203.724C145.237 203.8 145.385 203.927 145.486 204.09C145.586 204.252 145.634 204.441 145.624 204.631C145.613 204.822 145.544 205.004 145.427 205.155L130 224.809C129.915 224.918 129.806 225.007 129.682 225.069C129.558 225.131 129.422 225.164 129.283 225.167H106.947C106.774 225.167 106.603 225.118 106.456 225.026C106.308 224.935 106.189 224.803 106.112 224.648C106.036 224.492 106.004 224.318 106.021 224.145C106.038 223.972 106.103 223.808 106.208 223.67L121.34 203.879C121.451 203.727 121.605 203.612 121.783 203.549C121.96 203.486 122.152 203.479 122.334 203.528Z" fill="black"/>
<path opacity="0.4" d="M122.75 205.688C124.526 206.183 131.098 207.677 140.487 205.8C140.635 205.774 140.787 205.794 140.924 205.856C141.06 205.919 141.175 206.021 141.252 206.15C141.33 206.278 141.367 206.427 141.358 206.577C141.35 206.727 141.296 206.87 141.204 206.989L128.863 222.699C128.794 222.787 128.705 222.859 128.603 222.908C128.502 222.957 128.391 222.982 128.278 222.982H110.445C110.306 222.982 110.169 222.943 110.051 222.87C109.932 222.797 109.837 222.692 109.775 222.568C109.713 222.443 109.687 222.304 109.7 222.166C109.714 222.027 109.765 221.896 109.849 221.785L121.957 205.954C122.047 205.835 122.171 205.746 122.312 205.698C122.454 205.651 122.607 205.648 122.75 205.688Z" fill="white"/>
<path d="M144.515 207.588L135.626 206.85C133.01 206.617 130.378 206.631 127.765 206.893L120.773 207.588C120.331 207.588 119.892 207.501 119.483 207.331C119.074 207.162 118.702 206.914 118.389 206.601C118.076 206.288 117.827 205.917 117.658 205.508C117.488 205.1 117.401 204.662 117.401 204.219C117.401 203.777 117.488 203.339 117.658 202.93C117.827 202.522 118.076 202.15 118.389 201.838C118.702 201.525 119.074 201.277 119.483 201.108C119.892 200.938 120.331 200.851 120.773 200.851L128.092 201.518C130.379 201.726 132.679 201.746 134.969 201.578L144.358 200.862L144.515 207.588Z" fill="#3B82F6"/>
<path opacity="0.3" d="M144.515 207.588L135.626 206.85C133.01 206.617 130.378 206.631 127.765 206.893L120.773 207.588C120.331 207.588 119.892 207.501 119.483 207.331C119.074 207.162 118.702 206.914 118.389 206.601C118.076 206.288 117.827 205.917 117.658 205.508C117.488 205.1 117.401 204.662 117.401 204.219C117.401 203.777 117.488 203.339 117.658 202.93C117.827 202.522 118.076 202.15 118.389 201.838C118.702 201.525 119.074 201.277 119.483 201.108C119.892 200.938 120.331 200.851 120.773 200.851L128.092 201.518C130.379 201.726 132.679 201.746 134.969 201.578L144.358 200.862L144.515 207.588Z" fill="white"/>
<path d="M144.307 204.614C144.474 204.683 144.656 204.709 144.836 204.69C145.016 204.67 145.187 204.606 145.336 204.503C145.484 204.4 145.604 204.261 145.685 204.099C145.765 203.938 145.803 203.759 145.796 203.578C145.776 203.288 145.659 203.012 145.464 202.796C145.269 202.58 145.007 202.435 144.72 202.385C144.506 202.342 144.287 202.342 144.073 202.385C143.86 202.427 143.657 202.512 143.477 202.634C143.297 202.757 143.143 202.914 143.024 203.096C142.906 203.278 142.825 203.482 142.786 203.696C142.709 204.092 142.751 204.502 142.908 204.874C143.066 205.245 143.331 205.561 143.669 205.782C143.924 205.94 144.213 206.034 144.512 206.058C144.81 206.082 145.111 206.034 145.387 205.918C146.007 205.702 146.522 205.26 146.828 204.68C147.134 204.1 147.209 203.426 147.037 202.793C146.873 202.216 146.52 201.711 146.034 201.359C145.548 201.007 144.957 200.828 144.358 200.851C143.503 200.871 142.688 201.216 142.077 201.814C141.467 202.412 141.107 203.22 141.07 204.073C141.033 204.926 141.322 205.762 141.878 206.41C142.435 207.059 143.217 207.472 144.067 207.566C145.089 207.682 146.116 207.398 146.933 206.774C147.751 206.15 148.295 205.235 148.451 204.219L147.073 204.026" fill="#3B82F6"/>
<g opacity="0.5">
<path opacity="0.5" d="M144.307 204.614C144.474 204.683 144.656 204.709 144.836 204.69C145.016 204.67 145.187 204.606 145.336 204.503C145.484 204.4 145.604 204.261 145.685 204.099C145.765 203.938 145.803 203.759 145.796 203.578C145.776 203.288 145.659 203.012 145.464 202.796C145.269 202.58 145.007 202.435 144.72 202.385C144.506 202.342 144.287 202.342 144.073 202.385C143.86 202.427 143.657 202.512 143.477 202.634C143.297 202.757 143.143 202.914 143.024 203.096C142.906 203.278 142.825 203.482 142.786 203.696C142.709 204.092 142.751 204.502 142.908 204.874C143.066 205.245 143.331 205.561 143.669 205.782C143.924 205.94 144.213 206.034 144.512 206.058C144.81 206.082 145.111 206.034 145.387 205.918C146.007 205.702 146.522 205.26 146.828 204.68C147.134 204.1 147.209 203.426 147.037 202.793C146.873 202.216 146.52 201.711 146.034 201.359C145.548 201.007 144.957 200.828 144.358 200.851C143.503 200.871 142.688 201.216 142.077 201.814C141.467 202.412 141.107 203.22 141.07 204.073C141.033 204.926 141.322 205.762 141.878 206.41C142.435 207.059 143.217 207.472 144.067 207.566C145.089 207.682 146.116 207.398 146.933 206.774C147.751 206.15 148.295 205.235 148.451 204.219L147.073 204.026" fill="white"/>
</g>
<path d="M125.265 250.061V241.891C125.265 241.819 125.279 241.747 125.307 241.68C125.335 241.614 125.376 241.553 125.427 241.502C125.478 241.451 125.539 241.411 125.607 241.384C125.673 241.356 125.745 241.342 125.817 241.343H126.449C126.582 241.342 126.711 241.391 126.812 241.478C126.912 241.566 126.977 241.687 126.994 241.819L127.256 243.808L127.615 242.149C127.641 242.026 127.709 241.916 127.807 241.837C127.905 241.758 128.027 241.715 128.153 241.715H128.601C128.673 241.715 128.745 241.729 128.812 241.756C128.879 241.783 128.94 241.824 128.991 241.875C129.042 241.926 129.082 241.987 129.109 242.053C129.137 242.12 129.151 242.192 129.15 242.264V250.061H125.265Z" fill="#3B82F6"/>
<path d="M220.8 250.061V240.647C220.801 240.57 220.832 240.496 220.888 240.442C220.942 240.388 221.017 240.357 221.094 240.357H222.21C222.283 240.357 222.353 240.384 222.407 240.433C222.461 240.482 222.494 240.55 222.501 240.622L222.798 243.808L223.157 241.676C223.163 241.636 223.178 241.598 223.2 241.564C223.222 241.53 223.25 241.501 223.284 241.478C223.318 241.456 223.356 241.441 223.396 241.434C223.436 241.428 223.477 241.429 223.516 241.439L224.466 241.662C224.531 241.676 224.588 241.712 224.629 241.764C224.67 241.815 224.692 241.879 224.692 241.945V250.061H220.8Z" fill="#3B82F6"/>
<path d="M58.7456 250.061V241.891C58.7452 241.819 58.7592 241.747 58.7865 241.681C58.8137 241.614 58.8543 241.553 58.9052 241.502C58.9565 241.451 59.0171 241.411 59.0838 241.384C59.1506 241.356 59.2223 241.342 59.2944 241.343H59.933C60.0665 241.342 60.1953 241.391 60.2957 241.478C60.3962 241.566 60.4611 241.687 60.4783 241.819L60.7402 243.808L61.099 242.149C61.1248 242.026 61.1926 241.915 61.2905 241.836C61.3885 241.757 61.5112 241.714 61.6371 241.715H62.0712C62.1436 241.715 62.2154 241.729 62.2825 241.756C62.3496 241.783 62.4105 241.824 62.4618 241.875C62.5131 241.926 62.5537 241.986 62.5817 242.053C62.6093 242.12 62.6236 242.191 62.6236 242.264V250.061H58.7456Z" fill="#3B82F6"/>
<g opacity="0.5">
<path opacity="0.5" d="M125.265 250.061V241.891C125.265 241.819 125.279 241.747 125.307 241.68C125.335 241.614 125.376 241.553 125.427 241.502C125.478 241.451 125.539 241.411 125.607 241.384C125.673 241.356 125.745 241.342 125.817 241.343H126.449C126.582 241.342 126.711 241.391 126.812 241.478C126.912 241.566 126.977 241.687 126.994 241.819L127.256 243.808L127.615 242.149C127.641 242.026 127.709 241.916 127.807 241.837C127.905 241.758 128.027 241.715 128.153 241.715H128.601C128.673 241.715 128.745 241.729 128.812 241.756C128.879 241.783 128.94 241.824 128.991 241.875C129.042 241.926 129.082 241.987 129.109 242.053C129.137 242.12 129.151 242.192 129.15 242.264V250.061H125.265Z" fill="black"/>
<path opacity="0.5" d="M58.7456 250.061V241.891C58.7452 241.819 58.7592 241.747 58.7865 241.681C58.8137 241.614 58.8543 241.553 58.9052 241.502C58.9565 241.451 59.0171 241.411 59.0838 241.384C59.1506 241.356 59.2223 241.342 59.2944 241.343H59.933C60.0665 241.342 60.1953 241.391 60.2957 241.478C60.3962 241.566 60.4611 241.687 60.4783 241.819L60.7402 243.808L61.099 242.149C61.1248 242.026 61.1926 241.915 61.2905 241.836C61.3885 241.757 61.5112 241.714 61.6371 241.715H62.0712C62.1436 241.715 62.2154 241.729 62.2825 241.756C62.3496 241.783 62.4105 241.824 62.4618 241.875C62.5131 241.926 62.5537 241.986 62.5817 242.053C62.6093 242.12 62.6236 242.191 62.6236 242.264V250.061H58.7456Z" fill="black"/>
<path opacity="0.5" d="M220.8 250.061V240.647C220.801 240.57 220.832 240.496 220.888 240.442C220.943 240.388 221.017 240.357 221.094 240.357H222.21C222.283 240.357 222.353 240.384 222.407 240.433C222.461 240.482 222.494 240.55 222.501 240.622L222.798 243.808L223.157 241.676C223.163 241.636 223.178 241.598 223.2 241.564C223.222 241.53 223.25 241.501 223.284 241.478C223.318 241.456 223.356 241.441 223.396 241.434C223.436 241.428 223.477 241.429 223.516 241.439L224.467 241.662C224.531 241.676 224.588 241.712 224.629 241.764C224.67 241.815 224.693 241.879 224.693 241.945V250.061H220.8Z" fill="black"/>
</g>
<path opacity="0.5" d="M116.992 185.335C116.992 185.335 115.622 197.716 144.975 196.085C162.79 195.107 174.486 186.435 179.056 182.877C179.056 182.877 166.858 186.238 148.422 186.543C135.03 186.769 125.028 184.705 118.373 183.393L116.992 185.335Z" fill="white"/>
<path opacity="0.5" d="M118.251 183.35C118.251 183.35 117.243 194.426 141.689 193.079C156.523 192.262 164.487 187.94 168.304 184.98C168.304 184.98 160.279 186.611 144.985 186.571C129.692 186.532 118.251 183.35 118.251 183.35Z" fill="white"/>
<path d="M158.647 250.061C158.647 250.061 175.149 229.794 179.095 193.734C183.042 229.794 199.544 250.061 199.544 250.061H158.647Z" fill="black"/>
<path d="M177.707 203.234C177.707 203.234 178.231 200.163 178.385 199.124C178.586 197.787 179.103 193.749 179.103 193.749C179.103 193.749 179.555 197.501 179.741 198.766C179.906 199.887 180.459 203.259 180.459 203.259V250.061H177.707V203.234Z" fill="#3B82F6"/>
<path d="M144.516 207.749C144.36 207.749 144.204 207.741 144.049 207.724C143.271 207.629 142.546 207.281 141.986 206.732C141.427 206.183 141.065 205.465 140.957 204.689C140.891 204.199 140.929 203.701 141.069 203.227C141.208 202.753 141.445 202.313 141.765 201.936C142.085 201.56 142.48 201.254 142.925 201.039C143.371 200.824 143.856 200.706 144.351 200.69C144.987 200.665 145.613 200.856 146.128 201.229C146.643 201.603 147.018 202.139 147.192 202.75C147.294 203.121 147.317 203.509 147.26 203.89L148.473 204.058C148.494 204.061 148.514 204.067 148.533 204.078C148.551 204.089 148.567 204.103 148.58 204.12C148.593 204.137 148.602 204.157 148.607 204.178C148.612 204.198 148.612 204.22 148.609 204.241C148.46 205.218 147.965 206.11 147.214 206.754C146.463 207.397 145.505 207.751 144.516 207.749ZM144.44 201.009H144.361C143.578 201.074 142.846 201.422 142.301 201.988C141.757 202.554 141.438 203.299 141.404 204.084C141.37 204.868 141.624 205.637 142.117 206.248C142.611 206.859 143.31 207.269 144.085 207.401C145.038 207.51 145.997 207.256 146.772 206.691C147.547 206.127 148.081 205.291 148.268 204.352L147.192 204.201C147.068 204.628 146.845 205.019 146.541 205.343C146.236 205.667 145.859 205.914 145.441 206.065C145.142 206.188 144.817 206.239 144.494 206.214C144.172 206.188 143.859 206.087 143.583 205.918C143.216 205.679 142.928 205.337 142.757 204.934C142.585 204.531 142.538 204.086 142.621 203.657C142.664 203.422 142.754 203.199 142.884 203C143.014 202.801 143.183 202.629 143.38 202.496C143.578 202.362 143.8 202.269 144.034 202.223C144.267 202.176 144.508 202.176 144.742 202.223C145.066 202.279 145.362 202.443 145.582 202.689C145.801 202.934 145.931 203.246 145.951 203.574C145.956 203.789 145.905 204 145.803 204.189C145.701 204.377 145.552 204.536 145.369 204.649C145.203 204.76 145.012 204.826 144.814 204.844C144.615 204.861 144.415 204.829 144.232 204.75C144.213 204.74 144.197 204.728 144.183 204.712C144.17 204.697 144.159 204.678 144.152 204.659C144.146 204.639 144.143 204.619 144.145 204.598C144.146 204.577 144.151 204.557 144.16 204.538C144.179 204.5 144.212 204.47 144.253 204.456C144.293 204.442 144.337 204.444 144.376 204.463C144.51 204.517 144.655 204.538 144.799 204.522C144.943 204.507 145.081 204.458 145.201 204.377C145.337 204.293 145.449 204.175 145.525 204.034C145.6 203.893 145.637 203.734 145.631 203.574C145.613 203.32 145.509 203.078 145.337 202.89C145.164 202.701 144.933 202.576 144.681 202.535C144.488 202.496 144.289 202.495 144.096 202.534C143.903 202.573 143.719 202.649 143.557 202.76C143.394 202.871 143.255 203.012 143.148 203.178C143.041 203.343 142.968 203.528 142.933 203.721C142.862 204.085 142.902 204.463 143.047 204.804C143.192 205.146 143.436 205.437 143.748 205.638C143.982 205.784 144.248 205.871 144.522 205.892C144.797 205.913 145.073 205.868 145.326 205.76C145.712 205.618 146.057 205.384 146.333 205.08C146.61 204.775 146.808 204.409 146.912 204.012C146.908 203.999 146.908 203.985 146.912 203.972C146.987 203.597 146.972 203.209 146.869 202.84C146.721 202.311 146.403 201.846 145.964 201.515C145.525 201.184 144.99 201.006 144.44 201.009Z" fill="#3B82F6"/>
<g opacity="0.5">
<path opacity="0.5" d="M144.516 207.749C144.36 207.749 144.204 207.741 144.049 207.724C143.271 207.629 142.546 207.281 141.986 206.732C141.427 206.183 141.065 205.465 140.957 204.689C140.891 204.199 140.929 203.701 141.069 203.227C141.208 202.753 141.445 202.313 141.765 201.936C142.085 201.56 142.48 201.254 142.925 201.039C143.371 200.824 143.856 200.706 144.351 200.69C144.987 200.665 145.613 200.856 146.128 201.229C146.643 201.603 147.018 202.139 147.192 202.75C147.294 203.121 147.317 203.509 147.26 203.89L148.473 204.058C148.494 204.061 148.514 204.067 148.533 204.078C148.551 204.089 148.567 204.103 148.58 204.12C148.593 204.137 148.602 204.157 148.607 204.178C148.612 204.198 148.612 204.22 148.609 204.241C148.46 205.218 147.965 206.11 147.214 206.754C146.463 207.397 145.505 207.751 144.516 207.749ZM144.44 201.009H144.361C143.578 201.074 142.846 201.422 142.301 201.988C141.757 202.554 141.438 203.299 141.404 204.084C141.37 204.868 141.624 205.637 142.117 206.248C142.611 206.859 143.31 207.269 144.085 207.401C145.038 207.51 145.997 207.256 146.772 206.691C147.547 206.127 148.081 205.291 148.268 204.352L147.192 204.201C147.068 204.628 146.845 205.019 146.541 205.343C146.236 205.667 145.859 205.914 145.441 206.065C145.142 206.188 144.817 206.239 144.494 206.214C144.172 206.188 143.859 206.087 143.583 205.918C143.216 205.679 142.928 205.337 142.757 204.934C142.585 204.531 142.538 204.086 142.621 203.657C142.664 203.422 142.754 203.199 142.884 203C143.014 202.801 143.183 202.629 143.38 202.496C143.578 202.362 143.8 202.269 144.034 202.223C144.267 202.176 144.508 202.176 144.742 202.223C145.066 202.279 145.362 202.443 145.582 202.689C145.801 202.934 145.931 203.246 145.951 203.574C145.956 203.789 145.905 204 145.803 204.189C145.701 204.377 145.552 204.536 145.369 204.649C145.203 204.76 145.012 204.826 144.814 204.844C144.615 204.861 144.415 204.829 144.232 204.75C144.213 204.74 144.197 204.728 144.183 204.712C144.17 204.697 144.159 204.678 144.152 204.659C144.146 204.639 144.143 204.619 144.145 204.598C144.146 204.577 144.151 204.557 144.16 204.538C144.179 204.5 144.212 204.47 144.253 204.456C144.293 204.442 144.337 204.444 144.376 204.463C144.51 204.517 144.655 204.538 144.799 204.522C144.943 204.507 145.081 204.458 145.201 204.377C145.337 204.293 145.449 204.175 145.525 204.034C145.6 203.893 145.637 203.734 145.631 203.574C145.613 203.32 145.509 203.078 145.337 202.89C145.164 202.701 144.933 202.576 144.681 202.535C144.488 202.496 144.289 202.495 144.096 202.534C143.903 202.573 143.719 202.649 143.557 202.76C143.394 202.871 143.255 203.012 143.148 203.178C143.041 203.343 142.968 203.528 142.933 203.721C142.862 204.085 142.902 204.463 143.047 204.804C143.192 205.146 143.436 205.437 143.748 205.638C143.982 205.784 144.248 205.871 144.522 205.892C144.797 205.913 145.073 205.868 145.326 205.76C145.712 205.618 146.057 205.384 146.333 205.08C146.61 204.775 146.808 204.409 146.912 204.012C146.908 203.999 146.908 203.985 146.912 203.972C146.987 203.597 146.972 203.209 146.869 202.84C146.721 202.311 146.403 201.846 145.964 201.515C145.525 201.184 144.99 201.006 144.44 201.009Z" fill="black"/>
</g>
<path d="M130.793 206.703C130.557 205.837 130.538 204.926 130.737 204.051C130.937 203.176 131.349 202.364 131.938 201.686H132.329L132.3 201.758C132.279 201.808 131.486 203.517 133.039 206.62L133.075 206.699H132.716C131.722 204.674 131.687 203.216 131.809 202.399C131.388 203.016 131.108 203.717 130.988 204.454C130.868 205.191 130.912 205.945 131.116 206.663V206.703H130.793Z" fill="black"/>
<path d="M129.143 248.37L125.265 245.653V245.216L129.143 247.932V248.37Z" fill="black"/>
<path d="M125.265 248.355V247.947L129.143 245.836V246.245L125.265 248.355Z" fill="black"/>
<path d="M224.675 248.37L220.793 245.653V245.216L224.675 247.932V248.37Z" fill="black"/>
<path d="M220.793 248.355V247.947L224.675 245.836V246.245L220.793 248.355Z" fill="black"/>
<path d="M24.2805 223.129C24.7217 222.365 25.2778 221.935 25.9881 222.028C29.7693 222.527 34.8421 242.203 34.8421 242.203C34.8421 242.203 32.8653 228.504 35.7497 227.543C38.634 226.583 39.8753 241.292 39.8753 241.292C39.8753 241.292 38.2932 218.295 43.3086 218.295C48.3239 218.295 45.6476 245.686 45.6476 245.686C45.6476 245.686 50.1966 236.878 53.2352 238.1C56.2738 239.322 50.7239 252.433 50.7239 252.433C50.7239 252.433 57.7411 245.098 63.8721 247.226C70.0031 249.355 71.2444 262.667 71.2444 262.667C71.2444 262.667 75.9584 259.084 79.9333 261.8C83.9083 264.516 80.2921 269.683 80.2921 269.683C80.2921 269.683 101.035 260.295 112.343 280.308C114.671 284.432 115.93 289.897 116.465 295.967C116.465 295.967 124.806 287.994 134.374 293.907C136.753 295.354 138.59 297.54 139.604 300.131H45.7696L24.2805 223.129Z" fill="#495057"/>
<path d="M269.425 185.16L283.416 194.835L285.795 190.782L278.541 182.35L281.719 180.58L277.669 170.271L268.84 180.576C268.558 180.907 268.347 181.293 268.223 181.711C268.098 182.127 268.063 182.566 268.117 182.997C268.173 183.429 268.317 183.844 268.543 184.216C268.768 184.589 269.069 184.91 269.425 185.16Z" fill="#3B82F6"/>
<path d="M285.784 190.767L286.943 190.803C287.377 190.818 287.815 190.75 288.224 190.603L289.741 190.058C290.093 189.933 290.466 189.865 290.839 189.857L294.749 189.775C294.803 189.945 294.821 190.124 294.799 190.3C294.778 190.477 294.721 190.647 294.631 190.801C294.541 190.954 294.419 191.087 294.276 191.19C294.132 191.294 293.967 191.366 293.791 191.402L292.651 191.635L291.388 192.276C291.216 192.365 291.068 192.497 290.961 192.66C290.853 192.823 290.792 193.011 290.781 193.206C290.771 193.4 290.81 193.593 290.9 193.767C290.986 193.941 291.119 194.089 291.28 194.197L293.791 196.325L295.811 197.4C295.951 197.478 296.062 197.599 296.127 197.745C296.191 197.892 296.206 198.055 296.17 198.21C296.145 198.314 296.102 198.411 296.037 198.495C295.973 198.58 295.89 198.649 295.793 198.698C295.7 198.748 295.596 198.777 295.492 198.783C295.384 198.789 295.28 198.772 295.18 198.733L293.192 197.956L290.921 196.218L293.074 198.866L294.728 200.403C294.835 200.503 294.903 200.635 294.929 200.779C294.95 200.923 294.925 201.07 294.857 201.199C294.814 201.281 294.753 201.352 294.677 201.409C294.606 201.466 294.52 201.506 294.43 201.527C294.337 201.549 294.243 201.55 294.154 201.533C294.06 201.515 293.974 201.478 293.899 201.424L291.513 199.754L293.117 200.915C293.167 200.952 293.21 200.999 293.239 201.054C293.271 201.108 293.289 201.168 293.296 201.23C293.3 201.292 293.293 201.355 293.271 201.414C293.25 201.473 293.217 201.526 293.174 201.571C293.11 201.636 293.031 201.679 292.941 201.695C292.851 201.711 292.762 201.699 292.679 201.661L290.527 200.586L291.503 201.138C291.542 201.155 291.578 201.181 291.607 201.213C291.635 201.245 291.653 201.283 291.668 201.324C291.682 201.365 291.685 201.408 291.678 201.451C291.675 201.493 291.66 201.534 291.639 201.571C291.599 201.638 291.538 201.687 291.463 201.708C291.388 201.73 291.309 201.724 291.241 201.689L289.824 201.005C289.163 200.219 288.424 199.499 287.624 198.855C286.738 198.257 285.698 196.583 284.812 195.795C284.397 195.387 283.911 195.059 283.377 194.827L285.784 190.767Z" fill="#FC9D9D"/>
<path opacity="0.15" d="M289.816 197.751L291.52 199.769L292.851 200.7" stroke="black" stroke-width="0.6" stroke-linecap="round" stroke-linejoin="round"/>
<path opacity="0.15" d="M288.485 198.68L290.552 200.586L291.528 201.138" stroke="black" stroke-width="0.6" stroke-linecap="round" stroke-linejoin="round"/>
<path d="M311.819 201.428L322.423 205.212C322.89 205.357 323.385 205.39 323.865 205.309C324.35 205.228 324.805 205.035 325.196 204.746C325.591 204.456 325.91 204.078 326.133 203.643C326.352 203.207 326.466 202.726 326.466 202.238L326.187 199.278L315.324 199.876L311.819 201.428Z" fill="#3B82F6"/>
<path d="M310.398 201.342L309.888 200.382L309.957 198.536L310.15 197.68C310.161 197.622 310.19 197.569 310.229 197.525C310.269 197.482 310.319 197.45 310.376 197.432C310.43 197.417 310.484 197.415 310.541 197.426C310.595 197.437 310.645 197.462 310.688 197.497C310.732 197.532 310.764 197.578 310.785 197.629C310.803 197.68 310.814 197.736 310.807 197.791L310.739 198.278L311.194 200.296L310.739 198.292L310.95 196.748C310.961 196.677 310.986 196.61 311.029 196.553C311.076 196.497 311.133 196.453 311.198 196.426C311.255 196.402 311.316 196.392 311.377 196.395C311.442 196.399 311.499 196.417 311.553 196.446C311.607 196.476 311.653 196.518 311.689 196.568C311.725 196.619 311.75 196.676 311.761 196.737L311.937 197.812L311.6 195.684C311.582 195.575 311.603 195.465 311.661 195.37C311.714 195.275 311.801 195.203 311.905 195.164C312.009 195.126 312.123 195.124 312.227 195.16C312.332 195.196 312.421 195.267 312.479 195.361L313.555 197.081L312.723 195.727C312.687 195.668 312.662 195.603 312.647 195.534C312.636 195.466 312.64 195.396 312.658 195.329C312.676 195.261 312.705 195.199 312.748 195.144C312.791 195.089 312.845 195.043 312.906 195.01C313.002 194.954 313.117 194.932 313.228 194.949C313.34 194.965 313.444 195.018 313.523 195.1L315.126 196.752L316.063 199.002L316.421 200.12C316.446 200.196 316.454 200.277 316.443 200.357C316.432 200.436 316.4 200.512 316.357 200.579L316.278 200.697C316.213 200.789 316.131 200.866 316.034 200.923C315.937 200.979 315.829 201.013 315.718 201.023L315.295 201.062C315.205 201.069 315.119 201.091 315.04 201.127L314.15 201.507C314.003 201.568 313.845 201.588 313.688 201.564L313.411 201.517C313.289 201.498 313.167 201.505 313.049 201.539C312.931 201.573 312.823 201.633 312.73 201.715C312.64 201.794 312.532 201.853 312.418 201.887C312.299 201.921 312.177 201.929 312.059 201.912L311.463 201.822L311.036 201.768C310.904 201.753 310.778 201.707 310.667 201.633C310.556 201.558 310.462 201.459 310.398 201.342Z" fill="#FC9D9D"/>
<path opacity="0.15" d="M311.194 200.303L310.739 198.285L310.807 197.798" stroke="black" stroke-width="0.6" stroke-linecap="round" stroke-linejoin="round"/>
<path opacity="0.15" d="M311.761 196.73L311.937 197.816L312.712 199.686" stroke="black" stroke-width="0.6" stroke-linecap="round" stroke-linejoin="round"/>
<path opacity="0.15" d="M312.708 195.73L313.541 197.085L314.222 199.049" stroke="black" stroke-width="0.6" stroke-linecap="round" stroke-linejoin="round"/>
<path d="M316.35 200.589L317.254 199.704L316.156 199.744L316.35 200.589Z" fill="#FC9D9D"/>
<path opacity="0.15" d="M317.254 199.704L326.291 200.396L326.187 199.278L317.254 199.704Z" fill="black"/>
<path opacity="0.15" d="M285.662 176.57C285.59 176.57 285.519 176.596 285.465 176.644C285.411 176.691 285.375 176.757 285.364 176.828L284.676 180.695C281.899 180.487 276.489 181.573 275.969 181.712C275.896 181.725 275.83 181.762 275.784 181.819C275.737 181.875 275.712 181.947 275.714 182.021C275.717 182.061 275.728 182.1 275.747 182.136C275.766 182.172 275.792 182.203 275.824 182.228C275.855 182.254 275.892 182.272 275.931 182.282C275.97 182.293 276.011 182.295 276.051 182.289C277.773 182.035 278.53 182.339 278.53 182.339C280.373 181.201 282.546 180.712 284.701 180.953L285.059 180.996C285.633 181.064 285.949 181.121 285.949 181.121V176.875C285.949 176.797 285.92 176.722 285.867 176.666C285.813 176.609 285.741 176.575 285.662 176.57Z" fill="black"/>
<path opacity="0.15" d="M283.406 194.824C283.766 194.983 284.104 195.189 284.41 195.437L286.394 191.495C286.394 191.495 287.786 191.696 288.708 191.248C289.63 190.8 290.078 190.248 290.774 190.248H294.807L294.749 189.786C294.749 189.786 292.238 189.75 290.67 189.875C290.254 189.916 289.849 190.015 289.461 190.169C288.658 190.434 288.435 190.621 287.75 190.753C287.097 190.823 286.437 190.832 285.784 190.778L283.406 194.824Z" fill="black"/>
</svg>
