<svg width="468" height="358" viewBox="0 0 468 358" fill="none" xmlns="http://www.w3.org/2000/svg">
<path d="M17.3569 355.356L0.0748618 143.746C-0.363957 138.356 1.13665 132.987 4.30674 128.604L90.5341 9.40322C92.8387 6.21793 95.9318 3.68462 99.5102 2.05161C103.089 0.418973 107.031 -0.257767 110.95 0.0880298L406.148 26.0837C410.822 26.4946 415.252 28.3405 418.832 31.3674C422.412 34.3943 424.967 38.4539 426.145 42.9889L466.706 198.921C467.705 202.754 467.678 206.782 466.63 210.601L426.945 355.893L17.3569 355.356Z" fill="#3B82F6"/>
<path d="M17.3569 355.356L0.0748618 143.746C-0.363957 138.356 1.13665 132.987 4.30674 128.604L90.5341 9.40322C92.8387 6.21793 95.9318 3.68462 99.5102 2.05161C103.089 0.418973 107.031 -0.257767 110.95 0.0880298L406.148 26.0837C410.822 26.4946 415.252 28.3405 418.832 31.3674C422.412 34.3943 424.967 38.4539 426.145 42.9889L466.706 198.921C467.705 202.754 467.678 206.782 466.63 210.601L426.945 355.893L17.3569 355.356Z" fill="white"/>
<path d="M442.283 357.039L2.54916 356.472C2.46376 356.483 2.37759 356.472 2.29562 356.445C2.21365 356.422 2.13855 356.377 2.0745 356.32C2.01045 356.262 1.95936 356.194 1.92429 356.114C1.88921 356.038 1.87091 355.954 1.87091 355.866C1.87091 355.779 1.88921 355.695 1.92429 355.619C1.95936 355.539 2.01045 355.47 2.0745 355.413C2.13855 355.356 2.21365 355.31 2.29562 355.287C2.37759 355.261 2.46376 355.249 2.54916 355.261L442.283 355.828C442.371 355.813 442.458 355.821 442.546 355.843C442.63 355.866 442.71 355.908 442.778 355.969C442.847 356.026 442.9 356.095 442.935 356.179C442.973 356.259 442.992 356.346 442.992 356.434C442.992 356.521 442.973 356.609 442.935 356.689C442.9 356.773 442.847 356.841 442.778 356.898C442.71 356.959 442.63 357.001 442.546 357.024C442.458 357.047 442.371 357.055 442.283 357.039Z" fill="#3B82F6"/>
<g opacity="0.6">
<path opacity="0.6" d="M442.283 357.039L2.54916 356.472C2.46376 356.483 2.37759 356.472 2.29562 356.445C2.21365 356.422 2.13855 356.377 2.0745 356.32C2.01045 356.262 1.95936 356.194 1.92429 356.114C1.88921 356.038 1.87091 355.954 1.87091 355.866C1.87091 355.779 1.88921 355.695 1.92429 355.619C1.95936 355.539 2.01045 355.47 2.0745 355.413C2.13855 355.356 2.21365 355.31 2.29562 355.287C2.37759 355.261 2.46376 355.249 2.54916 355.261L442.283 355.828C442.371 355.813 442.458 355.821 442.546 355.843C442.63 355.866 442.71 355.908 442.778 355.969C442.847 356.026 442.9 356.095 442.935 356.179C442.973 356.259 442.992 356.346 442.992 356.434C442.992 356.521 442.973 356.609 442.935 356.689C442.9 356.773 442.847 356.841 442.778 356.898C442.71 356.959 442.63 357.001 442.546 357.024C442.458 357.047 442.371 357.055 442.283 357.039Z" fill="white"/>
</g>
<path d="M384.882 313.11V329.174H434.239L438.627 313.11H384.87H384.882Z" fill="#195DBB"/>
<path d="M441.215 294.986H443.579L447.693 279.921H441.212L441.215 294.986Z" fill="#195DBB"/>
<path d="M384.882 295.843V312.253H438.852L440.563 305.992C440.228 305.848 439.953 305.593 439.789 305.27C439.622 304.947 439.568 304.576 439.645 304.221C439.721 303.865 439.915 303.546 440.197 303.318C440.483 303.09 440.834 302.966 441.2 302.969C441.261 302.971 441.322 302.977 441.383 302.988L443.335 295.843H384.882Z" fill="#195DBB"/>
<path d="M440.35 294.986V279.921H384.882V294.986H440.35ZM412.221 285.465C412.534 285.468 412.839 285.562 413.098 285.737C413.357 285.913 413.556 286.16 413.674 286.449C413.792 286.738 413.823 287.055 413.762 287.361C413.697 287.667 413.548 287.948 413.323 288.167C413.102 288.387 412.82 288.537 412.515 288.597C412.206 288.657 411.89 288.625 411.6 288.505C411.314 288.385 411.066 288.182 410.895 287.923C410.719 287.663 410.628 287.358 410.628 287.046C410.635 286.628 410.803 286.229 411.104 285.937C411.402 285.643 411.802 285.48 412.221 285.481V285.465Z" fill="#195DBB"/>
<path d="M381.637 332.594H393.376L393.418 332.411H401.089L401.081 332.434H401.218L401.15 332.594H415.637L415.679 332.411H423.354L423.342 332.434H423.48L423.411 332.594H433.304L434.033 329.935H384.192V279.159H447.902L448.711 276.192H381.637V332.594Z" fill="#195DBB"/>
<path opacity="0.6" d="M384.882 313.11V329.174H434.239L438.627 313.11H384.87H384.882Z" fill="white"/>
<path opacity="0.6" d="M441.215 294.986H443.579L447.693 279.921H441.212L441.215 294.986Z" fill="white"/>
<path opacity="0.6" d="M384.882 295.843V312.253H438.852L440.563 305.992C440.228 305.848 439.953 305.593 439.789 305.27C439.622 304.947 439.568 304.576 439.645 304.221C439.721 303.865 439.915 303.546 440.197 303.318C440.483 303.09 440.834 302.966 441.2 302.969C441.261 302.971 441.322 302.977 441.383 302.988L443.335 295.843H384.882Z" fill="white"/>
<path opacity="0.6" d="M440.35 294.986V279.921H384.882V294.986H440.35ZM412.221 285.465C412.534 285.468 412.839 285.562 413.098 285.737C413.357 285.913 413.556 286.16 413.674 286.449C413.792 286.738 413.823 287.055 413.762 287.361C413.697 287.667 413.548 287.948 413.323 288.167C413.102 288.387 412.82 288.537 412.515 288.597C412.206 288.657 411.89 288.625 411.6 288.505C411.314 288.385 411.066 288.182 410.895 287.923C410.719 287.663 410.628 287.358 410.628 287.046C410.635 286.628 410.803 286.229 411.104 285.937C411.402 285.643 411.802 285.48 412.221 285.481V285.465Z" fill="white"/>
<path opacity="0.6" d="M381.637 332.594H393.376L393.418 332.411H401.089L401.081 332.434H401.218L401.15 332.594H415.637L415.679 332.411H423.354L423.342 332.434H423.48L423.411 332.594H433.304L434.033 329.935H384.192V279.159H447.902L448.711 276.192H381.637V332.594Z" fill="white"/>
<path d="M384.192 329.935H434.033L434.239 329.174H384.882V313.11H384.539C384.356 313.11 384.356 312.253 384.539 312.253H384.882V295.843H384.539C384.356 295.843 384.356 294.986 384.539 294.986H384.882V279.921H440.35V279.54L441.215 279.498V279.94H447.697L447.906 279.178H384.192V329.935Z" fill="#195DBB"/>
<path d="M441.215 295.615C441.215 295.813 440.35 295.813 440.35 295.615V294.975H384.539C384.356 294.975 384.356 295.832 384.539 295.832H443.343L443.579 294.975H441.215V295.615Z" fill="#195DBB"/>
<path d="M440.35 295.615C440.35 295.813 441.215 295.813 441.215 295.615V279.467L440.35 279.509V295.615Z" fill="#195DBB"/>
<path d="M384.882 312.253H384.539C384.356 312.253 384.356 313.11 384.539 313.11H438.627L438.859 312.253H384.882Z" fill="#195DBB"/>
<path opacity="0.4" d="M384.192 329.935H434.033L434.239 329.174H384.882V313.11H384.539C384.356 313.11 384.356 312.253 384.539 312.253H384.882V295.843H384.539C384.356 295.843 384.356 294.986 384.539 294.986H384.882V279.921H440.35V279.54L441.215 279.498V279.94H447.697L447.906 279.178H384.192V329.935Z" fill="white"/>
<path opacity="0.4" d="M441.215 295.615C441.215 295.813 440.35 295.813 440.35 295.615V294.975H384.539C384.356 294.975 384.356 295.832 384.539 295.832H443.343L443.579 294.975H441.215V295.615Z" fill="white"/>
<path opacity="0.4" d="M440.35 295.615C440.35 295.813 441.215 295.813 441.215 295.615V279.467L440.35 279.509V295.615Z" fill="white"/>
<path opacity="0.4" d="M384.882 312.253H384.539C384.356 312.253 384.356 313.11 384.539 313.11H438.627L438.859 312.253H384.882Z" fill="white"/>
<path d="M412.221 288.638C412.534 288.636 412.839 288.541 413.098 288.366C413.357 288.19 413.556 287.943 413.674 287.653C413.792 287.364 413.823 287.047 413.762 286.741C413.697 286.435 413.544 286.154 413.323 285.935C413.102 285.715 412.82 285.566 412.511 285.506C412.206 285.446 411.886 285.479 411.6 285.6C411.31 285.72 411.066 285.923 410.891 286.183C410.719 286.443 410.628 286.749 410.628 287.061C410.628 287.269 410.67 287.475 410.75 287.667C410.834 287.859 410.948 288.033 411.097 288.179C411.245 288.326 411.421 288.441 411.615 288.52C411.806 288.599 412.012 288.639 412.221 288.638Z" fill="#195DBB"/>
<path d="M439.614 304.545C439.614 304.854 439.706 305.155 439.877 305.412C440.045 305.669 440.289 305.871 440.571 305.992L441.391 302.988C441.33 302.977 441.269 302.971 441.208 302.969C440.998 302.967 440.792 303.007 440.602 303.086C440.407 303.165 440.232 303.281 440.083 303.427C439.934 303.574 439.82 303.748 439.736 303.94C439.656 304.131 439.614 304.337 439.614 304.545Z" fill="#195DBB"/>
<path opacity="0.4" d="M412.221 288.638C412.534 288.636 412.839 288.541 413.098 288.366C413.357 288.19 413.556 287.943 413.674 287.653C413.792 287.364 413.823 287.047 413.762 286.741C413.697 286.435 413.544 286.154 413.323 285.935C413.102 285.715 412.82 285.566 412.511 285.506C412.206 285.446 411.886 285.479 411.6 285.6C411.31 285.72 411.066 285.923 410.891 286.183C410.719 286.443 410.628 286.749 410.628 287.061C410.628 287.269 410.67 287.475 410.75 287.667C410.834 287.859 410.948 288.033 411.097 288.179C411.245 288.326 411.421 288.441 411.615 288.52C411.806 288.599 412.012 288.639 412.221 288.638Z" fill="white"/>
<path opacity="0.4" d="M439.614 304.545C439.614 304.854 439.706 305.155 439.877 305.412C440.045 305.669 440.289 305.871 440.571 305.992L441.391 302.988C441.33 302.977 441.269 302.971 441.208 302.969C440.998 302.967 440.792 303.007 440.602 303.086C440.407 303.165 440.232 303.281 440.083 303.427C439.934 303.574 439.82 303.748 439.736 303.94C439.656 304.131 439.614 304.337 439.614 304.545Z" fill="white"/>
<path d="M401.081 332.434H393.555L392.671 335.568L392.457 336.467L387.962 355.47H389.659H391.001L392.766 351.494L401.15 332.594L401.218 332.434H401.081Z" fill="#195DBB"/>
<path opacity="0.6" d="M401.081 332.434H393.555L392.671 335.568L392.457 336.467L387.962 355.47H389.659H391.001L392.766 351.494L401.15 332.594L401.218 332.434H401.081Z" fill="white"/>
<path d="M401.081 332.434H393.555L392.671 335.568L392.457 336.467L395.378 337.095L389.659 355.47H391.001L392.766 351.494L401.009 332.594H401.15L401.218 332.434H401.081Z" fill="#195DBB"/>
<path opacity="0.2" d="M413.262 355.474V355.47H412.027L413.262 355.474Z" fill="black"/>
<path d="M423.342 332.434L423.354 332.411H415.679L415.637 332.594L410.224 355.47H412.027H413.262L415.031 351.491L423.274 332.594H423.411L423.483 332.434H423.342Z" fill="#195DBB"/>
<path opacity="0.6" d="M423.342 332.434L423.354 332.411H415.679L415.637 332.594L410.224 355.47H412.027H413.262L415.031 351.491L423.274 332.594H423.411L423.483 332.434H423.342Z" fill="white"/>
<path d="M423.342 332.434H415.816L413.601 341.958L416.182 343.405L412.027 355.47H413.262L415.031 351.491L423.274 332.594H423.411L423.48 332.434H423.342Z" fill="#195DBB"/>
<path opacity="0.4" d="M401.081 332.434H393.555L392.671 335.568L392.457 336.467L395.378 337.095L389.659 355.47H391.001L392.766 351.494L401.009 332.594H401.15L401.218 332.434H401.081Z" fill="white"/>
<path opacity="0.4" d="M423.342 332.434H415.816L413.601 341.958L416.182 343.405L412.027 355.47H413.262L415.031 351.491L423.274 332.594H423.411L423.48 332.434H423.342Z" fill="white"/>
<path d="M428.863 112.457H395.77V158.191H428.863V112.457Z" fill="#3B82F6"/>
<path d="M424.444 116.688H400.189V153.956H424.444V116.688Z" fill="#3B82F6"/>
<path d="M429.854 112.434H428.893V158.168H429.854V112.434Z" fill="#3B82F6"/>
<path opacity="0.6" d="M424.444 116.688H400.189V153.956H424.444V116.688Z" fill="white"/>
<path opacity="0.6" d="M429.854 112.434H428.893V158.168H429.854V112.434Z" fill="white"/>
<path d="M418.013 129.88H406.651V147.889H418.013V129.88Z" fill="white"/>
<path d="M412.332 127.625C413.819 127.626 415.245 127.04 416.297 125.993C417.349 124.947 417.944 123.526 417.952 122.042H406.743C406.743 122.776 406.888 123.502 407.166 124.18C407.448 124.857 407.86 125.473 408.378 125.991C408.897 126.51 409.514 126.921 410.193 127.201C410.872 127.482 411.596 127.626 412.332 127.625Z" fill="#195DBB"/>
<path d="M43.4954 339.868C43.4493 339.864 43.4059 339.845 43.3746 339.81C43.3433 339.776 43.3265 339.73 43.3277 339.685L46.0651 272.171C46.0647 272.147 46.0696 272.124 46.0792 272.103C46.0883 272.081 46.102 272.062 46.1192 272.046C46.1367 272.03 46.1569 272.019 46.1791 272.011C46.2012 272.004 46.2248 272.001 46.2481 272.003C46.2942 272.006 46.3373 272.027 46.3685 272.061C46.3998 272.095 46.417 272.14 46.4158 272.186L43.6823 339.7C43.6811 339.723 43.6754 339.746 43.6655 339.769C43.6556 339.788 43.6415 339.807 43.6239 339.822C43.6068 339.837 43.5862 339.852 43.5641 339.86C43.542 339.868 43.5187 339.868 43.4954 339.868Z" fill="#195DBB"/>
<path d="M38.501 315.944C38.4755 315.943 38.4503 315.937 38.4274 315.926C38.4042 315.915 38.384 315.899 38.3676 315.879L26.221 301.639C26.1916 301.604 26.1771 301.558 26.1805 301.512C26.1844 301.466 26.2057 301.423 26.24 301.392C26.2579 301.376 26.2781 301.365 26.3006 301.357C26.3231 301.349 26.3464 301.346 26.37 301.348C26.3937 301.35 26.4165 301.357 26.4375 301.367C26.4581 301.378 26.4768 301.393 26.4916 301.411L38.6345 315.65C38.6497 315.668 38.6611 315.688 38.6684 315.71C38.6756 315.732 38.6783 315.755 38.6764 315.778C38.6749 315.801 38.6684 315.824 38.6581 315.844C38.6474 315.865 38.6329 315.883 38.6154 315.898C38.5845 315.927 38.5437 315.944 38.501 315.944Z" fill="#195DBB"/>
<path d="M43.686 335.221C43.6505 335.221 43.6162 335.21 43.5869 335.191C43.5484 335.165 43.5221 335.125 43.5129 335.079C43.5034 335.034 43.5121 334.986 43.5373 334.947L54.483 318.358C54.4956 318.339 54.512 318.322 54.5314 318.309C54.5505 318.296 54.5718 318.287 54.5947 318.283C54.6172 318.278 54.6408 318.278 54.6633 318.282C54.6862 318.287 54.7076 318.296 54.727 318.309C54.7464 318.321 54.7628 318.337 54.7758 318.357C54.7888 318.376 54.7979 318.397 54.8025 318.42C54.8071 318.443 54.8071 318.466 54.8029 318.489C54.7983 318.512 54.7895 318.533 54.7766 318.552L43.8309 335.141C43.8156 335.166 43.7943 335.186 43.7691 335.2C43.7436 335.215 43.715 335.222 43.686 335.221Z" fill="#195DBB"/>
<path d="M44.8831 307.98C44.8408 307.981 44.8004 307.966 44.7688 307.938C44.7356 307.906 44.7173 307.861 44.7173 307.815C44.7173 307.768 44.7356 307.724 44.7688 307.691L59.8396 290.477C59.8548 290.46 59.8731 290.445 59.8941 290.435C59.9151 290.425 59.9375 290.419 59.9608 290.417C59.9841 290.416 60.0073 290.419 60.0291 290.426C60.0512 290.433 60.0718 290.445 60.0893 290.46C60.1064 290.475 60.1209 290.494 60.1312 290.515C60.1415 290.536 60.148 290.558 60.1495 290.581C60.1511 290.604 60.148 290.628 60.1408 290.65C60.1331 290.672 60.1217 290.692 60.1064 290.71L45.0204 307.923C45.0028 307.942 44.9815 307.957 44.9579 307.967C44.9342 307.977 44.9087 307.981 44.8831 307.98Z" fill="#195DBB"/>
<path d="M58.9399 299.834C62.5122 295.645 63.5949 290.694 61.3532 288.79C59.1114 286.886 54.3992 288.76 50.8231 292.949C47.2469 297.138 46.1718 302.089 48.4136 303.993C50.6553 305.897 55.3676 304.043 58.9399 299.846" fill="#195DBB"/>
<g opacity="0.3">
<g opacity="0.3">
<path opacity="0.3" d="M61.4943 288.962L48.3411 303.921C48.3907 303.921 48.3907 303.97 48.4364 303.97C50.6934 305.874 55.3981 304.02 58.9475 299.846C62.455 295.771 63.5568 290.976 61.4943 288.962Z" fill="black"/>
</g>
</g>
<path d="M33.621 309.923C35.3557 308.487 34.5742 304.679 31.8711 301.415C29.168 298.151 25.569 296.666 23.8305 298.098C22.092 299.53 22.8774 303.346 25.5805 306.609C28.2835 309.873 31.8825 311.358 33.621 309.923Z" fill="#195DBB"/>
<g opacity="0.3">
<g opacity="0.3">
<path opacity="0.3" d="M23.7162 298.216L33.6516 309.869L33.6058 309.915C31.8749 311.355 28.2683 309.869 25.5386 306.606C22.9499 303.441 22.1302 299.701 23.7162 298.227" fill="black"/>
</g>
</g>
<path d="M40.9982 330.998C40.9582 330.998 40.9193 330.985 40.8877 330.96L28.07 320.986C28.0334 320.957 28.0094 320.915 28.0037 320.868C27.998 320.822 28.0109 320.775 28.0395 320.738C28.0685 320.701 28.1108 320.677 28.1574 320.672C28.2039 320.666 28.2508 320.679 28.2874 320.708L41.105 330.682C41.1237 330.696 41.1389 330.714 41.1503 330.734C41.1618 330.754 41.1694 330.776 41.1721 330.799C41.1751 330.822 41.1732 330.846 41.1671 330.868C41.1606 330.89 41.15 330.911 41.1355 330.929C41.1195 330.951 41.0989 330.968 41.0752 330.98C41.0512 330.992 41.0249 330.998 40.9982 330.998Z" fill="#195DBB"/>
<path d="M36.9875 327.605C38.3943 325.845 36.8503 322.273 33.5563 319.63C30.2623 316.987 26.4154 316.26 25.0086 318.019C23.6018 319.779 25.1459 323.351 28.4399 325.994C31.7339 328.637 35.5769 329.36 36.9837 327.605" fill="#195DBB"/>
<g opacity="0.3">
<g opacity="0.3">
<path opacity="0.3" d="M24.9171 318.164L37.0141 327.559L36.9646 327.609C35.573 329.383 31.7338 328.663 28.4208 326.024C25.203 323.438 23.6666 319.931 24.9171 318.164Z" fill="black"/>
</g>
</g>
<path d="M51.2386 277.255C51.4864 271.752 49.3514 267.185 46.4615 267.056C43.5717 266.927 41.0325 271.279 40.7847 276.782C40.5369 282.286 42.6681 286.852 45.558 286.981C48.4479 287.111 50.987 282.758 51.2386 277.255Z" fill="#195DBB"/>
<g opacity="0.3">
<g opacity="0.3">
<path opacity="0.3" d="M40.8038 276.832C41.044 271.363 43.5869 266.999 46.4691 267.144L45.558 287.042C42.6757 286.852 40.5636 282.297 40.8038 276.832Z" fill="black"/>
</g>
</g>
<path d="M55.7945 324.714C58.1926 320.967 58.4633 316.854 56.3778 315.525C54.2924 314.196 50.6591 316.161 48.2724 319.908C45.8858 323.655 45.6037 327.772 47.6891 329.098C49.7746 330.423 53.4079 328.462 55.7945 324.714Z" fill="#195DBB"/>
<g opacity="0.3">
<g opacity="0.3">
<path opacity="0.3" d="M48.2915 319.889C45.9392 323.534 45.6533 327.563 47.571 328.953L56.3588 315.525L55.8289 315.285C53.7663 314.523 50.4914 316.427 48.2915 319.889Z" fill="black"/>
</g>
</g>
<path d="M42.2907 339.053C42.2491 339.053 42.2083 339.037 42.177 339.011C42.1454 338.984 42.1248 338.946 42.1191 338.904L34.6313 292.298C34.6275 292.275 34.6283 292.252 34.6336 292.229C34.639 292.207 34.6485 292.186 34.6622 292.167C34.6756 292.148 34.6924 292.132 34.7122 292.12C34.7316 292.108 34.7537 292.1 34.7762 292.096C34.7991 292.092 34.8224 292.093 34.8448 292.098C34.8673 292.103 34.8887 292.113 34.9074 292.126C34.9261 292.14 34.9421 292.157 34.9543 292.177C34.9665 292.196 34.9745 292.218 34.9783 292.241L42.466 338.851C42.4698 338.874 42.4691 338.896 42.4641 338.919C42.4588 338.942 42.4493 338.961 42.4355 338.98C42.4222 338.999 42.405 339.018 42.3856 339.03C42.3658 339.041 42.344 339.049 42.3212 339.053H42.2907Z" fill="#195DBB"/>
<path d="M35.5121 298.795C38.0779 298.383 39.5228 294.088 38.7412 289.198C37.9597 284.308 35.2414 280.678 32.6756 281.086C30.1097 281.493 28.6686 285.793 29.4502 290.683C30.2317 295.573 32.9501 299.206 35.5121 298.795Z" fill="#195DBB"/>
<g opacity="0.3">
<g opacity="0.3">
<path opacity="0.3" d="M29.4273 290.687C28.6648 285.797 30.1021 281.482 32.645 281.052L35.4892 298.791C32.9424 299.271 30.2088 295.626 29.4387 290.687" fill="black"/>
</g>
</g>
<path d="M38.9814 355.371H47.9561C48.3533 355.371 48.7472 355.295 49.1147 355.143C49.4822 354.994 49.8162 354.77 50.0972 354.491C50.3782 354.21 50.6008 353.875 50.7522 353.509C50.9035 353.143 50.9809 352.747 50.9794 352.351V340.458H35.9086V352.359C35.9242 353.162 36.2547 353.928 36.8289 354.495C37.4031 355.059 38.1759 355.375 38.9814 355.379" fill="#495057"/>
<path d="M51.3644 338.877H35.6188C35.4026 338.877 35.1948 338.965 35.042 339.117C34.8891 339.27 34.8029 339.475 34.8029 339.692C34.8029 339.909 34.8891 340.115 35.042 340.267C35.1948 340.42 35.4026 340.507 35.6188 340.507H51.3644C51.4719 340.507 51.5783 340.488 51.6778 340.446C51.7773 340.408 51.8677 340.347 51.9435 340.271C52.0198 340.195 52.0796 340.104 52.1204 340.005C52.1608 339.906 52.1814 339.799 52.1803 339.692C52.1662 339.479 52.0754 339.281 51.9256 339.133C51.7754 338.984 51.576 338.893 51.3644 338.877Z" fill="#495057"/>
<path opacity="0.2" d="M51.0289 340.458H37.3039C37.0873 340.458 36.8799 340.37 36.7271 340.218C36.5738 340.066 36.488 339.86 36.488 339.643C36.488 339.426 36.5738 339.22 36.7271 339.068C36.8799 338.915 37.0873 338.828 37.3039 338.828H35.6226C35.406 338.828 35.1986 338.915 35.0458 339.068C34.8925 339.22 34.8067 339.426 34.8067 339.643C34.8067 339.86 34.8925 340.066 35.0458 340.218C35.1986 340.37 35.406 340.458 35.6226 340.458H35.9619V352.302C35.96 352.698 36.0366 353.094 36.188 353.459C36.339 353.829 36.5616 354.16 36.843 354.442C37.1239 354.724 37.4583 354.945 37.8258 355.097C38.1937 355.246 38.5876 355.326 38.9852 355.322H43.8766C42.8427 355.326 41.8396 354.971 41.0417 354.313C40.2433 353.657 39.7008 352.74 39.5075 351.727L37.3496 340.652H51.0289V340.458Z" fill="black"/>
<path d="M371.37 98.244L371.271 285.233C371.271 286.608 371.001 287.969 370.471 289.239C369.945 290.509 369.171 291.663 368.198 292.635C367.226 293.607 366.071 294.377 364.798 294.903C363.524 295.429 362.163 295.699 360.787 295.698L83.0234 295.55C81.6471 295.55 80.2845 295.278 79.0134 294.752C77.7423 294.225 76.5875 293.453 75.615 292.481C74.6424 291.508 73.8711 290.354 73.3454 289.083C72.8197 287.813 72.5493 286.452 72.5505 285.077L72.6496 98.0879C72.6496 96.7119 72.9211 95.3497 73.4491 94.0785C73.9767 92.8076 74.7499 91.6533 75.7248 90.681C76.6996 89.7092 77.8571 88.9387 79.1301 88.4139C80.4035 87.8892 81.768 87.6203 83.1454 87.6226L360.905 87.7673C363.684 87.7722 366.346 88.8786 368.309 90.8429C370.269 92.8072 371.37 95.4693 371.37 98.244Z" fill="#3B82F6"/>
<g opacity="0.2">
<path opacity="0.2" d="M371.37 98.244L371.271 285.233C371.271 286.608 371.001 287.969 370.471 289.239C369.945 290.509 369.171 291.663 368.198 292.635C367.226 293.607 366.071 294.377 364.798 294.903C363.524 295.429 362.163 295.699 360.787 295.698L83.0234 295.55C81.6471 295.55 80.2845 295.278 79.0134 294.752C77.7423 294.225 76.5875 293.453 75.615 292.481C74.6424 291.508 73.8711 290.354 73.3454 289.083C72.8197 287.813 72.5493 286.452 72.5505 285.077L72.6496 98.0879C72.6496 96.7119 72.9211 95.3497 73.4491 94.0785C73.9767 92.8076 74.7499 91.6533 75.7248 90.681C76.6996 89.7092 77.8571 88.9387 79.1301 88.4139C80.4035 87.8892 81.768 87.6203 83.1454 87.6226L360.905 87.7673C363.684 87.7722 366.346 88.8786 368.309 90.8429C370.269 92.8072 371.37 95.4693 371.37 98.244Z" fill="black"/>
</g>
<path d="M366.765 98.244L366.666 285.233C366.666 286.608 366.395 287.969 365.865 289.239C365.339 290.509 364.565 291.663 363.593 292.635C362.621 293.607 361.466 294.377 360.192 294.903C358.919 295.429 357.558 295.699 356.181 295.698L78.4179 295.55C77.0416 295.55 75.679 295.278 74.4079 294.752C73.1368 294.225 71.982 293.453 71.0094 292.481C70.0369 291.508 69.2656 290.354 68.7399 289.083C68.2141 287.813 67.9438 286.452 67.9449 285.077L68.0441 98.0879C68.0445 96.713 68.3163 95.352 68.8432 94.0819C69.3704 92.8118 70.1429 91.6579 71.1166 90.6864C72.0899 89.7145 73.2455 88.9437 74.5173 88.4181C75.7892 87.8926 77.1521 87.6222 78.5285 87.6226L356.288 87.7673C359.067 87.7692 361.732 88.874 363.7 90.8387C365.663 92.8034 366.765 95.467 366.765 98.244Z" fill="#3B82F6"/>
<g opacity="0.2">
<path opacity="0.2" d="M366.765 98.244L366.666 285.233C366.666 286.608 366.395 287.969 365.865 289.239C365.339 290.509 364.565 291.663 363.593 292.635C362.621 293.607 361.466 294.377 360.192 294.903C358.919 295.429 357.558 295.699 356.181 295.698L78.4179 295.55C77.0416 295.55 75.679 295.278 74.4079 294.752C73.1368 294.225 71.982 293.453 71.0094 292.481C70.0369 291.508 69.2656 290.354 68.7399 289.083C68.2141 287.813 67.9438 286.452 67.9449 285.077L68.0441 98.0879C68.0445 96.713 68.3163 95.352 68.8432 94.0819C69.3704 92.8118 70.1429 91.6579 71.1166 90.6864C72.0899 89.7145 73.2455 88.9437 74.5173 88.4181C75.7892 87.8926 77.1521 87.6222 78.5285 87.6226L356.288 87.7673C359.067 87.7692 361.732 88.874 363.7 90.8387C365.663 92.8034 366.765 95.467 366.765 98.244Z" fill="white"/>
</g>
<path d="M88.4905 94.5118V289.327H337.961V94.5118H88.4905Z" fill="white"/>
<g opacity="0.4">
<path opacity="0.4" d="M351.709 183.753C353.295 183.753 354.843 184.222 356.159 185.102C357.478 185.982 358.503 187.232 359.109 188.695C359.712 190.157 359.872 191.767 359.559 193.319C359.251 194.871 358.484 196.296 357.363 197.413C356.239 198.531 354.813 199.291 353.257 199.597C351.702 199.903 350.093 199.741 348.629 199.132C347.169 198.523 345.918 197.495 345.041 196.176C344.164 194.858 343.699 193.31 343.703 191.727C343.711 189.61 344.557 187.582 346.055 186.087C347.558 184.592 349.59 183.753 351.709 183.753Z" fill="black"/>
</g>
<path opacity="0.4" d="M76.61 160.736L76.5776 222.431C76.5776 222.688 76.7858 222.896 77.0424 222.896L79.4138 222.897C79.6707 222.898 79.8793 222.69 79.8793 222.433L79.9117 160.738C79.9117 160.481 79.7035 160.273 79.4469 160.273L77.0755 160.272C76.8186 160.272 76.61 160.48 76.61 160.736Z" fill="black"/>
<path d="M138.861 119.887L138.339 120.568L139.166 120.458V120.839L138.339 120.74L138.865 121.395L138.522 121.589L138.194 120.827L137.84 121.589L137.527 121.391L138.045 120.725L137.237 120.831V120.45L138.042 120.553L137.527 119.891L137.859 119.696L138.198 120.458L138.533 119.696L138.861 119.887Z" fill="#3B82F6"/>
<path d="M135.422 217.422L134.904 218.107L135.727 218.001V218.382L134.904 218.286L135.426 218.942L135.083 219.14L134.755 218.378L134.401 219.14L134.088 218.945L134.614 218.306L133.806 218.408V218.028L134.61 218.13L134.096 217.464L134.431 217.273L134.77 218.035L135.106 217.273L135.422 217.422Z" fill="#3B82F6"/>
<path d="M245.615 217.544L245.097 218.226L245.924 218.115V218.496L245.097 218.397L245.623 219.052L245.28 219.246L244.948 218.485L244.593 219.246L244.281 219.048L244.799 218.382L243.991 218.488V218.107L244.795 218.21L244.273 217.544L244.605 217.35L244.944 218.111L245.276 217.35L245.615 217.544Z" fill="#3B82F6"/>
<path d="M128.655 151.987L128.133 152.669L128.956 152.558V152.939L128.133 152.84L128.655 153.495L128.312 153.69L127.984 152.928L127.63 153.69L127.317 153.492L127.836 152.825L127.027 152.932V152.551L127.832 152.654L127.317 151.987L127.653 151.797L127.992 152.558L128.327 151.797L128.655 151.987Z" fill="#3B82F6"/>
<path d="M154.656 185.367L154.134 186.049L154.961 185.938V186.319L154.134 186.22L154.66 186.875L154.317 187.07L153.989 186.308L153.635 187.07L153.322 186.872L153.841 186.205L153.032 186.308V185.927L153.837 186.034L153.295 185.379L153.627 185.188L153.966 185.95L154.302 185.188L154.656 185.367Z" fill="#3B82F6"/>
<path d="M202.686 259.965H109.276C108.133 259.965 107.206 260.891 107.206 262.033V274.04C107.206 275.183 108.133 276.108 109.276 276.108H202.686C203.83 276.108 204.756 275.183 204.756 274.04V262.033C204.756 260.891 203.83 259.965 202.686 259.965Z" fill="#3B82F6"/>
<path d="M202.686 225.389H109.276C108.133 225.389 107.206 226.315 107.206 227.457V239.465C107.206 240.607 108.133 241.533 109.276 241.533H202.686C203.83 241.533 204.756 240.607 204.756 239.465V227.457C204.756 226.315 203.83 225.389 202.686 225.389Z" fill="#3B82F6"/>
<path d="M309.025 225.389H215.614C214.471 225.389 213.544 226.315 213.544 227.457V239.465C213.544 240.607 214.471 241.533 215.614 241.533H309.025C310.168 241.533 311.095 240.607 311.095 239.465V227.457C311.095 226.315 310.168 225.389 309.025 225.389Z" fill="#3B82F6"/>
<path d="M305.395 127.145H215.614C214.471 127.145 213.544 128.071 213.544 129.213V141.221C213.544 142.363 214.471 143.289 215.614 143.289H305.395C306.538 143.289 307.465 142.363 307.465 141.221V129.213C307.465 128.071 306.538 127.145 305.395 127.145Z" fill="#3B82F6"/>
<path d="M307.885 159.2H109.276C108.133 159.2 107.206 160.126 107.206 161.268V173.276C107.206 174.418 108.133 175.344 109.276 175.344H307.885C309.028 175.344 309.955 174.418 309.955 173.276V161.268C309.955 160.126 309.028 159.2 307.885 159.2Z" fill="#3B82F6"/>
<path d="M202.686 127.145H109.276C108.133 127.145 107.206 128.071 107.206 129.213V141.221C107.206 142.363 108.133 143.289 109.276 143.289H202.686C203.83 143.289 204.756 142.363 204.756 141.221V129.213C204.756 128.071 203.83 127.145 202.686 127.145Z" fill="#3B82F6"/>
<path d="M308.182 193.452H109.276C108.133 193.452 107.206 194.378 107.206 195.52V207.528C107.206 208.67 108.133 209.596 109.276 209.596H308.182C309.325 209.596 310.252 208.67 310.252 207.528V195.52C310.252 194.378 309.325 193.452 308.182 193.452Z" fill="#3B82F6"/>
<g opacity="0.7">
<path opacity="0.7" d="M202.686 259.965H109.276C108.133 259.965 107.206 260.891 107.206 262.033V274.04C107.206 275.183 108.133 276.108 109.276 276.108H202.686C203.83 276.108 204.756 275.183 204.756 274.04V262.033C204.756 260.891 203.83 259.965 202.686 259.965Z" fill="white"/>
<path opacity="0.7" d="M202.686 225.389H109.276C108.133 225.389 107.206 226.315 107.206 227.457V239.465C107.206 240.607 108.133 241.533 109.276 241.533H202.686C203.83 241.533 204.756 240.607 204.756 239.465V227.457C204.756 226.315 203.83 225.389 202.686 225.389Z" fill="white"/>
<path opacity="0.7" d="M309.025 225.389H215.614C214.471 225.389 213.544 226.315 213.544 227.457V239.465C213.544 240.607 214.471 241.533 215.614 241.533H309.025C310.168 241.533 311.095 240.607 311.095 239.465V227.457C311.095 226.315 310.168 225.389 309.025 225.389Z" fill="white"/>
<path opacity="0.7" d="M305.395 127.145H215.614C214.471 127.145 213.544 128.071 213.544 129.213V141.221C213.544 142.363 214.471 143.289 215.614 143.289H305.395C306.538 143.289 307.465 142.363 307.465 141.221V129.213C307.465 128.071 306.538 127.145 305.395 127.145Z" fill="white"/>
<path opacity="0.7" d="M307.885 159.2H109.276C108.133 159.2 107.206 160.126 107.206 161.268V173.276C107.206 174.418 108.133 175.344 109.276 175.344H307.885C309.028 175.344 309.955 174.418 309.955 173.276V161.268C309.955 160.126 309.028 159.2 307.885 159.2Z" fill="white"/>
<path opacity="0.7" d="M202.686 127.145H109.276C108.133 127.145 107.206 128.071 107.206 129.213V141.221C107.206 142.363 108.133 143.289 109.276 143.289H202.686C203.83 143.289 204.756 142.363 204.756 141.221V129.213C204.756 128.071 203.83 127.145 202.686 127.145Z" fill="white"/>
<path opacity="0.7" d="M308.182 193.452H109.276C108.133 193.452 107.206 194.378 107.206 195.52V207.528C107.206 208.67 108.133 209.596 109.276 209.596H308.182C309.325 209.596 310.252 208.67 310.252 207.528V195.52C310.252 194.378 309.325 193.452 308.182 193.452Z" fill="white"/>
</g>
<path d="M245.203 119.887L244.685 120.568L245.508 120.458V120.839L244.685 120.74L245.211 121.395L244.864 121.589L244.536 120.827L244.178 121.589L243.869 121.391L244.387 120.725L243.579 120.831V120.45L244.38 120.553L243.869 119.887L244.201 119.693L244.54 120.454L244.872 119.693L245.203 119.887Z" fill="#3B82F6"/>
<path d="M115.91 267.947L117.237 268.69L116.89 269.303L115.552 268.515V270.038H114.884V268.515L113.535 269.303L113.192 268.69L114.526 267.947L113.192 267.212L113.535 266.588L114.884 267.38V265.856H115.552V267.38L116.901 266.588L117.248 267.212L115.91 267.947Z" fill="#3B82F6"/>
<path d="M120.588 267.947L121.915 268.69L121.568 269.303L120.218 268.515V270.038H119.551V268.515L118.22 269.303L117.877 268.69L119.212 267.947L117.877 267.212L118.22 266.588L119.57 267.38V265.856H120.237V267.38L121.587 266.588L121.934 267.212L120.588 267.947Z" fill="#3B82F6"/>
<path d="M125.266 267.947L126.608 268.69L126.261 269.303L124.915 268.515V270.038H124.244V268.515L122.895 269.303L122.551 268.69L123.89 267.947L122.551 267.212L122.895 266.588L124.244 267.38V265.856H124.915V267.38L126.261 266.588L126.608 267.212L125.266 267.947Z" fill="#3B82F6"/>
<path d="M129.944 267.947L131.271 268.69L130.924 269.303L129.578 268.515V270.038H128.907V268.515L127.561 269.303L127.214 268.69L128.552 267.947L127.214 267.212L127.561 266.588L128.907 267.38V265.856H129.578V267.38L130.924 266.588L131.271 267.212L129.944 267.947Z" fill="#3B82F6"/>
<path d="M134.614 267.947L135.941 268.69L135.594 269.303L134.248 268.515V270.038H133.577V268.515L132.231 269.303L131.884 268.69L133.223 267.947L131.884 267.212L132.231 266.588L133.577 267.38V265.856H134.248V267.38L135.594 266.588L135.941 267.212L134.614 267.947Z" fill="#3B82F6"/>
<path d="M139.3 267.947L140.627 268.69L140.28 269.303L138.934 268.515V270.038H138.274V268.515L136.928 269.303L136.581 268.69L137.92 267.947L136.581 267.212L136.928 266.588L138.274 267.38V265.856H138.945V267.38L140.291 266.588L140.638 267.212L139.3 267.947Z" fill="#3B82F6"/>
<path d="M143.978 267.947L145.289 268.69L144.946 269.303L143.596 268.515V270.038H142.929V268.515L141.583 269.303L141.236 268.69L142.575 267.947L141.236 267.212L141.583 266.588L142.929 267.38V265.856H143.596V267.38L144.946 266.588L145.289 267.212L143.978 267.947Z" fill="#3B82F6"/>
<path d="M256.359 259.965H225.577C224.433 259.965 223.506 260.891 223.506 262.033V274.04C223.506 275.183 224.433 276.108 225.577 276.108H256.359C257.502 276.108 258.429 275.183 258.429 274.04V262.033C258.429 260.891 257.502 259.965 256.359 259.965Z" fill="#3B82F6"/>
<path d="M338.617 94.3176H88.8947V109.585H338.617V94.3176Z" fill="#3B82F6"/>
<g opacity="0.2">
<path opacity="0.2" d="M88.8947 109.585V94.3176H338.617V109.585" fill="black"/>
</g>
<path d="M239.599 100.061H187.909C187.385 100.061 186.96 100.485 186.96 101.009V103.294C186.96 103.818 187.385 104.242 187.909 104.242H239.599C240.123 104.242 240.548 103.818 240.548 103.294V101.009C240.548 100.485 240.123 100.061 239.599 100.061Z" fill="white"/>
<path d="M298.231 260.072H267.449C266.306 260.072 265.379 260.997 265.379 262.139V274.147C265.379 275.289 266.306 276.215 267.449 276.215H298.231C299.375 276.215 300.302 275.289 300.302 274.147V262.139C300.302 260.997 299.375 260.072 298.231 260.072Z" fill="#3B82F6"/>
<g opacity="0.2">
<path opacity="0.2" d="M298.231 260.072H267.449C266.306 260.072 265.379 260.997 265.379 262.139V274.147C265.379 275.289 266.306 276.215 267.449 276.215H298.231C299.375 276.215 300.302 275.289 300.302 274.147V262.139C300.302 260.997 299.375 260.072 298.231 260.072Z" fill="black"/>
</g>
<path d="M134.309 120.553H107.732C107.442 120.553 107.206 120.789 107.206 121.079V122.956C107.206 123.246 107.442 123.482 107.732 123.482H134.309C134.6 123.482 134.835 123.246 134.835 122.956V121.079C134.835 120.789 134.6 120.553 134.309 120.553Z" fill="#3B82F6"/>
<path d="M240.647 120.553H214.07C213.78 120.553 213.544 120.789 213.544 121.079V122.956C213.544 123.246 213.78 123.482 214.07 123.482H240.647C240.938 123.482 241.173 123.246 241.173 122.956V121.079C241.173 120.789 240.938 120.553 240.647 120.553Z" fill="#3B82F6"/>
<path d="M240.647 217.993H214.07C213.78 217.993 213.544 218.229 213.544 218.519V220.396C213.544 220.686 213.78 220.922 214.07 220.922H240.647C240.938 220.922 241.173 220.686 241.173 220.396V218.519C241.173 218.229 240.938 217.993 240.647 217.993Z" fill="#3B82F6"/>
<path d="M149.799 186.209H107.732C107.442 186.209 107.206 186.444 107.206 186.734V188.612C107.206 188.902 107.442 189.137 107.732 189.137H149.799C150.09 189.137 150.325 188.902 150.325 188.612V186.734C150.325 186.444 150.09 186.209 149.799 186.209Z" fill="#3B82F6"/>
<path d="M130.542 217.993H107.732C107.442 217.993 107.206 218.229 107.206 218.519V220.396C107.206 220.686 107.442 220.922 107.732 220.922H130.542C130.833 220.922 131.069 220.686 131.069 220.396V218.519C131.069 218.229 130.833 217.993 130.542 217.993Z" fill="#3B82F6"/>
<path d="M146.033 253.121H107.732C107.442 253.121 107.206 253.357 107.206 253.647V255.524C107.206 255.815 107.442 256.05 107.732 256.05H146.033C146.323 256.05 146.559 255.815 146.559 255.524V253.647C146.559 253.357 146.323 253.121 146.033 253.121Z" fill="#3B82F6"/>
<path d="M124.263 152.338H107.732C107.442 152.338 107.206 152.573 107.206 152.863V154.741C107.206 155.031 107.442 155.266 107.732 155.266H124.263C124.554 155.266 124.789 155.031 124.789 154.741V152.863C124.789 152.573 124.554 152.338 124.263 152.338Z" fill="#3B82F6"/>
<path d="M372.701 338.71C373.04 339.487 373.284 340.302 373.425 341.139L375.454 350.112C375.694 351.376 375.656 352.675 375.339 353.92C375.202 354.438 374.897 354.899 374.474 355.23C374.051 355.558 373.528 355.741 372.991 355.744H370.608C370.185 355.744 369.765 355.63 369.399 355.417C369.033 355.204 368.728 354.895 368.519 354.526L368.347 354.236C367.627 352.961 367.219 351.532 367.158 350.07L367.188 341.692C367.127 340.683 367.257 339.669 367.569 338.71H372.701Z" fill="#195DBB"/>
<path d="M343.41 317.117L340.596 334.395C340.306 336.741 340.104 337.781 340.135 339.517L334.484 349.693L328.137 352.846L326.516 350.618L333.528 338.432C334.107 337.651 334.484 336.09 334.484 334.623L334.976 318.964L343.41 317.117Z" fill="#FC9D9D"/>
<path opacity="0.15" d="M327.748 351.978L334.992 348.783L340.119 339.536C340.089 337.8 340.291 336.76 340.581 334.414L342.007 325.655H334.763L334.649 328.926C335.666 329.281 336.703 329.577 337.756 329.81C338.072 329.865 338.354 330.034 338.552 330.285C338.747 330.536 338.846 330.851 338.823 331.169L338.373 337.426C338.316 338.264 338.03 339.072 337.554 339.761L332.064 347.717C332.064 347.717 329.936 350.763 326.589 350.519L326.539 350.599L327.748 351.978Z" fill="black"/>
<path d="M321.27 354.686C321.225 354.8 321.209 354.926 321.221 355.048C321.232 355.169 321.274 355.287 321.343 355.39C321.411 355.493 321.503 355.577 321.614 355.634C321.72 355.695 321.842 355.725 321.964 355.729H328.827C329.803 355.725 330.767 355.508 331.652 355.086C332.532 354.667 333.31 354.054 333.924 353.296L338.327 347.911C338.4 347.816 338.503 347.743 338.621 347.709C338.735 347.675 338.861 347.675 338.976 347.717C339.09 347.755 339.189 347.827 339.262 347.926C339.33 348.021 339.372 348.139 339.372 348.261L339.605 355.699H340.443L341.488 348.463C341.923 345.416 341.461 342.305 340.154 339.517L332.94 348.276C332.178 349.202 331.183 349.91 330.058 350.329C328.934 350.752 327.721 350.87 326.535 350.676L323.203 352.702C322.33 353.094 321.636 353.802 321.27 354.686Z" fill="#195DBB"/>
<path d="M365.953 321.69L373.513 321.572L372.701 336.189C372.579 338.409 372.735 340.637 373.166 342.819L374.005 347.103C374.062 347.522 374.032 347.945 373.913 348.352C373.791 348.756 373.585 349.129 373.311 349.449C373.033 349.765 372.69 350.021 372.304 350.196C371.919 350.371 371.504 350.459 371.081 350.459H370.608C369.842 350.455 369.102 350.154 368.553 349.621C368 349.088 367.676 348.36 367.649 347.595L367.71 343.977C367.756 340.938 367.604 337.902 367.245 334.886L365.953 321.69Z" fill="#FC9D9D"/>
<path opacity="0.15" d="M373.38 323.991L366.25 324.806L366.368 327.064L366.712 328.968L370.044 329.471C370.383 329.523 370.692 329.694 370.913 329.953C371.138 330.212 371.26 330.542 371.26 330.884V338.778L372.194 346.433C372.194 346.433 373.471 350.135 369.876 350.306L370.067 350.39C370.238 350.424 370.413 350.439 370.589 350.439H371.081C371.504 350.439 371.919 350.352 372.304 350.177C372.69 350.002 373.033 349.746 373.311 349.43C373.586 349.11 373.791 348.737 373.913 348.333C374.032 347.926 374.066 347.503 374.005 347.084L373.166 342.8C372.735 340.618 372.579 338.39 372.701 336.17L373.38 323.991Z" fill="black"/>
<path d="M342.46 162.433L341.206 162.67C339.974 162.898 338.838 163.487 337.942 164.36C337.043 165.235 336.425 166.354 336.166 167.579L333.31 183.954L329.265 202.615C329.265 202.615 337.508 210.651 340.321 205.468L342.46 162.433Z" fill="#FC9D9D"/>
<path opacity="0.15" d="M341.709 174.315L340.154 174.007L339.891 174.605C337.82 179.303 337.012 184.459 337.55 189.564H340.76L341.709 174.315Z" fill="black"/>
<path d="M336.234 257.962C336.49 250.789 336.94 243.628 337.584 236.479L338.19 229.765L339.593 214.292H373.38L374.523 222.03C377.478 234.304 377.467 246.952 376.857 259.573L373.555 327.936L366.033 327.986L358.675 235.565C358.648 235.243 358.503 234.944 358.267 234.724C358.031 234.505 357.722 234.382 357.398 234.381C357.093 234.373 356.791 234.477 356.559 234.674C356.323 234.871 356.17 235.148 356.124 235.451L341.957 327.993H334.332L336.097 261.941C336.135 260.611 336.177 259.282 336.227 257.954" fill="#495057"/>
<path d="M350.463 136.72C346.063 142.623 345.438 149.123 344.13 151.02C343.608 151.782 342.986 152.543 342.925 153.419C342.876 154.386 343.558 155.289 343.577 156.256C343.604 157.605 342.391 158.686 341.61 159.848C341.084 160.618 340.733 161.497 340.588 162.419C340.44 163.341 340.501 164.284 340.764 165.179C340.802 165.376 340.882 165.563 340.996 165.728C341.111 165.893 341.255 166.033 341.427 166.139C341.694 166.28 341.172 170.587 341.484 170.602C347.866 170.896 355.59 169.079 361.976 168.9C363.433 168.862 364.496 166.398 365.728 165.72C367.413 164.798 368.099 163.001 368.663 161.348C369.262 159.601 369.861 157.855 370.455 156.108C370.879 154.989 371.199 153.834 371.412 152.657C371.656 151.031 371.489 149.379 371.508 147.737C371.527 146.214 371.713 144.69 371.576 143.167C371.496 141.596 370.859 140.104 369.781 138.959" fill="black"/>
<path d="M336.166 167.579C336.425 166.354 337.043 165.234 337.939 164.36C338.838 163.487 339.974 162.898 341.206 162.67L343.875 162.197L341.766 174.536C339.349 172.895 334.458 175.652 334.458 175.652L336.166 167.579Z" fill="#195DBB"/>
<path d="M366.128 160.8L381.527 163.945L373.277 195.6V214.261H339.689L340.31 206.18L340.775 186.14C340.775 186.14 336.109 183.966 341.538 174.178L341.252 162.666L352.762 160.8H366.128Z" fill="#195DBB"/>
<g opacity="0.7">
<path opacity="0.7" d="M362.35 180.567L344.008 179.867L343.783 185.766L362.121 186.466L362.35 180.567Z" fill="white"/>
<path opacity="0.7" d="M363.616 188.09L342.163 187.268L342.506 178.257L363.963 179.076L363.616 188.09ZM342.495 186.948L363.311 187.744L363.631 179.365L342.815 178.569L342.495 186.948Z" fill="white"/>
</g>
<path opacity="0.2" d="M367.215 214.246H373.281V198.453L367.215 200.418V214.246Z" fill="black"/>
<path opacity="0.2" d="M374.992 172.453C374.23 172.453 372.96 172.922 372.705 173.626L367.829 188.3L357.874 178.668H356.323L370.318 192.961L374.992 172.453Z" fill="black"/>
<path d="M379.491 163.599C380.372 163.737 381.214 164.06 381.962 164.546C382.709 165.032 383.345 165.67 383.83 166.419C384.314 167.167 384.634 168.009 384.768 168.889C384.905 169.77 384.851 170.669 384.615 171.528L375.873 200.193C375.701 200.819 375.396 201.4 374.977 201.895L374.344 202.657C373.871 203.216 373.273 203.651 372.594 203.924C371.916 204.197 371.18 204.299 370.452 204.222C369.197 204.089 368.198 203.316 367.31 202.421C363.498 198.567 353.684 183.638 353.684 183.638L358.008 180.18L368.98 190.966L373.208 175.591C373.41 174.841 373.704 174.117 374.077 173.436L379.491 163.599Z" fill="#FC9D9D"/>
<path opacity="0.15" d="M382.937 177.027L380.89 177.872L374.371 197.622C374.371 197.622 371.958 204.839 368.13 203.148C368.782 203.721 369.59 204.089 370.452 204.207C371.18 204.284 371.916 204.182 372.594 203.909C373.273 203.636 373.871 203.201 374.344 202.642L374.977 201.88C375.396 201.384 375.701 200.804 375.873 200.178L382.937 177.027Z" fill="black"/>
<path d="M379.178 163.599L374.371 171.844L373.227 175.481C373.227 175.481 381.008 176.383 382.198 180.329L384.607 171.539C385.614 167.887 383.079 163.751 379.178 163.599Z" fill="#195DBB"/>
<path d="M365.999 160.819L365.652 145.566L354.698 143.354L352.758 160.948C352.758 160.948 356.849 170.846 365.999 160.819Z" fill="#FC9D9D"/>
<path d="M321.179 186.125C321.179 186.125 318.411 189.694 321.27 194.218L323.76 194.465L323.516 188.155L321.179 186.125Z" fill="#FC9D9D"/>
<path opacity="0.15" d="M321.179 186.125C321.179 186.125 318.411 189.694 321.27 194.218L323.76 194.465L323.516 188.155L321.179 186.125Z" fill="black"/>
<path d="M350.657 147.09L351.038 137.188C351.065 136.326 351.427 135.508 352.041 134.903C352.335 134.612 352.682 134.385 353.067 134.235C353.452 134.086 353.863 134.018 354.275 134.035L363.7 134.48C364.016 134.493 364.329 134.572 364.611 134.713C364.901 134.852 365.164 135.05 365.373 135.295C365.587 135.544 365.755 135.831 365.861 136.141C365.968 136.455 366.018 136.787 366.002 137.12L365.583 147.783C365.545 148.778 365.32 149.757 364.92 150.67C364.527 151.565 363.967 152.378 363.265 153.061C362.579 153.732 361.767 154.256 360.871 154.604C359.99 154.945 359.048 155.099 358.103 155.057L357.55 155.022C356.597 154.97 355.663 154.724 354.805 154.301C353.947 153.877 353.189 153.284 352.567 152.558C351.267 151.042 350.585 149.093 350.661 147.097L350.657 147.09Z" fill="#FC9D9D"/>
<path d="M358.183 145.464C358.019 145.464 357.859 145.416 357.722 145.326C357.584 145.235 357.478 145.106 357.417 144.955C357.352 144.804 357.337 144.637 357.367 144.477C357.401 144.316 357.478 144.169 357.596 144.053C357.71 143.937 357.859 143.858 358.019 143.826C358.179 143.795 358.347 143.811 358.499 143.874C358.648 143.938 358.778 144.044 358.869 144.18C358.961 144.317 359.007 144.477 359.007 144.641C359.007 144.749 358.984 144.856 358.946 144.956C358.904 145.056 358.843 145.146 358.766 145.222C358.69 145.299 358.599 145.36 358.499 145.401C358.397 145.442 358.29 145.464 358.183 145.464Z" fill="black"/>
<path d="M357.84 144.962C357.806 144.962 357.771 144.952 357.745 144.933C357.718 144.914 357.695 144.887 357.68 144.855C357.668 144.824 357.664 144.79 357.672 144.756C357.68 144.723 357.695 144.693 357.718 144.668C357.741 144.644 357.771 144.628 357.806 144.622C357.84 144.615 357.874 144.618 357.905 144.631C357.936 144.644 357.962 144.666 357.981 144.694C358 144.723 358.012 144.756 358.012 144.79C358.012 144.835 357.993 144.879 357.962 144.911C357.928 144.944 357.886 144.962 357.84 144.962Z" fill="white"/>
<path d="M351.763 145.464C351.599 145.464 351.439 145.416 351.301 145.326C351.164 145.235 351.057 145.106 350.996 144.955C350.932 144.804 350.916 144.637 350.947 144.477C350.977 144.316 351.057 144.169 351.176 144.053C351.29 143.937 351.439 143.858 351.599 143.826C351.759 143.795 351.927 143.811 352.075 143.874C352.228 143.938 352.357 144.044 352.449 144.18C352.54 144.317 352.586 144.477 352.586 144.641C352.586 144.859 352.499 145.067 352.342 145.222C352.19 145.376 351.98 145.462 351.763 145.464Z" fill="black"/>
<path d="M351.42 144.927C351.374 144.927 351.332 144.909 351.298 144.877C351.267 144.845 351.248 144.801 351.248 144.756C351.248 144.71 351.267 144.666 351.298 144.634C351.332 144.602 351.374 144.584 351.42 144.584C351.466 144.584 351.508 144.602 351.542 144.634C351.573 144.666 351.592 144.71 351.592 144.756C351.592 144.801 351.573 144.845 351.542 144.877C351.508 144.909 351.466 144.927 351.42 144.927Z" fill="white"/>
<g opacity="0.2">
<path opacity="0.2" d="M353.6 147.055C353.627 146.798 353.753 146.56 353.951 146.393C354.153 146.228 354.409 146.147 354.668 146.164C354.725 146.179 354.778 146.214 354.813 146.263C354.839 146.301 354.855 146.344 354.855 146.39C354.858 146.435 354.847 146.48 354.824 146.52C354.801 146.559 354.771 146.592 354.729 146.614C354.691 146.636 354.645 146.646 354.599 146.644C354.458 146.64 354.325 146.689 354.218 146.781C354.119 146.869 354.05 146.991 354.035 147.124C354.023 147.191 354.031 147.26 354.046 147.326C354.065 147.391 354.1 147.452 354.142 147.505C354.184 147.556 354.233 147.599 354.294 147.63C354.351 147.662 354.416 147.681 354.481 147.688L355.579 147.79C355.64 147.805 355.69 147.842 355.724 147.893C355.743 147.918 355.754 147.946 355.762 147.975C355.766 148.004 355.766 148.035 355.762 148.065C355.754 148.124 355.724 148.179 355.678 148.217C355.632 148.256 355.571 148.274 355.51 148.27L354.412 148.167C354.279 148.163 354.149 148.13 354.031 148.072C353.913 148.01 353.814 147.923 353.734 147.817C353.654 147.713 353.6 147.592 353.577 147.463C353.551 147.337 353.551 147.208 353.577 147.082L353.6 147.055Z" fill="black"/>
</g>
<path opacity="0.15" d="M353.238 156.096C355.205 156.595 357.051 156.451 358.682 155.22C359.334 155.148 362.769 154.489 362.114 153.678C360.783 154.368 359.3 154.709 357.802 154.67C356.303 154.631 354.839 154.212 353.547 153.453L353.238 156.096Z" fill="black"/>
<path d="M357.79 149.458C357.928 149.458 357.962 149.561 357.928 149.664C357.733 150.064 357.432 150.402 357.054 150.638C356.677 150.875 356.242 151 355.796 151C355.354 151 354.919 150.875 354.542 150.638C354.165 150.402 353.863 150.064 353.669 149.664C353.661 149.641 353.661 149.615 353.669 149.592C353.673 149.568 353.68 149.545 353.692 149.523C353.707 149.505 353.726 149.488 353.745 149.474C353.768 149.468 353.795 149.468 353.818 149.474L357.79 149.458Z" fill="white"/>
<path d="M361.931 130.284C366.284 130.447 371.145 133.406 372.629 137.496C373.391 139.561 373.555 141.929 375 143.59C375.907 144.633 377.245 145.281 377.993 146.446C379.586 148.941 377.749 152.364 378.755 155.152C379.197 156.397 380.166 157.372 380.917 158.461C381.668 159.551 381.679 166.565 381.191 167.788C380.993 168.205 380.707 168.575 380.356 168.875C380.002 169.175 379.59 169.397 379.148 169.528C378.26 169.781 377.337 169.909 376.414 169.909C371.725 170.119 367.489 167.91 362.8 168.119C362.8 168.119 362.201 163.168 363.132 161.695C364.062 160.221 366.361 158.854 365.85 156.725C365.339 154.596 364.294 154.866 364.264 152.65C364.233 150.433 365.766 148.32 365.511 146.4C365.255 144.481 364.622 144.927 363.814 141.895C363.006 138.864 361.313 138.037 361.313 138.037L362.636 130.801" fill="black"/>
<path d="M358.61 129.225C355.732 129.053 352.266 130.436 350.604 132.789C348.942 135.143 347.302 137.588 346.726 140.406C347.622 140.425 349.079 141.865 349.967 141.998C350.257 142.011 350.55 141.966 350.825 141.866C351.096 141.765 351.347 141.611 351.561 141.411C352.605 140.52 353.517 139.487 354.275 138.342C356.193 135.709 358.088 133.062 359.963 130.402" fill="black"/>
<path opacity="0.15" d="M365.793 150.692L364.554 148.221H365.724L365.793 150.692Z" fill="black"/>
<path d="M357.085 129.716C355.789 132.473 357.085 135.737 359.754 137.165C360.92 137.782 362.4 138.121 362.979 139.302C363.429 140.216 363.177 141.389 363.742 142.23C364.306 143.072 365.358 143.239 366.136 143.807C367.2 144.569 367.626 145.974 367.741 147.288C367.855 148.602 367.741 149.954 367.989 151.229C368.237 152.505 369.018 153.827 370.276 154.215C371.073 150.487 371.801 146.697 371.591 142.893C371.382 139.088 370.158 135.215 367.508 132.473C364.859 129.731 360.646 128.364 357.058 129.716" fill="black"/>
<path d="M344.107 152.604C344.641 151.797 345.201 150.883 345.026 149.938C344.904 149.276 344.439 148.723 344.237 148.08C344.107 147.672 344.065 147.241 344.107 146.815C344.149 146.39 344.275 145.977 344.481 145.601C344.79 144.812 345.811 144.679 346.063 143.872C346.265 143.224 345.758 141.933 346.021 141.309C346.132 140.988 346.322 140.7 346.57 140.469C346.822 140.239 347.123 140.073 347.451 139.987C351.042 141.385 346.749 146.008 346.593 149.051C346.616 149.72 346.513 150.387 346.284 151.016C346.006 151.622 345.32 152.105 344.683 151.907" fill="black"/>
<path d="M349.879 141.929C349.388 142.343 349.041 142.9 348.884 143.522C348.728 144.144 348.774 144.8 349.014 145.395C349.189 145.831 349.464 146.22 349.815 146.533C350.165 146.845 350.585 147.072 351.038 147.196C351.492 147.317 351.972 147.334 352.434 147.246C352.895 147.155 353.33 146.958 353.703 146.672C354.077 146.385 354.378 146.015 354.584 145.593C354.79 145.171 354.897 144.707 354.893 144.237C354.893 143.767 354.782 143.304 354.569 142.885C355.068 142.742 355.598 142.753 356.094 142.916C355.964 143.227 355.876 143.555 355.842 143.891C355.796 144.491 355.926 145.093 356.223 145.618C356.517 146.144 356.963 146.571 357.501 146.844C358.038 147.118 358.644 147.225 359.243 147.154C359.841 147.083 360.406 146.836 360.863 146.445C361.325 146.053 361.656 145.535 361.82 144.955C361.98 144.375 361.969 143.759 361.782 143.187C361.595 142.613 361.244 142.108 360.772 141.736C360.295 141.363 359.723 141.138 359.121 141.092C358.56 141.044 357.996 141.154 357.497 141.41C356.994 141.666 356.574 142.057 356.284 142.539C355.671 142.306 354.996 142.295 354.378 142.508C354.138 142.151 353.825 141.85 353.459 141.624C353.093 141.398 352.685 141.253 352.258 141.198C351.831 141.143 351.397 141.18 350.989 141.306C350.577 141.432 350.196 141.645 349.876 141.929H349.879ZM358.614 146.758C358.008 146.707 357.436 146.448 356.997 146.026C356.559 145.603 356.281 145.042 356.208 144.438C356.136 143.834 356.277 143.223 356.601 142.709C356.929 142.195 357.421 141.809 358 141.617C358.496 141.459 359.026 141.448 359.525 141.587C360.158 141.764 360.699 142.17 361.046 142.725C361.397 143.28 361.527 143.945 361.412 144.59C361.294 145.235 360.943 145.815 360.425 146.216C359.906 146.616 359.258 146.81 358.602 146.758H358.614ZM351.637 146.884C351.202 146.849 350.787 146.708 350.421 146.473C350.055 146.239 349.754 145.917 349.544 145.539C349.33 145.16 349.216 144.735 349.208 144.301C349.201 143.868 349.3 143.439 349.498 143.053C349.696 142.667 349.986 142.335 350.341 142.087C350.699 141.84 351.111 141.683 351.542 141.632C351.972 141.582 352.411 141.638 352.815 141.796C353.219 141.954 353.578 142.209 353.86 142.539C354.199 142.934 354.416 143.422 354.477 143.941C354.538 144.459 354.443 144.984 354.207 145.448C353.97 145.915 353.604 146.301 353.147 146.556C352.689 146.812 352.171 146.926 351.648 146.884H351.637Z" fill="white"/>
<path d="M347.58 183.326H324.183C323.417 183.326 322.795 183.947 322.795 184.712V201.202C322.795 201.968 323.417 202.589 324.183 202.589H347.58C348.347 202.589 348.968 201.968 348.968 201.202V184.712C348.968 183.947 348.347 183.326 347.58 183.326Z" fill="#3B82F6"/>
<path opacity="0.3" d="M347.58 183.326H324.183C323.417 183.326 322.795 183.947 322.795 184.712V201.202C322.795 201.968 323.417 202.589 324.183 202.589H347.58C348.347 202.589 348.968 201.968 348.968 201.202V184.712C348.968 183.947 348.347 183.326 347.58 183.326Z" fill="black"/>
<path d="M346.479 183.326H323.081C322.315 183.326 321.694 183.947 321.694 184.712V201.202C321.694 201.968 322.315 202.589 323.081 202.589H346.479C347.245 202.589 347.866 201.968 347.866 201.202V184.712C347.866 183.947 347.245 183.326 346.479 183.326Z" fill="#3B82F6"/>
<path d="M334.401 194.203C335.346 194.203 336.112 193.437 336.112 192.493C336.112 191.548 335.346 190.783 334.401 190.783C333.455 190.783 332.689 191.548 332.689 192.493C332.689 193.437 333.455 194.203 334.401 194.203Z" fill="white"/>
<path opacity="0.3" d="M351.972 236.46L339.01 327.97L341.187 328.001H341.949L356.117 235.458C356.159 235.178 356.292 234.919 356.502 234.727C356.708 234.534 356.978 234.419 357.26 234.4V234.278C357.26 234.278 352.594 232.731 351.972 236.46Z" fill="black"/>
<path opacity="0.3" d="M373.38 214.295H368.164C368.545 215.251 374.337 232.792 373.437 252.306L371.37 327.959H373.54L376.841 259.595C377.451 246.975 377.463 234.327 374.508 222.053L373.38 214.295Z" fill="black"/>
<path opacity="0.15" d="M368.988 190.939L371.569 194.203C370.943 192.527 370.23 190.886 369.43 189.286L368.988 190.939Z" fill="black"/>
<path opacity="0.2" d="M340.154 174.007L341.949 170.64C341.976 170.589 342.022 170.549 342.079 170.527C342.132 170.506 342.193 170.506 342.251 170.525C342.304 170.545 342.353 170.584 342.38 170.635C342.411 170.687 342.422 170.746 342.411 170.804C342.193 172.007 341.854 173.183 341.397 174.315L340.154 174.007Z" fill="black"/>
<path opacity="0.15" d="M332.689 202.592C332.689 202.592 337.043 206.941 339.551 206.321C339.551 206.321 340.234 206.107 340.359 204.816V202.592H332.689Z" fill="black"/>
<path d="M354.107 174.715C354.107 174.715 352.232 171.059 351.679 171.288C351.126 171.516 350.398 171.516 350.752 172.899C351.107 174.281 352.026 175.233 351.972 176.326C351.919 177.419 351.237 179.723 352.014 180.98C352.906 182.42 355.705 186.769 355.705 186.769L359.026 181.608L358.095 180.245C358.095 180.245 359.342 177.773 359.647 176.52C359.952 175.268 359.494 173.474 359.494 173.474C359.544 172.826 359.384 172.178 359.041 171.627C359.102 171.07 359.128 170.511 359.121 169.951C359.121 169.106 356.917 165.613 356.917 165.613C356.612 165.731 356.361 165.964 356.223 166.262C356.086 166.559 356.067 166.899 356.174 167.209C356.41 167.947 356.696 168.667 357.035 169.365L354.481 168.393C354.389 168.567 354.336 168.757 354.321 168.952C354.306 169.147 354.332 169.343 354.397 169.528C354.462 169.713 354.565 169.882 354.698 170.026C354.832 170.169 354.992 170.284 355.171 170.362C356.525 171.094 356.738 171.707 356.738 171.707L354.794 171.851C354.794 171.851 354.614 172.933 355.392 173.15L356.155 173.371L354.107 174.715Z" fill="#FC9D9D"/>
<path opacity="0.15" d="M356.822 171.653C356.822 171.653 358.85 171.653 359.189 173.341" stroke="black" stroke-width="0.67" stroke-miterlimit="10" stroke-linecap="round"/>
<path opacity="0.15" d="M357.161 169.627C357.916 169.959 358.518 170.561 358.85 171.314" stroke="black" stroke-width="0.67" stroke-miterlimit="10" stroke-linecap="round"/>
<path opacity="0.15" d="M355.392 173.146L356.99 173.527C356.99 173.527 357.874 175.172 356.708 176.471C356.475 176.721 356.193 176.923 355.88 177.065C354.961 177.503 352.377 178.885 352.933 180.283" stroke="black" stroke-width="0.67" stroke-miterlimit="10" stroke-linecap="round"/>
<path d="M323.76 188.33L321.373 186.293C321.24 186.175 321.068 186.108 320.893 186.102C320.775 186.098 320.66 186.121 320.554 186.167C320.447 186.213 320.352 186.282 320.275 186.37C320.199 186.457 320.142 186.56 320.108 186.672C320.077 186.784 320.069 186.902 320.089 187.016C320.127 187.245 320.214 187.462 320.348 187.653C320.477 187.844 320.649 188.003 320.851 188.121L323.794 189.914C323.863 189.96 323.943 189.985 324.027 189.985C324.111 189.985 324.191 189.96 324.259 189.914C324.324 189.868 324.374 189.805 324.404 189.733C324.435 189.66 324.442 189.581 324.431 189.503C324.355 189.044 324.118 188.628 323.76 188.33Z" fill="#FC9D9D"/>
<path d="M323.851 190.067L320.733 188.448C320.58 188.353 320.405 188.311 320.226 188.33C320.111 188.342 320.001 188.38 319.902 188.441C319.799 188.501 319.715 188.582 319.65 188.679C319.589 188.776 319.547 188.885 319.528 189C319.513 189.115 319.52 189.232 319.555 189.343C319.623 189.563 319.738 189.765 319.89 189.937C320.043 190.109 320.233 190.245 320.443 190.337L324.095 191.647C324.172 191.68 324.256 191.69 324.339 191.676C324.419 191.662 324.496 191.624 324.557 191.567C324.614 191.513 324.652 191.444 324.675 191.368C324.694 191.292 324.69 191.212 324.667 191.137C324.534 190.693 324.244 190.312 323.851 190.067Z" fill="#FC9D9D"/>
<path d="M324.153 191.773L320.87 190.52C320.71 190.439 320.531 190.416 320.355 190.455C320.241 190.48 320.134 190.529 320.043 190.599C319.947 190.67 319.875 190.76 319.822 190.864C319.768 190.967 319.738 191.082 319.734 191.198C319.73 191.314 319.753 191.43 319.799 191.537C319.89 191.748 320.027 191.936 320.203 192.089C320.374 192.242 320.576 192.357 320.798 192.424L324.561 193.304C324.641 193.327 324.724 193.328 324.805 193.304C324.885 193.28 324.953 193.234 325.007 193.171C325.056 193.11 325.09 193.038 325.102 192.961C325.113 192.883 325.102 192.805 325.071 192.733C324.888 192.314 324.561 191.975 324.153 191.773Z" fill="#FC9D9D"/>
<path d="M324.046 193.171L321.339 192.995C321.205 192.977 321.072 193.002 320.958 193.068C320.881 193.112 320.813 193.174 320.759 193.247C320.71 193.321 320.676 193.404 320.66 193.493C320.645 193.581 320.649 193.672 320.672 193.758C320.695 193.845 320.74 193.925 320.798 193.993C320.916 194.127 321.057 194.234 321.221 194.308C321.381 194.381 321.556 194.419 321.735 194.42L324.713 194.206C324.778 194.206 324.843 194.187 324.896 194.152C324.949 194.115 324.991 194.064 325.014 194.005C325.037 193.949 325.045 193.889 325.033 193.829C325.026 193.77 324.999 193.715 324.961 193.669C324.724 193.399 324.4 193.222 324.046 193.171Z" fill="#FC9D9D"/>
<path opacity="0.15" d="M382.206 180.317L384.615 171.528C384.901 170.433 384.897 169.283 384.604 168.19C384.31 167.097 383.742 166.098 382.949 165.29H382.911C382.911 165.29 384.981 168.192 380.764 178.238C381.435 178.77 381.935 179.486 382.206 180.298V180.317Z" fill="black"/>
<path d="M364.127 152.498L362.926 147.345L366.834 142.672L367.718 147.322L364.127 152.498ZM363.364 147.432L364.321 151.534L367.341 147.242L366.643 143.575L363.364 147.432Z" fill="#195DBB"/>
<path d="M363.463 146.644C363.463 146.644 357.154 148.438 350.371 146.953C350.371 146.953 350.512 153.533 354.9 155.864C354.9 155.864 360.528 157.928 364.55 152.056C364.55 152.041 363.383 149.18 363.463 146.644Z" fill="#195DBB"/>
<path opacity="0.8" d="M364.157 150.921C363.703 149.542 363.467 148.1 363.463 146.648C363.463 146.648 357.154 148.442 350.371 146.956C350.371 146.956 350.444 150.334 352.102 153.111C352.106 153.111 358.408 156.481 364.157 150.921Z" fill="#DADDDF"/>
<path d="M350.375 146.953L350.718 149.5C352.807 150.27 355.026 150.613 357.249 150.509C359.472 150.405 361.652 149.856 363.658 148.895C363.532 148.236 363.467 147.566 363.463 146.895L363.437 146.652C362.983 146.77 356.91 148.385 350.375 146.953Z" fill="#195DBB"/>
<path d="M363.986 150.331C363.951 150.205 363.917 150.075 363.883 149.95C362.03 151.081 359.963 151.816 357.809 152.108C355.659 152.4 353.471 152.244 351.381 151.648C351.442 151.801 351.507 151.957 351.576 152.109C352.929 152.465 354.321 152.643 355.72 152.638C358.637 152.645 361.496 151.846 363.986 150.331Z" fill="#195DBB"/>
<path d="M364.588 148.187L365.415 144.279C366.342 140.711 370.753 141.739 369.67 145.273C368.587 148.807 365.003 148.187 365.003 148.187H364.588Z" fill="#FC9D9D"/>
<path opacity="0.15" d="M368.812 143.59C368.77 143.637 368.713 143.667 368.648 143.674C368.583 143.679 368.522 143.661 368.469 143.624C368.381 143.522 368.271 143.444 368.145 143.396C368.019 143.348 367.886 143.332 367.752 143.35C367.615 143.366 367.485 143.415 367.371 143.495C367.26 143.572 367.173 143.676 367.116 143.795C366.887 144.137 366.746 144.529 366.704 144.938L366.635 145.349C366.601 145.692 366.121 145.555 366.155 145.281L366.189 144.9C366.227 144.403 366.406 143.926 366.704 143.525C366.799 143.363 366.929 143.224 367.085 143.118C367.245 143.011 367.424 142.939 367.615 142.908C367.809 142.896 368.004 142.924 368.187 142.988C368.37 143.052 368.538 143.153 368.679 143.285C368.728 143.32 368.763 143.369 368.782 143.426C368.801 143.48 368.801 143.54 368.782 143.594L368.812 143.59Z" fill="black"/>
<path d="M147.958 334.46H96.4891V355.406H147.958V334.46Z" fill="#195DBB"/>
<path opacity="0.2" d="M115.17 334.46H96.4891V355.406H115.17V334.46Z" fill="white"/>
<path opacity="0.05" d="M147.958 334.46H115.17V355.406H147.958V334.46Z" fill="black"/>
<path d="M150.627 332.556H93.8204V337.506H150.627V332.556Z" fill="#195DBB"/>
<path opacity="0.2" d="M115.17 332.556H93.8204V337.506H115.17V332.556Z" fill="white"/>
<path opacity="0.05" d="M150.627 332.556H115.17V337.506H150.627V332.556Z" fill="black"/>
<path opacity="0.15" d="M147.958 337.506H96.4891V338.268H147.958V337.506Z" fill="black"/>
<path d="M111.739 347.408H99.5392V351.978H111.739V347.408Z" fill="white"/>
<path opacity="0.2" d="M109.833 341.696H100.683V343.6H109.833V341.696Z" fill="black"/>
<path d="M187.227 334.46H135.758V355.406H187.227V334.46Z" fill="#195DBB"/>
<path opacity="0.2" d="M154.439 334.46H135.758V355.406H154.439V334.46Z" fill="white"/>
<path opacity="0.05" d="M187.227 334.46H154.439V355.406H187.227V334.46Z" fill="black"/>
<path d="M189.895 332.556H133.089V337.506H189.895V332.556Z" fill="#195DBB"/>
<path opacity="0.2" d="M154.439 332.556H133.089V337.506H154.439V332.556Z" fill="white"/>
<path opacity="0.05" d="M189.895 332.556H154.439V337.506H189.895V332.556Z" fill="black"/>
<path opacity="0.15" d="M187.227 337.506H135.758V338.268H187.227V337.506Z" fill="black"/>
<path d="M151.008 347.408H138.808V351.978H151.008V347.408Z" fill="white"/>
<path opacity="0.2" d="M149.102 341.696H139.952V343.6H149.102V341.696Z" fill="black"/>
</svg>
