<svg width="553" height="393" viewBox="0 0 553 393" fill="none" xmlns="http://www.w3.org/2000/svg">
<path d="M40.0723 391.645L0.948752 189.227C0.474625 186.427 0.580505 183.56 1.25942 180.803C1.93834 178.047 3.17589 175.458 4.89594 173.199L129.91 8.81884C131.848 6.27056 134.349 4.20502 137.217 2.78282C140.086 1.36107 143.245 0.621189 146.447 0.621653H386.324C389.217 0.618868 392.083 1.22043 394.729 2.38827C397.381 3.55611 399.754 5.26425 401.704 7.40313L546.589 166.403C548.493 168.49 549.947 170.943 550.871 173.612C551.79 176.281 552.157 179.11 551.948 181.925L521.662 391.561L40.0723 391.645Z" fill="#3B82F6"/>
<path d="M40.0723 391.645L0.948752 189.227C0.474625 186.427 0.580505 183.56 1.25942 180.803C1.93834 178.047 3.17589 175.458 4.89594 173.199L129.91 8.81884C131.848 6.27056 134.349 4.20502 137.217 2.78282C140.086 1.36107 143.245 0.621189 146.447 0.621653H386.324C389.217 0.618868 392.083 1.22043 394.729 2.38827C397.381 3.55611 399.754 5.26425 401.704 7.40313L546.589 166.403C548.493 168.49 549.947 170.943 550.871 173.612C551.79 176.281 552.157 179.11 551.948 181.925L521.662 391.561L40.0723 391.645Z" fill="white"/>
<path d="M546.39 392.378H17.9867C17.8014 392.364 17.6286 392.281 17.5028 392.142C17.3765 392.007 17.3068 391.826 17.3068 391.645C17.3068 391.459 17.3765 391.278 17.5028 391.144C17.6286 391.004 17.8014 390.921 17.9867 390.907H546.39C546.575 390.921 546.747 391.004 546.873 391.144C546.998 391.278 547.068 391.459 547.068 391.645C547.068 391.826 546.998 392.007 546.873 392.142C546.747 392.281 546.575 392.364 546.39 392.378Z" fill="#3B82F6"/>
<g opacity="0.6">
<path opacity="0.6" d="M546.39 392.378H17.9867C17.8014 392.364 17.6286 392.281 17.5028 392.142C17.3765 392.007 17.3068 391.826 17.3068 391.645C17.3068 391.459 17.3765 391.278 17.5028 391.144C17.6286 391.004 17.8014 390.921 17.9867 390.907H546.39C546.575 390.921 546.747 391.004 546.873 391.144C546.998 391.278 547.068 391.459 547.068 391.645C547.068 391.826 546.998 392.007 546.873 392.142C546.747 392.281 546.575 392.364 546.39 392.378Z" fill="white"/>
</g>
<path d="M421.139 214.194L422.648 163.809L423.21 165.842L441.483 161.558L436.533 138.535C436.022 136.234 434.977 134.086 433.482 132.265C431.982 130.445 430.078 129.004 427.918 128.059L405.359 118.279H405.313L403.966 117.694L402.192 118.084L390.155 120.767L386.046 115.415L384.653 114.951V114.988L369.816 113.307C364.406 112.692 358.935 113.702 354.101 116.208L333.966 126.55L347.256 140.661L359.516 138.015L360.208 143.381C363.068 164.937 363.839 192.425 362.846 214.194H421.139ZM405.35 118.32C405.35 118.344 405.35 118.381 405.35 118.427V118.32Z" fill="#3B82F6"/>
<path d="M362.892 210.731L366.533 368.441H381.035L389.134 235.75C389.18 234.998 389.514 234.293 390.067 233.78C390.62 233.266 391.344 232.983 392.101 232.99C392.853 232.996 393.578 233.289 394.121 233.812C394.664 234.334 394.985 235.044 395.022 235.796L402.382 368.441H416.889L421.347 210.731H362.892Z" fill="#495057"/>
<g opacity="0.5">
<path opacity="0.5" d="M362.892 210.731L362.427 215.317H421.185L421.357 210.731H362.892Z" fill="black"/>
</g>
<path d="M368.046 377.525L367.656 364.886H379.953L379.414 377.92L368.046 377.525Z" fill="#FC9D9D"/>
<path opacity="0.15" d="M379.823 368.441L379.433 377.92L376.489 377.831L376.577 372.261C376.577 371.826 376.438 371.401 376.168 371.056C375.904 370.712 375.528 370.466 375.105 370.358L367.745 368.455L379.823 368.441Z" fill="black"/>
<path d="M415.246 377.525L415.636 364.886H403.293L403.854 377.915L415.246 377.525Z" fill="#FC9D9D"/>
<path d="M384.676 98.3241L384.806 116.157C384.801 116.592 384.936 117.016 385.191 117.369L385.368 117.671C386.389 119.191 387.713 120.48 389.264 121.456C390.815 122.431 392.547 123.071 394.363 123.333C396.174 123.596 398.022 123.475 399.782 122.979C401.547 122.484 403.186 121.624 404.593 120.456C404.89 120.205 405.118 119.882 405.257 119.518C405.392 119.154 405.433 118.76 405.373 118.376L402.122 96.913L384.676 98.3241Z" fill="#FC9D9D"/>
<path d="M404.026 89.4956C404.026 89.4956 407.574 112.955 394.627 113.906C381.982 114.858 381.597 91.1388 381.597 91.1388L381.249 84.3434L397.53 81.4888L401.644 83.61L404.026 89.4956Z" fill="#FC9D9D"/>
<path opacity="0.15" d="M404.333 111.957L403.381 105.523C402.211 109.678 399.786 113.14 395.542 113.832H395.584L394.655 113.962C391.274 114.222 388.46 112.667 386.338 109.32C386.32 109.285 386.296 109.254 386.264 109.23C386.236 109.205 386.199 109.187 386.162 109.176C386.125 109.166 386.083 109.164 386.046 109.17C386.009 109.176 385.971 109.19 385.939 109.212C385.906 109.233 385.878 109.261 385.855 109.294C385.832 109.327 385.818 109.364 385.813 109.403C385.809 109.441 385.809 109.481 385.818 109.519C385.832 109.556 385.851 109.592 385.874 109.622C388.126 113.173 391.112 114.816 394.697 114.556C395.449 114.504 396.188 114.359 396.903 114.124C399.568 114.394 402.234 113.617 404.333 111.957Z" fill="black"/>
<path d="M391.488 106.247L396.991 105.858C397.024 105.857 397.056 105.864 397.084 105.877C397.116 105.89 397.14 105.91 397.163 105.935C397.181 105.961 397.195 105.99 397.205 106.021C397.209 106.053 397.214 106.086 397.205 106.117C397.038 106.735 396.68 107.285 396.188 107.693C395.691 108.101 395.087 108.347 394.446 108.398C393.81 108.449 393.169 108.302 392.617 107.977C392.064 107.652 391.627 107.165 391.363 106.582V106.54C391.344 106.513 391.335 106.483 391.33 106.452C391.33 106.421 391.335 106.389 391.349 106.36C391.358 106.331 391.377 106.305 391.405 106.286C391.428 106.266 391.456 106.253 391.488 106.247Z" fill="white"/>
<path d="M400.957 84.2598C400.957 84.2598 405.067 81.5305 406.994 86.2047C408.638 90.1455 405.87 94.4297 405.87 94.4297L403.488 94.1698C402.489 94.128 401.797 93.6499 401.709 92.6984L400.957 84.2598Z" fill="#495057"/>
<path d="M403.901 81.3867C404.244 85.8473 400.437 87.017 398.876 87.147L386.101 88.2285C385.6 88.2735 385.135 88.5098 384.806 88.889C384.476 89.2678 384.304 89.7593 384.327 90.2615L384.546 94.3277C384.564 94.5992 384.481 94.8684 384.309 95.0787C384.137 95.2889 383.886 95.424 383.617 95.4556L382.837 95.5438L381.968 96.6253C376.949 95.4138 374.868 81.1732 384.091 78.3139C384.587 78.1589 385.047 77.9068 385.447 77.5731C385.846 77.2394 386.171 76.8304 386.412 76.369C387.755 73.584 393.253 72.8646 396.025 75.9791C396.294 76.298 396.633 76.5501 397.014 76.7153C397.4 76.8806 397.813 76.9544 398.231 76.9307C401.56 76.8564 403.724 78.9359 403.901 81.3867Z" fill="#495057"/>
<path d="M398.965 87.7225C398.746 87.7476 398.528 87.7476 398.314 87.7225C398.245 87.71 398.184 87.6724 398.143 87.6172C398.096 87.5619 398.078 87.4928 398.082 87.4227C398.087 87.353 398.119 87.2876 398.17 87.2393C398.222 87.1911 398.287 87.1632 398.356 87.1609C398.398 87.1609 400.957 87.2908 402.039 85.6013C402.081 85.5381 402.141 85.4931 402.215 85.4764C402.289 85.4602 402.364 85.4732 402.429 85.5131C402.461 85.5331 402.489 85.5586 402.508 85.5892C402.531 85.6198 402.545 85.6542 402.554 85.6904C402.559 85.7266 402.559 85.7642 402.554 85.8009C402.545 85.8371 402.531 85.8719 402.512 85.903C401.56 87.3326 399.87 87.6761 398.965 87.7225Z" fill="#FC9D9D"/>
<path d="M389.352 100.274C389.575 100.274 389.793 100.207 389.979 100.083C390.165 99.9594 390.309 99.7835 390.392 99.5774C390.48 99.3713 390.504 99.1443 390.457 98.9257C390.415 98.7071 390.309 98.5061 390.151 98.3482C389.993 98.1904 389.793 98.0828 389.57 98.0396C389.352 97.996 389.124 98.0182 388.92 98.1036C388.716 98.189 388.539 98.3334 388.414 98.5191C388.289 98.7047 388.224 98.9224 388.224 99.1457C388.224 99.2938 388.251 99.4409 388.307 99.5778C388.363 99.7152 388.446 99.8396 388.553 99.9445C388.655 100.049 388.781 100.133 388.92 100.189C389.055 100.245 389.203 100.274 389.352 100.274Z" fill="black"/>
<path d="M388.832 99.2757C388.869 99.2808 388.906 99.2775 388.943 99.2668C388.976 99.2562 389.008 99.2381 389.036 99.2139C389.064 99.1893 389.087 99.1591 389.101 99.1253C389.12 99.0918 389.124 99.0552 389.124 99.018C389.124 98.9809 389.12 98.9442 389.101 98.9108C389.087 98.8769 389.064 98.8468 389.036 98.8222C389.008 98.798 388.976 98.7799 388.943 98.7692C388.906 98.7586 388.869 98.7553 388.832 98.7604C388.795 98.7553 388.758 98.7586 388.72 98.7692C388.688 98.7799 388.655 98.798 388.628 98.8222C388.6 98.8468 388.576 98.8769 388.562 98.9108C388.544 98.9442 388.539 98.9809 388.539 99.018C388.539 99.0552 388.544 99.0918 388.562 99.1253C388.576 99.1591 388.6 99.1893 388.628 99.2139C388.655 99.2381 388.688 99.2562 388.72 99.2668C388.758 99.2775 388.795 99.2808 388.832 99.2757Z" fill="white"/>
<path d="M397.989 99.6238C398.212 99.6247 398.431 99.5593 398.616 99.4358C398.807 99.3119 398.951 99.1359 399.034 98.9299C399.122 98.7233 399.146 98.4963 399.099 98.2768C399.057 98.0577 398.951 97.8562 398.793 97.6984C398.635 97.5401 398.431 97.4329 398.212 97.3893C397.994 97.3461 397.766 97.3689 397.562 97.4547C397.353 97.5406 397.177 97.6859 397.056 97.872C396.931 98.0581 396.866 98.2772 396.866 98.5005C396.866 98.6481 396.893 98.7938 396.949 98.9303C397.01 99.0668 397.089 99.1902 397.195 99.2947C397.298 99.3991 397.423 99.4817 397.558 99.5384C397.697 99.5945 397.841 99.6238 397.989 99.6238Z" fill="black"/>
<path d="M397.492 98.6722C397.562 98.6722 397.627 98.6448 397.678 98.5961C397.725 98.5473 397.753 98.4814 397.753 98.4123C397.753 98.3431 397.725 98.2772 397.678 98.2285C397.627 98.1797 397.562 98.1523 397.492 98.1523C397.423 98.1523 397.358 98.1797 397.307 98.2285C397.26 98.2772 397.232 98.3431 397.232 98.4123C397.232 98.4814 397.26 98.5473 397.307 98.5961C397.358 98.6448 397.423 98.6722 397.492 98.6722Z" fill="white"/>
<path opacity="0.3" d="M394.242 104.47L395.171 104.386C395.254 104.377 395.333 104.336 395.389 104.271C395.445 104.206 395.477 104.123 395.472 104.038C395.463 103.954 395.426 103.875 395.361 103.819C395.296 103.763 395.212 103.733 395.129 103.736L394.2 103.82C394.107 103.825 394.019 103.813 393.931 103.784C393.843 103.754 393.764 103.708 393.694 103.647C393.624 103.586 393.569 103.513 393.531 103.431C393.49 103.349 393.466 103.259 393.462 103.168C393.452 103.076 393.466 102.985 393.494 102.898C393.527 102.811 393.573 102.731 393.634 102.663C393.694 102.594 393.768 102.537 393.847 102.497C393.931 102.457 394.019 102.433 394.112 102.427C394.154 102.425 394.195 102.413 394.233 102.395C394.274 102.376 394.307 102.349 394.335 102.317C394.363 102.285 394.386 102.248 394.4 102.207C394.414 102.167 394.418 102.124 394.418 102.082C394.414 102.039 394.404 101.997 394.381 101.959C394.363 101.92 394.339 101.886 394.307 101.858C394.274 101.829 394.237 101.808 394.195 101.794C394.154 101.78 394.112 101.775 394.07 101.777C393.898 101.79 393.731 101.837 393.573 101.917C393.42 101.996 393.285 102.105 393.174 102.238C393.062 102.371 392.979 102.525 392.928 102.691C392.881 102.856 392.863 103.03 392.881 103.202C392.881 103.377 392.914 103.551 392.983 103.712C393.053 103.872 393.155 104.017 393.281 104.136C393.411 104.256 393.559 104.347 393.726 104.404C393.894 104.462 394.065 104.484 394.242 104.47Z" fill="black"/>
<path d="M403.901 106.382L402.508 101.801L404.11 94.3184L405.916 94.1095L406.469 99.7863L403.901 106.382ZM403.098 101.81L403.868 105.059L405.865 99.8048L405.921 95.01L404.491 94.6897L403.098 101.81Z" fill="#3B82F6"/>
<path d="M385.214 107.334L381.769 102.028L382.809 96.4582C382.818 96.3742 382.851 96.2948 382.907 96.2307C382.962 96.1667 383.037 96.1212 383.12 96.1003C383.199 96.0799 383.287 96.0845 383.366 96.1147C383.445 96.1444 383.515 96.1982 383.561 96.2679L385.558 102.84L385.214 107.334ZM382.354 101.875L384.769 105.658L384.978 102.957L383.204 96.6624V97.0337L382.354 101.875Z" fill="#3B82F6"/>
<path d="M384.718 101.722C384.718 101.722 393.114 104.92 403.757 101.067L404.263 104.683C404.263 104.683 404.003 112.918 395.333 114.05C395.333 114.05 386.45 115.127 384.43 105.797L384.718 101.722Z" fill="#3B82F6"/>
<path opacity="0.15" d="M395.324 114.05C403.994 112.918 404.254 104.683 404.254 104.683L404.04 103.138L403.915 102.789C395.705 109.752 384.537 104.182 384.537 104.182L384.42 105.802C386.44 115.127 395.324 114.05 395.324 114.05Z" fill="white"/>
<path opacity="0.15" d="M395.324 114.05C401.742 113.21 403.548 108.48 404.059 106.08L404.026 105.988C392.881 115.094 384.797 106.809 384.797 106.809L384.727 106.916C387.16 115.034 395.324 114.05 395.324 114.05Z" fill="white"/>
<path d="M401.129 95.5113L396.234 95.7712L395.584 95.813L391.298 96.0729H391.256L385.758 96.3792C385.544 96.3918 385.335 96.4466 385.14 96.5403C384.95 96.6345 384.778 96.7659 384.634 96.927C384.495 97.088 384.388 97.276 384.318 97.4789C384.249 97.6822 384.225 97.8971 384.239 98.1106L384.327 99.3639C384.411 100.513 384.94 101.583 385.804 102.346C386.673 103.108 387.801 103.501 388.953 103.44C390.1 103.379 391.182 102.87 391.962 102.021C392.742 101.172 393.155 100.051 393.118 98.8997L393.03 97.6464C393.011 97.2941 392.877 96.9581 392.64 96.6949L394.33 96.6067C394.135 96.9014 394.042 97.2524 394.07 97.6047L394.158 98.8579C394.191 99.4344 394.335 99.9997 394.581 100.521C394.832 101.042 395.18 101.509 395.607 101.895C396.039 102.281 396.541 102.579 397.084 102.771C397.627 102.964 398.208 103.047 398.783 103.017C399.359 102.986 399.926 102.843 400.446 102.594C400.966 102.345 401.435 101.996 401.82 101.567C402.211 101.137 402.508 100.636 402.698 100.092C402.893 99.5472 402.977 98.9702 402.944 98.3937L402.861 97.1358C402.861 96.9135 402.814 96.6935 402.726 96.4893C402.638 96.285 402.508 96.1012 402.345 95.9494C402.183 95.7972 401.992 95.6798 401.783 95.6041C401.574 95.5289 401.351 95.4973 401.129 95.5113ZM392.38 97.6325L392.468 98.8858C392.496 99.3736 392.431 99.8619 392.268 100.323C392.11 100.785 391.86 101.21 391.535 101.576C391.209 101.94 390.815 102.238 390.378 102.451C389.937 102.664 389.459 102.788 388.971 102.817C388.484 102.846 387.996 102.778 387.532 102.618C387.072 102.458 386.645 102.208 386.282 101.884C385.916 101.559 385.618 101.166 385.405 100.727C385.191 100.287 385.066 99.8099 385.038 99.3221L384.954 98.0642C384.94 97.808 385.029 97.5568 385.196 97.3637C385.368 97.1702 385.604 97.0504 385.86 97.0291L391.363 96.7227H391.404C391.53 96.7167 391.655 96.7353 391.771 96.778C391.887 96.8207 391.994 96.8866 392.087 96.9711C392.175 97.056 392.25 97.1586 392.301 97.2718C392.352 97.3856 392.38 97.5081 392.38 97.6325ZM402.299 98.3241C402.354 99.3091 402.02 100.276 401.365 101.014C400.711 101.751 399.786 102.198 398.802 102.256C397.818 102.314 396.847 101.978 396.113 101.322C395.375 100.667 394.924 99.7454 394.869 98.7604L394.78 97.5025C394.771 97.2426 394.859 96.9892 395.036 96.7952C395.208 96.6011 395.449 96.4818 395.709 96.4628L396.359 96.421L401.249 96.1611C401.509 96.1509 401.765 96.2419 401.955 96.415C402.15 96.5881 402.271 96.83 402.289 97.0894L402.299 98.3241Z" fill="#495057"/>
<path d="M379.414 388.957V377.92C379.41 376.318 378.774 374.782 377.645 373.647C376.512 372.512 374.98 371.869 373.378 371.857H373.117C371.789 371.851 370.503 372.305 369.477 373.143C368.45 373.98 367.745 375.149 367.485 376.448C367.178 378.033 366.463 379.511 365.409 380.732L363.677 382.765C362.205 384.492 361.392 386.688 361.383 388.957H379.414Z" fill="#3B82F6"/>
<path d="M368.957 377.748C368.91 377.748 368.868 377.736 368.831 377.713C368.789 377.69 368.762 377.657 368.738 377.618C368.697 377.488 368.697 377.358 368.827 377.311C369.844 376.735 370.991 376.433 372.161 376.433C373.331 376.433 374.478 376.735 375.495 377.311C375.579 377.4 375.625 377.53 375.537 377.618C375.449 377.706 375.323 377.748 375.235 377.66C374.292 377.124 373.224 376.842 372.138 376.842C371.051 376.842 369.983 377.124 369.04 377.66C369.04 377.748 368.998 377.748 368.957 377.748Z" fill="white"/>
<g opacity="0.8">
<path opacity="0.8" d="M374.919 124.536L372.579 126.304L369.876 125.162L369.514 122.252L371.854 120.483L374.557 121.625L374.919 124.536Z" fill="white"/>
<path opacity="0.8" d="M397.674 159.812L395.333 161.581L392.631 160.439L392.268 157.529L394.609 155.76L397.311 156.902L397.674 159.812Z" fill="white"/>
<path opacity="0.8" d="M383.742 183.949L381.402 185.717L378.699 184.576L378.337 181.665L380.678 179.897L383.38 181.039L383.742 183.949Z" fill="white"/>
<path opacity="0.8" d="M420.892 130.57L418.552 132.338L415.849 131.196L415.487 128.286L417.828 126.518L420.53 127.659L420.892 130.57Z" fill="white"/>
<path opacity="0.8" d="M395.83 139.101L392.881 137.857L392.487 134.682L395.041 132.751L397.989 133.995L398.384 137.17L395.83 139.101ZM393.309 137.532L395.765 138.572L397.892 136.966L397.562 134.32L395.106 133.28L392.979 134.886L393.309 137.532Z" fill="white"/>
<path opacity="0.8" d="M372.611 169.272L369.663 168.028L369.268 164.853L371.822 162.922L374.771 164.166L375.165 167.341L372.611 169.272ZM370.09 167.703L372.546 168.743L374.673 167.137L374.343 164.491L371.887 163.451L369.76 165.057L370.09 167.703Z" fill="white"/>
<path opacity="0.8" d="M393.973 206.869L391.024 205.625L390.629 202.451L393.183 200.52L396.132 201.764L396.527 204.939L393.973 206.869ZM391.451 205.301L393.908 206.34L396.034 204.734L395.705 202.089L393.248 201.049L391.121 202.655L391.451 205.301Z" fill="white"/>
<path opacity="0.8" d="M432.516 154.883L429.567 153.639L429.172 150.464L431.726 148.533L434.675 149.777L435.07 152.952L432.516 154.883ZM429.994 153.314L432.451 154.354L434.578 152.748L434.248 150.102L431.791 149.062L429.664 150.668L429.994 153.314Z" fill="white"/>
<path opacity="0.8" d="M401.867 179.484L398.918 178.24L398.523 175.065L401.078 173.134L404.026 174.378L404.421 177.553L401.867 179.484ZM399.345 177.915L401.802 178.954L403.929 177.348L403.599 174.703L401.143 173.663L399.016 175.269L399.345 177.915Z" fill="white"/>
<path opacity="0.8" d="M413.012 157.668L410.063 156.424L409.668 153.249L412.223 151.318L415.171 152.562L415.566 155.737L413.012 157.668ZM410.49 156.099L412.947 157.139L415.074 155.533L414.744 152.887L412.288 151.847L410.161 153.453L410.49 156.099Z" fill="white"/>
<path opacity="0.8" d="M348.928 129.354L345.979 128.11L345.585 124.935L348.139 123.004L351.088 124.248L351.482 127.423L348.928 129.354ZM346.407 127.803L348.863 128.843L350.99 127.237L350.66 124.591L348.204 123.552L346.077 125.158L346.407 127.803Z" fill="white"/>
<path opacity="0.8" d="M374.455 203.908L372.114 205.677L369.412 204.535L369.05 201.624L371.39 199.856L374.093 200.998L374.455 203.908Z" fill="white"/>
<path opacity="0.8" d="M415.32 197.41L412.979 199.178L410.277 198.036L409.915 195.126L412.255 193.358L414.958 194.499L415.32 197.41Z" fill="white"/>
<path opacity="0.8" d="M374.919 147.744L372.579 149.512L369.876 148.371L369.514 145.46L371.854 143.692L374.557 144.834L374.919 147.744Z" fill="white"/>
</g>
<path d="M368.218 379.303C368.172 379.304 368.13 379.292 368.093 379.269C368.056 379.246 368.023 379.213 368.005 379.173C367.958 379.043 367.958 378.913 368.088 378.871C369.105 378.295 370.252 377.991 371.422 377.991C372.593 377.991 373.74 378.295 374.757 378.871C374.845 378.959 374.887 379.089 374.803 379.173C374.785 379.196 374.766 379.216 374.738 379.231C374.715 379.246 374.687 379.255 374.659 379.26C374.631 379.264 374.603 379.263 374.576 379.256C374.548 379.249 374.52 379.236 374.497 379.219C373.554 378.684 372.486 378.402 371.399 378.402C370.317 378.402 369.249 378.684 368.307 379.219C368.307 379.303 368.269 379.303 368.218 379.303Z" fill="white"/>
<path d="M367.438 380.951C367.396 380.951 367.35 380.939 367.313 380.915C367.276 380.893 367.243 380.86 367.224 380.821C367.183 380.691 367.183 380.561 367.308 380.514C368.325 379.938 369.472 379.635 370.642 379.635C371.812 379.635 372.96 379.938 373.976 380.514C374 380.531 374.018 380.553 374.032 380.577C374.051 380.602 374.06 380.629 374.065 380.658C374.069 380.686 374.065 380.715 374.06 380.743C374.051 380.771 374.041 380.797 374.023 380.821C373.935 380.904 373.805 380.951 373.721 380.862C372.778 380.327 371.71 380.045 370.624 380.045C369.537 380.045 368.469 380.327 367.526 380.862C367.485 380.951 367.438 380.951 367.438 380.951Z" fill="white"/>
<path d="M362.116 391.25H378.611C378.82 391.25 379.015 391.167 379.164 391.023C379.308 390.874 379.391 390.679 379.391 390.471V388.999H361.336V390.471C361.336 390.573 361.355 390.675 361.397 390.768C361.434 390.865 361.49 390.949 361.564 391.023C361.638 391.097 361.722 391.153 361.819 391.19C361.912 391.232 362.014 391.25 362.116 391.25Z" fill="#3B82F6"/>
<path opacity="0.2" d="M362.116 391.25H378.611C378.82 391.25 379.015 391.167 379.164 391.023C379.308 390.874 379.391 390.679 379.391 390.471V388.999H361.336V390.471C361.336 390.573 361.355 390.675 361.397 390.768C361.434 390.865 361.49 390.949 361.564 391.023C361.638 391.097 361.722 391.153 361.819 391.19C361.912 391.232 362.014 391.25 362.116 391.25Z" fill="black"/>
<path d="M366.226 368.441L366.096 363.419H381.685L381.383 368.441H366.226Z" fill="#3B82F6"/>
<path d="M382.897 96.9409C382.86 96.5631 382.721 96.202 382.498 95.8965C382.27 95.5907 381.964 95.3521 381.616 95.2054C381.267 95.0587 380.882 95.01 380.506 95.0638C380.13 95.1177 379.777 95.2722 379.479 95.5113L379.433 95.5577C377.227 97.4608 378.653 103.449 383.506 102.915L382.897 96.9409Z" fill="#FC9D9D"/>
<path d="M407.017 93.7799L406.975 93.7381C406.65 93.5478 406.278 93.449 405.902 93.4513C405.522 93.4541 405.155 93.558 404.83 93.7525C404.505 93.9475 404.24 94.2255 404.063 94.5574C403.882 94.8897 403.799 95.2643 403.813 95.6412L404.073 101.355C408.967 101.183 409.441 95.3395 407.017 93.7799Z" fill="#FC9D9D"/>
<path d="M383.506 97.6742C383.515 97.8232 383.464 97.9699 383.366 98.0832C383.273 98.1969 383.134 98.2679 382.985 98.2823C382.841 98.3027 382.698 98.2702 382.577 98.1909C382.456 98.111 382.373 97.9899 382.335 97.8506L381.773 93.998L383.376 94.0398L383.506 97.6742Z" fill="#495057"/>
<path d="M404.806 96.1193C404.816 96.2674 404.769 96.4136 404.672 96.5264C404.574 96.6392 404.439 96.7097 404.291 96.7227C404.147 96.7446 404.003 96.7121 403.882 96.6322C403.761 96.5524 403.678 96.4308 403.641 96.2911L403.074 92.4385L404.676 92.4802L404.806 96.1193Z" fill="#495057"/>
<path d="M381.685 363.419L381.383 368.441H366.226L366.096 363.419H381.685Z" fill="#3B82F6"/>
<path opacity="0.15" d="M429.358 135.23L435.813 163.015L441.655 161.622L436.593 138.512C436.082 136.21 435.037 134.062 433.537 132.241C432.042 130.421 430.133 128.98 427.974 128.035L422.82 125.784C426.145 127.964 428.49 131.352 429.358 135.23Z" fill="black"/>
<path opacity="0.15" d="M417.67 149.048L414.242 214.194H421.371L422.801 163.939L418.622 148.965C418.612 148.838 418.552 148.722 418.454 148.641C418.357 148.559 418.231 148.52 418.101 148.531C417.976 148.542 417.86 148.603 417.781 148.7C417.697 148.797 417.66 148.922 417.67 149.048Z" fill="black"/>
<path d="M445.356 178.569L441.641 161.646L423.372 165.93L427.008 176.606L396.438 183.401L394.748 183.749C394.186 183.879 393.666 183.921 393.276 183.531L392.626 182.881C392.013 182.388 391.307 182.02 390.55 181.8C388.748 181.271 387.225 180.06 386.306 178.425L384.834 175.826C384.82 175.795 384.797 175.768 384.769 175.747C384.745 175.725 384.713 175.71 384.68 175.702C384.648 175.694 384.611 175.694 384.578 175.701C384.546 175.708 384.513 175.722 384.485 175.742L384.225 175.826C383.714 176.019 383.297 176.4 383.055 176.89C382.814 177.381 382.767 177.945 382.93 178.467L384.053 182.018C384.109 182.203 384.091 182.401 384.002 182.574C383.919 182.746 383.77 182.879 383.589 182.946L368.511 189.138C366.992 189.7 367.512 191.779 368.901 191.431C369.635 191.26 377.701 187.964 377.701 187.964L376.275 188.702C374.673 189.482 375.407 191.645 376.795 191.343C378.184 191.041 380 190.563 380 190.563L378.221 191.255C377.924 191.403 377.692 191.658 377.575 191.969C377.459 192.28 377.464 192.624 377.594 192.931C377.719 193.238 377.956 193.486 378.258 193.624C378.56 193.763 378.904 193.782 379.219 193.678C380.255 193.418 381.903 192.898 381.903 192.898L380.821 193.418C379.428 193.854 379.893 196.017 381.212 195.739C382.335 195.521 392.9 192.926 398.356 191.928L438.84 187.514C439.881 187.413 440.888 187.092 441.799 186.573C442.704 186.055 443.494 185.35 444.106 184.505C444.724 183.659 445.151 182.693 445.37 181.67C445.583 180.647 445.579 179.59 445.356 178.569Z" fill="#FC9D9D"/>
<path d="M333.906 126.545L313.645 137.193C306.888 140.74 309.401 150.956 317.063 150.956L342.887 153.425L343.068 148.519V142.104L347.633 140.526" fill="#FC9D9D"/>
<path opacity="0.15" d="M438.854 187.741L398.37 192.16C392.914 193.153 382.349 195.748 381.225 195.966C381.068 195.988 380.905 195.976 380.752 195.93C380.599 195.883 380.455 195.803 380.334 195.696C380.218 195.589 380.12 195.457 380.055 195.31C379.995 195.163 379.962 195.004 379.967 194.843C379.967 194.843 380.269 195.363 381.095 195.103C381.527 194.973 388.024 192.592 392.134 191.032C394.353 190.209 396.643 189.6 398.979 189.213C407.802 187.741 430.802 183.847 436.992 182.464C437.419 182.372 437.828 182.195 438.186 181.944C438.548 181.693 438.854 181.372 439.087 181.001C439.323 180.63 439.477 180.216 439.551 179.783C439.621 179.35 439.607 178.908 439.505 178.481L435.943 163.08L441.701 161.734L445.379 178.657C445.583 179.686 445.574 180.745 445.356 181.771C445.133 182.795 444.701 183.764 444.093 184.616C443.48 185.468 442.699 186.185 441.799 186.722C440.898 187.26 439.895 187.607 438.854 187.741Z" fill="black"/>
<path opacity="0.3" d="M381.685 100.055C381.602 100.051 381.523 100.02 381.462 99.9645C381.397 99.9097 381.356 99.8355 381.342 99.7538L381.253 99.0621C381.239 98.4996 381.021 97.9611 380.645 97.5443C380.575 97.4826 380.492 97.4357 380.404 97.406C380.315 97.3768 380.222 97.3652 380.13 97.3726C380.041 97.3898 379.953 97.3721 379.879 97.3234C379.809 97.2746 379.758 97.199 379.739 97.1127C379.721 97.0263 379.74 96.9372 379.791 96.8639C379.837 96.7905 379.911 96.7399 380 96.7228C380.366 96.6838 380.733 96.7757 381.035 96.9827C381.304 97.2305 381.523 97.5313 381.671 97.8669C381.82 98.2025 381.899 98.565 381.903 98.9322L381.987 99.6238C381.992 99.7189 381.964 99.8136 381.908 99.8916C381.857 99.9701 381.778 100.028 381.685 100.055Z" fill="black"/>
<path opacity="0.3" d="M405.503 98.2823C405.587 98.274 405.665 98.2331 405.721 98.1686C405.782 98.1036 405.809 98.0201 405.805 97.9342V97.2426C405.758 96.9697 405.768 96.6907 405.837 96.422C405.902 96.1537 406.028 95.9021 406.195 95.683C406.255 95.6046 406.334 95.541 406.427 95.4964C406.515 95.4523 406.613 95.4291 406.715 95.4277C406.803 95.4333 406.887 95.4045 406.952 95.3474C407.017 95.2903 407.054 95.21 407.059 95.1237C407.068 95.0374 407.035 94.9529 406.98 94.8879C406.924 94.8229 406.845 94.7835 406.757 94.7779C406.576 94.7821 406.399 94.8229 406.237 94.8967C406.074 94.971 405.926 95.0773 405.805 95.2096C405.373 95.6412 405.196 96.3328 405.243 97.2844V97.9806C405.155 98.1524 405.285 98.2823 405.503 98.2823Z" fill="black"/>
<path opacity="0.15" d="M342.933 135.764L347.651 140.568L359.516 137.969L358.652 133.034C358.601 132.738 358.485 132.456 358.313 132.209C358.141 131.961 357.918 131.754 357.658 131.602C357.398 131.449 357.108 131.356 356.809 131.326C356.509 131.297 356.206 131.334 355.922 131.433L342.933 135.764Z" fill="black"/>
<path opacity="0.15" d="M347.651 140.568L342.933 135.764L334.834 138.447L326.22 137.193C326.09 137.147 325.96 137.277 325.914 137.407C325.915 137.473 325.936 137.538 325.975 137.592C326.014 137.646 326.069 137.687 326.132 137.709L341.108 143.088L346.681 140.768L347.651 140.568Z" fill="black"/>
<path opacity="0.2" d="M392.078 232.96C391.33 232.955 390.61 233.236 390.062 233.745C389.515 234.254 389.18 234.953 389.134 235.699L381.342 363.419H376.698L378.555 241.431C378.602 239.16 379.54 236.998 381.17 235.412C382.8 233.827 384.987 232.946 387.258 232.96H392.078Z" fill="black"/>
<path opacity="0.2" d="M381.383 368.441L381.685 363.419H376.707L376.619 368.441H381.383Z" fill="black"/>
<path opacity="0.15" d="M415.506 368.441L415.246 377.53L410.091 377.701L410.179 371.556C410.179 371.269 410.091 370.989 409.924 370.755C409.761 370.522 409.524 370.347 409.25 370.256L403.446 368.4H415.487L415.506 368.441Z" fill="black"/>
<path opacity="0.2" d="M420.916 215.183L416.889 368.441H415.496L415.636 364.528H410.263L412.171 215.197L420.916 215.183Z" fill="black"/>
<path d="M403.854 388.957V377.919C403.859 376.313 404.5 374.774 405.638 373.638C406.771 372.503 408.312 371.863 409.919 371.857H410.179C411.503 371.852 412.789 372.307 413.815 373.144C414.842 373.982 415.547 375.149 415.807 376.448C416.114 378.033 416.829 379.51 417.883 380.732L419.615 382.765C421.097 384.492 421.919 386.683 421.937 388.957H403.854Z" fill="#3B82F6"/>
<path d="M414.335 377.748C414.312 377.751 414.289 377.749 414.266 377.74C414.242 377.732 414.219 377.719 414.205 377.701C413.267 377.149 412.195 376.858 411.108 376.858C410.017 376.858 408.949 377.149 408.01 377.701C407.987 377.72 407.964 377.734 407.936 377.742C407.908 377.75 407.88 377.752 407.848 377.748C407.82 377.744 407.792 377.734 407.769 377.719C407.746 377.704 407.723 377.683 407.709 377.66C407.69 377.637 407.681 377.611 407.672 377.584C407.662 377.557 407.662 377.528 407.667 377.5C407.672 377.472 407.681 377.445 407.695 377.421C407.709 377.396 407.727 377.375 407.75 377.358C408.763 376.772 409.914 376.463 411.085 376.463C412.255 376.463 413.407 376.772 414.419 377.358C414.549 377.4 414.549 377.571 414.507 377.66C414.461 377.705 414.4 377.736 414.335 377.748Z" fill="white"/>
<path d="M415.027 379.303C415.004 379.306 414.981 379.303 414.958 379.296C414.934 379.289 414.916 379.277 414.897 379.261C413.959 378.709 412.891 378.418 411.8 378.418C410.713 378.418 409.645 378.709 408.707 379.261C408.684 379.281 408.656 379.297 408.628 379.306C408.6 379.316 408.568 379.319 408.54 379.316C408.507 379.313 408.48 379.304 408.452 379.289C408.429 379.274 408.405 379.254 408.387 379.229C408.368 379.205 408.354 379.177 408.35 379.148C408.34 379.118 408.34 379.087 408.345 379.058C408.354 379.028 408.364 379 408.382 378.975C408.401 378.95 408.419 378.929 408.447 378.913C409.459 378.328 410.611 378.019 411.781 378.019C412.952 378.019 414.103 378.328 415.116 378.913C415.246 378.959 415.246 379.131 415.199 379.219C415.153 379.307 415.116 379.303 415.027 379.303Z" fill="white"/>
<path d="M415.849 380.951C415.826 380.953 415.803 380.951 415.78 380.943C415.756 380.935 415.738 380.921 415.719 380.904C414.781 380.352 413.713 380.061 412.622 380.061C411.535 380.061 410.467 380.352 409.529 380.904C409.506 380.921 409.483 380.934 409.455 380.941C409.427 380.948 409.399 380.95 409.371 380.946C409.343 380.942 409.316 380.932 409.288 380.918C409.264 380.904 409.246 380.885 409.227 380.862C409.209 380.84 409.199 380.814 409.19 380.787C409.186 380.759 409.181 380.731 409.186 380.703C409.19 380.675 409.199 380.648 409.213 380.623C409.227 380.599 409.246 380.578 409.269 380.561C410.281 379.974 411.433 379.665 412.603 379.665C413.774 379.665 414.925 379.974 415.938 380.561C416.068 380.602 416.068 380.774 416.021 380.862C416.003 380.889 415.975 380.911 415.947 380.926C415.914 380.941 415.882 380.95 415.849 380.951Z" fill="white"/>
<path d="M421.134 391.25H404.635C404.426 391.25 404.231 391.167 404.082 391.023C403.938 390.874 403.854 390.679 403.854 390.471V388.999H421.965V390.471C421.956 390.684 421.863 390.884 421.71 391.028C421.552 391.176 421.347 391.255 421.134 391.25Z" fill="#3B82F6"/>
<path opacity="0.2" d="M421.134 391.25H404.635C404.426 391.25 404.231 391.167 404.082 391.023C403.938 390.874 403.854 390.679 403.854 390.471V388.999H421.965V390.471C421.956 390.684 421.863 390.884 421.71 391.028C421.552 391.176 421.347 391.255 421.134 391.25Z" fill="black"/>
<path d="M401.732 363.419L402.039 368.441H417.191L417.28 363.419H401.732Z" fill="#3B82F6"/>
<path opacity="0.2" d="M410.263 363.419V368.441H417.191L417.28 363.419H410.263Z" fill="black"/>
<path d="M396.406 183.503L398.008 192.16L400.739 191.854L399.136 182.895L396.406 183.503Z" fill="#495057"/>
<path d="M398.705 190.73C399.243 190.73 399.773 190.57 400.223 190.27C400.669 189.971 401.022 189.544 401.226 189.046C401.435 188.547 401.486 187.998 401.384 187.469C401.277 186.939 401.017 186.453 400.636 186.071C400.255 185.69 399.768 185.43 399.239 185.324C398.709 185.219 398.157 185.273 397.66 185.48C397.163 185.686 396.736 186.036 396.434 186.485C396.137 186.934 395.974 187.461 395.974 188.001C395.974 188.36 396.044 188.715 396.178 189.046C396.318 189.378 396.517 189.679 396.773 189.933C397.028 190.186 397.325 190.387 397.66 190.524C397.989 190.661 398.347 190.731 398.705 190.73Z" fill="#195DBB"/>
<path d="M398.705 190.299C399.16 190.294 399.601 190.155 399.977 189.901C400.348 189.645 400.641 189.285 400.813 188.864C400.98 188.444 401.026 187.983 400.934 187.539C400.841 187.095 400.622 186.688 400.297 186.369C399.977 186.049 399.568 185.833 399.122 185.746C398.677 185.659 398.217 185.706 397.794 185.881C397.376 186.055 397.019 186.35 396.768 186.727C396.517 187.104 396.383 187.548 396.383 188.001C396.383 188.305 396.443 188.605 396.559 188.886C396.675 189.166 396.847 189.421 397.065 189.634C397.279 189.848 397.534 190.017 397.818 190.131C398.101 190.244 398.403 190.302 398.705 190.299Z" fill="white"/>
<path d="M400.218 188.219L398.658 188.131L397.525 187.31C397.483 187.268 397.437 187.18 397.483 187.138C397.53 187.096 397.613 187.05 397.655 187.096L398.695 187.871L400.167 187.959C400.186 187.957 400.204 187.959 400.218 187.964C400.237 187.971 400.251 187.98 400.265 187.992C400.279 188.005 400.288 188.02 400.293 188.037C400.297 188.054 400.297 188.072 400.297 188.089C400.348 188.145 400.311 188.219 400.218 188.219Z" fill="#495057"/>
<path d="M202.887 76.6058H323.926C326.406 76.6058 328.863 77.0941 331.154 78.0428C333.445 78.9916 335.527 80.3818 337.281 82.1349C339.035 83.8881 340.426 85.9689 341.375 88.2591C342.324 90.5498 342.812 93.0043 342.812 95.4834V372.015C342.812 377.022 340.823 381.824 337.281 385.365C333.739 388.906 328.935 390.893 323.926 390.893H200.012C197.414 390.893 194.921 389.863 193.084 388.024C191.246 386.186 190.214 383.698 190.214 381.099V89.2775C190.214 85.9179 191.549 82.6961 193.926 80.3205C196.303 77.9449 199.526 76.6104 202.887 76.6104V76.6058Z" fill="#3B82F6"/>
<path opacity="0.2" d="M202.887 76.6058H323.926C326.406 76.6058 328.863 77.0941 331.154 78.0428C333.445 78.9916 335.527 80.3818 337.281 82.1349C339.035 83.8881 340.426 85.9689 341.375 88.2591C342.324 90.5498 342.812 93.0043 342.812 95.4834V372.015C342.812 377.022 340.823 381.824 337.281 385.365C333.739 388.906 328.935 390.893 323.926 390.893H202.325C199.113 390.893 196.033 389.617 193.761 387.347C191.49 385.077 190.214 381.998 190.214 378.788V89.2775C190.214 85.9179 191.549 82.6961 193.926 80.3205C196.303 77.9449 199.526 76.6104 202.887 76.6104V76.6058Z" fill="black"/>
<path d="M330.678 80.9596H187.479V383.137H330.678V80.9596Z" fill="#3B82F6"/>
<path opacity="0.8" d="M330.678 80.9596H187.479V383.137H330.678V80.9596Z" fill="white"/>
<path d="M327.943 82.1525H189.262V117.429H327.943V82.1525Z" fill="#3B82F6"/>
<path d="M327.929 360.643H189.248V385.128H327.929V360.643Z" fill="#3B82F6"/>
<path opacity="0.4" d="M327.943 82.1525H189.262V117.429H327.943V82.1525Z" fill="white"/>
<path opacity="0.4" d="M327.929 360.643H189.248V385.128H327.929V360.643Z" fill="white"/>
<path d="M317.188 381.842H200.003C194.101 381.842 189.322 377.284 189.322 371.658V95.0842C189.322 89.4632 194.11 84.9051 200.003 84.9051H221.095C222.329 84.8865 223.538 85.2574 224.549 85.9648C225.56 86.6721 226.322 87.6803 226.728 88.8458L227.689 91.7794C228.094 92.944 228.856 93.9521 229.866 94.66C230.876 95.3683 232.084 95.7406 233.317 95.7248H283.897C285.13 95.7415 286.337 95.3702 287.347 94.6628C288.358 93.9554 289.119 92.9481 289.525 91.784L290.491 88.8458C290.896 87.6812 291.658 86.6735 292.668 85.9661C293.678 85.2588 294.886 84.8874 296.119 84.9051H317.211C323.118 84.9051 327.892 89.4632 327.892 95.0842V371.658C327.869 377.284 323.104 381.842 317.188 381.842ZM182.315 90.851V376.281C182.315 380.108 183.835 383.777 186.542 386.483C189.248 389.19 192.92 390.712 196.748 390.712H320.467C322.362 390.712 324.239 390.341 325.99 389.617C327.742 388.892 329.333 387.83 330.673 386.488C332.014 385.147 333.077 383.559 333.802 381.807C334.527 380.057 334.9 378.18 334.899 376.286V90.8557C334.899 87.0296 333.379 83.3603 330.672 80.6547C327.965 77.9491 324.294 76.4294 320.467 76.4294H196.734C192.909 76.4331 189.242 77.9542 186.539 80.6579C183.835 83.3622 182.316 87.0282 182.315 90.851Z" fill="#3B82F6"/>
<path d="M315.28 106.285H305.755C305.693 106.285 305.635 106.26 305.591 106.217C305.548 106.173 305.523 106.114 305.523 106.053C305.523 105.991 305.548 105.932 305.591 105.888C305.635 105.845 305.693 105.82 305.755 105.82H315.28C315.341 105.82 315.4 105.845 315.444 105.888C315.487 105.932 315.512 105.991 315.512 106.053C315.512 106.114 315.487 106.173 315.444 106.217C315.4 106.26 315.341 106.285 315.28 106.285Z" fill="white"/>
<path d="M315.28 109.413H305.755C305.695 109.413 305.637 109.389 305.594 109.346C305.551 109.304 305.528 109.246 305.528 109.186C305.528 109.125 305.551 109.066 305.594 109.023C305.636 108.98 305.694 108.955 305.755 108.954H315.28C315.341 108.954 315.4 108.978 315.443 109.021C315.487 109.065 315.512 109.124 315.512 109.186C315.512 109.247 315.487 109.306 315.443 109.35C315.4 109.393 315.341 109.418 315.28 109.418V109.413Z" fill="white"/>
<path d="M315.28 112.542H305.755C305.693 112.542 305.635 112.517 305.591 112.474C305.548 112.43 305.523 112.371 305.523 112.309C305.523 112.248 305.548 112.189 305.591 112.145C305.635 112.102 305.693 112.077 305.755 112.077H315.28C315.341 112.077 315.4 112.102 315.444 112.145C315.487 112.189 315.512 112.248 315.512 112.309C315.512 112.371 315.487 112.43 315.444 112.474C315.4 112.517 315.341 112.542 315.28 112.542Z" fill="white"/>
<path d="M205.316 104.641L201.712 107.779C201.656 107.829 201.612 107.889 201.582 107.957C201.551 108.026 201.536 108.099 201.536 108.174V113.507C201.535 113.553 201.543 113.598 201.561 113.641C201.578 113.683 201.604 113.722 201.636 113.754C201.669 113.787 201.707 113.812 201.75 113.83C201.792 113.847 201.838 113.856 201.884 113.855H204.039C204.085 113.856 204.13 113.847 204.173 113.83C204.216 113.813 204.255 113.787 204.288 113.755C204.321 113.722 204.347 113.684 204.365 113.641C204.383 113.599 204.391 113.553 204.391 113.507V110.722C204.393 110.63 204.43 110.542 204.495 110.477C204.56 110.412 204.648 110.375 204.74 110.374H206.597C206.69 110.374 206.779 110.411 206.845 110.476C206.911 110.541 206.949 110.629 206.95 110.722V113.507C206.95 113.553 206.958 113.599 206.975 113.642C206.993 113.684 207.018 113.723 207.05 113.756C207.083 113.789 207.121 113.815 207.164 113.833C207.207 113.851 207.252 113.86 207.298 113.86H209.453C209.547 113.86 209.637 113.823 209.703 113.756C209.769 113.69 209.806 113.601 209.806 113.507V108.174C209.807 108.099 209.791 108.024 209.76 107.956C209.728 107.888 209.683 107.827 209.625 107.779L206.026 104.641C205.929 104.553 205.802 104.505 205.671 104.505C205.539 104.505 205.413 104.553 205.316 104.641Z" stroke="white" stroke-width="1.64" stroke-miterlimit="10"/>
<path d="M216.182 368.734H207.517C207.457 368.718 207.405 368.683 207.367 368.634C207.33 368.586 207.31 368.526 207.31 368.464C207.31 368.403 207.33 368.343 207.367 368.295C207.405 368.246 207.457 368.211 207.517 368.195H216.182C216.241 368.211 216.294 368.246 216.331 368.295C216.369 368.343 216.39 368.403 216.39 368.464C216.39 368.526 216.369 368.586 216.331 368.634C216.294 368.683 216.241 368.718 216.182 368.734Z" fill="white" stroke="white" stroke-width="0.4" stroke-miterlimit="10"/>
<path d="M216.182 371.658H207.517C207.454 371.65 207.397 371.618 207.358 371.568C207.319 371.519 207.301 371.456 207.308 371.393C207.301 371.33 207.319 371.267 207.358 371.217C207.397 371.166 207.454 371.133 207.517 371.124H216.182C216.241 371.14 216.294 371.175 216.331 371.223C216.369 371.272 216.389 371.332 216.389 371.393C216.389 371.455 216.369 371.515 216.331 371.563C216.294 371.612 216.241 371.647 216.182 371.663V371.658Z" fill="white" stroke="white" stroke-width="0.4" stroke-miterlimit="10"/>
<path d="M216.182 374.578H207.517C207.456 374.564 207.402 374.53 207.363 374.481C207.325 374.433 207.304 374.373 207.304 374.311C207.304 374.249 207.325 374.189 207.363 374.14C207.402 374.092 207.456 374.058 207.517 374.044H216.182C216.245 374.053 216.302 374.086 216.341 374.136C216.379 374.187 216.397 374.25 216.391 374.313C216.397 374.376 216.379 374.438 216.34 374.488C216.301 374.537 216.244 374.57 216.182 374.578Z" fill="white" stroke="white" stroke-width="0.4" stroke-miterlimit="10"/>
<path d="M305.198 367.843L309.87 371.017L305.198 374.94" stroke="white" stroke-width="1.61" stroke-miterlimit="10" stroke-linecap="round"/>
<path d="M261.951 369.894V375.497H254.479V369.894" stroke="white" stroke-width="1.61" stroke-miterlimit="10" stroke-linecap="round"/>
<path d="M253.355 370.641L258.212 367.281L263.07 370.641" stroke="white" stroke-width="1.61" stroke-miterlimit="10" stroke-linecap="round"/>
<path d="M302.263 90.7582L301.98 91.0413L301.817 91.2038C301.457 90.8418 301.029 90.5544 300.558 90.3586C300.087 90.1627 299.581 90.0615 299.07 90.0615C298.56 90.0615 298.054 90.1627 297.583 90.3586C297.112 90.5544 296.684 90.8418 296.324 91.2038L296.17 91.046L295.887 90.7629L296.245 90.4472C296.502 90.2374 296.782 90.0582 297.081 89.9134C297.431 89.7417 297.803 89.6168 298.186 89.5421C298.367 89.5096 298.553 89.491 298.738 89.4725C298.799 89.4725 299.203 89.4725 299.203 89.4725L299.579 89.5003C299.925 89.5388 300.265 89.6201 300.591 89.7417C300.828 89.8303 301.058 89.9376 301.279 90.062C301.509 90.1956 301.727 90.3511 301.929 90.5261C302.036 90.6143 302.133 90.7071 302.231 90.7953L302.263 90.7582Z" fill="white"/>
<path d="M297.22 92.095C297.067 91.9465 296.918 91.8026 296.756 91.6308C297.365 91.0242 298.19 90.6835 299.05 90.6835C299.91 90.6835 300.734 91.0242 301.344 91.6308L300.879 92.095C300.391 91.6072 299.729 91.3333 299.038 91.3333C298.347 91.3333 297.685 91.6072 297.197 92.095H297.22Z" fill="white"/>
<path d="M300.471 92.5267L300.006 92.9909C299.883 92.866 299.736 92.7667 299.573 92.6989C299.411 92.6311 299.237 92.5963 299.061 92.5963C298.885 92.5963 298.711 92.6311 298.549 92.6989C298.387 92.7667 298.24 92.866 298.116 92.9909L297.652 92.5267C297.834 92.3369 298.053 92.186 298.295 92.083C298.537 91.9799 298.798 91.927 299.061 91.927C299.325 91.927 299.585 91.9799 299.827 92.083C300.069 92.186 300.288 92.3369 300.471 92.5267Z" fill="white"/>
<path d="M299.477 93.3993C299.477 93.4805 299.452 93.5599 299.407 93.6272C299.362 93.6945 299.298 93.747 299.222 93.7776C299.147 93.8082 299.065 93.8157 298.985 93.7989C298.905 93.7827 298.832 93.7428 298.776 93.6848C298.719 93.6267 298.681 93.5529 298.666 93.4731C298.651 93.3933 298.661 93.3111 298.693 93.2364C298.726 93.1621 298.779 93.099 298.848 93.0554C298.916 93.0113 298.996 92.989 299.078 92.9908C299.13 92.9913 299.183 93.0024 299.232 93.0233C299.28 93.0442 299.325 93.0744 299.362 93.1124C299.399 93.1505 299.428 93.1951 299.448 93.2443C299.468 93.2935 299.477 93.3464 299.477 93.3993Z" fill="white"/>
<path d="M199.734 91.5984C199.734 91.3663 199.803 91.1388 199.932 90.9457C200.061 90.7526 200.245 90.6023 200.459 90.5136C200.674 90.4245 200.91 90.4013 201.138 90.4468C201.366 90.4918 201.575 90.6036 201.739 90.768C201.904 90.9323 202.016 91.1416 202.061 91.3691C202.106 91.597 202.083 91.8332 201.994 92.0477C201.905 92.2621 201.755 92.4459 201.562 92.575C201.368 92.704 201.141 92.7727 200.909 92.7727C200.597 92.7727 200.298 92.6488 200.078 92.4288C199.858 92.2087 199.734 91.9098 199.734 91.5984Z" fill="white"/>
<path d="M203.416 91.5984C203.416 91.3663 203.485 91.1388 203.614 90.9457C203.743 90.7526 203.927 90.6023 204.142 90.5136C204.356 90.4245 204.593 90.4013 204.821 90.4468C205.048 90.4918 205.257 90.6036 205.422 90.768C205.586 90.9323 205.698 91.1416 205.743 91.3691C205.789 91.597 205.766 91.8332 205.676 92.0477C205.588 92.2621 205.437 92.4459 205.244 92.575C205.051 92.704 204.823 92.7727 204.591 92.7727C204.28 92.7727 203.98 92.6488 203.76 92.4288C203.54 92.2087 203.416 91.9098 203.416 91.5984Z" fill="white"/>
<path d="M207.131 91.5984C207.131 91.3663 207.2 91.1388 207.329 90.9457C207.458 90.7526 207.642 90.6023 207.857 90.5136C208.071 90.4245 208.307 90.4013 208.535 90.4468C208.763 90.4918 208.972 90.6036 209.137 90.768C209.301 90.9323 209.413 91.1416 209.458 91.3691C209.504 91.597 209.481 91.8332 209.391 92.0477C209.303 92.2621 209.152 92.4459 208.959 92.575C208.766 92.704 208.538 92.7727 208.306 92.7727C207.995 92.7727 207.695 92.6488 207.475 92.4288C207.255 92.2087 207.131 91.9098 207.131 91.5984Z" fill="white"/>
<path d="M210.846 91.5984C210.846 91.3663 210.915 91.1388 211.044 90.9457C211.173 90.7526 211.357 90.6023 211.572 90.5136C211.786 90.4245 212.023 90.4013 212.251 90.4468C212.478 90.4918 212.687 90.6036 212.852 90.768C213.016 90.9323 213.128 91.1416 213.173 91.3691C213.219 91.597 213.196 91.8332 213.106 92.0477C213.018 92.2621 212.867 92.4459 212.674 92.575C212.481 92.704 212.253 92.7727 212.021 92.7727C211.71 92.7727 211.41 92.6488 211.19 92.4288C210.97 92.2087 210.846 91.9098 210.846 91.5984Z" fill="white"/>
<path d="M320.439 93.7613H312.972V90.3033H320.439V93.7613ZM313.348 93.3854H320.063V90.67H313.348V93.3854Z" fill="white"/>
<path d="M318.409 90.8882H313.589V93.1719H318.409V90.8882Z" fill="white"/>
<path d="M321.112 91.1063H320.448V92.9583H321.112V91.1063Z" fill="white"/>
<path d="M283.665 107.575H233.536C232.702 107.575 232.026 108.25 232.026 109.083V109.283C232.026 110.116 232.702 110.792 233.536 110.792H283.665C284.498 110.792 285.174 110.116 285.174 109.283V109.083C285.174 108.25 284.498 107.575 283.665 107.575Z" fill="white"/>
<path d="M259.081 231.48C281.727 231.48 300.085 213.13 300.085 190.494C300.085 167.858 281.727 149.508 259.081 149.508C236.435 149.508 218.077 167.858 218.077 190.494C218.077 213.13 236.435 231.48 259.081 231.48Z" fill="white"/>
<path d="M292.302 214.361L271.034 207.928H270.987V207.956L269.641 207.366L267.867 207.756L256.661 208.053L251.711 207.064L250.318 206.6V206.637L232.672 211.678C232.207 211.804 231.771 211.906 231.316 212.003C229.398 212.464 227.573 213.249 225.92 214.324C229.718 219.564 234.704 223.831 240.47 226.774C246.236 229.718 252.617 231.254 259.091 231.257C265.565 231.261 271.948 229.731 277.717 226.793C283.485 223.855 288.476 219.593 292.279 214.356L292.302 214.361ZM270.987 207.974C270.987 207.974 270.987 208.035 270.987 208.076V207.974Z" fill="#3B82F6"/>
<path d="M250.318 187.978L250.448 205.807C250.444 206.243 250.581 206.67 250.838 207.023L251.015 207.324C252.034 208.845 253.361 210.134 254.91 211.11C256.459 212.085 258.196 212.724 260.008 212.987C261.82 213.249 263.667 213.129 265.429 212.633C267.192 212.138 268.83 211.278 270.24 210.109C270.538 209.859 270.766 209.536 270.903 209.172C271.039 208.808 271.08 208.414 271.02 208.03L267.769 186.562L250.318 187.978Z" fill="#FC9D9D"/>
<path d="M269.687 179.149C269.687 179.149 273.24 202.604 260.293 203.56C247.648 204.488 247.258 180.793 247.258 180.793L246.914 173.997L263.195 171.143L267.31 173.264L269.687 179.149Z" fill="#FC9D9D"/>
<path opacity="0.15" d="M269.994 201.606L269.065 195.159C267.895 199.336 265.471 202.776 261.226 203.467H261.268L260.339 203.597C256.963 203.857 254.149 202.297 252.027 198.955C251.981 198.908 251.92 198.879 251.854 198.871C251.789 198.864 251.723 198.881 251.668 198.917C251.613 198.953 251.572 199.007 251.553 199.071C251.534 199.133 251.537 199.201 251.563 199.262C253.81 202.808 256.801 204.451 260.386 204.191C261.136 204.141 261.877 203.996 262.592 203.76C265.245 204.026 267.898 203.254 269.994 201.606Z" fill="black"/>
<path d="M266.613 173.909C266.613 173.909 270.727 171.184 272.678 175.859C274.322 179.799 271.549 184.084 271.549 184.084L269.172 183.824C268.173 183.777 267.481 183.304 267.393 182.352L266.613 173.909Z" fill="#495057"/>
<path d="M269.562 171.054C269.905 175.51 266.098 176.68 264.537 176.81L251.762 177.892C251.262 177.939 250.798 178.177 250.468 178.556C250.138 178.935 249.966 179.427 249.988 179.929L250.207 183.995C250.228 184.266 250.143 184.535 249.969 184.745C249.796 184.954 249.548 185.088 249.278 185.119L248.498 185.207L247.648 186.288C242.628 185.077 240.548 170.836 249.77 167.982C250.262 167.824 250.718 167.57 251.112 167.236C251.506 166.901 251.829 166.492 252.064 166.032C253.411 163.247 258.909 162.528 261.677 165.642C261.946 165.963 262.286 166.215 262.669 166.382C263.053 166.547 263.47 166.622 263.887 166.598C267.221 166.51 269.385 168.59 269.562 171.054Z" fill="#495057"/>
<path d="M248.558 186.59C248.521 186.213 248.381 185.852 248.155 185.547C247.929 185.242 247.625 185.004 247.275 184.858C246.924 184.712 246.541 184.663 246.165 184.717C245.789 184.771 245.435 184.926 245.14 185.165L245.094 185.207C242.888 187.11 244.314 193.098 249.166 192.564L248.558 186.59Z" fill="#FC9D9D"/>
<path d="M272.678 183.434L272.636 183.387C272.309 183.198 271.938 183.1 271.561 183.104C271.183 183.107 270.814 183.212 270.491 183.407C270.168 183.602 269.903 183.88 269.724 184.212C269.545 184.544 269.458 184.918 269.474 185.295L269.734 191.009C274.624 190.832 275.102 184.989 272.678 183.434Z" fill="#FC9D9D"/>
<path d="M249.166 187.328C249.174 187.477 249.125 187.623 249.028 187.736C248.931 187.849 248.795 187.921 248.646 187.936C248.503 187.956 248.358 187.922 248.239 187.841C248.119 187.761 248.032 187.64 247.996 187.5L247.434 183.647L249.036 183.694L249.166 187.328Z" fill="#495057"/>
<path d="M270.467 185.768C270.479 185.918 270.431 186.066 270.333 186.18C270.236 186.294 270.097 186.364 269.947 186.377C269.806 186.397 269.661 186.364 269.542 186.285C269.423 186.205 269.337 186.084 269.302 185.945L268.735 182.092L270.337 182.134L270.467 185.768Z" fill="#495057"/>
<path d="M264.625 177.372C264.41 177.4 264.191 177.4 263.975 177.372C263.935 177.373 263.896 177.366 263.859 177.351C263.823 177.336 263.79 177.313 263.762 177.284C263.734 177.256 263.713 177.222 263.7 177.184C263.687 177.147 263.681 177.107 263.684 177.068C263.687 177.028 263.698 176.99 263.717 176.955C263.736 176.92 263.762 176.889 263.793 176.865C263.824 176.841 263.861 176.823 263.899 176.814C263.938 176.804 263.978 176.803 264.017 176.81C264.059 176.81 266.613 176.94 267.7 175.25C267.719 175.219 267.744 175.192 267.774 175.171C267.805 175.15 267.839 175.134 267.874 175.127C267.91 175.119 267.948 175.119 267.984 175.126C268.02 175.132 268.054 175.147 268.085 175.167C268.117 175.186 268.145 175.212 268.166 175.242C268.188 175.272 268.203 175.307 268.211 175.343C268.22 175.38 268.221 175.417 268.214 175.454C268.208 175.49 268.194 175.526 268.173 175.557C267.221 177.005 265.531 177.33 264.625 177.372Z" fill="#FC9D9D"/>
<path d="M255.013 189.923C255.235 189.922 255.452 189.855 255.636 189.731C255.82 189.607 255.964 189.432 256.048 189.226C256.132 189.021 256.153 188.795 256.11 188.578C256.066 188.36 255.958 188.16 255.801 188.003C255.644 187.847 255.443 187.74 255.226 187.698C255.008 187.654 254.782 187.677 254.577 187.762C254.372 187.847 254.197 187.991 254.074 188.176C253.95 188.36 253.885 188.578 253.885 188.799C253.885 188.948 253.914 189.094 253.97 189.23C254.027 189.367 254.11 189.491 254.215 189.596C254.32 189.7 254.445 189.783 254.582 189.839C254.718 189.895 254.865 189.923 255.013 189.923Z" fill="black"/>
<path d="M254.497 188.929C254.567 188.929 254.633 188.902 254.681 188.853C254.73 188.805 254.758 188.739 254.758 188.669C254.758 188.6 254.73 188.534 254.681 188.486C254.633 188.437 254.567 188.41 254.497 188.41C254.429 188.41 254.362 188.437 254.314 188.486C254.265 188.534 254.237 188.6 254.237 188.669C254.237 188.739 254.265 188.805 254.314 188.853C254.362 188.902 254.429 188.929 254.497 188.929Z" fill="white"/>
<path d="M263.669 189.278C263.892 189.278 264.111 189.213 264.297 189.09C264.483 188.967 264.629 188.791 264.715 188.585C264.801 188.378 264.824 188.151 264.781 187.932C264.738 187.713 264.631 187.512 264.473 187.354C264.315 187.195 264.114 187.088 263.896 187.043C263.676 187 263.449 187.022 263.243 187.107C263.036 187.192 262.86 187.337 262.736 187.523C262.612 187.708 262.545 187.926 262.545 188.15C262.545 188.448 262.664 188.734 262.874 188.946C263.085 189.157 263.37 189.276 263.669 189.278Z" fill="black"/>
<path d="M263.153 188.321C263.205 188.321 263.255 188.306 263.298 188.278C263.341 188.249 263.374 188.209 263.394 188.161C263.414 188.113 263.419 188.061 263.408 188.011C263.399 187.96 263.374 187.914 263.337 187.878C263.301 187.841 263.255 187.816 263.204 187.807C263.154 187.796 263.101 187.802 263.054 187.821C263.006 187.841 262.966 187.874 262.937 187.917C262.909 187.96 262.893 188.01 262.893 188.061C262.893 188.131 262.921 188.197 262.97 188.245C263.018 188.294 263.085 188.321 263.153 188.321Z" fill="white"/>
<path opacity="0.3" d="M259.903 194.123L260.832 194.035C260.918 194.03 260.998 193.99 261.055 193.925C261.113 193.86 261.141 193.776 261.136 193.689C261.13 193.603 261.091 193.523 261.026 193.466C260.961 193.409 260.876 193.38 260.79 193.385L259.861 193.474C259.77 193.479 259.678 193.467 259.591 193.437C259.504 193.408 259.425 193.361 259.356 193.301C259.287 193.24 259.231 193.167 259.19 193.085C259.15 193.003 259.126 192.913 259.12 192.821C259.115 192.73 259.127 192.638 259.157 192.552C259.186 192.465 259.233 192.385 259.293 192.316C259.354 192.247 259.427 192.191 259.51 192.151C259.592 192.111 259.681 192.087 259.773 192.081C259.816 192.078 259.857 192.067 259.896 192.048C259.934 192.03 259.968 192.003 259.997 191.971C260.025 191.939 260.046 191.901 260.06 191.861C260.074 191.821 260.08 191.778 260.077 191.735C260.074 191.693 260.063 191.651 260.044 191.612C260.025 191.574 259.999 191.54 259.967 191.512C259.935 191.483 259.898 191.462 259.857 191.448C259.816 191.434 259.774 191.429 259.731 191.431C259.556 191.441 259.385 191.485 259.228 191.563C259.071 191.64 258.931 191.749 258.818 191.882C258.704 192.016 258.619 192.171 258.568 192.339C258.517 192.506 258.5 192.682 258.519 192.856C258.518 193.033 258.553 193.208 258.624 193.371C258.695 193.533 258.799 193.678 258.929 193.798C259.06 193.917 259.214 194.008 259.381 194.064C259.549 194.12 259.727 194.14 259.903 194.123Z" fill="black"/>
<path d="M266.789 185.165L261.895 185.425L261.245 185.467L256.959 185.727H256.917L251.419 186.028C251.205 186.041 250.995 186.096 250.803 186.189C250.61 186.284 250.438 186.415 250.297 186.576C250.156 186.737 250.048 186.925 249.98 187.128C249.911 187.331 249.884 187.546 249.9 187.76L249.988 189.018C250.071 190.167 250.603 191.237 251.467 192C252.332 192.762 253.46 193.155 254.612 193.094C255.762 193.033 256.844 192.523 257.623 191.675C258.402 190.826 258.818 189.705 258.779 188.553L258.691 187.3C258.669 186.956 258.532 186.629 258.301 186.372L259.991 186.284C259.796 186.577 259.705 186.926 259.731 187.277L259.819 188.535C259.85 189.111 259.994 189.676 260.243 190.198C260.492 190.719 260.841 191.186 261.27 191.572C261.699 191.958 262.201 192.256 262.746 192.448C263.29 192.641 263.868 192.724 264.444 192.694C265.022 192.663 265.587 192.52 266.108 192.271C266.629 192.022 267.096 191.673 267.483 191.244C267.869 190.814 268.167 190.313 268.36 189.769C268.552 189.224 268.636 188.647 268.605 188.071L268.522 186.817C268.526 186.592 268.484 186.369 268.397 186.162C268.31 185.954 268.182 185.766 268.019 185.611C267.856 185.456 267.663 185.336 267.451 185.259C267.239 185.182 267.014 185.15 266.789 185.165ZM258.041 187.286L258.129 188.54C258.157 189.027 258.089 189.516 257.929 189.977C257.769 190.438 257.519 190.864 257.194 191.228C256.869 191.593 256.475 191.891 256.035 192.103C255.595 192.316 255.118 192.44 254.63 192.469C254.142 192.497 253.653 192.429 253.192 192.269C252.73 192.108 252.305 191.858 251.94 191.534C251.575 191.209 251.277 190.815 251.064 190.376C250.852 189.936 250.727 189.459 250.699 188.971L250.611 187.718C250.6 187.458 250.691 187.205 250.865 187.011C251.038 186.817 251.28 186.697 251.539 186.678L257.038 186.377H257.084C257.207 186.373 257.329 186.394 257.444 186.437C257.559 186.481 257.664 186.547 257.752 186.632C257.841 186.716 257.912 186.818 257.962 186.93C258.012 187.043 258.038 187.164 258.041 187.286ZM267.964 187.978C268.022 188.963 267.685 189.93 267.029 190.667C266.373 191.404 265.451 191.85 264.465 191.907C263.48 191.964 262.513 191.628 261.775 190.972C261.038 190.316 260.592 189.395 260.534 188.41L260.446 187.156C260.436 186.896 260.527 186.643 260.7 186.449C260.873 186.255 261.115 186.136 261.375 186.117L262.025 186.075L266.915 185.815C267.172 185.803 267.423 185.891 267.617 186.059C267.81 186.227 267.931 186.464 267.955 186.72L267.964 187.978Z" fill="#495057"/>
<path d="M257.131 195.897L262.633 195.507C262.665 195.506 262.698 195.513 262.727 195.526C262.757 195.54 262.783 195.56 262.803 195.585C262.824 195.61 262.839 195.639 262.846 195.671C262.853 195.702 262.854 195.735 262.847 195.767C262.676 196.383 262.319 196.933 261.826 197.341C261.332 197.748 260.724 197.994 260.086 198.045C259.448 198.095 258.809 197.949 258.257 197.624C257.705 197.3 257.266 196.813 257 196.231V196.184C256.984 196.158 256.974 196.128 256.972 196.097C256.97 196.066 256.976 196.034 256.989 196.006C257.001 195.977 257.021 195.953 257.046 195.934C257.071 195.915 257.099 195.902 257.131 195.897Z" fill="white"/>
<path opacity="0.3" d="M247.346 189.709C247.263 189.705 247.184 189.674 247.121 189.618C247.059 189.563 247.017 189.489 247.002 189.408L246.914 188.711C246.898 188.151 246.683 187.614 246.305 187.198C246.235 187.135 246.153 187.087 246.064 187.058C245.974 187.028 245.88 187.018 245.786 187.026C245.7 187.042 245.612 187.023 245.54 186.974C245.468 186.926 245.418 186.851 245.4 186.766C245.382 186.681 245.399 186.592 245.447 186.519C245.495 186.446 245.57 186.394 245.656 186.377C246.022 186.334 246.392 186.427 246.696 186.636C246.967 186.883 247.184 187.184 247.333 187.518C247.483 187.853 247.561 188.215 247.564 188.581L247.648 189.278C247.651 189.373 247.624 189.466 247.569 189.544C247.515 189.622 247.436 189.68 247.346 189.709Z" fill="black"/>
<path opacity="0.3" d="M271.164 187.936C271.249 187.927 271.327 187.886 271.383 187.821C271.439 187.756 271.469 187.673 271.466 187.588V186.896C271.417 186.623 271.426 186.344 271.494 186.075C271.561 185.806 271.684 185.554 271.856 185.337C271.917 185.257 271.996 185.192 272.086 185.147C272.176 185.102 272.275 185.078 272.376 185.077C272.459 185.073 272.538 185.041 272.6 184.986C272.663 184.931 272.705 184.857 272.72 184.775C272.716 184.692 272.684 184.612 272.629 184.549C272.574 184.485 272.5 184.443 272.418 184.427C272.238 184.431 272.061 184.472 271.898 184.546C271.734 184.62 271.587 184.726 271.466 184.859C271.034 185.295 270.857 185.987 270.904 186.938V187.63C270.816 187.806 270.946 187.936 271.164 187.936Z" fill="black"/>
<path d="M259.081 235.439C250.188 235.439 241.494 232.803 234.099 227.864C226.705 222.925 220.942 215.906 217.538 207.693C214.135 199.481 213.244 190.444 214.98 181.725C216.715 173.007 220.997 164.998 227.286 158.713C233.574 152.427 241.586 148.146 250.308 146.412C259.031 144.678 268.072 145.568 276.288 148.97C284.505 152.372 291.527 158.132 296.468 165.523C301.409 172.915 304.046 181.604 304.046 190.494C304.033 202.41 299.291 213.834 290.861 222.26C282.432 230.686 271.002 235.425 259.081 235.439ZM259.081 146.556C250.387 146.555 241.887 149.131 234.658 153.958C227.429 158.786 221.794 165.648 218.466 173.676C215.138 181.705 214.267 190.539 215.963 199.063C217.658 207.586 221.845 215.416 227.992 221.561C234.139 227.706 241.972 231.891 250.499 233.587C259.026 235.283 267.865 234.413 275.897 231.087C283.93 227.762 290.795 222.13 295.625 214.905C300.456 207.679 303.034 199.184 303.034 190.494C303.021 178.845 298.386 167.678 290.146 159.441C281.906 151.204 270.734 146.571 259.081 146.556ZM259.081 231.907C250.887 231.907 242.876 229.478 236.063 224.927C229.249 220.377 223.939 213.909 220.803 206.342C217.668 198.774 216.847 190.448 218.445 182.414C220.044 174.381 223.99 167.002 229.784 161.21C235.579 155.418 242.961 151.474 250.998 149.876C259.035 148.279 267.365 149.099 274.936 152.233C282.507 155.367 288.977 160.676 293.53 167.486C298.082 174.296 300.512 182.303 300.512 190.494C300.499 201.473 296.13 211.999 288.363 219.762C280.595 227.526 270.065 231.893 259.081 231.907ZM259.081 150.093C251.09 150.093 243.28 152.461 236.635 156.898C229.992 161.336 224.813 167.642 221.756 175.022C218.698 182.4 217.898 190.52 219.457 198.353C221.016 206.187 224.863 213.382 230.514 219.03C236.164 224.677 243.362 228.523 251.199 230.082C259.036 231.64 267.159 230.84 274.542 227.784C281.924 224.727 288.233 219.551 292.673 212.911C297.112 206.27 299.482 198.462 299.482 190.475C299.468 179.768 295.207 169.504 287.634 161.932C280.061 154.36 269.793 150.099 259.081 150.083V150.093Z" fill="#3B82F6"/>
<path d="M307.668 257.997H210.493C210.251 257.986 210.021 257.885 209.849 257.713C209.677 257.541 209.576 257.312 209.565 257.069V251.035C209.576 250.792 209.677 250.563 209.849 250.391C210.021 250.219 210.251 250.118 210.493 250.107H307.668C307.911 250.118 308.141 250.219 308.313 250.391C308.484 250.563 308.586 250.792 308.597 251.035V257.069C308.597 257.315 308.5 257.551 308.325 257.725C308.151 257.899 307.915 257.997 307.668 257.997Z" fill="white"/>
<path d="M307.668 274.707H210.493C210.251 274.696 210.021 274.595 209.849 274.423C209.677 274.251 209.576 274.022 209.565 273.779V267.745C209.576 267.502 209.677 267.273 209.849 267.101C210.021 266.929 210.251 266.828 210.493 266.817H307.668C307.911 266.828 308.141 266.929 308.313 267.101C308.484 267.273 308.586 267.502 308.597 267.745V273.779C308.597 274.025 308.5 274.261 308.325 274.435C308.151 274.609 307.915 274.707 307.668 274.707Z" fill="white"/>
<path d="M284.218 300.218H233.958C233.199 300.217 232.47 299.915 231.934 299.378C231.396 298.841 231.094 298.114 231.093 297.354V289.157C231.093 288.398 231.395 287.669 231.932 287.132C232.469 286.595 233.198 286.293 233.958 286.293H284.218C284.977 286.293 285.706 286.595 286.243 287.132C286.781 287.669 287.083 288.398 287.083 289.157V297.354C287.087 297.732 287.016 298.106 286.873 298.455C286.731 298.805 286.52 299.122 286.253 299.389C285.986 299.656 285.669 299.867 285.319 300.009C284.969 300.151 284.595 300.222 284.218 300.218Z" fill="#195DBB"/>
<path d="M232.542 335.323C230.154 335.323 227.865 334.376 226.177 332.688C224.488 331.002 223.539 328.714 223.538 326.327C223.538 323.94 224.486 321.651 226.175 319.963C227.864 318.276 230.154 317.327 232.542 317.327C234.929 317.329 237.218 318.277 238.906 319.965C240.594 321.653 241.541 323.941 241.541 326.327C241.541 328.713 240.593 331.001 238.906 332.688C237.218 334.375 234.929 335.323 232.542 335.323Z" fill="white"/>
<path d="M231.167 331.763H233.359V326.281H234.887L235.054 324.424H233.359V323.38C233.359 322.948 233.447 322.777 233.865 322.777H235.054V320.897H233.536C231.906 320.897 231.167 321.616 231.167 322.99V324.452H230.03V326.309H231.167V331.763Z" fill="#195DBB"/>
<path d="M260.191 335.323C257.804 335.323 255.515 334.375 253.827 332.688C252.139 331.001 251.191 328.713 251.191 326.327C251.191 323.941 252.139 321.653 253.827 319.965C255.515 318.277 257.803 317.329 260.191 317.327C262.579 317.327 264.869 318.276 266.558 319.963C268.246 321.651 269.195 323.94 269.195 326.327C269.194 328.714 268.244 331.002 266.556 332.688C264.867 334.376 262.578 335.323 260.191 335.323Z" fill="white"/>
<path d="M260.191 322.531C261.426 322.531 261.584 322.531 262.048 322.558C262.342 322.563 262.632 322.618 262.907 322.721C263.108 322.796 263.29 322.913 263.441 323.064C263.593 323.216 263.71 323.398 263.785 323.598C263.888 323.873 263.943 324.164 263.947 324.457C263.947 324.944 263.975 325.093 263.975 326.314C263.975 327.534 263.975 327.706 263.947 328.17C263.943 328.464 263.888 328.754 263.785 329.029C263.708 329.228 263.59 329.409 263.439 329.56C263.288 329.711 263.107 329.829 262.907 329.906C262.633 330.009 262.342 330.063 262.048 330.064C261.584 330.087 261.412 330.092 260.191 330.092C258.969 330.092 258.798 330.092 258.333 330.064C258.04 330.063 257.749 330.009 257.474 329.906C257.273 329.831 257.091 329.712 256.94 329.558C256.789 329.408 256.672 329.228 256.596 329.029C256.493 328.754 256.44 328.464 256.439 328.17C256.439 327.678 256.411 327.534 256.411 326.314C256.411 325.093 256.411 324.921 256.439 324.457C256.44 324.164 256.493 323.873 256.596 323.598C256.671 323.396 256.79 323.214 256.945 323.064C257.094 322.911 257.274 322.792 257.474 322.716C257.75 322.618 258.04 322.564 258.333 322.558C258.798 322.535 258.969 322.531 260.191 322.531ZM260.191 321.7C258.932 321.7 258.798 321.7 258.282 321.728C257.898 321.733 257.518 321.805 257.158 321.941C256.856 322.059 256.582 322.241 256.355 322.475C256.117 322.705 255.934 322.985 255.821 323.296C255.684 323.656 255.61 324.035 255.603 324.42C255.579 324.912 255.575 325.07 255.575 326.327C255.575 327.585 255.575 327.72 255.603 328.235C255.612 328.619 255.684 328.998 255.816 329.358C255.935 329.668 256.119 329.948 256.355 330.18C256.586 330.417 256.867 330.599 257.177 330.714C257.536 330.85 257.917 330.924 258.301 330.932C258.793 330.932 258.951 330.96 260.209 330.96C261.468 330.96 261.602 330.96 262.118 330.932C262.502 330.924 262.883 330.85 263.242 330.714C263.552 330.599 263.833 330.417 264.064 330.18C264.298 329.948 264.48 329.67 264.598 329.363C264.73 329.003 264.802 328.623 264.811 328.24C264.834 327.743 264.839 327.59 264.839 326.332C264.839 325.074 264.839 324.916 264.811 324.424C264.805 324.04 264.732 323.661 264.598 323.301C264.48 322.992 264.298 322.712 264.064 322.48C263.831 322.245 263.55 322.063 263.242 321.946C262.882 321.811 262.502 321.739 262.118 321.732C261.626 321.732 261.468 321.704 260.209 321.704" fill="#195DBB"/>
<path d="M260.191 323.951C259.72 323.951 259.261 324.09 258.87 324.351C258.479 324.612 258.174 324.984 257.994 325.418C257.814 325.852 257.767 326.33 257.859 326.791C257.951 327.252 258.177 327.675 258.509 328.008C258.842 328.34 259.266 328.567 259.727 328.658C260.188 328.75 260.666 328.703 261.1 328.523C261.535 328.343 261.906 328.038 262.168 327.648C262.429 327.257 262.568 326.798 262.568 326.327C262.568 325.697 262.318 325.093 261.872 324.647C261.426 324.201 260.821 323.951 260.191 323.951ZM260.191 327.868C259.884 327.869 259.585 327.779 259.33 327.61C259.075 327.441 258.876 327.199 258.758 326.916C258.641 326.634 258.61 326.323 258.669 326.023C258.728 325.722 258.876 325.446 259.092 325.23C259.309 325.013 259.585 324.866 259.885 324.807C260.186 324.747 260.497 324.778 260.78 324.895C261.063 325.013 261.304 325.212 261.474 325.467C261.643 325.722 261.733 326.022 261.732 326.327C261.732 326.53 261.693 326.73 261.615 326.917C261.537 327.104 261.424 327.274 261.281 327.417C261.138 327.56 260.968 327.674 260.781 327.751C260.593 327.829 260.393 327.868 260.191 327.868Z" fill="#195DBB"/>
<path d="M263.219 323.858C263.219 323.968 263.186 324.076 263.125 324.168C263.063 324.259 262.976 324.331 262.874 324.373C262.773 324.415 262.661 324.426 262.553 324.404C262.444 324.383 262.345 324.33 262.267 324.252C262.189 324.174 262.136 324.075 262.115 323.967C262.093 323.859 262.104 323.747 262.146 323.645C262.189 323.543 262.26 323.456 262.352 323.395C262.443 323.334 262.551 323.301 262.661 323.301C262.735 323.301 262.807 323.314 262.875 323.342C262.943 323.37 263.005 323.411 263.056 323.463C263.108 323.515 263.149 323.576 263.177 323.644C263.205 323.712 263.219 323.785 263.219 323.858Z" fill="#195DBB"/>
<path d="M287.84 335.323C285.453 335.323 283.164 334.375 281.476 332.688C279.788 331.001 278.84 328.713 278.84 326.327C278.84 323.94 279.789 321.651 281.477 319.963C283.166 318.276 285.456 317.327 287.844 317.327C290.232 317.329 292.521 318.277 294.208 319.965C295.896 321.653 296.844 323.941 296.844 326.327C296.842 328.714 295.893 331.002 294.205 332.688C292.516 334.376 290.227 335.323 287.84 335.323Z" fill="white"/>
<path d="M282.471 329.716C283.44 330.335 284.56 330.676 285.709 330.702C286.858 330.728 287.992 330.437 288.987 329.862C289.982 329.287 290.8 328.45 291.351 327.442C291.902 326.434 292.165 325.293 292.112 324.146C292.545 323.834 292.917 323.448 293.212 323.004C292.81 323.184 292.383 323.301 291.945 323.352C292.407 323.08 292.752 322.647 292.915 322.136C292.484 322.391 292.013 322.572 291.522 322.67C291.19 322.316 290.75 322.081 290.271 322.003C289.792 321.924 289.301 322.005 288.872 322.234C288.445 322.463 288.104 322.827 287.904 323.269C287.704 323.711 287.655 324.207 287.765 324.68C286.888 324.633 286.03 324.402 285.247 324.002C284.465 323.602 283.776 323.042 283.224 322.359C282.943 322.843 282.857 323.417 282.984 323.963C283.11 324.508 283.441 324.985 283.906 325.297C283.557 325.286 283.214 325.192 282.908 325.023C282.901 325.536 283.075 326.036 283.398 326.436C283.721 326.835 284.173 327.109 284.677 327.209C284.352 327.297 284.01 327.309 283.679 327.246C283.82 327.685 284.095 328.068 284.465 328.342C284.834 328.617 285.28 328.769 285.741 328.778C285.284 329.142 284.761 329.412 284.2 329.573C283.639 329.733 283.051 329.782 282.471 329.716Z" fill="#195DBB"/>
<path d="M98.4164 355.918C94.7014 302.794 90.6196 299.29 90.4478 299.16L90.7078 298.696C90.8843 298.784 95.1704 301.411 98.969 355.899L98.4164 355.918Z" fill="#195DBB"/>
<path d="M102.252 355.918L101.704 355.881C104.142 317.072 101.491 295.906 101.463 295.697L102.006 295.627C102.034 295.836 104.695 317.049 102.252 355.918Z" fill="#195DBB"/>
<path d="M105.591 357.074C102.638 332.872 110.165 314.435 110.235 314.25L110.741 314.463C110.667 314.644 103.19 332.956 106.13 357.009L105.591 357.074Z" fill="#195DBB"/>
<path d="M108.684 360.031C107.453 351.391 107.52 342.615 108.883 333.995L109.422 334.098C108.07 342.656 108.004 351.369 109.227 359.947L108.684 360.031Z" fill="#195DBB"/>
<path d="M110.337 314.686L112.724 314.491C114.42 314.346 116.065 313.839 117.549 313.006C118.273 312.581 119.024 312.202 119.796 311.873C122.75 310.69 126.042 310.903 129.218 310.745C134.422 310.48 139.521 309.176 144.213 306.911C144.488 306.786 144.716 306.579 144.868 306.317C145.355 305.426 144.445 304.632 143.66 304.15C139.639 301.671 135.543 299.16 130.978 297.93C126.414 296.7 121.227 296.909 117.344 299.587C112.775 302.729 111.108 309.186 110.337 314.677" fill="#195DBB"/>
<g opacity="0.3">
<g opacity="0.3">
<path opacity="0.3" d="M144.905 306.043C144.765 305.993 144.63 305.929 144.501 305.853L143.368 305.264C142.388 304.748 140.976 303.987 139.189 303.128C137.109 302.109 134.942 301.274 132.715 300.636C129.993 299.855 127.142 299.625 124.329 299.958C121.512 300.271 118.851 301.413 116.685 303.24C114.992 304.807 113.637 306.702 112.701 308.81C112.051 310.231 111.473 311.684 110.968 313.164C110.792 313.66 110.653 314.064 110.546 314.366C110.502 314.508 110.446 314.646 110.379 314.779C110.396 314.631 110.43 314.487 110.481 314.347C110.578 314.036 110.699 313.632 110.852 313.122C111.313 311.623 111.862 310.152 112.496 308.717C113.415 306.555 114.775 304.609 116.49 303.003C118.693 301.124 121.409 299.947 124.287 299.624C127.154 299.284 130.061 299.529 132.831 300.343C135.074 300.998 137.251 301.86 139.333 302.92C141.111 303.801 142.509 304.595 143.475 305.148L144.58 305.793C144.712 305.86 144.836 305.941 144.951 306.034" fill="black"/>
</g>
</g>
<g opacity="0.3">
<g opacity="0.3">
<path opacity="0.3" d="M139.184 309.116C139.137 309.186 136.012 307.167 132.218 304.604C128.424 302.042 125.359 299.902 125.401 299.833C125.443 299.763 128.573 301.778 132.367 304.34C136.161 306.902 139.216 309.042 139.165 309.116" fill="black"/>
</g>
</g>
<g opacity="0.3">
<g opacity="0.3">
<path opacity="0.3" d="M135.854 299.666C135.122 299.917 134.354 300.055 133.579 300.074C132.808 300.181 132.026 300.172 131.257 300.046C132.013 299.907 132.778 299.827 133.546 299.81C134.316 299.702 135.092 299.654 135.868 299.666" fill="black"/>
</g>
</g>
<g opacity="0.3">
<g opacity="0.3">
<path opacity="0.3" d="M122.179 297.883C122.257 297.92 121.798 298.635 121.157 299.485C120.796 300.036 120.358 300.533 119.857 300.961C119.782 300.924 120.242 300.209 120.883 299.359C121.243 298.809 121.679 298.312 122.179 297.883Z" fill="black"/>
</g>
</g>
<g opacity="0.3">
<g opacity="0.3">
<path opacity="0.3" d="M124.979 310.954C124.452 310.732 123.947 310.459 123.474 310.137C122.573 309.59 121.352 308.791 120.052 307.844C118.751 306.897 117.6 305.988 116.773 305.352C116.308 305.021 115.874 304.648 115.478 304.238C115.981 304.504 116.46 304.815 116.908 305.166L120.237 307.584C121.538 308.513 122.731 309.353 123.599 309.947C124.091 310.242 124.557 310.577 124.993 310.95" fill="black"/>
</g>
</g>
<path d="M116.815 390.522H93.1736L88.776 358.1H121.217L116.815 390.522Z" fill="#495057"/>
<path d="M123.962 363.043H86.0269L85.4789 355.899H124.514L123.962 363.043Z" fill="#495057"/>
<path opacity="0.2" d="M89.4493 363.043H120.544L116.815 390.522L113.081 390.266L115.166 365.243L89.6862 364.811L89.4493 363.043Z" fill="black"/>
<g opacity="0.2">
<g opacity="0.2">
<path opacity="0.2" d="M115.844 355.951L114.739 363.043H123.962L124.514 355.899L115.844 355.951Z" fill="black"/>
</g>
</g>
<g opacity="0.2">
<g opacity="0.2">
<path opacity="0.2" d="M119.016 371.203H90.8889V371.751H119.016V371.203Z" fill="white"/>
</g>
</g>
<g opacity="0.2">
<g opacity="0.2">
<path opacity="0.2" d="M119.016 373.403H90.8889V373.951H119.016V373.403Z" fill="white"/>
</g>
</g>
<path d="M91.0932 298.914C88.8178 297.187 86.4123 296.848 83.5564 296.96C80.6996 297.149 77.9026 297.868 75.3091 299.081C70.8465 301.03 66.6532 303.908 63.9876 307.984C61.3221 312.059 60.398 317.453 62.3902 321.909C62.5471 322.373 62.8694 322.763 63.2957 323.004C63.7917 323.146 64.3225 323.105 64.791 322.888C69.862 321.236 74.9748 319.565 79.651 316.974C84.3273 314.384 88.5484 310.778 91.0375 306.067C91.6802 304.954 92.0879 303.722 92.2356 302.446C92.3066 301.808 92.2397 301.163 92.0396 300.554C91.839 299.944 91.5102 299.385 91.0746 298.914" fill="#195DBB"/>
<g opacity="0.3">
<g opacity="0.3">
<path opacity="0.3" d="M91.1397 298.375C91.024 298.44 90.9005 298.49 90.7728 298.524L89.7094 298.891L88.9385 299.146C88.6599 299.248 88.3627 299.373 88.0376 299.499C87.3968 299.759 86.6445 300.018 85.869 300.399L84.6245 300.965C84.1926 301.165 83.7607 301.43 83.3056 301.638C82.3769 302.103 81.4481 302.669 80.4637 303.254C76.2095 305.89 72.4258 309.218 69.2676 313.099C68.5617 314.004 67.8745 314.853 67.3079 315.707C67.02 316.13 66.7182 316.529 66.4674 316.928L65.7476 318.112C65.2833 318.84 64.9164 319.546 64.5774 320.149C64.4149 320.451 64.2523 320.734 64.113 320.994C63.9737 321.254 63.8669 321.505 63.7601 321.728L63.2586 322.735C63.2061 322.855 63.142 322.97 63.0682 323.078C63.1007 322.95 63.1457 322.826 63.2028 322.707C63.3189 322.442 63.4629 322.099 63.6672 321.672L63.9923 320.929C64.1223 320.66 64.2756 320.377 64.4334 320.066C64.7631 319.453 65.1021 318.734 65.5665 317.996L66.277 316.817C66.5231 316.408 66.8203 316.009 67.1036 315.577C67.6655 314.714 68.3528 313.851 69.0586 312.932C72.2099 309 76.0219 305.646 80.3244 303.022C81.3274 302.441 82.2701 301.87 83.1988 301.425C83.6632 301.197 84.0951 300.961 84.5316 300.761L85.7901 300.209C86.5888 299.842 87.3411 299.596 87.9912 299.35C88.3209 299.234 88.6227 299.113 88.9199 299.025L89.7001 298.793L90.7821 298.482C90.9075 298.442 91.0366 298.412 91.1675 298.394" fill="black"/>
</g>
</g>
<g opacity="0.3">
<g opacity="0.3">
<path opacity="0.3" d="M73.3587 307.997C73.382 308.081 70.9068 308.879 67.8234 309.78C64.7399 310.68 62.223 311.344 62.1998 311.261C62.1766 311.177 64.6517 310.379 67.7352 309.478C70.8186 308.578 73.3355 307.914 73.3587 307.997Z" fill="black"/>
</g>
</g>
<g opacity="0.3">
<g opacity="0.3">
<path opacity="0.3" d="M73.1312 320.21C73.0351 319.639 72.9947 319.061 73.0105 318.483C72.9826 317.42 72.978 315.944 73.0105 314.306C73.043 312.667 73.1405 311.21 73.2287 310.128C73.2459 309.55 73.3188 308.975 73.447 308.411C73.4985 308.985 73.4985 309.563 73.447 310.137C73.4145 311.307 73.368 312.727 73.3216 314.315C73.2752 315.902 73.2473 317.304 73.2148 318.469C73.2324 319.047 73.1981 319.624 73.1126 320.196" fill="black"/>
</g>
</g>
<g opacity="0.3">
<g opacity="0.3">
<path opacity="0.3" d="M83.6075 314.862C83.5239 314.862 83.2453 311.873 82.9899 308.174C82.7345 304.474 82.5952 301.476 82.6834 301.467C82.7716 301.457 83.0503 304.456 83.3057 308.155C83.5611 311.855 83.6818 314.862 83.6075 314.862Z" fill="black"/>
</g>
</g>
<g opacity="0.3">
<g opacity="0.3">
<path opacity="0.3" d="M70.5725 301.197C71.1604 301.122 71.7543 301.103 72.3464 301.142C73.4377 301.142 74.9516 301.184 76.6187 301.235C78.2858 301.286 79.795 301.36 80.8863 301.425C81.4784 301.427 82.069 301.484 82.6509 301.597C82.0635 301.666 81.4714 301.683 80.8816 301.648C79.7857 301.648 78.2765 301.611 76.6048 301.555C74.933 301.499 73.4284 301.43 72.3371 301.365C71.7451 301.36 71.1548 301.304 70.5725 301.197Z" fill="black"/>
</g>
</g>
<path d="M86.5191 287.356L83.6075 292.666C83.5425 292.791 83.4496 292.931 83.3103 292.94C83.171 292.949 83.041 292.805 82.9574 292.68L75.1977 280.779L76.9855 279.767L86.5191 287.356Z" fill="#195DBB"/>
<g opacity="0.2">
<g opacity="0.2">
<path opacity="0.2" d="M86.5191 287.356L83.6075 292.666C83.5425 292.791 83.4496 292.931 83.3103 292.94C83.171 292.949 83.041 292.805 82.9574 292.68L75.1977 280.779L76.9855 279.767L86.5191 287.356Z" fill="black"/>
</g>
</g>
<path d="M102.252 296.927L75.7828 281.322C75.5134 281.159 75.2162 280.974 75.1373 280.672C75.0305 280.277 75.323 279.901 75.6017 279.609C77.4197 277.719 79.6236 276.243 82.0639 275.282C84.5042 274.321 87.1233 273.897 89.7419 274.039C94.9568 274.415 99.9581 277.423 102.526 281.986C105.094 286.548 105.164 292.578 102.234 296.909" fill="#195DBB"/>
<g opacity="0.3">
<g opacity="0.3">
<path opacity="0.3" d="M79.6093 276.337C79.7221 276.311 79.8373 276.297 79.9529 276.295C80.1804 276.295 80.5194 276.244 80.9559 276.248C82.1851 276.229 83.4129 276.326 84.6245 276.536C88.6599 277.215 92.4172 279.035 95.4519 281.779C98.4866 284.524 100.672 288.079 101.751 292.025C102.081 293.211 102.3 294.424 102.405 295.651C102.433 295.906 102.447 296.164 102.447 296.421C102.425 296.626 102.355 296.824 102.243 296.997C102.325 296.556 102.339 296.105 102.285 295.66C102.131 294.452 101.881 293.258 101.537 292.09C100.426 288.209 98.2488 284.717 95.2531 282.01C92.257 279.302 88.5619 277.488 84.5873 276.773C83.3879 276.545 82.1717 276.415 80.9513 276.383C80.0876 276.383 79.6093 276.383 79.6093 276.351" fill="black"/>
</g>
</g>
<g opacity="0.3">
<g opacity="0.3">
<path opacity="0.3" d="M98.6718 286.154C98.2511 286.407 97.802 286.611 97.3344 286.762C96.4892 287.091 95.3144 287.518 93.9955 287.936C92.6767 288.354 91.4693 288.688 90.5917 288.902C90.1227 289.051 89.6378 289.143 89.1475 289.176C89.5951 288.975 90.0618 288.819 90.5406 288.711L93.9073 287.658L97.2601 286.548C97.7105 286.371 98.1768 286.24 98.6532 286.154" fill="black"/>
</g>
</g>
<g opacity="0.3">
<g opacity="0.3">
<path opacity="0.3" d="M94.5064 274.967C94.59 274.967 94.7804 276.276 94.8175 277.92C94.8547 279.563 94.7386 280.886 94.655 280.881C94.5714 280.876 94.5435 279.553 94.5018 277.924C94.46 276.295 94.4182 274.977 94.5018 274.967" fill="black"/>
</g>
</g>
<g opacity="0.3">
<g opacity="0.3">
<path opacity="0.3" d="M75.5645 281.025C76.184 280.743 76.8276 280.516 77.487 280.347C78.6898 279.976 80.3615 279.507 82.2283 279.057C84.0951 278.606 85.7993 278.263 87.0392 278.049C87.7033 277.9 88.3789 277.809 89.0593 277.776C88.4114 277.984 87.7507 278.148 87.081 278.268C85.8551 278.541 84.1647 278.917 82.3026 279.368C80.4405 279.818 78.7641 280.25 77.5474 280.565C76.8977 280.764 76.2351 280.919 75.5645 281.029" fill="black"/>
</g>
</g>
<path d="M113.328 326.467C111.047 325.868 108.335 328.082 107.866 330.389C107.397 332.696 108.261 335.058 109.26 337.18C111.507 341.886 114.6 346.254 118.682 349.499C122.764 352.743 127.867 354.827 133.077 354.799C132.116 350.329 133.333 345.66 132.799 341.116C132.32 337.122 130.501 333.408 127.64 330.579C124.779 327.75 121.043 325.973 117.043 325.538C115.589 325.381 113.908 325.153 113.328 326.495" fill="#195DBB"/>
<g opacity="0.3">
<g opacity="0.3">
<path opacity="0.3" d="M133.073 354.809C132.959 354.772 132.85 354.722 132.748 354.66C132.448 354.495 132.164 354.304 131.898 354.089C130.944 353.257 130.177 352.232 129.65 351.081C129.283 350.376 128.879 349.61 128.485 348.761C128.09 347.911 127.686 347.001 127.259 346.05C126.815 345.056 126.311 344.09 125.75 343.158C125.134 342.166 124.442 341.224 123.678 340.341C122.118 338.507 120.428 336.924 118.998 335.411C117.685 334.09 116.49 332.656 115.426 331.127C114.712 330.092 114.126 328.975 113.68 327.799C113.532 327.376 113.43 327.052 113.374 326.819C113.345 326.704 113.329 326.586 113.328 326.467C113.355 326.467 113.485 326.931 113.82 327.748C114.304 328.894 114.913 329.984 115.635 330.997C116.715 332.496 117.917 333.902 119.23 335.202C120.683 336.702 122.369 338.28 123.943 340.132C124.717 341.028 125.419 341.984 126.042 342.991C126.606 343.936 127.109 344.915 127.547 345.925L128.745 348.645C129.126 349.489 129.52 350.26 129.873 350.965C130.37 352.104 131.094 353.129 132 353.978C132.664 354.553 133.115 354.767 133.096 354.795" fill="black"/>
</g>
</g>
<g opacity="0.3">
<g opacity="0.3">
<path opacity="0.3" d="M121.296 351.095C121.306 350.578 121.376 350.064 121.505 349.564C121.682 348.635 121.969 347.336 122.369 345.934C122.768 344.532 123.186 343.283 123.525 342.388C123.683 341.903 123.891 341.436 124.147 340.995C124.056 341.503 123.919 342.002 123.739 342.485C123.455 343.413 123.07 344.648 122.675 346.045C122.281 347.442 121.956 348.71 121.723 349.633C121.627 350.141 121.484 350.638 121.296 351.119" fill="black"/>
</g>
</g>
<g opacity="0.3">
<g opacity="0.3">
<path opacity="0.3" d="M132.641 340.122C132.097 340.046 131.561 339.921 131.039 339.751C130.054 339.496 128.717 339.148 127.194 338.823C125.671 338.498 124.31 338.219 123.312 338.029C122.766 337.96 122.229 337.842 121.705 337.676C122.256 337.661 122.807 337.707 123.349 337.811C124.356 337.941 125.745 338.173 127.263 338.516C128.782 338.86 130.133 339.245 131.099 339.556C131.633 339.693 132.15 339.889 132.641 340.141" fill="black"/>
</g>
</g>
<g opacity="0.3">
<g opacity="0.3">
<path opacity="0.3" d="M112.863 343.311C112.885 342.712 112.967 342.117 113.109 341.534C113.309 340.447 113.625 338.953 114.038 337.324C114.451 335.694 114.916 334.228 115.273 333.183C115.436 332.608 115.655 332.049 115.928 331.517C115.827 332.105 115.68 332.684 115.487 333.248C115.185 334.311 114.772 335.773 114.344 337.402C113.917 339.032 113.569 340.508 113.314 341.58C113.204 342.169 113.049 342.747 112.849 343.311" fill="black"/>
</g>
</g>
<g opacity="0.3">
<g opacity="0.3">
<path opacity="0.3" d="M127.417 330.556C127.417 330.644 124.565 330.412 121.064 330.041C117.563 329.669 114.739 329.303 114.748 329.215C114.758 329.126 117.6 329.358 121.101 329.73C124.603 330.101 127.426 330.468 127.417 330.556Z" fill="black"/>
</g>
</g>
<path d="M102.076 303.959C101.881 301.889 99.7863 300.325 97.7013 300.302C95.6162 300.278 93.6751 301.527 92.4027 303.175C91.1304 304.823 90.4245 306.832 89.8533 308.838C88.4602 313.721 87.6801 318.854 88.2837 323.9C88.8874 328.945 90.9307 333.912 94.5528 337.477C95.1426 338.057 95.9041 338.637 96.7121 338.465C97.1468 338.331 97.5397 338.088 97.8545 337.76C101.401 334.514 104.212 330.548 106.099 326.127C107.986 321.707 108.906 316.934 108.795 312.129C108.739 310.212 108.489 308.211 107.425 306.614C106.362 305.018 103.882 303.319 102.076 303.959Z" fill="#195DBB"/>
<g opacity="0.3">
<g opacity="0.3">
<path opacity="0.3" d="M95.6813 338.173C95.6562 338.057 95.6437 337.939 95.6441 337.82C95.6441 337.551 95.6163 337.217 95.5977 336.799C95.5559 335.917 95.5512 334.636 95.5977 333.053C95.6441 331.47 95.7323 329.59 95.9227 327.483C96.1131 325.376 96.4289 323.12 96.8515 320.743C97.2741 318.367 97.8128 316.102 98.3561 314.097C98.8994 312.091 99.4752 310.272 100.005 308.777C100.534 307.283 100.994 306.085 101.342 305.268L101.746 304.34C101.786 304.227 101.839 304.12 101.904 304.02C101.888 304.138 101.855 304.253 101.806 304.363C101.714 304.614 101.597 304.929 101.458 305.324C101.142 306.15 100.715 307.357 100.218 308.856C99.7213 310.355 99.178 312.161 98.6393 314.176C98.1007 316.19 97.5991 318.437 97.1626 320.804C96.7261 323.171 96.4289 325.445 96.2107 327.52C95.9924 329.595 95.8763 331.47 95.8159 333.049C95.7556 334.627 95.7277 335.903 95.7323 336.762C95.7323 337.176 95.7323 337.515 95.7323 337.778C95.7412 337.898 95.7314 338.019 95.7045 338.136" fill="black"/>
</g>
</g>
<g opacity="0.3">
<g opacity="0.3">
<path opacity="0.3" d="M97.0743 320.855C96.766 321.278 96.4126 321.668 96.0202 322.015C95.3329 322.698 94.3624 323.612 93.234 324.587C92.1055 325.562 91.0885 326.402 90.3223 326.991C89.9281 327.335 89.4967 327.634 89.036 327.882C89.3843 327.492 89.7683 327.134 90.183 326.815L93.025 324.345L95.8484 321.853C96.2176 321.481 96.622 321.147 97.0558 320.855" fill="black"/>
</g>
</g>
<g opacity="0.3">
<g opacity="0.3">
<path opacity="0.3" d="M105.456 327.599C105.044 327.11 104.668 326.59 104.333 326.044L101.718 322.229L99.048 318.455C98.6542 317.949 98.2971 317.416 97.9799 316.858C98.4397 317.307 98.8576 317.796 99.2291 318.321C99.9628 319.249 100.943 320.562 101.978 322.034C103.014 323.505 103.901 324.898 104.523 325.91C104.882 326.439 105.193 327 105.452 327.585" fill="black"/>
</g>
</g>
<g opacity="0.3">
<g opacity="0.3">
<path opacity="0.3" d="M101.073 306.391C101.119 306.466 98.3375 308.341 94.8593 310.569C91.3811 312.797 88.5206 314.556 88.4741 314.482C88.4277 314.408 91.2093 312.537 94.6875 310.304C98.1656 308.072 101.022 306.317 101.073 306.387" fill="black"/>
</g>
</g>
<g opacity="0.3">
<g opacity="0.3">
<path opacity="0.3" d="M108.916 314.863C108.856 314.923 106.97 313.182 104.709 310.973C102.447 308.763 100.659 306.925 100.72 306.86C100.78 306.795 102.665 308.541 104.927 310.75C107.188 312.959 108.976 314.798 108.916 314.863Z" fill="black"/>
</g>
</g>
<path d="M114.572 156.229H66.3188V222.957H114.572V156.229Z" fill="white"/>
<path d="M108.131 162.402H72.7643V216.779H108.131V162.402Z" fill="#3B82F6"/>
<path d="M116.021 156.196H114.618V222.925H116.021V156.196Z" fill="#3B82F6"/>
<path opacity="0.6" d="M108.131 162.402H72.7643V216.779H108.131V162.402Z" fill="white"/>
<path opacity="0.6" d="M116.021 156.196H114.618V222.925H116.021V156.196Z" fill="white"/>
<path d="M98.7508 181.651H82.1865V207.932H98.7508V181.651Z" fill="#3B82F6"/>
<path d="M90.471 178.36C92.6368 178.36 94.7144 177.504 96.2501 175.977C97.7858 174.451 98.6546 172.379 98.6672 170.214H82.3165C82.3165 171.285 82.5274 172.344 82.9374 173.333C83.347 174.321 83.9479 175.219 84.7053 175.976C85.4622 176.733 86.3612 177.333 87.3508 177.742C88.3399 178.151 89.4001 178.361 90.471 178.36Z" fill="white"/>
<path d="M154.894 81.3867H109.343V147.377H154.894V81.3867Z" fill="#195DBB"/>
<path opacity="0.6" d="M154.894 81.3867H109.343V147.377H154.894V81.3867Z" fill="white"/>
<path d="M152.395 81.3867H106.845V147.377H152.395V81.3867Z" fill="white"/>
<path d="M146.855 88.3352H112.506V140.071H146.855V88.3352Z" fill="#195DBB"/>
<path opacity="0.6" d="M146.855 88.3352H112.506V140.071H146.855V88.3352Z" fill="white"/>
<path d="M135.413 97.9388H123.952V130.472H135.413V97.9388Z" fill="#195DBB"/>
<path d="M135.413 97.9388H123.952V130.472H135.413V97.9388Z" fill="#195DBB"/>
<path d="M123.952 117.471C123.172 117.471 122.408 117.239 121.76 116.806C121.11 116.373 120.604 115.756 120.306 115.036C120.007 114.315 119.929 113.521 120.081 112.756C120.233 111.991 120.609 111.287 121.161 110.736C121.713 110.184 122.417 109.808 123.182 109.656C123.948 109.504 124.742 109.582 125.463 109.88C126.184 110.179 126.8 110.685 127.234 111.334C127.668 111.982 127.9 112.745 127.9 113.526C127.898 114.572 127.482 115.574 126.742 116.314C126.002 117.054 124.999 117.47 123.952 117.471Z" fill="white"/>
<path d="M536.852 286.442H441.353V367.429H525.154L536.852 286.442Z" fill="#195DBB"/>
<path opacity="0.51" d="M536.852 286.442H441.353V367.429H525.154L536.852 286.442Z" fill="white"/>
<path d="M445.1 361.265H526.045L526.124 360.699H445.704V298.394H535.129L535.217 297.781L445.1 297.716V361.265Z" fill="#195DBB"/>
<path d="M537.037 285.156H438.362C438.023 285.156 437.694 285.291 437.452 285.532C437.211 285.774 437.076 286.1 437.076 286.442C437.076 286.783 437.211 287.11 437.452 287.351C437.694 287.592 438.023 287.727 438.362 287.727H536.666L537.037 285.156Z" fill="#195DBB"/>
<path d="M530.801 329.071H445.119V329.674H530.801V329.071Z" fill="#195DBB"/>
<path d="M497.022 309.292C497.417 309.292 497.807 309.175 498.137 308.955C498.466 308.734 498.722 308.421 498.875 308.055C499.028 307.688 499.065 307.285 498.991 306.896C498.912 306.507 498.722 306.15 498.438 305.869C498.16 305.589 497.802 305.398 497.412 305.321C497.022 305.243 496.623 305.283 496.256 305.435C495.889 305.587 495.573 305.843 495.355 306.173C495.132 306.503 495.016 306.891 495.016 307.287C495.016 307.819 495.225 308.329 495.601 308.705C495.977 309.081 496.488 309.292 497.022 309.292Z" fill="#195DBB"/>
<g opacity="0.15">
<g opacity="0.15">
<path opacity="0.15" d="M497.779 307.283C497.779 306.865 497.644 306.458 497.398 306.119C497.157 305.781 496.808 305.527 496.414 305.393C496.618 305.316 496.841 305.276 497.059 305.277C497.593 305.277 498.099 305.489 498.475 305.865C498.856 306.241 499.065 306.751 499.065 307.283C499.065 307.815 498.856 308.325 498.475 308.701C498.099 309.077 497.593 309.288 497.059 309.288C496.841 309.29 496.623 309.253 496.414 309.176C496.808 309.036 497.147 308.78 497.393 308.442C497.635 308.104 497.77 307.699 497.779 307.283Z" fill="black"/>
</g>
</g>
<path d="M497.022 340.536C497.417 340.536 497.807 340.418 498.137 340.198C498.466 339.977 498.722 339.664 498.875 339.298C499.028 338.931 499.065 338.528 498.991 338.139C498.912 337.75 498.722 337.393 498.438 337.112C498.16 336.832 497.802 336.641 497.412 336.564C497.022 336.486 496.623 336.526 496.256 336.678C495.889 336.83 495.573 337.087 495.355 337.416C495.132 337.746 495.016 338.134 495.016 338.53C495.016 339.062 495.229 339.571 495.606 339.947C495.982 340.322 496.488 340.534 497.022 340.536Z" fill="#195DBB"/>
<g opacity="0.15">
<g opacity="0.15">
<path opacity="0.15" d="M497.779 338.535C497.779 338.116 497.644 337.709 497.403 337.369C497.157 337.029 496.808 336.775 496.414 336.641C496.623 336.565 496.841 336.527 497.059 336.53C497.324 336.53 497.584 336.582 497.825 336.682C498.071 336.783 498.29 336.931 498.475 337.117C498.666 337.303 498.81 337.524 498.912 337.768C499.014 338.011 499.065 338.272 499.065 338.535C499.065 338.798 499.014 339.059 498.912 339.302C498.81 339.545 498.666 339.767 498.475 339.953C498.29 340.139 498.071 340.287 497.825 340.387C497.584 340.488 497.324 340.54 497.059 340.54C496.841 340.543 496.618 340.504 496.414 340.424C496.813 340.294 497.157 340.041 497.403 339.701C497.649 339.362 497.779 338.954 497.779 338.535Z" fill="black"/>
</g>
</g>
<path d="M536.666 287.727H441.353V288.976L536.317 290.169L536.666 287.727Z" fill="#195DBB"/>
<path d="M444.237 367.467H450.598L444.729 390.582C444.641 390.837 444.473 391.055 444.25 391.213C444.032 391.366 443.768 391.45 443.498 391.45C443.303 391.45 443.108 391.404 442.932 391.32C442.76 391.237 442.602 391.111 442.481 390.958C442.356 390.809 442.268 390.633 442.221 390.443C442.175 390.252 442.175 390.053 442.212 389.863L444.237 367.467Z" fill="#195DBB"/>
<path opacity="0.51" d="M444.237 367.467H450.598L444.729 390.582C444.641 390.837 444.473 391.055 444.25 391.213C444.032 391.366 443.768 391.45 443.498 391.45C443.303 391.45 443.108 391.404 442.932 391.32C442.76 391.237 442.602 391.111 442.481 390.958C442.356 390.809 442.268 390.633 442.221 390.443C442.175 390.252 442.175 390.053 442.212 389.863L444.237 367.467Z" fill="white"/>
<path d="M447.677 369.927L444.102 369.184L444.255 367.467H450.617L444.947 389.779C444.599 391.042 444.264 391.45 443.498 391.45L447.677 369.927Z" fill="#195DBB"/>
<path d="M468.825 367.467L466.782 389.863C466.745 390.053 466.745 390.252 466.791 390.443C466.838 390.633 466.926 390.809 467.051 390.958C467.172 391.111 467.33 391.237 467.506 391.32C467.678 391.404 467.873 391.45 468.068 391.45C468.342 391.455 468.607 391.371 468.834 391.218C469.057 391.06 469.225 390.837 469.317 390.582L475.182 367.467H468.825Z" fill="#195DBB"/>
<path opacity="0.51" d="M537.037 285.156H438.362C438.023 285.156 437.694 285.291 437.452 285.532C437.211 285.774 437.076 286.1 437.076 286.442C437.076 286.783 437.211 287.11 437.452 287.351C437.694 287.592 438.023 287.727 438.362 287.727H536.666L537.037 285.156Z" fill="white"/>
<path opacity="0.51" d="M468.825 367.467L466.782 389.863C466.745 390.053 466.745 390.252 466.791 390.443C466.838 390.633 466.926 390.809 467.051 390.958C467.172 391.111 467.33 391.237 467.506 391.32C467.678 391.404 467.873 391.45 468.068 391.45C468.342 391.455 468.607 391.371 468.834 391.218C469.057 391.06 469.225 390.837 469.317 390.582L475.182 367.467H468.825Z" fill="white"/>
<path d="M469.926 379.382L467.766 378.853L468.788 367.467H475.182L469.317 390.582C469.224 390.837 469.057 391.06 468.834 391.218C468.607 391.371 468.342 391.455 468.068 391.45H467.994L469.926 379.382Z" fill="#195DBB"/>
<path d="M506.625 276.982H476.162V284.942H506.625C507.656 284.907 508.636 284.472 509.356 283.73C510.071 282.987 510.475 281.995 510.475 280.962C510.475 279.929 510.071 278.937 509.356 278.194C508.636 277.452 507.656 277.017 506.625 276.982Z" fill="#495057"/>
<path opacity="0.2" d="M506.625 276.982H476.162V284.942H506.625C507.656 284.907 508.636 284.472 509.356 283.73C510.071 282.987 510.475 281.995 510.475 280.962C510.475 279.929 510.071 278.937 509.356 278.194C508.636 277.452 507.656 277.017 506.625 276.982Z" fill="white"/>
<path d="M478.702 284.942H463.294V283.805H468.068V278.161H463.294V276.982H478.702C479.733 277.017 480.713 277.452 481.433 278.194C482.148 278.937 482.552 279.929 482.552 280.962C482.552 281.995 482.148 282.987 481.433 283.73C480.713 284.472 479.733 284.907 478.702 284.942Z" fill="#495057"/>
<path d="M464.432 283.763H478.656C479.399 283.763 480.114 283.468 480.639 282.943C481.164 282.418 481.461 281.705 481.461 280.962C481.461 280.219 481.164 279.506 480.639 278.981C480.114 278.456 479.399 278.161 478.656 278.161H464.432V283.763Z" fill="white"/>
<path d="M511.176 270.855H485.756V276.982H511.185C511.325 276.982 511.459 276.956 511.589 276.903C511.715 276.851 511.831 276.773 511.928 276.676C512.026 276.579 512.105 276.462 512.156 276.335C512.207 276.208 512.235 276.071 512.235 275.933V271.909C512.235 271.63 512.123 271.363 511.928 271.166C511.831 271.067 511.715 270.989 511.589 270.936C511.459 270.882 511.325 270.855 511.185 270.855" fill="#495057"/>
<path opacity="0.2" d="M496.734 272.911H505.488C505.604 272.918 505.715 272.97 505.799 273.056C505.878 273.143 505.924 273.257 505.924 273.375V274.726C505.924 274.842 505.878 274.953 505.794 275.035C505.715 275.116 505.604 275.162 505.488 275.162H496.734C496.613 275.162 496.502 275.117 496.414 275.037C496.33 274.955 496.274 274.844 496.27 274.726V273.375C496.27 273.252 496.316 273.134 496.404 273.047C496.493 272.96 496.609 272.911 496.734 272.911Z" fill="black"/>
<path d="M475.902 276.982H489.731C489.871 276.982 490.005 276.956 490.135 276.903C490.261 276.851 490.377 276.773 490.474 276.676C490.572 276.579 490.651 276.462 490.702 276.335C490.753 276.208 490.781 276.071 490.781 275.933V271.909C490.781 271.63 490.669 271.363 490.474 271.166C490.377 271.067 490.261 270.989 490.135 270.936C490.005 270.882 489.871 270.855 489.731 270.855H475.902V276.982Z" fill="#495057"/>
<path opacity="0.2" d="M475.902 276.982H489.731C489.871 276.982 490.005 276.956 490.135 276.903C490.261 276.851 490.377 276.773 490.474 276.676C490.572 276.579 490.651 276.462 490.702 276.335C490.753 276.208 490.781 276.071 490.781 275.933V271.909C490.781 271.63 490.669 271.363 490.474 271.166C490.377 271.067 490.261 270.989 490.135 270.936C490.005 270.882 489.871 270.855 489.731 270.855H475.902V276.982Z" fill="black"/>
<path d="M475.902 276.063H489.337C489.476 276.062 489.611 276.007 489.708 275.91C489.806 275.811 489.861 275.678 489.861 275.538V272.257C489.861 272.117 489.806 271.984 489.708 271.885C489.611 271.788 489.476 271.733 489.337 271.732H475.902V276.063Z" fill="white"/>
<path d="M468.068 270.855H498.132V264.733H468.068C467.878 264.731 467.692 264.768 467.516 264.84C467.339 264.912 467.177 265.018 467.042 265.153C466.912 265.287 466.805 265.446 466.731 265.622C466.661 265.798 466.624 265.986 466.624 266.176V269.458C466.629 269.644 466.666 269.828 466.74 269.998C466.814 270.169 466.926 270.323 467.061 270.451C467.33 270.713 467.692 270.858 468.068 270.855Z" fill="#495057"/>
<path opacity="0.3" d="M468.068 270.855H498.132V264.733H468.068C467.878 264.731 467.692 264.768 467.516 264.84C467.339 264.912 467.177 265.018 467.042 265.153C466.912 265.287 466.805 265.446 466.731 265.622C466.661 265.798 466.624 265.986 466.624 266.176V269.458C466.629 269.644 466.666 269.828 466.74 269.998C466.814 270.169 466.926 270.323 467.061 270.451C467.33 270.713 467.692 270.858 468.068 270.855Z" fill="white"/>
<path d="M508.418 265.661H494.579C494.44 265.661 494.305 265.716 494.208 265.814C494.157 265.862 494.12 265.92 494.092 265.984C494.069 266.047 494.055 266.116 494.055 266.185V269.467C494.055 269.536 494.069 269.605 494.092 269.668C494.12 269.732 494.157 269.79 494.208 269.838C494.305 269.936 494.44 269.991 494.579 269.992H508.409L508.418 265.661Z" fill="white"/>
<path d="M494.194 264.732H509.439V265.661H494.579C494.514 265.647 494.445 265.647 494.38 265.661C494.319 265.683 494.259 265.717 494.213 265.763C494.157 265.805 494.115 265.861 494.092 265.925C494.069 265.988 494.055 266.054 494.055 266.12V269.444C494.055 269.511 494.069 269.577 494.092 269.639C494.12 269.701 494.162 269.757 494.213 269.801C494.259 269.846 494.319 269.881 494.38 269.903C494.445 269.917 494.514 269.917 494.579 269.903H509.439V270.832H494.208C494.069 270.833 493.934 270.806 493.804 270.754C493.679 270.701 493.562 270.623 493.465 270.525C493.27 270.328 493.158 270.061 493.158 269.783V265.758C493.158 265.62 493.186 265.484 493.237 265.356C493.288 265.229 493.367 265.113 493.465 265.015C493.562 264.918 493.679 264.84 493.804 264.788C493.934 264.735 494.069 264.709 494.208 264.709" fill="#495057"/>
<path opacity="0.2" d="M494.194 264.732H509.439V265.661H494.579C494.514 265.647 494.445 265.647 494.38 265.661C494.319 265.683 494.259 265.717 494.213 265.763C494.157 265.805 494.115 265.861 494.092 265.925C494.069 265.988 494.055 266.054 494.055 266.12V269.444C494.055 269.511 494.069 269.577 494.092 269.639C494.12 269.701 494.162 269.757 494.213 269.801C494.259 269.846 494.319 269.881 494.38 269.903C494.445 269.917 494.514 269.917 494.579 269.903H509.439V270.832H494.208C494.069 270.833 493.934 270.806 493.804 270.754C493.679 270.701 493.562 270.623 493.465 270.525C493.27 270.328 493.158 270.061 493.158 269.783V265.758C493.158 265.62 493.186 265.484 493.237 265.356C493.288 265.229 493.367 265.113 493.465 265.015C493.562 264.918 493.679 264.84 493.804 264.788C493.934 264.735 494.069 264.709 494.208 264.709" fill="black"/>
</svg>
