<svg width="805" height="563" viewBox="0 0 805 563" fill="none" xmlns="http://www.w3.org/2000/svg">
<path d="M757.229 562.011H58.2558L1.52608 255.824C0.591185 250.777 0.781375 245.586 2.08368 240.622C3.38537 235.658 5.76769 231.042 9.05958 227.104L166.275 39.1124C169.339 35.4475 173.124 32.452 177.394 30.3118C181.664 28.1709 186.329 26.9316 191.099 26.6698L669.408 0.302507C677.213 -0.127891 684.944 2.07906 691.348 6.56828C697.745 11.0581 702.456 17.5703 704.71 25.0581L803.381 352.642C805.178 358.598 805.344 364.926 803.869 370.969L757.229 562.011Z" fill="#3B82F6"/>
<path d="M757.229 562.011H58.2558L1.52608 255.824C0.591185 250.777 0.781375 245.586 2.08368 240.622C3.38537 235.658 5.76769 231.042 9.05958 227.104L166.275 39.1124C169.339 35.4475 173.124 32.452 177.394 30.3118C181.664 28.1709 186.329 26.9316 191.099 26.6698L669.408 0.302507C677.213 -0.127891 684.944 2.07906 691.348 6.56828C697.745 11.0581 702.456 17.5703 704.71 25.0581L803.381 352.642C805.178 358.598 805.344 364.926 803.869 370.969L757.229 562.011Z" fill="white"/>
<path d="M673.014 119.233L581.89 147.212L607.88 171.381L521.344 267.841L488.517 234.31L482.367 228.018L476.303 233.958L344.257 363.281L300.396 316.845L297.549 313.832L294.703 316.642L136.221 472.789L297.142 325.225L340.243 374.267L343.701 378.2L347.703 374.545L481.669 252.446L514.619 288.613L521.449 296.11L528.729 288.564L625.714 187.967L651.704 212.142L673.014 119.233Z" fill="#195DBB"/>
<path d="M482.75 365.782H474.105C474.526 365.784 474.942 365.869 475.331 366.031C475.718 366.193 476.071 366.431 476.368 366.729C476.664 367.028 476.899 367.383 477.058 367.772C477.218 368.161 477.299 368.579 477.297 368.999V557.621C477.299 558.041 477.218 558.461 477.058 558.85C476.899 559.239 476.664 559.591 476.368 559.893C476.071 560.19 475.718 560.424 475.331 560.591C474.942 560.752 474.526 560.838 474.105 560.838H482.75C483.171 560.838 483.587 560.752 483.976 560.591C484.363 560.424 484.716 560.19 485.013 559.893C485.309 559.591 485.544 559.239 485.703 558.85C485.863 558.461 485.944 558.041 485.942 557.621V368.999C485.944 368.579 485.863 368.161 485.703 367.772C485.544 367.383 485.309 367.028 485.013 366.729C484.716 366.431 484.363 366.193 483.976 366.031C483.587 365.869 483.171 365.784 482.75 365.782Z" fill="#3B82F6"/>
<path d="M400.215 365.782H474.105C474.525 365.784 474.942 365.869 475.33 366.031C475.719 366.193 476.071 366.431 476.367 366.729C476.664 367.028 476.899 367.383 477.058 367.772C477.218 368.161 477.299 368.579 477.297 368.999V557.621C477.299 558.041 477.218 558.461 477.058 558.85C476.899 559.239 476.664 559.591 476.367 559.893C476.071 560.19 475.719 560.424 475.33 560.591C474.942 560.752 474.525 560.838 474.105 560.838H400.215C399.794 560.838 399.378 560.752 398.99 560.591C398.603 560.424 398.251 560.19 397.954 559.893C397.658 559.591 397.424 559.239 397.266 558.85C397.106 558.461 397.026 558.041 397.029 557.621V368.999C397.026 368.579 397.106 368.162 397.266 367.772C397.424 367.383 397.658 367.029 397.954 366.73C398.251 366.431 398.603 366.193 398.99 366.031C399.378 365.869 399.794 365.784 400.215 365.782Z" fill="#3B82F6"/>
<path opacity="0.4" d="M400.215 365.782H474.105C474.525 365.784 474.942 365.869 475.33 366.031C475.719 366.193 476.071 366.431 476.367 366.729C476.664 367.028 476.899 367.383 477.058 367.772C477.218 368.161 477.299 368.579 477.297 368.999V557.621C477.299 558.041 477.218 558.461 477.058 558.85C476.899 559.239 476.664 559.591 476.367 559.893C476.071 560.19 475.719 560.424 475.33 560.591C474.942 560.752 474.525 560.838 474.105 560.838H400.215C399.794 560.838 399.378 560.752 398.99 560.591C398.603 560.424 398.251 560.19 397.954 559.893C397.658 559.591 397.424 559.239 397.266 558.85C397.106 558.461 397.026 558.041 397.029 557.621V368.999C397.026 368.579 397.106 368.162 397.266 367.772C397.424 367.383 397.658 367.029 397.954 366.73C398.251 366.431 398.603 366.193 398.99 366.031C399.378 365.869 399.794 365.784 400.215 365.782Z" fill="white"/>
<path d="M580.315 301.933H571.67C573.43 301.933 574.862 303.847 574.862 306.206V556.571C574.862 558.93 573.43 560.838 571.67 560.838H580.315C582.075 560.838 583.507 558.93 583.507 556.571V306.206C583.514 303.847 582.081 301.933 580.315 301.933Z" fill="#3B82F6"/>
<path d="M497.78 301.933H571.67C573.43 301.933 574.862 303.847 574.862 306.206V556.571C574.862 558.93 573.43 560.838 571.67 560.838H497.78C496.02 560.838 494.594 558.93 494.594 556.571V306.206C494.594 303.847 496.02 301.933 497.78 301.933Z" fill="#3B82F6"/>
<path opacity="0.4" d="M497.78 301.933H571.67C573.43 301.933 574.862 303.847 574.862 306.206V556.571C574.862 558.93 573.43 560.838 571.67 560.838H497.78C496.02 560.838 494.594 558.93 494.594 556.571V306.206C494.594 303.847 496.02 301.933 497.78 301.933Z" fill="white"/>
<path d="M677.942 237.058H669.297C671.057 237.058 672.489 239.454 672.489 242.4V555.472C672.489 558.424 671.057 560.813 669.297 560.813H677.942C679.702 560.813 681.134 558.424 681.134 555.472V242.4C681.134 239.454 679.733 237.058 677.942 237.058Z" fill="#3B82F6"/>
<path d="M595.401 237.058H669.297C671.057 237.058 672.489 239.454 672.489 242.4V555.472C672.489 558.424 671.057 560.813 669.297 560.813H595.401C593.641 560.813 592.214 558.424 592.214 555.472V242.4C592.214 239.454 593.641 237.058 595.401 237.058Z" fill="#3B82F6"/>
<path opacity="0.4" d="M595.401 237.058H669.297C671.057 237.058 672.489 239.454 672.489 242.4V555.472C672.489 558.424 671.057 560.813 669.297 560.813H595.401C593.641 560.813 592.214 558.424 592.214 555.472V242.4C592.214 239.454 593.641 237.058 595.401 237.058Z" fill="white"/>
<path d="M775.445 134.819H766.8C768.56 134.819 769.986 137.968 769.986 141.852V554.28C769.986 558.171 768.56 561.32 766.8 561.32H775.445C777.205 561.32 778.631 558.171 778.631 554.28V141.852C778.613 137.968 777.186 134.819 775.445 134.819Z" fill="#3B82F6"/>
<path d="M692.885 134.819H766.8C768.56 134.819 769.986 137.968 769.986 141.852V554.28C769.986 558.171 768.56 561.32 766.8 561.32H692.885C691.125 561.32 689.693 558.171 689.693 554.28V141.852C689.693 137.968 691.125 134.819 692.885 134.819Z" fill="#3B82F6"/>
<path opacity="0.4" d="M692.898 134.621H766.8C768.56 134.621 769.986 137.77 769.986 141.654V554.089C769.986 557.973 768.56 561.122 766.8 561.122H692.898C691.138 561.122 689.705 557.973 689.705 554.089V141.654C689.705 137.77 691.138 134.621 692.898 134.621Z" fill="white"/>
<path d="M426.082 528.45L426.842 550.427L410.336 560.776L410.107 533.625L426.082 528.45Z" fill="white"/>
<path d="M408.755 560.85L426.761 548.192C428.231 548.358 429.478 550.291 428.212 551.038L414.257 560.85H408.755Z" fill="#195DBB"/>
<path d="M411.176 534.384H296.234V560.85H411.176V534.384Z" fill="#195DBB"/>
<path opacity="0.2" d="M411.176 534.384H296.234V560.85H411.176V534.384Z" fill="white"/>
<path d="M296.265 534.384L314.895 526.017L429.015 526.9C429.181 526.903 429.341 526.963 429.468 527.07C429.595 527.177 429.681 527.324 429.713 527.487C429.744 527.65 429.718 527.819 429.639 527.965C429.56 528.111 429.434 528.226 429.281 528.29L411.2 535.601L296.265 536.515V534.384Z" fill="#195DBB"/>
<path d="M379.646 540.306H302.372V555.978H379.646V540.306Z" fill="white"/>
<path d="M394.769 553.231C397.868 553.231 400.382 550.717 400.382 547.617C400.382 544.518 397.868 542.004 394.769 542.004C391.668 542.004 389.156 544.518 389.156 547.617C389.156 550.717 391.668 553.231 394.769 553.231Z" fill="#195DBB"/>
<path d="M394.769 553.539C393.597 553.539 392.452 553.194 391.479 552.539C390.505 551.891 389.746 550.964 389.298 549.884C388.849 548.803 388.732 547.611 388.96 546.463C389.189 545.314 389.753 544.258 390.581 543.431C391.409 542.603 392.465 542.035 393.613 541.807C394.762 541.578 395.952 541.696 397.035 542.146C398.117 542.597 399.042 543.357 399.692 544.326C400.343 545.302 400.69 546.444 400.69 547.617C400.689 549.186 400.064 550.693 398.954 551.804C397.844 552.916 396.338 553.539 394.769 553.539ZM394.769 542.313C393.72 542.313 392.694 542.622 391.821 543.209C390.949 543.789 390.27 544.616 389.868 545.586C389.466 546.555 389.361 547.624 389.566 548.655C389.771 549.68 390.276 550.625 391.018 551.366C391.76 552.113 392.705 552.613 393.734 552.817C394.762 553.027 395.829 552.922 396.798 552.52C397.768 552.119 398.596 551.434 399.179 550.563C399.762 549.692 400.073 548.667 400.073 547.617C400.071 546.21 399.512 544.863 398.517 543.869C397.523 542.875 396.175 542.313 394.769 542.313Z" fill="white"/>
<path opacity="0.2" d="M411.169 540.948L426.156 530.692V529.543L411.169 535.601V540.948Z" fill="black"/>
<path d="M426.86 520.244L424.248 521.88L426.712 523.516H408.897V520.244H426.86Z" fill="#495057"/>
<path d="M422.778 512.587L420.611 514.155L422.501 515.934H401.487V512.587H422.778Z" fill="#495057"/>
<path d="M413.991 504.701H299.087V531.445H413.991V504.701Z" fill="#3B82F6"/>
<path d="M374.626 511.389H308.115V525.091H374.626V511.389Z" fill="white"/>
<path d="M396.8 524.739C395.629 524.739 394.484 524.392 393.51 523.741C392.536 523.09 391.777 522.165 391.329 521.084C390.881 520.002 390.763 518.811 390.992 517.662C391.22 516.513 391.784 515.458 392.613 514.63C393.441 513.802 394.496 513.238 395.645 513.009C396.793 512.781 397.984 512.898 399.066 513.346C400.148 513.795 401.073 514.553 401.724 515.527C402.374 516.501 402.722 517.646 402.722 518.817C402.72 520.388 402.096 521.892 400.986 523.003C399.875 524.113 398.37 524.737 396.8 524.739ZM396.8 513.513C395.751 513.513 394.725 513.824 393.853 514.407C392.981 514.99 392.301 515.818 391.9 516.788C391.498 517.756 391.393 518.823 391.598 519.852C391.802 520.881 392.307 521.826 393.049 522.568C393.791 523.31 394.736 523.815 395.765 524.02C396.794 524.225 397.86 524.119 398.83 523.718C399.799 523.316 400.627 522.637 401.21 521.764C401.793 520.892 402.104 519.866 402.104 518.817C402.101 517.412 401.541 516.064 400.547 515.07C399.553 514.076 398.206 513.516 396.8 513.513Z" fill="white"/>
<path d="M414.01 486.047H296.234V504.831H414.01V486.047Z" fill="#195DBB"/>
<path opacity="0.2" d="M414.01 486.047H296.234V504.831H414.01V486.047Z" fill="white"/>
<path d="M400.382 490.252H397.726V501.348H400.382V490.252Z" fill="white"/>
<path d="M324.417 488.986V492.512H324.614C325.006 492.467 325.403 492.504 325.779 492.624C326.155 492.743 326.502 492.94 326.797 493.202C327.091 493.465 327.327 493.786 327.488 494.146C327.649 494.506 327.733 494.896 327.733 495.29C327.733 495.685 327.649 496.075 327.488 496.435C327.327 496.795 327.091 497.116 326.797 497.379C326.502 497.641 326.155 497.839 325.779 497.957C325.403 498.077 325.006 498.114 324.614 498.069H324.417V501.373H347.715V489.023L324.417 488.986Z" fill="white"/>
<path d="M314.864 491.919H313.444V499.959H314.864V491.919Z" fill="white" stroke="black" stroke-miterlimit="10"/>
<path d="M318.458 491.919H317.038V499.959H318.458V491.919Z" fill="white" stroke="black" stroke-miterlimit="10"/>
<path d="M323.225 491.919H321.805V499.959H323.225V491.919Z" fill="white" stroke="black" stroke-miterlimit="10"/>
<path d="M415.69 463.421H300.668V486.047H415.69V463.421Z" fill="#3B82F6"/>
<path d="M374.626 466.762H308.43V480.02H374.626V466.762Z" fill="white"/>
<path d="M408.175 437.801H293.27V464.545H408.175V437.801Z" fill="#195DBB"/>
<path opacity="0.2" d="M408.063 437.968H293.159V464.712H408.063V437.968Z" fill="white"/>
<path d="M372.934 442.099H301.613V460.587H372.934V442.099Z" fill="white"/>
<path d="M394.769 457.246C397.868 457.246 400.382 454.733 400.382 451.633C400.382 448.533 397.868 446.02 394.769 446.02C391.668 446.02 389.156 448.533 389.156 451.633C389.156 454.733 391.668 457.246 394.769 457.246Z" fill="#195DBB"/>
<path d="M394.769 457.555C393.597 457.555 392.452 457.208 391.479 456.557C390.505 455.906 389.746 454.981 389.298 453.899C388.849 452.818 388.732 451.626 388.96 450.478C389.189 449.329 389.753 448.274 390.581 447.446C391.409 446.618 392.465 446.054 393.613 445.825C394.762 445.597 395.952 445.714 397.035 446.162C398.117 446.611 399.042 447.369 399.692 448.343C400.343 449.317 400.69 450.462 400.69 451.633C400.689 453.204 400.064 454.708 398.954 455.819C397.844 456.929 396.338 457.553 394.769 457.555ZM394.769 446.329C393.72 446.329 392.694 446.64 391.821 447.223C390.949 447.806 390.27 448.634 389.868 449.604C389.466 450.572 389.361 451.639 389.566 452.668C389.771 453.697 390.276 454.642 391.018 455.384C391.76 456.126 392.705 456.631 393.734 456.836C394.762 457.04 395.829 456.935 396.798 456.534C397.768 456.132 398.596 455.452 399.179 454.58C399.762 453.708 400.073 452.682 400.073 451.633C400.071 450.227 399.512 448.879 398.517 447.884C397.523 446.89 396.175 446.331 394.769 446.329Z" fill="white"/>
<path d="M397.029 479.316C395.857 479.316 394.712 478.969 393.739 478.318C392.765 477.667 392.006 476.742 391.558 475.66C391.109 474.578 390.992 473.387 391.22 472.239C391.449 471.09 392.013 470.035 392.841 469.207C393.669 468.379 394.725 467.814 395.873 467.586C397.022 467.357 398.212 467.475 399.295 467.923C400.377 468.371 401.302 469.13 401.953 470.104C402.603 471.078 402.95 472.223 402.95 473.394C402.949 474.964 402.324 476.469 401.214 477.579C400.104 478.69 398.598 479.314 397.029 479.316ZM397.029 468.09C395.98 468.09 394.954 468.401 394.081 468.984C393.209 469.567 392.53 470.395 392.128 471.364C391.727 472.333 391.621 473.4 391.826 474.429C392.031 475.458 392.536 476.403 393.278 477.145C394.02 477.886 394.965 478.392 395.994 478.596C397.022 478.801 398.089 478.696 399.058 478.294C400.028 477.893 400.856 477.213 401.439 476.341C402.022 475.469 402.333 474.443 402.333 473.394C402.331 471.988 401.772 470.639 400.777 469.645C399.783 468.651 398.435 468.091 397.029 468.09Z" fill="white"/>
<path d="M411.139 411.057H296.234V437.801H411.139V411.057Z" fill="#3B82F6"/>
<path d="M393.947 432.824C397.047 432.824 399.56 430.311 399.56 427.211C399.56 424.111 397.047 421.598 393.947 421.598C390.847 421.598 388.334 424.111 388.334 427.211C388.334 430.311 390.847 432.824 393.947 432.824Z" fill="#3B82F6"/>
<path d="M393.947 433.133C392.776 433.133 391.631 432.786 390.657 432.135C389.684 431.484 388.924 430.56 388.476 429.477C388.028 428.395 387.911 427.205 388.139 426.056C388.368 424.907 388.931 423.852 389.76 423.024C390.588 422.196 391.643 421.632 392.792 421.404C393.941 421.174 395.131 421.292 396.214 421.74C397.295 422.188 398.22 422.947 398.871 423.921C399.522 424.895 399.869 426.04 399.869 427.211C399.867 428.781 399.243 430.287 398.133 431.396C397.023 432.507 395.517 433.132 393.947 433.133ZM393.947 421.907C392.898 421.907 391.873 422.218 391 422.801C390.128 423.384 389.448 424.212 389.046 425.181C388.645 426.151 388.54 427.217 388.745 428.246C388.949 429.275 389.454 430.22 390.197 430.962C390.938 431.704 391.883 432.209 392.912 432.414C393.941 432.619 395.008 432.514 395.977 432.112C396.946 431.71 397.775 431.03 398.358 430.158C398.94 429.286 399.252 428.26 399.252 427.211C399.25 425.805 398.69 424.456 397.696 423.462C396.701 422.468 395.353 421.909 393.947 421.907Z" fill="white"/>
<path d="M323.169 417.733V421.845C323.97 422.194 324.653 422.769 325.131 423.501C325.61 424.232 325.865 425.087 325.865 425.961C325.865 426.835 325.61 427.69 325.131 428.421C324.653 429.152 323.97 429.727 323.169 430.076V433.843H345.751V417.733H323.169Z" fill="white"/>
<path d="M417.894 390.871V373.155L394.762 358.996V382.115L417.894 390.871Z" fill="white"/>
<path opacity="0.1" d="M417.894 390.871V373.155L394.762 358.996V382.115L417.894 390.871Z" fill="black"/>
<path d="M311.147 385.505L296.642 382.115H394.769L425.199 392.471C425.248 392.49 425.291 392.524 425.321 392.568C425.351 392.613 425.367 392.664 425.367 392.718C425.367 392.771 425.351 392.823 425.321 392.867C425.291 392.911 425.248 392.945 425.199 392.965L412.448 398.59L311.147 385.505Z" fill="#3B82F6"/>
<path opacity="0.2" d="M311.147 385.505L296.642 382.115H394.769L425.199 392.471C425.248 392.49 425.291 392.524 425.321 392.568C425.351 392.613 425.367 392.664 425.367 392.718C425.367 392.771 425.351 392.823 425.321 392.867C425.291 392.911 425.248 392.945 425.199 392.965L412.448 398.59L311.147 385.505Z" fill="black"/>
<path d="M407.359 394.576H293.27V411.057H407.359V394.576Z" fill="#195DBB"/>
<path opacity="0.2" d="M407.359 394.576H293.27V411.057H407.359V394.576Z" fill="white"/>
<path d="M411.62 394.428H296.642C297.815 392.434 298.056 390.106 296.642 387.259H411.62C410.769 389.573 410.769 392.114 411.62 394.428Z" fill="#195DBB"/>
<path opacity="0.2" d="M411.62 394.428H296.642C297.815 392.434 298.056 390.106 296.642 387.259H411.62C410.769 389.573 410.769 392.114 411.62 394.428Z" fill="white"/>
<path d="M413.658 395.546H298.679C299.853 394.249 300.087 392.742 298.679 390.871H413.658C412.355 390.871 412.355 395.546 413.658 395.546Z" fill="#195DBB"/>
<path opacity="0.4" d="M413.658 395.546H298.679C299.853 394.249 300.087 392.742 298.679 390.871H413.658C412.355 390.871 412.355 395.546 413.658 395.546Z" fill="white"/>
<path d="M296.642 362.868V382.115H394.762V357.304L296.642 362.868Z" fill="#3B82F6"/>
<path d="M300.618 365.776V379.571L363.19 379.089V361.54L300.618 365.776Z" fill="white"/>
<path d="M378.849 374.804C381.823 374.804 384.234 372.393 384.234 369.419C384.234 366.445 381.823 364.035 378.849 364.035C375.876 364.035 373.465 366.445 373.465 369.419C373.465 372.393 375.876 374.804 378.849 374.804Z" fill="#3B82F6"/>
<path d="M378.849 375.125C377.722 375.126 376.619 374.793 375.68 374.167C374.742 373.541 374.011 372.651 373.579 371.61C373.147 370.568 373.033 369.421 373.253 368.315C373.473 367.209 374.016 366.193 374.813 365.395C375.611 364.598 376.626 364.055 377.733 363.835C378.839 363.615 379.986 363.729 381.027 364.161C382.069 364.593 382.959 365.325 383.585 366.263C384.211 367.201 384.544 368.304 384.543 369.432C384.54 370.941 383.939 372.387 382.872 373.454C381.805 374.521 380.359 375.122 378.849 375.125ZM378.849 364.35C377.844 364.348 376.861 364.645 376.024 365.203C375.188 365.761 374.536 366.554 374.15 367.483C373.764 368.411 373.662 369.433 373.858 370.42C374.053 371.406 374.537 372.312 375.248 373.023C375.958 373.734 376.864 374.219 377.85 374.416C378.835 374.612 379.858 374.512 380.787 374.128C381.716 373.743 382.51 373.092 383.068 372.256C383.627 371.42 383.925 370.437 383.925 369.432C383.927 368.764 383.797 368.102 383.542 367.485C383.288 366.867 382.915 366.305 382.443 365.832C381.972 365.359 381.412 364.984 380.795 364.727C380.178 364.471 379.518 364.338 378.849 364.337V364.35Z" fill="white"/>
<path d="M394.762 357.304V358.996L417.894 373.155V370.58L394.762 357.304Z" fill="#3B82F6"/>
<path opacity="0.2" d="M394.762 357.304V358.996L417.894 373.155V370.58L394.762 357.304Z" fill="black"/>
<path d="M395.38 373.76L417.913 385.863L439.698 374.934L419.938 366.863C419.938 366.863 407.878 374.545 395.38 373.76Z" fill="white"/>
<path d="M394.762 379.571L423.581 388.889L407.81 382.115L394.762 379.571Z" fill="white"/>
<path d="M381.171 427.143L423.686 449.108L472.469 430.502L441.717 411.057C441.717 411.057 427.904 445.409 381.171 427.143Z" fill="white"/>
<path opacity="0.2" d="M343.887 395.669C343.887 395.669 367.907 405.148 390.341 426.797L401.858 418.449C376.682 401.511 343.887 395.669 343.887 395.669Z" fill="black"/>
<path d="M441.501 395.669H343.887C343.887 395.669 384.209 402.845 409.724 424.377L441.501 395.669Z" fill="white"/>
<path opacity="0.2" d="M410.75 499.959C409.036 492.666 407.831 485.263 407.143 477.803C404.425 473.958 402.279 469.74 400.771 465.28C400.616 479.662 401.858 493.92 405.192 507.992L414.004 510.74V501.009L410.75 499.959Z" fill="black"/>
<path d="M406.328 457.253C406.174 471.634 407.415 485.892 410.75 499.965L454.141 513.21V485.225C454.141 485.225 418.715 492.888 406.328 457.253Z" fill="white"/>
<path d="M375.953 236.377C386.921 225.41 386.921 207.628 375.953 196.661C364.986 185.693 347.204 185.693 336.237 196.661C325.27 207.628 325.27 225.41 336.237 236.377C347.204 247.344 364.986 247.344 375.953 236.377Z" fill="#495057"/>
<path opacity="0.2" d="M375.953 236.377C386.921 225.41 386.921 207.628 375.953 196.661C364.986 185.693 347.204 185.693 336.237 196.661C325.27 207.628 325.27 225.41 336.237 236.377C347.204 247.344 364.986 247.344 375.953 236.377Z" fill="black"/>
<path d="M364.824 242.859C378.673 235.875 384.239 218.987 377.255 205.138C370.272 191.288 353.383 185.723 339.534 192.707C325.685 199.69 320.12 216.579 327.103 230.427C334.086 244.277 350.975 249.842 364.824 242.859Z" fill="#495057"/>
<path d="M370.127 231.327C377.637 221.408 375.684 207.279 365.765 199.77C355.846 192.26 341.717 194.213 334.208 204.132C326.698 214.051 328.651 228.179 338.57 235.689C348.488 243.199 362.617 241.245 370.127 231.327Z" fill="#495057"/>
<g opacity="0.2">
<path opacity="0.8" d="M370.127 231.327C377.637 221.408 375.684 207.279 365.765 199.77C355.846 192.26 341.717 194.213 334.208 204.132C326.698 214.051 328.651 228.179 338.57 235.689C348.488 243.199 362.617 241.245 370.127 231.327Z" fill="white"/>
</g>
<g opacity="0.3">
<path opacity="0.3" d="M332.698 225.295C331.458 221.4 331.299 217.242 332.241 213.265C333.183 209.288 335.189 205.642 338.043 202.718C340.899 199.793 344.495 197.7 348.448 196.663C352.401 195.625 356.562 195.682 360.485 196.828C357.734 195.742 354.796 195.209 351.839 195.258C348.882 195.308 345.963 195.939 343.251 197.117C340.537 198.295 338.083 199.995 336.027 202.121C333.971 204.247 332.354 206.757 331.268 209.508C330.182 212.259 329.649 215.197 329.698 218.155C329.748 221.112 330.379 224.03 331.557 226.743C332.735 229.456 334.435 231.911 336.561 233.967C338.687 236.023 341.197 237.64 343.948 238.725C338.619 235.852 334.593 231.046 332.698 225.295Z" fill="black"/>
</g>
<path d="M355.613 233.044L354.631 229.957C351.099 230.908 348.981 230.278 347.647 226.085C347.355 225.186 347.133 224.265 346.986 223.331L351.377 221.936C351.455 222.353 351.558 222.766 351.686 223.171C352.266 224.992 352.717 225.98 354.495 225.412C356.274 224.844 356.23 224.177 355.483 221.831C355.119 220.688 354.995 220.293 354.187 219.941C352.488 219.126 348.981 219.324 347.085 218.706C345.399 218.194 344.658 216.952 343.485 213.278C342.139 209.048 342.948 207.221 346.919 205.739L346.141 203.269L348.611 202.478L349.389 204.948C353.155 203.923 354.878 204.812 356.076 208.567C356.338 209.375 356.544 210.2 356.694 211.037L352.371 212.42C352.265 211.962 352.136 211.511 351.982 211.068C351.457 209.407 350.951 208.647 349.29 209.178C347.869 209.635 347.623 210.234 348.259 212.21C348.895 214.186 349.092 214.427 350.624 214.587C352.303 214.797 353.865 214.779 355.317 214.964C357.373 215.273 358.688 215.285 359.985 219.361C361.837 225.091 361.374 227.388 357.126 229.111L358.12 232.198L355.613 233.044Z" fill="white"/>
<path d="M512.199 140.454C537.896 135.678 554.856 110.974 550.076 85.2773C545.303 59.5801 520.598 42.621 494.901 47.3974C469.205 52.1738 452.246 76.8775 457.022 102.575C461.798 128.271 486.502 145.23 512.199 140.454Z" fill="#495057"/>
<path opacity="0.2" d="M512.199 140.454C537.896 135.678 554.856 110.974 550.076 85.2773C545.303 59.5801 520.598 42.621 494.901 47.3974C469.205 52.1738 452.246 76.8775 457.022 102.575C461.798 128.271 486.502 145.23 512.199 140.454Z" fill="black"/>
<path d="M543.992 95.7396C545.877 69.6712 526.276 47.0083 500.207 45.1213C474.138 43.2348 451.475 62.838 449.588 88.9063C447.701 114.975 467.305 137.638 493.373 139.525C519.442 141.412 542.105 121.809 543.992 95.7396Z" fill="#495057"/>
<g opacity="0.2">
<path opacity="0.8" d="M511.014 127.527C530.456 119.687 539.863 97.5711 532.023 78.1291C524.183 58.6865 502.067 49.2801 482.625 57.1199C463.182 64.9591 453.776 87.0755 461.615 106.518C469.455 125.961 491.571 135.366 511.014 127.527Z" fill="white"/>
</g>
<g opacity="0.2">
<path opacity="0.2" d="M462.138 86.3635C463.712 79.6611 467.078 73.5133 471.879 68.5776C476.679 63.6426 482.731 60.1061 489.386 58.3469C496.042 56.587 503.052 56.6716 509.663 58.5908C516.275 60.5094 522.24 64.1909 526.92 69.2402C523.883 65.2894 520.097 61.9753 515.779 59.488C511.461 57.0001 506.695 55.3872 501.754 54.7413C496.813 54.0954 491.793 54.4288 486.981 55.7231C482.168 57.0174 477.657 59.2466 473.707 62.2841C469.756 65.3215 466.442 69.1068 463.955 73.425C461.467 77.7432 459.854 82.5084 459.208 87.4497C458.562 92.3915 458.896 97.4112 460.19 102.224C461.484 107.036 463.714 111.546 466.751 115.497C461.538 106.735 459.887 96.3071 462.138 86.3635Z" fill="black"/>
</g>
<path d="M488.561 117.393L489.796 112.089C483.874 110.409 481.354 107.667 483.053 100.449C483.406 98.8981 483.884 97.3784 484.479 95.9039L492.037 97.6761C491.786 98.3559 491.58 99.0506 491.42 99.7571C490.685 102.888 490.475 104.697 493.538 105.426C496.6 106.154 497.132 105.117 498.076 101.103C498.539 99.1272 498.694 98.448 497.829 97.2377C496.082 94.6009 490.833 91.8592 488.629 89.3275C486.628 87.1354 486.628 84.6962 488.116 78.3669C489.827 71.0804 492.581 69.1414 499.608 70.432L500.596 66.2206L504.881 67.2272L503.893 71.4447C510.229 73.2169 511.921 75.9895 510.426 82.4609C510.109 83.8502 509.696 85.2162 509.191 86.5487L501.701 84.7889C501.952 84.0337 502.158 83.2649 502.319 82.4856C502.992 79.6327 502.936 78.1013 500.065 77.4344C497.595 76.854 496.743 77.5147 495.94 80.9171C495.106 84.4554 495.23 84.8444 497.304 86.4067C499.552 88.1604 501.825 89.4942 503.764 91.0132C506.474 93.2301 508.358 94.391 506.709 101.406C504.393 111.286 501.769 114.244 494.137 113.027L492.902 118.399L488.561 117.393Z" fill="white"/>
<path d="M281.912 141.905C296.437 127.38 296.437 103.831 281.912 89.3071C267.388 74.7829 243.84 74.7829 229.315 89.3071C214.791 103.831 214.791 127.38 229.315 141.905C243.84 156.429 267.388 156.429 281.912 141.905Z" fill="#495057"/>
<path opacity="0.2" d="M281.912 141.905C296.437 127.38 296.437 103.831 281.912 89.3071C267.388 74.7829 243.84 74.7829 229.315 89.3071C214.791 103.831 214.791 127.38 229.315 141.905C243.84 156.429 267.388 156.429 281.912 141.905Z" fill="black"/>
<path d="M266.974 150.54C285.367 141.397 292.867 119.074 283.724 100.681C274.581 82.2874 252.259 74.7878 233.865 83.9305C215.472 93.0732 207.972 115.396 217.115 133.789C226.258 152.183 248.58 159.682 266.974 150.54Z" fill="#495057"/>
<path d="M274.093 135.344C284.114 122.266 281.635 103.542 268.558 93.5209C255.48 83.5007 236.755 85.9788 226.734 99.0568C216.714 112.135 219.192 130.859 232.27 140.88C245.348 150.9 264.073 148.422 274.093 135.344Z" fill="#495057"/>
<g opacity="0.2">
<path opacity="0.8" d="M274.093 135.344C284.114 122.266 281.635 103.542 268.558 93.5209C255.48 83.5007 236.755 85.9788 226.734 99.0568C216.714 112.135 219.192 130.859 232.27 140.88C245.348 150.9 264.073 148.422 274.093 135.344Z" fill="white"/>
</g>
<g opacity="0.2">
<path opacity="0.2" d="M224.567 127.051C222.955 121.886 222.778 116.38 224.053 111.122C225.33 105.865 228.011 101.053 231.812 97.2018C235.612 93.3505 240.387 90.6057 245.628 89.2595C250.868 87.914 256.376 88.0184 261.561 89.5621C257.927 88.1023 254.04 87.3731 250.123 87.4157C246.206 87.4577 242.336 88.2715 238.734 89.8097C235.131 91.3479 231.867 93.5802 229.128 96.3799C226.388 99.1797 224.227 102.491 222.767 106.127C221.307 109.761 220.578 113.648 220.621 117.565C220.663 121.482 221.476 125.352 223.015 128.954C224.553 132.557 226.786 135.821 229.585 138.56C232.385 141.3 235.697 143.461 239.331 144.921C232.306 141.07 227.021 134.675 224.561 127.051H224.567Z" fill="black"/>
</g>
<path d="M254.855 137.486L253.577 133.398C248.897 134.633 246.093 133.775 244.358 128.218C243.98 127.025 243.695 125.805 243.506 124.568L249.335 122.753C249.436 123.312 249.57 123.865 249.736 124.408C250.49 126.822 251.076 128.113 253.441 127.396C255.806 126.68 255.751 125.754 254.781 122.66C254.306 121.141 254.164 120.616 253.077 120.147C250.836 119.06 246.192 119.301 243.685 118.473C241.456 117.788 240.48 116.133 238.955 111.255C237.201 105.642 238.294 103.227 243.561 101.295L242.543 98.0527L245.846 97.0154L246.859 100.263C251.854 98.9358 254.127 100.128 255.683 105.105C256.022 106.174 256.286 107.265 256.473 108.371L250.706 110.174C250.568 109.567 250.399 108.967 250.2 108.377C249.508 106.173 248.853 105.173 246.649 105.858C244.759 106.445 244.432 107.241 245.253 109.866C246.105 112.589 246.346 112.805 248.341 113.033C250.558 113.317 252.626 113.305 254.553 113.571C257.276 113.984 259.011 114.015 260.728 119.418C263.105 127.026 262.512 130.089 256.869 132.312L258.165 136.455L254.855 137.486Z" fill="white"/>
<path d="M318.296 256.068L110.113 255.56C107.425 255.553 105.241 257.726 105.235 260.413L104.514 555.534C104.507 558.22 106.68 560.406 109.367 560.412L317.551 560.918C320.238 560.925 322.422 558.757 322.429 556.065L323.15 260.946C323.157 258.259 320.983 256.075 318.296 256.068Z" fill="#495057"/>
<path opacity="0.3" d="M318.296 256.068L110.113 255.56C107.425 255.553 105.241 257.726 105.235 260.413L104.514 555.534C104.507 558.22 106.68 560.406 109.367 560.412L317.551 560.918C320.238 560.925 322.422 558.757 322.429 556.065L323.15 260.946C323.157 258.259 320.983 256.075 318.296 256.068Z" fill="white"/>
<path d="M313.653 256.051L105.469 255.542C102.782 255.536 100.598 257.709 100.591 260.396L99.8704 555.515C99.8636 558.201 102.037 560.387 104.724 560.394L312.907 560.906C315.595 560.912 317.779 558.739 317.786 556.046L318.506 260.928C318.513 258.241 316.34 256.057 313.653 256.051Z" fill="#495057"/>
<path opacity="0.7" d="M313.653 256.051L105.469 255.542C102.782 255.536 100.598 257.709 100.591 260.396L99.8704 555.515C99.8636 558.201 102.037 560.387 104.724 560.394L312.907 560.906C315.595 560.912 317.779 558.739 317.786 556.046L318.506 260.928C318.513 258.241 316.34 256.057 313.653 256.051Z" fill="white"/>
<path d="M288.948 298.086L132.369 297.703L132.271 337.995L288.85 338.378L288.948 298.086Z" fill="#495057"/>
<path opacity="0.85" d="M288.948 298.086L132.369 297.703L132.271 337.995L288.85 338.378L288.948 298.086Z" fill="white"/>
<path d="M136.536 303.501L288.96 303.865L288.972 298.061L132.393 297.69L132.3 337.982L136.45 337.989L136.536 303.501Z" fill="#495057"/>
<path opacity="0.2" d="M136.536 303.501L288.96 303.865L288.972 298.061L132.393 297.69L132.3 337.982L136.45 337.989L136.536 303.501Z" fill="black"/>
<path d="M174.585 349.59L134.831 349.493C133.402 349.489 132.24 350.645 132.237 352.074L132.214 361.416C132.211 362.845 133.366 364.007 134.795 364.01L174.55 364.107C175.978 364.111 177.14 362.955 177.143 361.526L177.166 352.184C177.17 350.755 176.014 349.593 174.585 349.59Z" fill="#495057"/>
<path d="M230.413 349.726L190.658 349.629C189.229 349.626 188.069 350.781 188.065 352.21L188.042 361.553C188.038 362.982 189.194 364.143 190.623 364.146L230.377 364.243C231.807 364.247 232.968 363.092 232.971 361.663L232.994 352.32C232.997 350.891 231.842 349.73 230.413 349.726Z" fill="#495057"/>
<path d="M287.305 348.986H247.55C246.122 348.986 244.963 350.145 244.963 351.574V360.916C244.963 362.345 246.122 363.504 247.55 363.504H287.305C288.734 363.504 289.892 362.345 289.892 360.916V351.574C289.892 350.145 288.734 348.986 287.305 348.986Z" fill="#495057"/>
<path opacity="0.2" d="M174.585 349.59L134.831 349.493C133.402 349.489 132.24 350.645 132.237 352.074L132.214 361.416C132.211 362.845 133.366 364.007 134.795 364.01L174.55 364.107C175.978 364.111 177.14 362.955 177.143 361.526L177.166 352.184C177.17 350.755 176.014 349.593 174.585 349.59Z" fill="white"/>
<path opacity="0.2" d="M230.413 349.726L190.658 349.629C189.229 349.626 188.069 350.781 188.065 352.21L188.042 361.553C188.038 362.982 189.194 364.143 190.623 364.146L230.377 364.243C231.807 364.247 232.968 363.092 232.971 361.663L232.994 352.32C232.997 350.891 231.842 349.73 230.413 349.726Z" fill="white"/>
<path opacity="0.2" d="M287.305 348.986H247.55C246.122 348.986 244.963 350.145 244.963 351.574V360.916C244.963 362.345 246.122 363.504 247.55 363.504H287.305C288.734 363.504 289.892 362.345 289.892 360.916V351.574C289.892 350.145 288.734 348.986 287.305 348.986Z" fill="white"/>
<path d="M165.519 375.577L133.612 375.499C132.821 375.497 132.178 376.136 132.176 376.928L132.104 406.604C132.102 407.396 132.742 408.039 133.533 408.041L165.439 408.119C166.23 408.12 166.873 407.481 166.875 406.69L166.948 377.013C166.949 376.222 166.31 375.579 165.519 375.577Z" fill="#495057"/>
<path opacity="0.4" d="M165.519 375.577L133.612 375.499C132.821 375.497 132.178 376.136 132.176 376.928L132.104 406.604C132.102 407.396 132.742 408.039 133.533 408.041L165.439 408.119C166.23 408.12 166.873 407.481 166.875 406.69L166.948 377.013C166.949 376.222 166.31 375.579 165.519 375.577Z" fill="white"/>
<path d="M206.119 375.676L174.212 375.598C173.421 375.596 172.779 376.236 172.777 377.027L172.704 406.704C172.702 407.495 173.342 408.138 174.133 408.14L206.039 408.218C206.831 408.22 207.473 407.58 207.475 406.789L207.548 377.112C207.55 376.321 206.91 375.678 206.119 375.676Z" fill="#495057"/>
<path opacity="0.4" d="M206.119 375.676L174.212 375.598C173.421 375.596 172.779 376.236 172.777 377.027L172.704 406.704C172.702 407.495 173.342 408.138 174.133 408.14L206.039 408.218C206.831 408.22 207.473 407.58 207.475 406.789L207.548 377.112C207.55 376.321 206.91 375.678 206.119 375.676Z" fill="white"/>
<path d="M246.725 375.775L214.819 375.697C214.028 375.695 213.385 376.335 213.383 377.126L213.311 406.803C213.308 407.594 213.949 408.237 214.74 408.239L246.646 408.317C247.437 408.319 248.08 407.68 248.081 406.888L248.154 377.211C248.156 376.42 247.516 375.777 246.725 375.775Z" fill="#495057"/>
<path opacity="0.4" d="M246.725 375.775L214.819 375.697C214.028 375.695 213.385 376.335 213.383 377.126L213.311 406.803C213.308 407.594 213.949 408.237 214.74 408.239L246.646 408.317C247.437 408.319 248.08 407.68 248.081 406.888L248.154 377.211C248.156 376.42 247.516 375.777 246.725 375.775Z" fill="white"/>
<path d="M165.42 415.689L133.514 415.611C132.723 415.61 132.08 416.249 132.079 417.04L132.006 446.717C132.004 447.508 132.644 448.151 133.435 448.154L165.341 448.231C166.132 448.233 166.775 447.594 166.777 446.803L166.849 417.126C166.852 416.334 166.211 415.691 165.42 415.689Z" fill="#495057"/>
<path opacity="0.4" d="M165.42 415.689L133.514 415.611C132.723 415.61 132.08 416.249 132.079 417.04L132.006 446.717C132.004 447.508 132.644 448.151 133.435 448.154L165.341 448.231C166.132 448.233 166.775 447.594 166.777 446.803L166.849 417.126C166.852 416.334 166.211 415.691 165.42 415.689Z" fill="white"/>
<path d="M206.027 415.795L174.12 415.716C173.329 415.714 172.687 416.354 172.685 417.146L172.612 446.823C172.61 447.614 173.25 448.257 174.041 448.259L205.948 448.336C206.739 448.339 207.381 447.699 207.383 446.907L207.456 417.23C207.458 416.439 206.818 415.797 206.027 415.795Z" fill="#495057"/>
<path opacity="0.4" d="M206.027 415.795L174.12 415.716C173.329 415.714 172.687 416.354 172.685 417.146L172.612 446.823C172.61 447.614 173.25 448.257 174.041 448.259L205.948 448.336C206.739 448.339 207.381 447.699 207.383 446.907L207.456 417.23C207.458 416.439 206.818 415.797 206.027 415.795Z" fill="white"/>
<path d="M246.627 415.894L214.721 415.816C213.93 415.814 213.287 416.454 213.285 417.245L213.212 446.922C213.211 447.713 213.85 448.356 214.641 448.358L246.548 448.436C247.339 448.438 247.982 447.798 247.984 447.007L248.056 417.33C248.058 416.539 247.418 415.895 246.627 415.894Z" fill="#495057"/>
<path opacity="0.4" d="M246.627 415.894L214.721 415.816C213.93 415.814 213.287 416.454 213.285 417.245L213.212 446.922C213.211 447.713 213.85 448.356 214.641 448.358L246.548 448.436C247.339 448.438 247.982 447.798 247.984 447.007L248.056 417.33C248.058 416.539 247.418 415.895 246.627 415.894Z" fill="white"/>
<path d="M282.062 376.311L261.457 376.261C259.579 376.258 257.776 377 256.445 378.324C255.114 379.649 254.362 381.448 254.355 383.325V393.397V401.702L254.263 441.84C254.26 442.77 254.44 443.692 254.793 444.552C255.146 445.413 255.666 446.196 256.322 446.855C256.978 447.515 257.758 448.039 258.617 448.396C259.476 448.755 260.396 448.939 261.327 448.941L281.933 448.99C282.863 448.993 283.784 448.812 284.644 448.458C285.504 448.104 286.286 447.585 286.944 446.929C287.603 446.273 288.126 445.493 288.484 444.635C288.841 443.776 289.026 442.856 289.028 441.926L289.127 401.789V393.489V383.418C289.131 382.487 288.951 381.565 288.598 380.704C288.245 379.842 287.726 379.059 287.069 378.398C286.413 377.738 285.633 377.214 284.774 376.856C283.915 376.498 282.994 376.312 282.062 376.311Z" fill="#495057"/>
<path opacity="0.4" d="M282.062 376.311L261.457 376.261C259.579 376.258 257.776 377 256.445 378.324C255.114 379.649 254.362 381.448 254.355 383.325V393.397V401.702L254.263 441.84C254.26 442.77 254.44 443.692 254.793 444.552C255.146 445.413 255.666 446.196 256.322 446.855C256.978 447.515 257.758 448.039 258.617 448.396C259.476 448.755 260.396 448.939 261.327 448.941L281.933 448.99C282.863 448.993 283.784 448.812 284.644 448.458C285.504 448.104 286.286 447.585 286.944 446.929C287.603 446.273 288.126 445.493 288.484 444.635C288.841 443.776 289.026 442.856 289.028 441.926L289.127 401.789V393.489V383.418C289.131 382.487 288.951 381.565 288.598 380.704C288.245 379.842 287.726 379.059 287.069 378.398C286.413 377.738 285.633 377.214 284.774 376.856C283.915 376.498 282.994 376.312 282.062 376.311Z" fill="white"/>
<path d="M165.322 455.808L133.416 455.73C132.625 455.728 131.982 456.368 131.98 457.159L131.908 486.836C131.906 487.627 132.545 488.27 133.337 488.272L165.243 488.35C166.034 488.352 166.677 487.712 166.679 486.921L166.752 457.244C166.754 456.453 166.114 455.81 165.322 455.808Z" fill="#495057"/>
<path opacity="0.4" d="M165.322 455.808L133.416 455.73C132.625 455.728 131.982 456.368 131.98 457.159L131.908 486.836C131.906 487.627 132.545 488.27 133.337 488.272L165.243 488.35C166.034 488.352 166.677 487.712 166.679 486.921L166.752 457.244C166.754 456.453 166.114 455.81 165.322 455.808Z" fill="white"/>
<path d="M205.923 455.913L174.017 455.835C173.226 455.833 172.582 456.473 172.58 457.264L172.508 486.941C172.506 487.732 173.146 488.376 173.937 488.378L205.843 488.455C206.634 488.457 207.278 487.817 207.28 487.026L207.352 457.349C207.354 456.558 206.714 455.915 205.923 455.913Z" fill="#495057"/>
<path opacity="0.4" d="M205.923 455.913L174.017 455.835C173.226 455.833 172.582 456.473 172.58 457.264L172.508 486.941C172.506 487.732 173.146 488.376 173.937 488.378L205.843 488.455C206.634 488.457 207.278 487.817 207.28 487.026L207.352 457.349C207.354 456.558 206.714 455.915 205.923 455.913Z" fill="white"/>
<path d="M246.529 456.006L214.623 455.929C213.832 455.926 213.189 456.566 213.187 457.357L213.114 487.035C213.112 487.826 213.752 488.468 214.544 488.47L246.449 488.549C247.241 488.55 247.884 487.911 247.886 487.119L247.959 457.442C247.96 456.651 247.32 456.008 246.529 456.006Z" fill="#495057"/>
<path opacity="0.4" d="M246.529 456.006L214.623 455.929C213.832 455.926 213.189 456.566 213.187 457.357L213.114 487.035C213.112 487.826 213.752 488.468 214.544 488.47L246.449 488.549C247.241 488.55 247.884 487.911 247.886 487.119L247.959 457.442C247.96 456.651 247.32 456.008 246.529 456.006Z" fill="white"/>
<path d="M287.13 456.105L255.224 456.027C254.433 456.026 253.789 456.665 253.787 457.456L253.715 487.133C253.713 487.925 254.353 488.568 255.144 488.57L287.05 488.647C287.841 488.649 288.484 488.01 288.486 487.219L288.559 457.542C288.56 456.751 287.921 456.108 287.13 456.105Z" fill="#495057"/>
<path opacity="0.4" d="M287.13 456.105L255.224 456.027C254.433 456.026 253.789 456.665 253.787 457.456L253.715 487.133C253.713 487.925 254.353 488.568 255.144 488.57L287.05 488.647C287.841 488.649 288.484 488.01 288.486 487.219L288.559 457.542C288.56 456.751 287.921 456.108 287.13 456.105Z" fill="white"/>
<path d="M165.225 495.933L133.318 495.854C132.527 495.852 131.884 496.493 131.882 497.284L131.81 526.961C131.808 527.752 132.448 528.395 133.239 528.397L165.145 528.475C165.936 528.477 166.579 527.837 166.581 527.045L166.654 497.368C166.655 496.577 166.016 495.935 165.225 495.933Z" fill="#495057"/>
<path opacity="0.4" d="M165.225 495.933L133.318 495.854C132.527 495.852 131.884 496.493 131.882 497.284L131.81 526.961C131.808 527.752 132.448 528.395 133.239 528.397L165.145 528.475C165.936 528.477 166.579 527.837 166.581 527.045L166.654 497.368C166.655 496.577 166.016 495.935 165.225 495.933Z" fill="white"/>
<path d="M205.831 496.026L173.925 495.948C173.134 495.946 172.491 496.585 172.488 497.377L172.416 527.054C172.414 527.845 173.054 528.488 173.845 528.49L205.751 528.568C206.542 528.57 207.186 527.93 207.188 527.139L207.26 497.462C207.262 496.671 206.622 496.028 205.831 496.026Z" fill="#495057"/>
<path opacity="0.4" d="M205.831 496.026L173.925 495.948C173.134 495.946 172.491 496.585 172.488 497.377L172.416 527.054C172.414 527.845 173.054 528.488 173.845 528.49L205.751 528.568C206.542 528.57 207.186 527.93 207.188 527.139L207.26 497.462C207.262 496.671 206.622 496.028 205.831 496.026Z" fill="white"/>
<path d="M246.431 496.125L214.525 496.047C213.734 496.045 213.091 496.685 213.089 497.476L213.017 527.153C213.014 527.944 213.655 528.587 214.446 528.589L246.352 528.667C247.143 528.669 247.786 528.029 247.788 527.238L247.86 497.561C247.862 496.77 247.223 496.127 246.431 496.125Z" fill="#495057"/>
<path opacity="0.4" d="M246.431 496.125L214.525 496.047C213.734 496.045 213.091 496.685 213.089 497.476L213.017 527.153C213.014 527.944 213.655 528.587 214.446 528.589L246.352 528.667C247.143 528.669 247.786 528.029 247.788 527.238L247.86 497.561C247.862 496.77 247.223 496.127 246.431 496.125Z" fill="white"/>
<path d="M287.038 496.23L255.132 496.153C254.34 496.151 253.697 496.79 253.695 497.581L253.623 527.258C253.621 528.05 254.261 528.692 255.052 528.694L286.958 528.773C287.749 528.774 288.392 528.135 288.394 527.343L288.467 497.667C288.468 496.875 287.829 496.232 287.038 496.23Z" fill="#495057"/>
<path opacity="0.2" d="M287.038 496.23L255.132 496.153C254.34 496.151 253.697 496.79 253.695 497.581L253.623 527.258C253.621 528.05 254.261 528.692 255.052 528.694L286.958 528.773C287.749 528.774 288.392 528.135 288.394 527.343L288.467 497.667C288.468 496.875 287.829 496.232 287.038 496.23Z" fill="white"/>
<path d="M155.333 463.495V465.138L147.262 481.909L144.681 481.903L152.721 465.613V465.558L143.705 465.533V463.465L155.333 463.495Z" fill="white"/>
<path d="M192.618 472.202V472.116C194.89 471.041 195.656 469.374 195.662 467.793C195.662 465.496 193.884 463.248 190.308 463.242C187.079 463.242 184.602 465.212 184.596 468.139C184.596 469.726 185.467 471.313 187.511 472.282V472.369C185.245 473.326 183.849 474.969 183.843 477.309C183.843 480.001 186.159 482.304 190.018 482.317C193.538 482.317 196.292 480.174 196.304 476.969C196.323 474.734 194.909 473.116 192.618 472.202ZM186.968 467.991C186.968 466.404 188.11 465.045 190.179 465.045C190.586 465.014 190.995 465.07 191.38 465.21C191.764 465.349 192.114 465.57 192.406 465.856C192.699 466.141 192.927 466.486 193.075 466.867C193.223 467.249 193.288 467.657 193.266 468.065C193.266 469.738 192.031 470.868 190.45 471.399C188.338 470.837 186.968 469.831 186.968 467.991ZM190.111 480.508C187.758 480.508 186.344 478.853 186.406 476.982C186.406 475.222 187.579 473.808 189.734 473.19C192.204 473.9 193.791 474.981 193.785 477.222C193.791 479.124 192.34 480.514 190.098 480.508H190.111Z" fill="white"/>
<path d="M190.191 502.886C186.443 502.886 183.769 506.276 183.757 512.457C183.744 518.638 186.227 521.936 189.833 521.942C193.914 521.942 196.249 518.496 196.261 512.229C196.279 506.362 194.075 502.892 190.191 502.886ZM189.975 520.015C187.709 520.015 186.239 517.286 186.27 512.488C186.27 507.468 187.875 504.806 190.061 504.812C192.642 504.812 193.766 507.801 193.766 512.34C193.76 517.045 192.525 520.021 189.975 520.015Z" fill="white"/>
<path d="M231.495 463.36C227.722 463.36 225.191 466.41 225.185 469.899C225.185 473.042 227.296 475.543 230.619 475.555C231.442 475.576 232.259 475.409 233.008 475.067C233.757 474.725 234.418 474.216 234.941 473.579H235.028C234.799 475.451 233.926 477.185 232.558 478.482C231.489 479.462 230.139 480.082 228.698 480.254C228.032 480.349 227.357 480.377 226.685 480.335V482.379C227.453 482.411 228.223 482.366 228.982 482.243C230.993 482.03 232.879 481.162 234.348 479.773C236.201 478.019 237.535 475.185 237.547 471.128C237.602 466.435 235.268 463.366 231.495 463.36ZM234.824 471.733C234.438 472.343 233.9 472.842 233.261 473.179C232.624 473.516 231.908 473.679 231.187 473.653C229.032 473.653 227.648 472.029 227.655 469.732C227.655 467.12 229.167 465.255 231.292 465.261C233.904 465.261 235.058 467.682 235.052 470.819C235.068 471.139 234.989 471.457 234.824 471.733Z" fill="white"/>
<path d="M153.505 434.041L153.536 422.586H150.838L142.588 434.319V435.961H151.152V440.981H153.505V435.961H156.092V434.004L153.505 434.041ZM151.165 427.866V434.041H145.126V433.985L149.646 427.724C150.158 426.878 150.615 426.081 151.183 425.007H151.27C151.202 425.951 151.152 426.915 151.152 427.884L151.165 427.866Z" fill="white"/>
<path d="M195.223 424.784H188.19L187.468 429.521C187.967 429.446 188.47 429.409 188.974 429.409C190.362 429.386 191.73 429.734 192.939 430.416C193.767 430.892 194.45 431.586 194.914 432.421C195.378 433.257 195.604 434.203 195.569 435.158C195.569 438.758 192.686 441.445 188.69 441.438C187.084 441.47 185.498 441.073 184.096 440.29L184.714 438.394C185.92 439.061 187.274 439.415 188.653 439.425C191.006 439.425 193.025 437.9 193.031 435.436C193.038 432.972 191.426 431.348 187.739 431.336C186.884 431.345 186.03 431.41 185.183 431.527L186.418 422.685H195.242L195.223 424.784Z" fill="white"/>
<path d="M232.175 429.07C231.318 429.049 230.468 429.229 229.695 429.596C228.92 429.963 228.243 430.506 227.716 431.182H227.63C227.827 429.535 228.566 428 229.729 426.818C230.892 425.636 232.415 424.873 234.058 424.648C234.67 424.547 235.291 424.51 235.911 424.537V422.493C235.303 422.496 234.696 422.543 234.095 422.635C231.881 422.859 229.802 423.811 228.186 425.34C226.37 427.156 225.055 430.015 225.049 433.645C225.049 438.437 227.611 441.506 231.551 441.519C235.379 441.519 237.689 438.431 237.695 435.035C237.726 431.435 235.435 429.076 232.175 429.07ZM231.557 439.567C228.945 439.567 227.562 437.32 227.513 434.288C227.504 433.899 227.605 433.516 227.803 433.182C228.137 432.515 228.646 431.952 229.276 431.553C229.906 431.154 230.633 430.933 231.378 430.916C233.675 430.916 235.176 432.515 235.17 435.152C235.163 437.789 233.737 439.592 231.582 439.586L231.557 439.567Z" fill="white"/>
<path d="M148.967 385.703H148.911L145.706 387.426L145.224 385.524L149.257 383.381H151.387L151.344 401.82L148.929 401.813L148.967 385.703Z" fill="white"/>
<path d="M184.275 401.9V400.368L186.239 398.473C190.957 394.002 193.093 391.625 193.124 388.846C193.124 386.993 192.229 385.24 189.475 385.233C188.03 385.281 186.646 385.829 185.56 386.783L184.769 385.005C186.238 383.79 188.088 383.135 189.993 383.153C193.964 383.153 195.631 385.888 195.625 388.525C195.625 391.927 193.155 394.7 189.246 398.405L187.77 399.763V399.825H196.051V401.894L184.275 401.9Z" fill="white"/>
<path d="M226.061 399.133C227.298 399.869 228.704 400.273 230.143 400.307C233.348 400.307 234.348 398.275 234.324 396.744C234.324 394.163 231.977 393.039 229.563 393.039H228.173V391.186H229.575C231.39 391.186 233.688 390.26 233.694 388.099C233.694 386.623 232.767 385.314 230.47 385.308C229.142 385.348 227.853 385.777 226.765 386.543L226.148 384.721C227.587 383.793 229.265 383.306 230.977 383.319C234.608 383.319 236.244 385.487 236.238 387.728C236.238 389.624 235.095 391.242 232.823 392.051V392.106C235.095 392.569 236.936 394.274 236.929 396.855C236.929 399.806 234.614 402.381 230.193 402.369C228.514 402.393 226.859 401.967 225.401 401.134L226.061 399.133Z" fill="white"/>
<path d="M151.474 519.114C151.472 519.553 151.341 519.983 151.096 520.347C150.85 520.712 150.502 520.996 150.095 521.164C149.689 521.33 149.242 521.374 148.811 521.287C148.38 521.2 147.984 520.987 147.674 520.675C147.364 520.363 147.154 519.966 147.069 519.535C146.984 519.104 147.029 518.657 147.199 518.251C147.368 517.845 147.654 517.499 148.021 517.256C148.387 517.012 148.817 516.883 149.257 516.884C149.549 516.884 149.838 516.942 150.108 517.054C150.378 517.167 150.623 517.331 150.828 517.538C151.035 517.745 151.198 517.991 151.308 518.261C151.419 518.532 151.475 518.822 151.474 519.114Z" fill="white"/>
<path d="M284.52 413.348L272.819 413.324L272.843 401.616L269.836 401.61L269.805 413.311L258.103 413.287L258.097 416.294L269.799 416.325L269.774 428.026L272.781 428.032L272.812 416.331L284.514 416.356L284.52 413.348Z" fill="white"/>
<path d="M238.245 519.287L232.064 513.075L238.276 506.893L236.689 505.294L230.477 511.475L224.295 505.263L222.696 506.856L228.877 513.068L222.665 519.25L224.258 520.843L230.47 514.661L236.652 520.874L238.245 519.287Z" fill="white"/>
<path d="M280.219 471.724L260.619 471.675L260.612 474.676L280.211 474.725L280.219 471.724Z" fill="white"/>
<path d="M280.857 506.417L261.257 506.368L261.25 509.369L280.849 509.418L280.857 506.417Z" fill="white"/>
<path d="M280.837 513.968L261.238 513.92L261.23 516.922L280.83 516.969L280.837 513.968Z" fill="white"/>
<path d="M243.197 207.813C245.667 206.152 240.542 203.448 237.38 203.861C224.758 205.485 222.035 200.021 227.914 200.681C232.601 201.206 232.49 198.211 232.341 197.748C232.193 197.285 230.656 197.254 227.457 196.791C226.222 196.612 213.187 196.359 206.295 203.207L206.11 206.467L210.902 219.157C213.304 217.49 218.312 213.97 220.998 212.259C234.682 214.235 240.468 209.635 243.197 207.813Z" fill="#FC9D9D"/>
<path d="M127.595 206.294C127.576 206.482 127.625 206.67 127.731 206.825L153.826 245.333C154.643 246.541 155.694 247.572 156.919 248.365C158.143 249.157 159.515 249.694 160.952 249.944C162.388 250.194 163.861 250.15 165.28 249.818C166.701 249.485 168.038 248.869 169.214 248.006L214.477 216.681C214.622 216.579 214.73 216.433 214.784 216.265C214.839 216.097 214.837 215.916 214.78 215.748L209.778 201.361C209.738 201.248 209.675 201.145 209.591 201.06C209.507 200.974 209.406 200.909 209.294 200.867C209.182 200.825 209.062 200.808 208.943 200.818C208.824 200.827 208.708 200.863 208.605 200.922L170.202 222.868C170.033 222.963 169.834 222.995 169.643 222.958C169.452 222.921 169.28 222.816 169.159 222.664L131.744 174.894C131.643 174.767 131.506 174.672 131.351 174.623C131.196 174.574 131.029 174.572 130.873 174.619C130.716 174.665 130.577 174.758 130.474 174.884C130.371 175.01 130.308 175.164 130.293 175.327L127.595 206.294Z" fill="#3B82F6"/>
<path d="M125.421 170.059L106.896 163.489L124.6 207.282C127.524 214.508 129.072 222.218 129.163 230.012L129.676 275.09L140.531 278.795L134.783 185.491C135.036 178.322 131.88 173.122 125.421 170.059Z" fill="#3B82F6"/>
<path d="M52.5933 552.323H69.6795L72.8411 523.411L52.6551 523.473L52.5933 552.323Z" fill="#495057"/>
<path opacity="0.15" d="M52.6242 531.89V534.242H66.0301C66.4766 534.242 66.9175 534.335 67.3244 534.52C67.732 534.699 68.0963 534.965 68.3939 535.298C68.6916 535.632 68.9163 536.021 69.0528 536.447C69.1893 536.873 69.2343 537.318 69.1856 537.762L68.0617 548.025H70.155L71.9273 531.884L52.6242 531.89Z" fill="black"/>
<path d="M54.3594 541.356L54.8781 540.905C58.7436 537.546 65.4188 537.589 69.1794 541.06L69.4634 541.35C69.9191 541.745 70.2865 542.233 70.5428 542.776C70.7991 543.32 70.9386 543.912 70.9516 544.518V546.37C70.9411 547.469 71.1319 548.556 71.5135 549.587L73.2796 554.682C73.7365 555.91 73.9687 557.213 73.965 558.522V559.14C73.965 560.128 72.9399 560.912 71.742 560.912H51.2842C50.0492 560.912 49.0612 560.122 49.0612 559.14V558.887C49.0668 557.38 49.3576 555.886 49.9195 554.484L51.9696 549.495C52.4433 548.365 52.6952 547.154 52.7106 545.932L52.7662 544.499C52.8656 543.283 53.4381 542.153 54.3594 541.356Z" fill="#195DBB"/>
<path d="M119.172 532.075L120.308 548.877L153.61 550.421L142.538 539.25C140.427 537.731 139.13 534.409 138.704 531.877L119.172 532.075Z" fill="#495057"/>
<path opacity="0.15" d="M131.071 534.878C132.601 534.878 134.101 535.292 135.409 536.089C136.716 536.885 137.779 538.022 138.481 539.38C139.027 540.479 139.811 541.436 140.779 542.19L148.713 550.217L153.616 550.446L142.545 539.275C140.433 537.756 139.136 534.434 138.71 531.902L119.178 532.1L119.376 535.02L131.071 534.878Z" fill="black"/>
<path d="M119.66 541.77C119.66 541.77 127.2 546.481 135.678 542.387C135.508 541.51 135.576 540.609 135.876 539.769C136.176 538.929 136.696 538.182 137.382 537.614C138.784 536.509 141.643 536.15 142.415 537.169C143.187 538.188 144.397 539.874 146.422 542.338C149.232 545.722 153.036 549.637 155.975 550.254C161.372 551.384 172.271 545.876 173.024 557.405C173.024 557.405 162.379 561.406 152.468 560.406C146.009 559.653 139.662 558.14 133.56 555.892V560.517H118.122C118.122 560.517 114.621 547.543 119.66 541.77Z" fill="#195DBB"/>
<path d="M116.992 553.181C117.142 555.682 117.522 558.164 118.129 560.591H133.566V555.96C139.668 558.214 146.014 559.727 152.474 560.48C162.354 561.48 173.024 557.479 173.024 557.479C172.972 556.59 172.834 555.707 172.611 554.842C164.865 558.776 155.906 559.591 147.577 557.121C141.921 555.472 137.358 554.336 133.375 553.193C133.338 553.144 120.08 552.86 116.992 553.181Z" fill="black"/>
<path d="M155.197 550.155C155.197 550.155 146.725 553.095 140.84 548.593C136.518 545.265 134.276 543.326 136.036 539.331C137.092 536.712 139.951 536.484 141.396 536.546C141.651 536.558 141.9 536.626 142.123 536.749C142.347 536.873 142.537 537.052 142.68 537.262C144.169 539.491 149.461 546.963 155.197 550.155Z" fill="black"/>
<path d="M52.8836 295.035L133.307 296.332L140.988 532.445H118.672L98.0475 338.841C97.9814 338.244 97.6999 337.69 97.2553 337.286C96.8113 336.881 96.2345 336.652 95.6331 336.642C95.0193 336.628 94.4228 336.846 93.9646 337.254C93.5058 337.663 93.2193 338.229 93.1631 338.841L73.7736 532.445H51.4324L52.8836 295.035Z" fill="#3B82F6"/>
<path opacity="0.2" d="M52.8836 295.035L133.307 296.332L140.988 532.445H118.672L98.0475 338.841C97.9814 338.244 97.6999 337.69 97.2553 337.286C96.8113 336.881 96.2345 336.652 95.6331 336.642C95.0193 336.628 94.4228 336.846 93.9646 337.254C93.5058 337.663 93.2193 338.229 93.1631 338.841L73.7736 532.445H51.4324L52.8836 295.035Z" fill="black"/>
<path d="M50.7841 527.617H75.1197L74.6751 532.445H50.71L50.7841 527.617Z" fill="#3B82F6"/>
<path opacity="0.2" d="M50.6235 527.617H74.9592L74.5208 532.445H50.5494L50.6235 527.617Z" fill="black"/>
<path opacity="0.2" d="M66.1598 527.617H74.8974L74.4775 532.445L65.7831 532.371L66.1598 527.617Z" fill="black"/>
<path opacity="0.2" d="M138.031 527.561L126.131 305.07H133.504L140.797 527.561H138.031Z" fill="black"/>
<path opacity="0.2" d="M66.0116 527.561L82.0666 346.979C82.8076 341.082 88.044 336.661 94.1943 336.661H95.843C95.2187 336.653 94.6136 336.878 94.1461 337.293C93.6793 337.708 93.3835 338.281 93.3174 338.902L74.1749 527.561H66.0116Z" fill="black"/>
<path d="M141.069 527.561H117.733L118.351 532.445H141.347L141.069 527.561Z" fill="#3B82F6"/>
<path opacity="0.3" d="M141.149 527.561H138.296L138.599 532.445H141.347L141.149 527.561Z" fill="#3B82F6"/>
<path opacity="0.2" d="M140.908 527.561H117.573L118.19 532.445H141.192L140.908 527.561Z" fill="black"/>
<path opacity="0.2" d="M140.988 527.561H138.136L138.438 532.445H141.192L140.988 527.561Z" fill="black"/>
<path d="M133.511 295.906H57.1443V305.076H133.511V295.906Z" fill="black"/>
<path d="M83.5239 295.906H81.4923V305.076H83.5239V295.906Z" fill="#3B82F6"/>
<path opacity="0.2" d="M83.5239 295.906H81.4923V305.076H83.5239V295.906Z" fill="black"/>
<path d="M115.146 295.906H96.8063V305.076H115.146V295.906Z" fill="#195DBB"/>
<path opacity="0.2" d="M115.146 295.906H96.8063V305.076H115.146V295.906Z" fill="white"/>
<path d="M141.001 335.055L141.618 280.098C141.618 280.098 139.574 243.622 140.383 237.441C141.192 231.26 139.148 215.606 135.443 210.043C134.208 207.363 132.973 181.31 127.83 176.623C122.686 171.937 107.217 162.125 107.217 162.125L115.449 291.8L132.683 343.96C132.683 343.96 141.001 339.989 141.001 335.055Z" fill="#3B82F6"/>
<path opacity="0.15" d="M132.041 175.358C129.762 169.528 112.75 167.664 110.354 163.446V164.737C114.998 168.701 124.341 173.005 127.237 176.654C131.38 181.878 132.572 207.955 134.85 210.073C137.067 222.275 138.926 239.553 138.099 245.728C137.271 251.903 138.58 274.3 140.569 281.104L141.038 276.782C140 269.551 139.735 250.094 139.951 235.866C140.05 229.728 139.099 228.228 138.827 222.281C138.185 209.141 136.839 179.847 132.041 175.358Z" fill="black"/>
<path d="M74.3046 293.776C74.3046 293.776 104.352 300.025 109.996 299.481C114.121 299.086 116.091 299.419 119.018 296.202C123.198 291.608 120.413 287.557 120.413 287.557L126.15 211.506L109.379 162.964C109.379 162.964 97.325 159.333 97.7573 159.333C98.1895 159.333 63.0167 168.454 63.8812 168.886C64.7457 169.318 74.3046 293.776 74.3046 293.776Z" fill="white"/>
<path opacity="0.15" d="M102.179 170.3L92.9778 184.867L83.7709 172.295L72.7485 154.492L73.8662 153.202L84.3884 168.59L92.9778 181.162L101.086 169.417L102.179 170.3Z" fill="black"/>
<path d="M69.3955 159.846C68.1976 159.846 51.2225 165.848 40.7805 169.584C38.5841 170.369 36.7687 171.961 35.7022 174.035C34.6358 176.109 34.3987 178.512 35.0378 180.755L55.0139 251.075L26.4175 335.018C26.1649 335.76 26.0631 336.545 26.1168 337.326C26.1705 338.108 26.3792 338.871 26.7312 339.571C27.0832 340.271 27.5704 340.894 28.1656 341.403C28.7603 341.913 29.4507 342.299 30.1966 342.54L42.6701 346.566C45.1648 347.369 47.8602 347.285 50.2999 346.329C52.7397 345.372 54.7737 343.602 56.0575 341.317L74.7183 303.761C89.0443 288.323 104.031 259.918 104.031 240.158C104.056 193.741 69.3955 159.846 69.3955 159.846Z" fill="#3B82F6"/>
<path d="M51.5312 326.318L58.5028 340.699L67.2157 318.908L51.5312 326.318Z" fill="#FC9D9D"/>
<path d="M35.8961 173.697L16.7166 243.598C13.9996 256.448 15.5927 269.836 21.249 281.691L46.5665 334.685L71.6 320.211L46.7888 265.253L66.7341 173.703" fill="#3B82F6"/>
<path opacity="0.15" d="M46.795 265.247L55.6932 224.406C55.7685 224.038 55.7302 223.655 55.5826 223.309C55.4357 222.963 55.1868 222.67 54.8694 222.47C54.5514 222.268 54.1803 222.169 53.8049 222.184C53.4294 222.199 53.0669 222.328 52.7662 222.553H53.3837C53.0355 222.819 52.7928 223.2 52.6983 223.628L43.5037 266.013L68.9632 321.711L71.5753 320.217L46.795 265.247Z" fill="black"/>
<path d="M68.0061 171.091L73.2178 169.207L63.9553 165.731L66.9872 161.099L73.86 153.202L84.3575 168.584C91.0451 181.551 99.8691 204.967 103.796 233.625L68.0061 171.091Z" fill="#3B82F6"/>
<path d="M107.353 120.845C107.353 120.845 80.2388 103.833 79.1705 124.636L78.7753 130.021L76.9228 157.265C76.9074 158.019 77.1692 158.753 77.6577 159.327L96.479 170.029C96.9483 170.362 101.339 171.264 101.74 170.955L106.501 160.056C106.889 159.725 107.19 159.303 107.375 158.828C107.56 158.353 107.625 157.839 107.563 157.333L105.834 141.185C106.197 139.616 106.376 138.01 106.365 136.399C106.618 128.224 107.353 120.845 107.353 120.845Z" fill="#FC9D9D"/>
<path d="M108.675 122.111C114.257 122.111 118.783 117.585 118.783 112.002C118.783 106.419 114.257 101.894 108.675 101.894C103.092 101.894 98.5662 106.419 98.5662 112.002C98.5662 117.585 103.092 122.111 108.675 122.111Z" fill="black"/>
<path d="M110.398 106.16C110.398 106.16 120.031 146.57 99.2825 149.293C81.338 151.683 79.3496 123.704 79.3496 123.704L80.2141 105.562L110.398 106.16Z" fill="#FC9D9D"/>
<path d="M103.352 89.2843C97.7943 89.2843 92.8543 91.6246 90.125 95.132C89.4352 95.9804 88.533 96.63 87.5098 97.0153C86.4866 97.4001 85.3801 97.5069 84.3019 97.3241C83.6449 97.3006 82.9873 97.3173 82.3321 97.3735C64.3629 98.6085 66.8946 125.494 83.1595 123.309C86.5928 122.845 89.6618 120.419 91.3908 116.559C91.9552 115.283 92.9593 114.253 94.2196 113.656C95.4799 113.059 96.9131 112.934 98.2574 113.305C99.9166 113.764 101.631 113.994 103.352 113.99C111.947 113.99 118.913 108.464 118.913 101.64C118.913 94.817 111.947 89.2843 103.352 89.2843Z" fill="black"/>
<path opacity="0.15" d="M78.6642 131.367C78.6642 131.367 80.3932 131.503 81.3256 130.749L78.3987 135.269L78.6642 131.367Z" fill="black"/>
<path opacity="0.15" d="M107.149 152.547L106.489 146.033C104.76 147.829 99.7765 150.423 94.1387 149.089C91.3069 148.39 88.7702 146.81 86.8954 144.575C86.8615 144.527 86.8183 144.487 86.7676 144.457C86.717 144.427 86.6608 144.408 86.6021 144.402C86.5435 144.396 86.4848 144.401 86.4286 144.42C86.373 144.438 86.3212 144.468 86.2779 144.507C86.2316 144.542 86.1927 144.586 86.1637 144.637C86.1347 144.688 86.1168 144.744 86.1106 144.801C86.1038 144.859 86.1094 144.918 86.1267 144.974C86.1439 145.029 86.1723 145.08 86.21 145.125C88.6491 147.965 92.0639 149.789 95.7813 150.238C97.4238 151.367 99.2769 152.154 101.23 152.551C103.183 152.948 105.197 152.947 107.149 152.547Z" fill="black"/>
<path opacity="0.2" d="M99.2454 141.846C99.2454 141.914 99.1775 141.914 99.2454 141.846L96.7199 142.05C96.5692 142.051 96.4228 141.997 96.3092 141.898C96.1956 141.799 96.1221 141.662 96.1024 141.512C96.0906 141.436 96.0962 141.358 96.1172 141.283C96.1388 141.209 96.1758 141.141 96.2265 141.082C96.2765 141.023 96.3395 140.976 96.4092 140.944C96.4796 140.912 96.5562 140.895 96.6334 140.895L99.1034 140.691C99.175 140.68 99.2479 140.683 99.3183 140.701C99.3887 140.718 99.4548 140.75 99.5122 140.794C99.5702 140.838 99.6184 140.893 99.6542 140.956C99.69 141.019 99.7129 141.088 99.7209 141.16C99.7086 141.58 99.511 141.846 99.2454 141.846Z" fill="black"/>
<path opacity="0.2" d="M100.172 139.456C95.6578 140.117 93.5953 137.659 92.8667 136.467C92.824 136.406 92.795 136.337 92.7808 136.264C92.766 136.191 92.7672 136.117 92.7833 136.044C92.7994 135.972 92.8302 135.903 92.8741 135.843C92.9179 135.783 92.9741 135.733 93.0383 135.696C93.1025 135.659 93.1736 135.635 93.2477 135.626C93.3211 135.618 93.3959 135.625 93.4669 135.647C93.5379 135.67 93.6033 135.706 93.6595 135.755C93.7157 135.804 93.7614 135.863 93.7929 135.93C94.4598 137.128 96.7199 139.722 102.166 137.925C102.298 137.9 102.435 137.919 102.556 137.98C102.676 138.04 102.774 138.138 102.833 138.258C102.858 138.39 102.839 138.527 102.779 138.648C102.718 138.768 102.621 138.865 102.5 138.925C101.742 139.175 100.963 139.352 100.172 139.456Z" fill="black"/>
<path d="M93.7497 127.489C94.6673 127.489 95.4108 126.745 95.4108 125.828C95.4108 124.91 94.6673 124.167 93.7497 124.167C92.8321 124.167 92.0886 124.91 92.0886 125.828C92.0886 126.745 92.8321 127.489 93.7497 127.489Z" fill="black"/>
<path d="M94.4784 126.865C94.6624 126.865 94.8118 126.716 94.8118 126.532C94.8118 126.348 94.6624 126.198 94.4784 126.198C94.2943 126.198 94.1449 126.348 94.1449 126.532C94.1449 126.716 94.2943 126.865 94.4784 126.865Z" fill="white"/>
<path d="M106.909 127.557C107.826 127.557 108.57 126.813 108.57 125.896C108.57 124.979 107.826 124.235 106.909 124.235C105.992 124.235 105.248 124.979 105.248 125.896C105.248 126.813 105.992 127.557 106.909 127.557Z" fill="black"/>
<path d="M107.637 126.933C107.821 126.933 107.971 126.784 107.971 126.6C107.971 126.416 107.821 126.266 107.637 126.266C107.453 126.266 107.304 126.416 107.304 126.6C107.304 126.784 107.453 126.933 107.637 126.933Z" fill="white"/>
<path opacity="0.2" d="M99.7765 134.603L97.5844 134.738C97.4559 134.732 97.3331 134.682 97.2367 134.597C97.1404 134.512 97.0756 134.396 97.0533 134.269C97.0583 134.141 97.1071 134.018 97.1917 133.922C97.2756 133.826 97.3905 133.761 97.5165 133.738L99.7086 133.608C99.9648 133.581 100.2 133.455 100.366 133.257C100.532 133.06 100.614 132.806 100.598 132.549C100.581 132.292 100.466 132.052 100.276 131.877C100.087 131.703 99.8364 131.609 99.5789 131.614C99.4505 131.61 99.3276 131.562 99.2306 131.477C99.1337 131.393 99.0695 131.277 99.0479 131.151C98.9799 130.885 99.2455 130.681 99.511 130.614C100.027 130.589 100.532 130.762 100.926 131.095C101.32 131.428 101.573 131.898 101.635 132.41C101.669 132.945 101.493 133.472 101.147 133.881C100.8 134.289 100.309 134.548 99.7765 134.603Z" fill="black"/>
<path d="M99.5851 177.272C108.669 205.195 113.374 239.639 113.028 281.543L117.227 285.865L120.278 280.647C121.358 239.707 116.375 205.695 107.149 176.537L99.5851 177.272Z" fill="#495057"/>
<path d="M97.3435 172.671L99.5851 177.272L107.137 176.562L108.434 170.306L104.537 167.713L99.5851 168.306L97.3435 172.671Z" fill="#495057"/>
<path opacity="0.15" d="M107.137 176.562L108.434 170.306L104.537 167.713L102.969 167.898L106.581 170.306L105.285 176.562C114.51 205.72 119.487 239.732 118.413 280.672L116.072 284.692L117.227 285.884L120.278 280.648C121.346 239.732 116.363 205.72 107.137 176.562Z" fill="black"/>
<path d="M102.179 167.83L92.9778 181.162L84.3884 168.584L73.8662 153.202L76.8796 148.367L102.179 167.83Z" fill="white" stroke="white" stroke-miterlimit="10"/>
<path d="M107.427 156.203L102.574 167.762L111.62 178.217L109.379 169.01V162.995L107.427 156.203Z" fill="white"/>
<path opacity="0.15" d="M113.145 180.785L103.482 169.714L103.735 169.108L111.62 178.217L109.379 169.016V162.995L109.897 163.588L110.614 169.948L113.145 180.785Z" fill="black"/>
<path d="M109.379 162.995L122.13 168.892L115.757 173.697L123.717 178.217L126.15 211.537L109.379 162.995Z" fill="#3B82F6"/>
<path opacity="0.3" d="M68.0061 171.091L73.2178 169.207L63.9553 165.731L66.9872 161.099L73.86 153.202L84.3575 168.584C91.0451 181.551 99.8691 204.967 103.796 233.625L68.0061 171.091Z" fill="black"/>
<path opacity="0.3" d="M109.379 162.995L122.13 168.892L115.757 173.697L123.717 178.217L126.15 211.537L109.379 162.995Z" fill="black"/>
<path d="M77.0525 130.212L79.3743 120.715L86.8337 131.552L84.4995 142.093L77.0525 130.212ZM79.8312 122.549L77.8738 130.039L84.129 140.129L85.9815 131.737L79.8312 122.549Z" fill="#3B82F6"/>
<path d="M85.7345 130.126C85.7345 130.126 98.6279 133.652 112.417 130.472C112.417 130.472 112.275 143.902 103.383 148.75C103.383 148.75 91.9589 153.072 83.6227 141.167C83.6412 141.167 85.9568 135.307 85.7345 130.126Z" fill="#3B82F6"/>
<path opacity="0.2" d="M84.4131 138.863C85.3122 136.039 85.758 133.09 85.7345 130.126C85.7345 130.126 98.6279 133.652 112.417 130.472C112.417 130.472 112.343 137.369 109.033 143.062C109.02 143.069 96.2876 150.083 84.4131 138.863Z" fill="white"/>
<path opacity="0.2" d="M112.411 130.472L111.793 135.677C111.793 135.677 99.7024 141.235 85.4196 134.726C85.6611 133.379 85.7809 132.013 85.7778 130.644L85.8272 130.144C86.6917 130.379 99.1343 133.534 112.411 130.472Z" fill="white"/>
<path d="M79.7695 120.579C79.7695 120.579 78.4419 116.794 74.4528 118.523C69.9327 120.517 70.8652 130.749 78.5098 131.348C82.4927 131.682 81.6961 129.354 81.0354 126.229L79.7695 120.579Z" fill="#FC9D9D"/>
<path opacity="0.2" d="M74.2552 121.178C74.5615 120.935 74.9129 120.755 75.2895 120.648C75.6656 120.542 76.0596 120.512 76.4474 120.561C76.8191 120.655 77.1661 120.829 77.4644 121.07C77.7626 121.311 78.0053 121.613 78.1764 121.956C78.6648 122.805 78.9161 123.769 78.905 124.747L78.9729 125.612C78.9748 125.674 78.9643 125.735 78.9414 125.792C78.9186 125.849 78.8846 125.901 78.8414 125.945C78.7982 125.989 78.7469 126.024 78.6895 126.047C78.6327 126.071 78.5716 126.082 78.5098 126.081C78.4481 126.082 78.3869 126.071 78.3295 126.047C78.2721 126.024 78.2202 125.989 78.1764 125.945C78.1325 125.902 78.0979 125.849 78.0745 125.792C78.0516 125.735 78.0399 125.674 78.0405 125.612L77.9788 124.747C77.9423 123.938 77.7318 123.146 77.3613 122.425C77.1087 121.974 76.7104 121.621 76.2312 121.425C75.7113 121.382 75.1932 121.525 74.7678 121.826C74.6591 121.888 74.5319 121.908 74.409 121.883C74.2867 121.858 74.1774 121.79 74.1009 121.691C73.965 121.641 74.0576 121.376 74.2552 121.178Z" fill="black"/>
<path d="M111.682 120.851H88.1675C87.5123 120.851 86.8843 121.111 86.4212 121.575C85.9575 122.038 85.6975 122.666 85.6975 123.321V125.235C85.6975 126.117 85.871 126.989 86.2082 127.804C86.546 128.618 87.0399 129.358 87.6636 129.981C88.2867 130.605 89.0264 131.099 89.8409 131.437C90.6554 131.774 91.5286 131.947 92.4097 131.947C93.2909 131.947 94.1641 131.774 94.9785 131.437C95.793 131.099 96.5328 130.605 97.1558 129.981C97.7795 129.358 98.2735 128.618 98.6113 127.804C98.9484 126.989 99.122 126.117 99.122 125.235V123.321C99.1201 122.77 98.9256 122.237 98.5724 121.814H101.178C100.845 122.244 100.675 122.777 100.697 123.321V125.235C100.697 127.015 101.404 128.723 102.663 129.981C103.921 131.24 105.629 131.947 107.409 131.947C109.189 131.947 110.896 131.24 112.155 129.981C113.414 128.723 114.121 127.015 114.121 125.235V123.321C114.121 122.671 113.865 122.048 113.408 121.585C112.952 121.123 112.332 120.859 111.682 120.851ZM98.1895 123.321V125.235C98.1513 126.721 97.5368 128.134 96.476 129.174C95.4145 130.215 93.9905 130.802 92.5042 130.812C91.0179 130.822 89.5865 130.253 88.5121 129.226C87.4376 128.199 86.8047 126.794 86.7473 125.309V123.389C86.7504 122.99 86.9103 122.609 87.1919 122.327C87.4741 122.045 87.8557 121.885 88.254 121.882H96.7508C97.1318 121.884 97.4967 122.036 97.7666 122.306C98.0358 122.575 98.1877 122.94 98.1895 123.321ZM113.189 125.235C113.15 126.721 112.536 128.134 111.475 129.174C110.414 130.215 108.99 130.802 107.503 130.812C106.017 130.822 104.586 130.253 103.511 129.226C102.437 128.199 101.804 126.794 101.746 125.309V123.389C101.749 122.989 101.91 122.607 102.193 122.325C102.477 122.043 102.86 121.884 103.259 121.882H111.75C112.149 121.885 112.53 122.045 112.812 122.327C113.094 122.609 113.253 122.99 113.257 123.389L113.189 125.235Z" fill="#195DBB"/>
<path d="M51.2842 560.931H71.742C72.9399 560.931 73.965 560.147 73.965 559.159V558.541C73.965 558.331 73.965 558.121 73.9341 557.924H49.1106C49.0797 558.269 49.0612 558.609 49.0612 558.949V559.202C49.0612 560.14 50.0307 560.931 51.2842 560.931Z" fill="black"/>
<path d="M786.992 561.647H37.6807C37.6295 561.653 37.577 561.647 37.5276 561.635C37.4775 561.622 37.4319 561.592 37.3929 561.561C37.354 561.524 37.3226 561.48 37.3016 561.437C37.2799 561.388 37.2688 561.338 37.2688 561.283C37.2688 561.233 37.2799 561.184 37.3016 561.135C37.3226 561.091 37.354 561.048 37.3929 561.011C37.4319 560.98 37.4775 560.949 37.5276 560.937C37.577 560.925 37.6295 560.918 37.6807 560.925H787.06C787.11 560.925 787.159 560.931 787.202 560.949C787.245 560.962 787.289 560.993 787.32 561.023C787.357 561.054 787.381 561.097 787.4 561.141C787.418 561.184 787.425 561.233 787.425 561.283C787.412 561.388 787.363 561.487 787.283 561.554C787.202 561.622 787.097 561.653 786.992 561.647Z" fill="#3B82F6"/>
<path opacity="0.6" d="M786.992 561.647H37.6807C37.6295 561.653 37.577 561.647 37.5276 561.635C37.4775 561.622 37.4319 561.592 37.3929 561.561C37.354 561.524 37.3226 561.48 37.3016 561.437C37.2799 561.388 37.2688 561.338 37.2688 561.283C37.2688 561.233 37.2799 561.184 37.3016 561.135C37.3226 561.091 37.354 561.048 37.3929 561.011C37.4319 560.98 37.4775 560.949 37.5276 560.937C37.577 560.925 37.6295 560.918 37.6807 560.925H787.06C787.11 560.925 787.159 560.931 787.202 560.949C787.245 560.962 787.289 560.993 787.32 561.023C787.357 561.054 787.381 561.097 787.4 561.141C787.418 561.184 787.425 561.233 787.425 561.283C787.412 561.388 787.363 561.487 787.283 561.554C787.202 561.622 787.097 561.653 786.992 561.647Z" fill="white"/>
</svg>
